%TF.GenerationSoftware,KiCad,Pcbnew,9.0.7*%
%TF.CreationDate,2026-07-20T11:46:50+02:00*%
%TF.ProjectId,drone,64726f6e-652e-46b6-9963-61645f706362,rev?*%
%TF.SameCoordinates,Original*%
%TF.FileFunction,Profile,NP*%
%FSLAX46Y46*%
G04 Gerber Fmt 4.6, Leading zero omitted, Abs format (unit mm)*
G04 Created by KiCad (PCBNEW 9.0.7) date 2026-07-20 11:46:50*
%MOMM*%
%LPD*%
G01*
G04 APERTURE LIST*
%TA.AperFunction,Profile*%
%ADD10C,0.050000*%
%TD*%
G04 APERTURE END LIST*
D10*
X136397016Y-58723699D02*
X120328449Y-72062338D01*
X80929454Y-112059032D02*
X67285828Y-127809835D01*
X67248699Y-61538951D02*
X70084198Y-58731737D01*
X67248699Y-61538951D02*
X80587338Y-77607518D01*
X136397016Y-58723699D02*
X139204230Y-61559198D01*
X124750967Y-82235000D02*
X124750258Y-107133182D01*
X63161622Y-59983316D02*
X81709033Y-82235967D01*
X81709033Y-82235967D02*
X81739091Y-107134033D01*
X120624999Y-116994637D02*
X136375802Y-130638263D01*
X137952651Y-54636622D02*
G75*
G02*
X143298378Y-59982349I5501289J155562D01*
G01*
X90760000Y-73185000D02*
X68507349Y-54637589D01*
X81739091Y-107134033D02*
X63191680Y-129386684D01*
X68537407Y-134732411D02*
G75*
G02*
X63191680Y-129386683I-5501287J-155559D01*
G01*
X125560604Y-77310001D02*
X139204230Y-61559198D01*
X70093042Y-130645334D02*
X86161609Y-117306695D01*
X124750967Y-82235000D02*
X143298378Y-59982349D01*
X70093042Y-130645334D02*
X67285828Y-127809835D01*
X115700000Y-116185000D02*
X137952651Y-134732411D01*
X137952651Y-54636622D02*
X115700000Y-73184033D01*
X63161622Y-59983316D02*
G75*
G02*
X68507346Y-54637589I-155562J5501286D01*
G01*
X80585453Y-77609403D02*
X85835001Y-72375363D01*
X90790058Y-116185000D02*
X115700000Y-116185000D01*
X125874547Y-111760597D02*
X120624999Y-116994637D01*
X90760000Y-73185000D02*
X115700000Y-73184033D01*
X66506059Y-54482026D02*
G75*
G02*
X59506059Y-54482026I-3500000J0D01*
G01*
X59506059Y-54482026D02*
G75*
G02*
X66506059Y-54482026I3500000J0D01*
G01*
X66536117Y-134887974D02*
G75*
G02*
X59536117Y-134887974I-3500000J0D01*
G01*
X59536117Y-134887974D02*
G75*
G02*
X66536117Y-134887974I3500000J0D01*
G01*
X143298378Y-129386684D02*
G75*
G02*
X137952654Y-134732411I155562J-5501286D01*
G01*
X139211301Y-127831049D02*
X125872662Y-111762482D01*
X139211301Y-127831049D02*
X136375802Y-130638263D01*
X85835001Y-72375363D02*
X70084198Y-58731737D01*
X68537407Y-134732411D02*
X90790058Y-116185000D01*
X146953941Y-54481059D02*
G75*
G02*
X139953941Y-54481059I-3500000J0D01*
G01*
X139953941Y-54481059D02*
G75*
G02*
X146953941Y-54481059I3500000J0D01*
G01*
X143298378Y-129386684D02*
X124750967Y-107134033D01*
X120326564Y-72060453D02*
X125560604Y-77310001D01*
X146953941Y-134887974D02*
G75*
G02*
X139953941Y-134887974I-3500000J0D01*
G01*
X139953941Y-134887974D02*
G75*
G02*
X146953941Y-134887974I3500000J0D01*
G01*
X86163494Y-117308580D02*
X80929454Y-112059032D01*
M02*
