M48
; DRILL file {KiCad 9.0.7} date 2026-07-20T11:46:55+0200
; FORMAT={-:-/ absolute / metric / decimal}
; #@! TF.CreationDate,2026-07-20T11:46:55+02:00
; #@! TF.GenerationSoftware,Kicad,Pcbnew,9.0.7
; #@! TF.FileFunction,Plated,1,2,PTH
FMAT,2
METRIC
; #@! TA.AperFunction,Plated,PTH,ViaDrill
T1C0.300
; #@! TA.AperFunction,Plated,PTH,ComponentDrill
T2C0.750
; #@! TA.AperFunction,Plated,PTH,ComponentDrill
T3C1.000
%
G90
G05
T1
X83.48Y-86.255
X96.03Y-107.75
X96.14Y-98.085
X106.02Y-97.485
X117.28Y-91.49
X117.54Y-85.615
X121.44Y-94.2
X121.64Y-89.6
X122.31Y-87.19
X122.38Y-92.19
T2
X88.29Y-101.115
X88.29Y-103.115
T3
X83.44Y-76.945
X83.952Y-112.592
X85.208Y-75.177
X85.72Y-114.36
X91.74Y-77.125
X91.74Y-79.665
X91.74Y-82.205
X91.74Y-84.745
X91.74Y-87.285
X91.74Y-89.825
X91.74Y-92.365
X91.74Y-94.905
X94.11Y-113.825
X94.28Y-77.125
X94.28Y-79.665
X94.28Y-82.205
X94.28Y-84.745
X94.28Y-87.285
X94.28Y-89.825
X94.28Y-92.365
X94.28Y-94.905
X96.65Y-113.825
X99.19Y-113.825
X101.73Y-113.825
X104.27Y-113.825
X106.81Y-113.825
X109.35Y-113.825
X111.89Y-113.825
X112.14Y-77.125
X112.14Y-79.665
X112.14Y-82.205
X112.14Y-84.745
X112.14Y-87.285
X112.14Y-89.825
X112.14Y-92.365
X112.14Y-94.905
X114.68Y-77.125
X114.68Y-79.665
X114.68Y-82.205
X114.68Y-84.745
X114.68Y-87.285
X114.68Y-89.825
X114.68Y-92.365
X114.68Y-94.905
X120.752Y-74.802
X121.082Y-113.978
X122.52Y-76.57
X122.85Y-112.21
M30
