%TF.GenerationSoftware,KiCad,Pcbnew,9.0.7*%
%TF.CreationDate,2026-07-20T11:46:49+02:00*%
%TF.ProjectId,drone,64726f6e-652e-46b6-9963-61645f706362,rev?*%
%TF.SameCoordinates,Original*%
%TF.FileFunction,Paste,Top*%
%TF.FilePolarity,Positive*%
%FSLAX46Y46*%
G04 Gerber Fmt 4.6, Leading zero omitted, Abs format (unit mm)*
G04 Created by KiCad (PCBNEW 9.0.7) date 2026-07-20 11:46:49*
%MOMM*%
%LPD*%
G01*
G04 APERTURE LIST*
G04 Aperture macros list*
%AMRoundRect*
0 Rectangle with rounded corners*
0 $1 Rounding radius*
0 $2 $3 $4 $5 $6 $7 $8 $9 X,Y pos of 4 corners*
0 Add a 4 corners polygon primitive as box body*
4,1,4,$2,$3,$4,$5,$6,$7,$8,$9,$2,$3,0*
0 Add four circle primitives for the rounded corners*
1,1,$1+$1,$2,$3*
1,1,$1+$1,$4,$5*
1,1,$1+$1,$6,$7*
1,1,$1+$1,$8,$9*
0 Add four rect primitives between the rounded corners*
20,1,$1+$1,$2,$3,$4,$5,0*
20,1,$1+$1,$4,$5,$6,$7,0*
20,1,$1+$1,$6,$7,$8,$9,0*
20,1,$1+$1,$8,$9,$2,$3,0*%
G04 Aperture macros list end*
%ADD10RoundRect,0.079500X0.100500X-0.079500X0.100500X0.079500X-0.100500X0.079500X-0.100500X-0.079500X0*%
%ADD11RoundRect,0.150000X0.587500X0.150000X-0.587500X0.150000X-0.587500X-0.150000X0.587500X-0.150000X0*%
%ADD12RoundRect,0.079500X-0.079500X-0.100500X0.079500X-0.100500X0.079500X0.100500X-0.079500X0.100500X0*%
%ADD13RoundRect,0.150000X-0.587500X-0.150000X0.587500X-0.150000X0.587500X0.150000X-0.587500X0.150000X0*%
%ADD14RoundRect,0.079500X0.079500X0.100500X-0.079500X0.100500X-0.079500X-0.100500X0.079500X-0.100500X0*%
%ADD15RoundRect,0.112500X-0.112500X0.187500X-0.112500X-0.187500X0.112500X-0.187500X0.112500X0.187500X0*%
%ADD16RoundRect,0.079500X-0.100500X0.079500X-0.100500X-0.079500X0.100500X-0.079500X0.100500X0.079500X0*%
%ADD17RoundRect,0.150000X-0.150000X0.587500X-0.150000X-0.587500X0.150000X-0.587500X0.150000X0.587500X0*%
%ADD18RoundRect,0.045000X-0.630000X-0.255000X0.630000X-0.255000X0.630000X0.255000X-0.630000X0.255000X0*%
G04 APERTURE END LIST*
D10*
%TO.C,C7*%
X90320000Y-106580000D03*
X90320000Y-105890000D03*
%TD*%
%TO.C,D9*%
X123950000Y-93810000D03*
X123950000Y-93120000D03*
%TD*%
D11*
%TO.C,Q3*%
X92300000Y-111095000D03*
X92300000Y-109195000D03*
X90425000Y-110145000D03*
%TD*%
D12*
%TO.C,R9*%
X117210000Y-83435000D03*
X117900000Y-83435000D03*
%TD*%
D11*
%TO.C,Q1*%
X87377500Y-83485000D03*
X87377500Y-81585000D03*
X85502500Y-82535000D03*
%TD*%
D12*
%TO.C,R14*%
X87415000Y-87645000D03*
X88105000Y-87645000D03*
%TD*%
%TO.C,R10*%
X95235000Y-110840000D03*
X95925000Y-110840000D03*
%TD*%
%TO.C,R8*%
X88855000Y-82085000D03*
X89545000Y-82085000D03*
%TD*%
D13*
%TO.C,Q2*%
X118200000Y-80285000D03*
X118200000Y-82185000D03*
X120075000Y-81235000D03*
%TD*%
D14*
%TO.C,C9*%
X97565000Y-100570000D03*
X96875000Y-100570000D03*
%TD*%
D10*
%TO.C,C6*%
X88670000Y-106350000D03*
X88670000Y-105660000D03*
%TD*%
D15*
%TO.C,D1*%
X92200000Y-100357500D03*
X92200000Y-102457500D03*
%TD*%
D16*
%TO.C,R16*%
X91620000Y-105815000D03*
X91620000Y-106505000D03*
%TD*%
D12*
%TO.C,R22*%
X120855000Y-88695000D03*
X121545000Y-88695000D03*
%TD*%
D17*
%TO.C,Q4*%
X116760000Y-108340000D03*
X114860000Y-108340000D03*
X115810000Y-110215000D03*
%TD*%
D14*
%TO.C,R15*%
X85175000Y-87665000D03*
X84485000Y-87665000D03*
%TD*%
D12*
%TO.C,R24*%
X122235000Y-95045000D03*
X122925000Y-95045000D03*
%TD*%
%TO.C,R23*%
X120885000Y-91385000D03*
X121575000Y-91385000D03*
%TD*%
D10*
%TO.C,D8*%
X123910000Y-91190000D03*
X123910000Y-90500000D03*
%TD*%
D14*
%TO.C,C8*%
X98555000Y-99070000D03*
X97865000Y-99070000D03*
%TD*%
D12*
%TO.C,R11*%
X119485000Y-105605000D03*
X120175000Y-105605000D03*
%TD*%
%TO.C,R21*%
X121295000Y-86295000D03*
X121985000Y-86295000D03*
%TD*%
D10*
%TO.C,D6*%
X123930000Y-85800000D03*
X123930000Y-85110000D03*
%TD*%
%TO.C,D7*%
X123940000Y-88460000D03*
X123940000Y-87770000D03*
%TD*%
D18*
%TO.C,U5*%
X94670000Y-104025000D03*
X94670000Y-104975000D03*
X94670000Y-105925000D03*
X97040000Y-105925000D03*
X97040000Y-104025000D03*
%TD*%
M02*
