%TF.GenerationSoftware,KiCad,Pcbnew,9.0.7*%
%TF.CreationDate,2026-07-20T11:46:49+02:00*%
%TF.ProjectId,drone,64726f6e-652e-46b6-9963-61645f706362,rev?*%
%TF.SameCoordinates,Original*%
%TF.FileFunction,Copper,L2,Bot*%
%TF.FilePolarity,Positive*%
%FSLAX46Y46*%
G04 Gerber Fmt 4.6, Leading zero omitted, Abs format (unit mm)*
G04 Created by KiCad (PCBNEW 9.0.7) date 2026-07-20 11:46:49*
%MOMM*%
%LPD*%
G01*
G04 APERTURE LIST*
G04 Aperture macros list*
%AMRoundRect*
0 Rectangle with rounded corners*
0 $1 Rounding radius*
0 $2 $3 $4 $5 $6 $7 $8 $9 X,Y pos of 4 corners*
0 Add a 4 corners polygon primitive as box body*
4,1,4,$2,$3,$4,$5,$6,$7,$8,$9,$2,$3,0*
0 Add four circle primitives for the rounded corners*
1,1,$1+$1,$2,$3*
1,1,$1+$1,$4,$5*
1,1,$1+$1,$6,$7*
1,1,$1+$1,$8,$9*
0 Add four rect primitives between the rounded corners*
20,1,$1+$1,$2,$3,$4,$5,0*
20,1,$1+$1,$4,$5,$6,$7,0*
20,1,$1+$1,$6,$7,$8,$9,0*
20,1,$1+$1,$8,$9,$2,$3,0*%
%AMHorizOval*
0 Thick line with rounded ends*
0 $1 width*
0 $2 $3 position (X,Y) of the first rounded end (center of the circle)*
0 $4 $5 position (X,Y) of the second rounded end (center of the circle)*
0 Add line between two ends*
20,1,$1,$2,$3,$4,$5,0*
0 Add two circle primitives to create the rounded ends*
1,1,$1,$2,$3*
1,1,$1,$4,$5*%
G04 Aperture macros list end*
%TA.AperFunction,ComponentPad*%
%ADD10RoundRect,0.250000X-0.625000X0.350000X-0.625000X-0.350000X0.625000X-0.350000X0.625000X0.350000X0*%
%TD*%
%TA.AperFunction,ComponentPad*%
%ADD11O,1.750000X1.200000*%
%TD*%
%TA.AperFunction,ComponentPad*%
%ADD12R,1.700000X1.700000*%
%TD*%
%TA.AperFunction,ComponentPad*%
%ADD13C,1.700000*%
%TD*%
%TA.AperFunction,ComponentPad*%
%ADD14RoundRect,0.250000X0.106066X-0.954594X0.954594X-0.106066X-0.106066X0.954594X-0.954594X0.106066X0*%
%TD*%
%TA.AperFunction,ComponentPad*%
%ADD15HorizOval,1.700000X-0.106066X0.106066X0.106066X-0.106066X0*%
%TD*%
%TA.AperFunction,ComponentPad*%
%ADD16RoundRect,0.250000X-0.954594X-0.106066X-0.106066X-0.954594X0.954594X0.106066X0.106066X0.954594X0*%
%TD*%
%TA.AperFunction,ComponentPad*%
%ADD17HorizOval,1.700000X-0.106066X-0.106066X0.106066X0.106066X0*%
%TD*%
%TA.AperFunction,ComponentPad*%
%ADD18RoundRect,0.250000X0.954594X0.106066X0.106066X0.954594X-0.954594X-0.106066X-0.106066X-0.954594X0*%
%TD*%
%TA.AperFunction,ComponentPad*%
%ADD19HorizOval,1.700000X0.106066X0.106066X-0.106066X-0.106066X0*%
%TD*%
%TA.AperFunction,ComponentPad*%
%ADD20RoundRect,0.250000X-0.106066X0.954594X-0.954594X0.106066X0.106066X-0.954594X0.954594X-0.106066X0*%
%TD*%
%TA.AperFunction,ViaPad*%
%ADD21C,0.600000*%
%TD*%
%TA.AperFunction,Conductor*%
%ADD22C,0.200000*%
%TD*%
%TA.AperFunction,Conductor*%
%ADD23C,1.000000*%
%TD*%
G04 APERTURE END LIST*
D10*
%TO.P,J23,1,Pin_1*%
%TO.N,GND*%
X88290000Y-101115000D03*
D11*
%TO.P,J23,2,Pin_2*%
%TO.N,VBAT*%
X88290000Y-103115000D03*
%TD*%
D12*
%TO.P,J1,1,Pin_1*%
%TO.N,MOT_2*%
X114680000Y-77125000D03*
D13*
%TO.P,J1,2,Pin_2*%
%TO.N,unconnected-(J1-Pin_2-Pad2)*%
X112140000Y-77125000D03*
%TO.P,J1,3,Pin_3*%
%TO.N,unconnected-(J1-Pin_3-Pad3)*%
X114680000Y-79665000D03*
%TO.P,J1,4,Pin_4*%
%TO.N,unconnected-(J1-Pin_4-Pad4)*%
X112140000Y-79665000D03*
%TO.P,J1,5,Pin_5*%
%TO.N,LED_R*%
X114680000Y-82205000D03*
%TO.P,J1,6,Pin_6*%
%TO.N,unconnected-(J1-Pin_6-Pad6)*%
X112140000Y-82205000D03*
%TO.P,J1,7,Pin_7*%
%TO.N,LED_G*%
X114680000Y-84745000D03*
%TO.P,J1,8,Pin_8*%
%TO.N,unconnected-(J1-Pin_8-Pad8)*%
X112140000Y-84745000D03*
%TO.P,J1,9,Pin_9*%
%TO.N,LED_B*%
X114680000Y-87285000D03*
%TO.P,J1,10,Pin_10*%
%TO.N,unconnected-(J1-Pin_10-Pad10)*%
X112140000Y-87285000D03*
%TO.P,J1,11,Pin_11*%
%TO.N,MOT_4*%
X114680000Y-89825000D03*
%TO.P,J1,12,Pin_12*%
%TO.N,GY_SCL*%
X112140000Y-89825000D03*
%TO.P,J1,13,Pin_13*%
%TO.N,GND*%
X114680000Y-92365000D03*
%TO.P,J1,14,Pin_14*%
X112140000Y-92365000D03*
%TO.P,J1,15,Pin_15*%
%TO.N,VDD33*%
X114680000Y-94905000D03*
%TO.P,J1,16,Pin_16*%
%TO.N,GY_SDA*%
X112140000Y-94905000D03*
%TD*%
D12*
%TO.P,J2,1,Pin_1*%
%TO.N,unconnected-(J2-Pin_1-Pad1)*%
X94110000Y-113825000D03*
D13*
%TO.P,J2,2,Pin_2*%
%TO.N,VDD33*%
X96650000Y-113825000D03*
%TO.P,J2,3,Pin_3*%
%TO.N,GND*%
X99190000Y-113825000D03*
%TO.P,J2,4,Pin_4*%
%TO.N,GY_SCL*%
X101730000Y-113825000D03*
%TO.P,J2,5,Pin_5*%
%TO.N,GY_SDA*%
X104270000Y-113825000D03*
%TO.P,J2,6,Pin_6*%
%TO.N,unconnected-(J2-Pin_6-Pad6)*%
X106810000Y-113825000D03*
%TO.P,J2,7,Pin_7*%
%TO.N,unconnected-(J2-Pin_7-Pad7)*%
X109350000Y-113825000D03*
%TO.P,J2,8,Pin_8*%
%TO.N,unconnected-(J2-Pin_8-Pad8)*%
X111890000Y-113825000D03*
%TD*%
D12*
%TO.P,J6,1,Pin_1*%
%TO.N,unconnected-(J6-Pin_1-Pad1)*%
X94280000Y-77125000D03*
D13*
%TO.P,J6,2,Pin_2*%
%TO.N,ESP_EN*%
X91740000Y-77125000D03*
%TO.P,J6,3,Pin_3*%
%TO.N,unconnected-(J6-Pin_3-Pad3)*%
X94280000Y-79665000D03*
%TO.P,J6,4,Pin_4*%
%TO.N,MOT_1*%
X91740000Y-79665000D03*
%TO.P,J6,5,Pin_5*%
%TO.N,unconnected-(J6-Pin_5-Pad5)*%
X94280000Y-82205000D03*
%TO.P,J6,6,Pin_6*%
%TO.N,unconnected-(J6-Pin_6-Pad6)*%
X91740000Y-82205000D03*
%TO.P,J6,7,Pin_7*%
%TO.N,unconnected-(J6-Pin_7-Pad7)*%
X94280000Y-84745000D03*
%TO.P,J6,8,Pin_8*%
%TO.N,unconnected-(J6-Pin_8-Pad8)*%
X91740000Y-84745000D03*
%TO.P,J6,9,Pin_9*%
%TO.N,unconnected-(J6-Pin_9-Pad9)*%
X94280000Y-87285000D03*
%TO.P,J6,10,Pin_10*%
%TO.N,unconnected-(J6-Pin_10-Pad10)*%
X91740000Y-87285000D03*
%TO.P,J6,11,Pin_11*%
%TO.N,unconnected-(J6-Pin_11-Pad11)*%
X94280000Y-89825000D03*
%TO.P,J6,12,Pin_12*%
%TO.N,ADC_BAT*%
X91740000Y-89825000D03*
%TO.P,J6,13,Pin_13*%
%TO.N,unconnected-(J6-Pin_13-Pad13)*%
X94280000Y-92365000D03*
%TO.P,J6,14,Pin_14*%
%TO.N,unconnected-(J6-Pin_14-Pad14)*%
X91740000Y-92365000D03*
%TO.P,J6,15,Pin_15*%
%TO.N,unconnected-(J6-Pin_15-Pad15)*%
X94280000Y-94905000D03*
%TO.P,J6,16,Pin_16*%
%TO.N,MOT_3*%
X91740000Y-94905000D03*
%TD*%
D14*
%TO.P,J4,1,Pin_1*%
%TO.N,Net-(J4-Pin_1)*%
X83440000Y-76945000D03*
D15*
%TO.P,J4,2,Pin_2*%
%TO.N,VBAT*%
X85207767Y-75177233D03*
%TD*%
D16*
%TO.P,J11,1,Pin_1*%
%TO.N,VBAT*%
X120752233Y-74802233D03*
D17*
%TO.P,J11,2,Pin_2*%
%TO.N,Net-(J11-Pin_2)*%
X122520000Y-76570000D03*
%TD*%
D18*
%TO.P,J16,1,Pin_1*%
%TO.N,Net-(J16-Pin_1)*%
X85720000Y-114360000D03*
D19*
%TO.P,J16,2,Pin_2*%
%TO.N,VBAT*%
X83952233Y-112592233D03*
%TD*%
D20*
%TO.P,J21,1,Pin_1*%
%TO.N,VBAT*%
X122850000Y-112210000D03*
D15*
%TO.P,J21,2,Pin_2*%
%TO.N,Net-(J21-Pin_2)*%
X121082233Y-113977767D03*
%TD*%
D21*
%TO.N,GND*%
X122380000Y-92190000D03*
X122310000Y-87190000D03*
X121640000Y-89600000D03*
X121440000Y-94200000D03*
%TO.N,VBAT*%
X83480000Y-86255000D03*
%TO.N,VSYS*%
X96140000Y-98085000D03*
X117540000Y-85615000D03*
%TO.N,VDD33*%
X106020000Y-97485000D03*
%TO.N,LED_B*%
X117280000Y-91490000D03*
%TO.N,MOT_3*%
X96030000Y-107750000D03*
%TD*%
D22*
%TO.N,GND*%
X122380000Y-92190000D02*
X122380000Y-93260000D01*
X122380000Y-93260000D02*
X121440000Y-94200000D01*
X121640000Y-89600000D02*
X121640000Y-91450000D01*
X121640000Y-89600000D02*
X122310000Y-88930000D01*
X122310000Y-88930000D02*
X122310000Y-87190000D01*
X121640000Y-91450000D02*
X122380000Y-92190000D01*
D23*
%TO.N,VBAT*%
X83480000Y-82015000D02*
X86440000Y-79055000D01*
X86440000Y-79055000D02*
X86440000Y-76409466D01*
X86762233Y-109727233D02*
X88365000Y-111330000D01*
X88290000Y-103115000D02*
X88290000Y-108199466D01*
X83480000Y-99630000D02*
X83480000Y-86255000D01*
X120235000Y-111330000D02*
X121095000Y-110470000D01*
X86762233Y-109727233D02*
X83952233Y-112537233D01*
X88290000Y-103115000D02*
X86965000Y-103115000D01*
X119480000Y-76074466D02*
X120752233Y-74802233D01*
X83480000Y-86255000D02*
X83480000Y-82015000D01*
X119480000Y-108855000D02*
X119480000Y-76074466D01*
X121095000Y-110470000D02*
X122835000Y-112210000D01*
X83952233Y-112537233D02*
X83952233Y-112592233D01*
X121095000Y-110470000D02*
X119480000Y-108855000D01*
X86440000Y-76409466D02*
X85207767Y-75177233D01*
X88365000Y-111330000D02*
X120235000Y-111330000D01*
X120970000Y-75020000D02*
X120752233Y-74802233D01*
X122835000Y-112210000D02*
X122850000Y-112210000D01*
X86965000Y-103115000D02*
X83480000Y-99630000D01*
X88290000Y-108199466D02*
X86762233Y-109727233D01*
D22*
%TO.N,VSYS*%
X113825000Y-99540000D02*
X97595000Y-99540000D01*
X97595000Y-99540000D02*
X96140000Y-98085000D01*
X118120000Y-95245000D02*
X113825000Y-99540000D01*
X118120000Y-86195000D02*
X118120000Y-95245000D01*
X117540000Y-85615000D02*
X118120000Y-86195000D01*
D23*
%TO.N,VDD33*%
X114680000Y-94905000D02*
X112100000Y-97485000D01*
X112100000Y-97485000D02*
X106020000Y-97485000D01*
%TO.N,ESP_EN*%
X91470000Y-77125000D02*
X91740000Y-77125000D01*
D22*
%TO.N,MOT_3*%
X95940000Y-107660000D02*
X95940000Y-99105000D01*
X96030000Y-107750000D02*
X95940000Y-107660000D01*
X95940000Y-99105000D02*
X91740000Y-94905000D01*
%TD*%
%TA.AperFunction,Conductor*%
%TO.N,GND*%
G36*
X86805566Y-110777070D02*
G01*
X86849913Y-110805571D01*
X87918454Y-111874112D01*
X88033192Y-111950777D01*
X88160667Y-112003578D01*
X88160672Y-112003580D01*
X88160676Y-112003580D01*
X88160677Y-112003581D01*
X88296003Y-112030500D01*
X88296006Y-112030500D01*
X120303996Y-112030500D01*
X120395040Y-112012389D01*
X120439328Y-112003580D01*
X120564431Y-111951761D01*
X120566807Y-111950777D01*
X120566808Y-111950776D01*
X120566811Y-111950775D01*
X120681543Y-111874114D01*
X121007319Y-111548338D01*
X121068642Y-111514853D01*
X121138333Y-111519837D01*
X121182681Y-111548338D01*
X121444628Y-111810285D01*
X121478113Y-111871608D01*
X121473129Y-111941300D01*
X121468670Y-111951761D01*
X121460058Y-111969646D01*
X121439817Y-112103934D01*
X121460058Y-112238220D01*
X121460058Y-112238223D01*
X121518978Y-112360572D01*
X121518981Y-112360577D01*
X121529449Y-112373211D01*
X121538482Y-112384114D01*
X121538491Y-112384123D01*
X121538499Y-112384132D01*
X122675867Y-113521500D01*
X122675876Y-113521508D01*
X122675886Y-113521518D01*
X122687391Y-113531050D01*
X122699422Y-113541018D01*
X122699427Y-113541021D01*
X122793316Y-113586235D01*
X122821779Y-113599942D01*
X122956066Y-113620183D01*
X122988391Y-113615310D01*
X123057613Y-113624782D01*
X123110728Y-113670175D01*
X123130869Y-113737079D01*
X123111642Y-113804251D01*
X123094424Y-113825736D01*
X122733207Y-114185886D01*
X122407555Y-114510577D01*
X122404892Y-114513232D01*
X122343519Y-114546626D01*
X122273835Y-114541539D01*
X122217963Y-114499585D01*
X122193643Y-114434084D01*
X122197899Y-114396359D01*
X122197241Y-114396228D01*
X122238798Y-114187302D01*
X122238799Y-114187299D01*
X122238799Y-113980367D01*
X122238798Y-113980363D01*
X122220988Y-113890826D01*
X122198429Y-113777413D01*
X122119240Y-113586235D01*
X122004276Y-113414178D01*
X122004274Y-113414175D01*
X122004273Y-113414174D01*
X121645825Y-113055727D01*
X121645821Y-113055724D01*
X121473771Y-112940763D01*
X121473762Y-112940758D01*
X121282587Y-112861571D01*
X121282579Y-112861569D01*
X121079636Y-112821201D01*
X121079632Y-112821201D01*
X120872702Y-112821201D01*
X120872697Y-112821201D01*
X120669754Y-112861569D01*
X120669746Y-112861571D01*
X120478571Y-112940758D01*
X120478562Y-112940763D01*
X120306512Y-113055724D01*
X120306508Y-113055727D01*
X120160193Y-113202042D01*
X120160190Y-113202046D01*
X120045229Y-113374096D01*
X120045224Y-113374105D01*
X119966037Y-113565280D01*
X119966035Y-113565288D01*
X119925667Y-113768231D01*
X119925667Y-113975170D01*
X119966035Y-114178113D01*
X119966037Y-114178121D01*
X120045224Y-114369296D01*
X120045229Y-114369305D01*
X120160190Y-114541355D01*
X120160193Y-114541359D01*
X120518640Y-114899807D01*
X120518641Y-114899808D01*
X120518644Y-114899810D01*
X120690701Y-115014774D01*
X120881879Y-115093963D01*
X121072095Y-115131799D01*
X121084829Y-115134332D01*
X121084833Y-115134333D01*
X121084834Y-115134333D01*
X121291765Y-115134333D01*
X121291766Y-115134332D01*
X121352926Y-115122167D01*
X121500694Y-115092775D01*
X121501166Y-115095149D01*
X121560333Y-115094586D01*
X121619468Y-115131799D01*
X121649097Y-115195075D01*
X121639813Y-115264325D01*
X121614084Y-115301702D01*
X120313477Y-116598467D01*
X120305161Y-116606757D01*
X120289834Y-116617136D01*
X120258677Y-116653103D01*
X120255459Y-116656312D01*
X120255460Y-116656312D01*
X120224955Y-116686728D01*
X120224951Y-116686733D01*
X120221555Y-116692595D01*
X120221556Y-116692596D01*
X120215672Y-116702752D01*
X120203551Y-116716746D01*
X120182760Y-116759561D01*
X120180493Y-116763475D01*
X120158893Y-116800761D01*
X120158891Y-116800766D01*
X120157128Y-116807303D01*
X120157129Y-116807304D01*
X120154074Y-116818638D01*
X120145987Y-116835294D01*
X120136986Y-116882032D01*
X120135806Y-116886412D01*
X120124596Y-116928005D01*
X120124586Y-116934792D01*
X120124584Y-116936316D01*
X120124569Y-116946520D01*
X120121069Y-116964700D01*
X120124471Y-117012177D01*
X120124465Y-117016712D01*
X120124401Y-117059787D01*
X120126145Y-117066331D01*
X120130006Y-117089383D01*
X120130490Y-117096145D01*
X120130491Y-117096148D01*
X120144586Y-117136855D01*
X120146072Y-117141148D01*
X120158322Y-117187133D01*
X120167553Y-117203177D01*
X120171392Y-117214263D01*
X120173611Y-117220671D01*
X120173617Y-117220682D01*
X120192176Y-117248094D01*
X120213461Y-117314642D01*
X120195389Y-117382134D01*
X120174253Y-117408125D01*
X119206396Y-118314442D01*
X119144007Y-118345896D01*
X119074517Y-118338627D01*
X119042248Y-118319182D01*
X118364774Y-117754513D01*
X116042183Y-115818651D01*
X116042183Y-115818650D01*
X116037865Y-115815051D01*
X116007314Y-115784500D01*
X115987452Y-115773032D01*
X115979277Y-115766219D01*
X115979271Y-115766215D01*
X115969833Y-115758348D01*
X115969830Y-115758346D01*
X115969828Y-115758345D01*
X115935713Y-115742574D01*
X115925752Y-115737410D01*
X115893186Y-115718608D01*
X115881308Y-115715425D01*
X115881308Y-115715424D01*
X115871025Y-115712668D01*
X115850212Y-115703047D01*
X115807631Y-115695683D01*
X115802204Y-115694229D01*
X115802203Y-115694228D01*
X115765897Y-115684500D01*
X115765892Y-115684500D01*
X115753599Y-115684500D01*
X115732474Y-115682687D01*
X115720356Y-115680592D01*
X115682917Y-115683992D01*
X115671702Y-115684500D01*
X90812735Y-115684500D01*
X90769702Y-115680592D01*
X90747102Y-115684500D01*
X90724160Y-115684500D01*
X90687852Y-115694229D01*
X90676890Y-115696640D01*
X90639846Y-115703045D01*
X90639846Y-115703046D01*
X90628683Y-115708205D01*
X90628684Y-115708206D01*
X90619020Y-115712673D01*
X90596872Y-115718608D01*
X90559460Y-115740206D01*
X90554359Y-115742565D01*
X90554355Y-115742568D01*
X90520227Y-115758347D01*
X90520219Y-115758352D01*
X90510775Y-115766223D01*
X90493394Y-115778350D01*
X90482744Y-115784499D01*
X90456155Y-115811087D01*
X90447868Y-115818655D01*
X87220092Y-118508980D01*
X87155991Y-118536782D01*
X87087036Y-118525514D01*
X87051054Y-118499399D01*
X86874298Y-118314442D01*
X86464984Y-117886137D01*
X86461437Y-117879275D01*
X86455256Y-117874634D01*
X86445616Y-117848673D01*
X86432899Y-117824074D01*
X86433625Y-117816378D01*
X86430935Y-117809134D01*
X86436860Y-117782085D01*
X86439462Y-117754513D01*
X86444610Y-117746710D01*
X86445887Y-117740883D01*
X86467079Y-117712660D01*
X86470213Y-117709535D01*
X86470215Y-117709534D01*
X86517379Y-117662506D01*
X86525741Y-117654898D01*
X86531991Y-117649711D01*
X86536091Y-117645283D01*
X86543763Y-117636201D01*
X86563538Y-117616486D01*
X86599611Y-117554218D01*
X86608148Y-117542164D01*
X86610892Y-117534746D01*
X86629600Y-117502455D01*
X86647740Y-117435153D01*
X86653876Y-117418569D01*
X86654751Y-117409141D01*
X86663896Y-117375213D01*
X86663993Y-117309581D01*
X86666057Y-117287348D01*
X86664043Y-117275563D01*
X86664091Y-117243428D01*
X86648644Y-117185438D01*
X86643862Y-117157447D01*
X86637508Y-117143631D01*
X86635703Y-117136855D01*
X86634777Y-117133376D01*
X86634776Y-117133374D01*
X86630172Y-117116089D01*
X86630171Y-117116084D01*
X86630168Y-117116078D01*
X86606437Y-117074834D01*
X86603614Y-117069928D01*
X86588801Y-117037716D01*
X86576674Y-117023107D01*
X86564448Y-117001858D01*
X86564444Y-117001853D01*
X86536105Y-116973430D01*
X86536105Y-116973429D01*
X86532109Y-116969422D01*
X86504628Y-116936316D01*
X86485820Y-116922997D01*
X85545778Y-115980170D01*
X85512385Y-115918799D01*
X85517472Y-115849115D01*
X85559426Y-115793243D01*
X85615105Y-115770006D01*
X85748221Y-115749942D01*
X85863910Y-115694229D01*
X85870572Y-115691021D01*
X85870572Y-115691020D01*
X85870576Y-115691019D01*
X85894114Y-115671518D01*
X87031518Y-114534114D01*
X87051019Y-114510576D01*
X87109942Y-114388221D01*
X87130183Y-114253934D01*
X87109942Y-114119647D01*
X87104984Y-114109351D01*
X87051021Y-113997295D01*
X87051018Y-113997290D01*
X87041050Y-113985259D01*
X87031518Y-113973754D01*
X87031508Y-113973744D01*
X87031500Y-113973735D01*
X86106264Y-113048499D01*
X86106255Y-113048491D01*
X86106246Y-113048482D01*
X86101616Y-113044646D01*
X86082709Y-113028981D01*
X86082704Y-113028978D01*
X85960354Y-112970058D01*
X85862091Y-112955247D01*
X93059500Y-112955247D01*
X93059500Y-114694752D01*
X93071131Y-114753229D01*
X93071132Y-114753230D01*
X93115447Y-114819552D01*
X93181769Y-114863867D01*
X93181770Y-114863868D01*
X93240247Y-114875499D01*
X93240250Y-114875500D01*
X93240252Y-114875500D01*
X94979750Y-114875500D01*
X94979751Y-114875499D01*
X94994568Y-114872552D01*
X95038229Y-114863868D01*
X95038229Y-114863867D01*
X95038231Y-114863867D01*
X95104552Y-114819552D01*
X95148867Y-114753231D01*
X95148867Y-114753229D01*
X95148868Y-114753229D01*
X95160499Y-114694752D01*
X95160500Y-114694750D01*
X95160500Y-113721530D01*
X95599500Y-113721530D01*
X95599500Y-113928469D01*
X95639868Y-114131412D01*
X95639870Y-114131420D01*
X95705939Y-114290925D01*
X95719059Y-114322598D01*
X95762906Y-114388220D01*
X95834024Y-114494657D01*
X95980342Y-114640975D01*
X95980345Y-114640977D01*
X96152402Y-114755941D01*
X96343580Y-114835130D01*
X96488052Y-114863867D01*
X96546530Y-114875499D01*
X96546534Y-114875500D01*
X96546535Y-114875500D01*
X96753466Y-114875500D01*
X96753467Y-114875499D01*
X96956420Y-114835130D01*
X97147598Y-114755941D01*
X97319655Y-114640977D01*
X97465977Y-114494655D01*
X97580941Y-114322598D01*
X97649165Y-114157889D01*
X97693004Y-114103488D01*
X97759298Y-114081423D01*
X97826998Y-114098702D01*
X97874609Y-114149839D01*
X97881656Y-114167026D01*
X97938904Y-114343216D01*
X98035375Y-114532550D01*
X98074728Y-114586716D01*
X98707037Y-113954408D01*
X98724075Y-114017993D01*
X98789901Y-114132007D01*
X98882993Y-114225099D01*
X98997007Y-114290925D01*
X99060590Y-114307962D01*
X98428282Y-114940269D01*
X98428282Y-114940270D01*
X98482449Y-114979624D01*
X98671782Y-115076095D01*
X98873870Y-115141757D01*
X99083754Y-115175000D01*
X99296246Y-115175000D01*
X99506127Y-115141757D01*
X99506130Y-115141757D01*
X99708217Y-115076095D01*
X99897554Y-114979622D01*
X99951716Y-114940270D01*
X99951717Y-114940270D01*
X99319408Y-114307962D01*
X99382993Y-114290925D01*
X99497007Y-114225099D01*
X99590099Y-114132007D01*
X99655925Y-114017993D01*
X99672962Y-113954409D01*
X100305270Y-114586717D01*
X100305270Y-114586716D01*
X100344622Y-114532554D01*
X100441095Y-114343217D01*
X100498343Y-114167026D01*
X100537780Y-114109351D01*
X100602139Y-114082152D01*
X100670985Y-114094066D01*
X100722461Y-114141310D01*
X100730833Y-114157887D01*
X100739394Y-114178554D01*
X100785939Y-114290925D01*
X100799059Y-114322598D01*
X100842906Y-114388220D01*
X100914024Y-114494657D01*
X101060342Y-114640975D01*
X101060345Y-114640977D01*
X101232402Y-114755941D01*
X101423580Y-114835130D01*
X101568052Y-114863867D01*
X101626530Y-114875499D01*
X101626534Y-114875500D01*
X101626535Y-114875500D01*
X101833466Y-114875500D01*
X101833467Y-114875499D01*
X102036420Y-114835130D01*
X102227598Y-114755941D01*
X102399655Y-114640977D01*
X102545977Y-114494655D01*
X102660941Y-114322598D01*
X102740130Y-114131420D01*
X102780500Y-113928465D01*
X102780500Y-113721535D01*
X102780499Y-113721530D01*
X103219500Y-113721530D01*
X103219500Y-113928469D01*
X103259868Y-114131412D01*
X103259870Y-114131420D01*
X103325939Y-114290925D01*
X103339059Y-114322598D01*
X103382906Y-114388220D01*
X103454024Y-114494657D01*
X103600342Y-114640975D01*
X103600345Y-114640977D01*
X103772402Y-114755941D01*
X103963580Y-114835130D01*
X104108052Y-114863867D01*
X104166530Y-114875499D01*
X104166534Y-114875500D01*
X104166535Y-114875500D01*
X104373466Y-114875500D01*
X104373467Y-114875499D01*
X104576420Y-114835130D01*
X104767598Y-114755941D01*
X104939655Y-114640977D01*
X105085977Y-114494655D01*
X105200941Y-114322598D01*
X105280130Y-114131420D01*
X105320500Y-113928465D01*
X105320500Y-113721535D01*
X105320499Y-113721530D01*
X105759500Y-113721530D01*
X105759500Y-113928469D01*
X105799868Y-114131412D01*
X105799870Y-114131420D01*
X105865939Y-114290925D01*
X105879059Y-114322598D01*
X105922906Y-114388220D01*
X105994024Y-114494657D01*
X106140342Y-114640975D01*
X106140345Y-114640977D01*
X106312402Y-114755941D01*
X106503580Y-114835130D01*
X106648052Y-114863867D01*
X106706530Y-114875499D01*
X106706534Y-114875500D01*
X106706535Y-114875500D01*
X106913466Y-114875500D01*
X106913467Y-114875499D01*
X107116420Y-114835130D01*
X107307598Y-114755941D01*
X107479655Y-114640977D01*
X107625977Y-114494655D01*
X107740941Y-114322598D01*
X107820130Y-114131420D01*
X107860500Y-113928465D01*
X107860500Y-113721535D01*
X107860499Y-113721530D01*
X108299500Y-113721530D01*
X108299500Y-113928469D01*
X108339868Y-114131412D01*
X108339870Y-114131420D01*
X108405939Y-114290925D01*
X108419059Y-114322598D01*
X108462906Y-114388220D01*
X108534024Y-114494657D01*
X108680342Y-114640975D01*
X108680345Y-114640977D01*
X108852402Y-114755941D01*
X109043580Y-114835130D01*
X109188052Y-114863867D01*
X109246530Y-114875499D01*
X109246534Y-114875500D01*
X109246535Y-114875500D01*
X109453466Y-114875500D01*
X109453467Y-114875499D01*
X109656420Y-114835130D01*
X109847598Y-114755941D01*
X110019655Y-114640977D01*
X110165977Y-114494655D01*
X110280941Y-114322598D01*
X110360130Y-114131420D01*
X110400500Y-113928465D01*
X110400500Y-113721535D01*
X110400499Y-113721530D01*
X110839500Y-113721530D01*
X110839500Y-113928469D01*
X110879868Y-114131412D01*
X110879870Y-114131420D01*
X110945939Y-114290925D01*
X110959059Y-114322598D01*
X111002906Y-114388220D01*
X111074024Y-114494657D01*
X111220342Y-114640975D01*
X111220345Y-114640977D01*
X111392402Y-114755941D01*
X111583580Y-114835130D01*
X111728052Y-114863867D01*
X111786530Y-114875499D01*
X111786534Y-114875500D01*
X111786535Y-114875500D01*
X111993466Y-114875500D01*
X111993467Y-114875499D01*
X112196420Y-114835130D01*
X112387598Y-114755941D01*
X112559655Y-114640977D01*
X112705977Y-114494655D01*
X112820941Y-114322598D01*
X112900130Y-114131420D01*
X112940500Y-113928465D01*
X112940500Y-113721535D01*
X112913588Y-113586236D01*
X112900131Y-113518583D01*
X112900130Y-113518581D01*
X112900130Y-113518580D01*
X112820941Y-113327402D01*
X112705977Y-113155345D01*
X112705975Y-113155342D01*
X112559657Y-113009024D01*
X112391655Y-112896770D01*
X112387598Y-112894059D01*
X112196420Y-112814870D01*
X112196412Y-112814868D01*
X111993469Y-112774500D01*
X111993465Y-112774500D01*
X111786535Y-112774500D01*
X111786530Y-112774500D01*
X111583587Y-112814868D01*
X111583579Y-112814870D01*
X111392403Y-112894058D01*
X111220342Y-113009024D01*
X111074024Y-113155342D01*
X110959058Y-113327403D01*
X110879870Y-113518579D01*
X110879869Y-113518583D01*
X110839500Y-113721530D01*
X110400499Y-113721530D01*
X110373588Y-113586236D01*
X110360131Y-113518583D01*
X110360130Y-113518581D01*
X110360130Y-113518580D01*
X110280941Y-113327402D01*
X110165977Y-113155345D01*
X110165975Y-113155342D01*
X110019657Y-113009024D01*
X109851655Y-112896770D01*
X109847598Y-112894059D01*
X109656420Y-112814870D01*
X109656412Y-112814868D01*
X109453469Y-112774500D01*
X109453465Y-112774500D01*
X109246535Y-112774500D01*
X109246530Y-112774500D01*
X109043587Y-112814868D01*
X109043579Y-112814870D01*
X108852403Y-112894058D01*
X108680342Y-113009024D01*
X108534024Y-113155342D01*
X108419058Y-113327403D01*
X108339870Y-113518579D01*
X108339869Y-113518583D01*
X108299500Y-113721530D01*
X107860499Y-113721530D01*
X107833588Y-113586236D01*
X107820131Y-113518583D01*
X107820130Y-113518581D01*
X107820130Y-113518580D01*
X107740941Y-113327402D01*
X107625977Y-113155345D01*
X107625975Y-113155342D01*
X107479657Y-113009024D01*
X107311655Y-112896770D01*
X107307598Y-112894059D01*
X107116420Y-112814870D01*
X107116412Y-112814868D01*
X106913469Y-112774500D01*
X106913465Y-112774500D01*
X106706535Y-112774500D01*
X106706530Y-112774500D01*
X106503587Y-112814868D01*
X106503579Y-112814870D01*
X106312403Y-112894058D01*
X106140342Y-113009024D01*
X105994024Y-113155342D01*
X105879058Y-113327403D01*
X105799870Y-113518579D01*
X105799869Y-113518583D01*
X105759500Y-113721530D01*
X105320499Y-113721530D01*
X105293588Y-113586236D01*
X105280131Y-113518583D01*
X105280130Y-113518581D01*
X105280130Y-113518580D01*
X105200941Y-113327402D01*
X105085977Y-113155345D01*
X105085975Y-113155342D01*
X104939657Y-113009024D01*
X104771655Y-112896770D01*
X104767598Y-112894059D01*
X104576420Y-112814870D01*
X104576412Y-112814868D01*
X104373469Y-112774500D01*
X104373465Y-112774500D01*
X104166535Y-112774500D01*
X104166530Y-112774500D01*
X103963587Y-112814868D01*
X103963579Y-112814870D01*
X103772403Y-112894058D01*
X103600342Y-113009024D01*
X103454024Y-113155342D01*
X103339058Y-113327403D01*
X103259870Y-113518579D01*
X103259869Y-113518583D01*
X103219500Y-113721530D01*
X102780499Y-113721530D01*
X102753588Y-113586236D01*
X102740131Y-113518583D01*
X102740130Y-113518581D01*
X102740130Y-113518580D01*
X102660941Y-113327402D01*
X102545977Y-113155345D01*
X102545975Y-113155342D01*
X102399657Y-113009024D01*
X102231655Y-112896770D01*
X102227598Y-112894059D01*
X102036420Y-112814870D01*
X102036412Y-112814868D01*
X101833469Y-112774500D01*
X101833465Y-112774500D01*
X101626535Y-112774500D01*
X101626530Y-112774500D01*
X101423587Y-112814868D01*
X101423579Y-112814870D01*
X101232403Y-112894058D01*
X101060342Y-113009024D01*
X100914024Y-113155342D01*
X100799057Y-113327403D01*
X100730835Y-113492108D01*
X100686994Y-113546511D01*
X100620700Y-113568576D01*
X100553000Y-113551297D01*
X100505390Y-113500159D01*
X100498343Y-113482973D01*
X100441095Y-113306782D01*
X100344624Y-113117449D01*
X100305270Y-113063282D01*
X100305269Y-113063282D01*
X99672962Y-113695590D01*
X99655925Y-113632007D01*
X99590099Y-113517993D01*
X99497007Y-113424901D01*
X99382993Y-113359075D01*
X99319409Y-113342037D01*
X99951716Y-112709728D01*
X99897550Y-112670375D01*
X99708217Y-112573904D01*
X99506129Y-112508242D01*
X99296246Y-112475000D01*
X99083754Y-112475000D01*
X98873872Y-112508242D01*
X98873869Y-112508242D01*
X98671782Y-112573904D01*
X98482439Y-112670380D01*
X98428282Y-112709727D01*
X98428282Y-112709728D01*
X99060591Y-113342037D01*
X98997007Y-113359075D01*
X98882993Y-113424901D01*
X98789901Y-113517993D01*
X98724075Y-113632007D01*
X98707037Y-113695591D01*
X98074728Y-113063282D01*
X98074727Y-113063282D01*
X98035380Y-113117439D01*
X97938905Y-113306781D01*
X97881656Y-113482974D01*
X97842218Y-113540649D01*
X97777859Y-113567847D01*
X97709013Y-113555932D01*
X97657537Y-113508688D01*
X97649164Y-113492107D01*
X97580943Y-113327405D01*
X97465975Y-113155342D01*
X97319657Y-113009024D01*
X97151655Y-112896770D01*
X97147598Y-112894059D01*
X96956420Y-112814870D01*
X96956412Y-112814868D01*
X96753469Y-112774500D01*
X96753465Y-112774500D01*
X96546535Y-112774500D01*
X96546530Y-112774500D01*
X96343587Y-112814868D01*
X96343579Y-112814870D01*
X96152403Y-112894058D01*
X95980342Y-113009024D01*
X95834024Y-113155342D01*
X95719058Y-113327403D01*
X95639870Y-113518579D01*
X95639869Y-113518583D01*
X95599500Y-113721530D01*
X95160500Y-113721530D01*
X95160500Y-112955249D01*
X95160499Y-112955247D01*
X95148868Y-112896770D01*
X95148867Y-112896769D01*
X95104552Y-112830447D01*
X95038230Y-112786132D01*
X95038229Y-112786131D01*
X94979752Y-112774500D01*
X94979748Y-112774500D01*
X93240252Y-112774500D01*
X93240247Y-112774500D01*
X93181770Y-112786131D01*
X93181769Y-112786132D01*
X93115447Y-112830447D01*
X93071132Y-112896769D01*
X93071131Y-112896770D01*
X93059500Y-112955247D01*
X85862091Y-112955247D01*
X85826066Y-112949817D01*
X85691779Y-112970058D01*
X85691776Y-112970058D01*
X85569427Y-113028978D01*
X85569422Y-113028981D01*
X85545894Y-113048475D01*
X85545867Y-113048499D01*
X84408499Y-114185867D01*
X84408475Y-114185894D01*
X84388981Y-114209422D01*
X84388978Y-114209427D01*
X84330058Y-114331776D01*
X84330057Y-114331779D01*
X84310555Y-114461168D01*
X84281098Y-114524525D01*
X84222064Y-114561898D01*
X84152196Y-114561423D01*
X84100129Y-114530238D01*
X84080521Y-114510572D01*
X83504522Y-113932866D01*
X83471131Y-113871498D01*
X83476218Y-113801814D01*
X83518172Y-113745942D01*
X83583673Y-113721622D01*
X83616527Y-113723702D01*
X83742697Y-113748798D01*
X83742701Y-113748799D01*
X83742702Y-113748799D01*
X83949633Y-113748799D01*
X83949634Y-113748798D01*
X84152587Y-113708429D01*
X84343765Y-113629240D01*
X84515822Y-113514275D01*
X84874276Y-113155822D01*
X84989240Y-112983765D01*
X85068429Y-112792587D01*
X85108799Y-112589632D01*
X85108799Y-112422685D01*
X85128484Y-112355646D01*
X85145118Y-112335004D01*
X85931784Y-111548338D01*
X86674553Y-110805569D01*
X86735874Y-110772086D01*
X86805566Y-110777070D01*
G37*
%TD.AperFunction*%
%TA.AperFunction,Conductor*%
G36*
X122325085Y-74777097D02*
G01*
X122343743Y-74792473D01*
X122751944Y-75201883D01*
X122785338Y-75263255D01*
X122780251Y-75332939D01*
X122738297Y-75388811D01*
X122672796Y-75413131D01*
X122664133Y-75413434D01*
X122522596Y-75413434D01*
X122319653Y-75453802D01*
X122319645Y-75453804D01*
X122128469Y-75532992D01*
X121956408Y-75647958D01*
X121956407Y-75647959D01*
X121597960Y-76006407D01*
X121597957Y-76006411D01*
X121482996Y-76178461D01*
X121482991Y-76178470D01*
X121403804Y-76369645D01*
X121403802Y-76369653D01*
X121363434Y-76572596D01*
X121363434Y-76779535D01*
X121403802Y-76982478D01*
X121403804Y-76982486D01*
X121482991Y-77173661D01*
X121482996Y-77173670D01*
X121597957Y-77345720D01*
X121597960Y-77345724D01*
X121744275Y-77492039D01*
X121744279Y-77492042D01*
X121916329Y-77607003D01*
X121916338Y-77607008D01*
X121940183Y-77616885D01*
X122107514Y-77686196D01*
X122231987Y-77710955D01*
X122310464Y-77726565D01*
X122310468Y-77726566D01*
X122310469Y-77726566D01*
X122517400Y-77726566D01*
X122517401Y-77726565D01*
X122720354Y-77686196D01*
X122911532Y-77607007D01*
X123083589Y-77492042D01*
X123442043Y-77133589D01*
X123557007Y-76961532D01*
X123636196Y-76770354D01*
X123676566Y-76567399D01*
X123676566Y-76429232D01*
X123696251Y-76362193D01*
X123749055Y-76316438D01*
X123818213Y-76306494D01*
X123881769Y-76335519D01*
X123888366Y-76341671D01*
X124363865Y-76818579D01*
X125164431Y-77621518D01*
X125172722Y-77629834D01*
X125183103Y-77645166D01*
X125219084Y-77676333D01*
X125222275Y-77679534D01*
X125222283Y-77679542D01*
X125252697Y-77710045D01*
X125258564Y-77713444D01*
X125277591Y-77727012D01*
X125281773Y-77730635D01*
X125282714Y-77731450D01*
X125321458Y-77750263D01*
X125329455Y-77754514D01*
X125366722Y-77776104D01*
X125366724Y-77776105D01*
X125366728Y-77776107D01*
X125366732Y-77776108D01*
X125373268Y-77777870D01*
X125373270Y-77777870D01*
X125384605Y-77780925D01*
X125401261Y-77789013D01*
X125448007Y-77798014D01*
X125493971Y-77810403D01*
X125500749Y-77810412D01*
X125524011Y-77812649D01*
X125530667Y-77813931D01*
X125530669Y-77813930D01*
X125530671Y-77813931D01*
X125573631Y-77810851D01*
X125573631Y-77810850D01*
X125578149Y-77810527D01*
X125625756Y-77810598D01*
X125643645Y-77805832D01*
X125662115Y-77804509D01*
X125707107Y-77788928D01*
X125753099Y-77776678D01*
X125769144Y-77767446D01*
X125786644Y-77761386D01*
X125826071Y-77734691D01*
X125867325Y-77710955D01*
X125880433Y-77697884D01*
X125895769Y-77687502D01*
X125924011Y-77654896D01*
X125930134Y-77648329D01*
X125960648Y-77617907D01*
X125960649Y-77617904D01*
X125961672Y-77616885D01*
X126023045Y-77583492D01*
X126092729Y-77588580D01*
X126135367Y-77615507D01*
X127057615Y-78506327D01*
X127092158Y-78567061D01*
X127088382Y-78636828D01*
X127066719Y-78674907D01*
X124384627Y-81892805D01*
X124377058Y-81901093D01*
X124350476Y-81927675D01*
X124350472Y-81927680D01*
X124344322Y-81938332D01*
X124332193Y-81955714D01*
X124324316Y-81965164D01*
X124324312Y-81965170D01*
X124308540Y-81999285D01*
X124308541Y-81999286D01*
X124306184Y-82004385D01*
X124284581Y-82041801D01*
X124278642Y-82063956D01*
X124274182Y-82073605D01*
X124269016Y-82084780D01*
X124269013Y-82084791D01*
X124266166Y-82101254D01*
X124261651Y-82127365D01*
X124250469Y-82169094D01*
X124250468Y-82192030D01*
X124248655Y-82202514D01*
X124248655Y-82202516D01*
X124246558Y-82214642D01*
X124249957Y-82252075D01*
X124250465Y-82263291D01*
X124249763Y-106951955D01*
X124249758Y-107119160D01*
X124246559Y-107154389D01*
X124249756Y-107172881D01*
X124249756Y-107199060D01*
X124262525Y-107246723D01*
X124269014Y-107284245D01*
X124277488Y-107302576D01*
X124280243Y-107312858D01*
X124280244Y-107312859D01*
X124283861Y-107326358D01*
X124304251Y-107361679D01*
X124307062Y-107366549D01*
X124324315Y-107403866D01*
X124338278Y-107420619D01*
X124343594Y-107429827D01*
X124343600Y-107429835D01*
X124344008Y-107430541D01*
X124349749Y-107440485D01*
X124376348Y-107467085D01*
X124383900Y-107475354D01*
X125322252Y-108601162D01*
X127113395Y-110750125D01*
X127141197Y-110814226D01*
X127129929Y-110883181D01*
X127102899Y-110920029D01*
X126479798Y-111503511D01*
X126417409Y-111534965D01*
X126347919Y-111527696D01*
X126300060Y-111492714D01*
X126293021Y-111484327D01*
X126275501Y-111453876D01*
X126224724Y-111402950D01*
X126221306Y-111398877D01*
X126221269Y-111398794D01*
X126220878Y-111398364D01*
X126215680Y-111392102D01*
X126211259Y-111388007D01*
X126202166Y-111380324D01*
X126182453Y-111360553D01*
X126168893Y-111352697D01*
X126125068Y-111327307D01*
X126120177Y-111324474D01*
X126108131Y-111315944D01*
X126100718Y-111313201D01*
X126091537Y-111307882D01*
X126068427Y-111294493D01*
X126068423Y-111294491D01*
X126068422Y-111294491D01*
X126049197Y-111289309D01*
X126006570Y-111277819D01*
X126001116Y-111276348D01*
X125984536Y-111270215D01*
X125975109Y-111269339D01*
X125964866Y-111266578D01*
X125964864Y-111266577D01*
X125941180Y-111260194D01*
X125941184Y-111260194D01*
X125881196Y-111260105D01*
X125881196Y-111260104D01*
X125875534Y-111260095D01*
X125853315Y-111258034D01*
X125841533Y-111260046D01*
X125830921Y-111260031D01*
X125830920Y-111260030D01*
X125809399Y-111259999D01*
X125809394Y-111260000D01*
X125756858Y-111273993D01*
X125756857Y-111273992D01*
X125751380Y-111275450D01*
X125723414Y-111280230D01*
X125709603Y-111286579D01*
X125699354Y-111289310D01*
X125699352Y-111289309D01*
X125682052Y-111293919D01*
X125640782Y-111317663D01*
X125635879Y-111320484D01*
X125603683Y-111335291D01*
X125589085Y-111347408D01*
X125579893Y-111352697D01*
X125579890Y-111352700D01*
X125567826Y-111359642D01*
X125567823Y-111359644D01*
X125539395Y-111387986D01*
X125535397Y-111391974D01*
X125502283Y-111419463D01*
X125488964Y-111438269D01*
X125481453Y-111445759D01*
X125481450Y-111445760D01*
X124464758Y-112459450D01*
X124403386Y-112492844D01*
X124333702Y-112487757D01*
X124277830Y-112445803D01*
X124253510Y-112380302D01*
X124254592Y-112353157D01*
X124257328Y-112335004D01*
X124260183Y-112316066D01*
X124239942Y-112181779D01*
X124202454Y-112103934D01*
X124181021Y-112059427D01*
X124181018Y-112059422D01*
X124171050Y-112047391D01*
X124161518Y-112035886D01*
X124161508Y-112035876D01*
X124161500Y-112035867D01*
X123024132Y-110898499D01*
X123024123Y-110898491D01*
X123024114Y-110898482D01*
X123015747Y-110891550D01*
X123000577Y-110878981D01*
X123000572Y-110878978D01*
X122878222Y-110820058D01*
X122743934Y-110799817D01*
X122609647Y-110820058D01*
X122609644Y-110820058D01*
X122571519Y-110838419D01*
X122502578Y-110849771D01*
X122438443Y-110822049D01*
X122430037Y-110814380D01*
X120216819Y-108601162D01*
X120183334Y-108539839D01*
X120180500Y-108513481D01*
X120180500Y-76415984D01*
X120189145Y-76386540D01*
X120195668Y-76356558D01*
X120199422Y-76351542D01*
X120200185Y-76348945D01*
X120216810Y-76328312D01*
X120342397Y-76202725D01*
X120403715Y-76169243D01*
X120473407Y-76174227D01*
X120483875Y-76178689D01*
X120509988Y-76191263D01*
X120511880Y-76192175D01*
X120646167Y-76212416D01*
X120780454Y-76192175D01*
X120902809Y-76133252D01*
X120926347Y-76113751D01*
X122063751Y-74976347D01*
X122083252Y-74952809D01*
X122142175Y-74830454D01*
X122142175Y-74830449D01*
X122144211Y-74826223D01*
X122191034Y-74774363D01*
X122258460Y-74756050D01*
X122325085Y-74777097D01*
G37*
%TD.AperFunction*%
%TA.AperFunction,Conductor*%
G36*
X114214075Y-92557993D02*
G01*
X114279901Y-92672007D01*
X114372993Y-92765099D01*
X114487007Y-92830925D01*
X114550590Y-92847962D01*
X113918282Y-93480269D01*
X113918282Y-93480270D01*
X113972449Y-93519624D01*
X114161782Y-93616095D01*
X114337973Y-93673343D01*
X114395648Y-93712780D01*
X114422847Y-93777139D01*
X114410932Y-93845985D01*
X114363688Y-93897461D01*
X114347108Y-93905835D01*
X114182403Y-93974057D01*
X114010342Y-94089024D01*
X113864024Y-94235342D01*
X113749058Y-94407403D01*
X113669870Y-94598579D01*
X113669868Y-94598587D01*
X113629500Y-94801530D01*
X113629500Y-94913481D01*
X113609815Y-94980520D01*
X113593181Y-95001162D01*
X113381372Y-95212970D01*
X113320049Y-95246455D01*
X113250357Y-95241471D01*
X113194424Y-95199599D01*
X113170007Y-95134135D01*
X113172074Y-95101097D01*
X113190500Y-95008465D01*
X113190500Y-94801535D01*
X113150130Y-94598580D01*
X113070941Y-94407402D01*
X112955977Y-94235345D01*
X112955975Y-94235342D01*
X112809657Y-94089024D01*
X112723626Y-94031541D01*
X112637598Y-93974059D01*
X112637593Y-93974057D01*
X112575891Y-93948499D01*
X112472890Y-93905834D01*
X112418488Y-93861994D01*
X112396423Y-93795700D01*
X112413702Y-93728001D01*
X112464839Y-93680390D01*
X112482026Y-93673343D01*
X112658217Y-93616095D01*
X112847554Y-93519622D01*
X112901716Y-93480270D01*
X112901717Y-93480270D01*
X112269408Y-92847962D01*
X112332993Y-92830925D01*
X112447007Y-92765099D01*
X112540099Y-92672007D01*
X112605925Y-92557993D01*
X112622962Y-92494409D01*
X113255270Y-93126717D01*
X113255270Y-93126716D01*
X113294622Y-93072554D01*
X113299514Y-93062954D01*
X113347488Y-93012157D01*
X113415308Y-92995361D01*
X113481444Y-93017897D01*
X113520486Y-93062954D01*
X113525375Y-93072550D01*
X113564728Y-93126716D01*
X114197037Y-92494408D01*
X114214075Y-92557993D01*
G37*
%TD.AperFunction*%
%TA.AperFunction,Conductor*%
G36*
X87284290Y-70948070D02*
G01*
X87318953Y-70968470D01*
X90417820Y-73551352D01*
X90426104Y-73558917D01*
X90452702Y-73585512D01*
X90472557Y-73596974D01*
X90490167Y-73611652D01*
X90529400Y-73629789D01*
X90566832Y-73651399D01*
X90578691Y-73654576D01*
X90598636Y-73661798D01*
X90609782Y-73666951D01*
X90609783Y-73666951D01*
X90609787Y-73666953D01*
X90646848Y-73673361D01*
X90652378Y-73674317D01*
X90694127Y-73685503D01*
X90717056Y-73685502D01*
X90727542Y-73687315D01*
X90727544Y-73687316D01*
X90734052Y-73688441D01*
X90739644Y-73689408D01*
X90777109Y-73686005D01*
X90788284Y-73685498D01*
X115677328Y-73684533D01*
X115720356Y-73688441D01*
X115742964Y-73684530D01*
X115753608Y-73684530D01*
X115765911Y-73684530D01*
X115802219Y-73674799D01*
X115813169Y-73672391D01*
X115832293Y-73669084D01*
X115850209Y-73665987D01*
X115850210Y-73665986D01*
X115850212Y-73665986D01*
X115861381Y-73660822D01*
X115871040Y-73656356D01*
X115893204Y-73650418D01*
X115930624Y-73628811D01*
X115969833Y-73610685D01*
X115979285Y-73602805D01*
X115996669Y-73590676D01*
X116007330Y-73584521D01*
X116007333Y-73584518D01*
X116033907Y-73557942D01*
X116042200Y-73550367D01*
X119115559Y-70988745D01*
X119179655Y-70960946D01*
X119248611Y-70972214D01*
X119281095Y-70994812D01*
X119906629Y-71599029D01*
X119920951Y-71624210D01*
X119937721Y-71647835D01*
X119938015Y-71654212D01*
X119941172Y-71659763D01*
X119939606Y-71688689D01*
X119940942Y-71717630D01*
X119937588Y-71725970D01*
X119937396Y-71729530D01*
X119927776Y-71750377D01*
X119893273Y-71809933D01*
X119887183Y-71819422D01*
X119881911Y-71826868D01*
X119879550Y-71831344D01*
X119873854Y-71843452D01*
X119860458Y-71866575D01*
X119843788Y-71928422D01*
X119842313Y-71933890D01*
X119836182Y-71950464D01*
X119835306Y-71959885D01*
X119832546Y-71970126D01*
X119832547Y-71970126D01*
X119826161Y-71993818D01*
X119826072Y-72053803D01*
X119826064Y-72059451D01*
X119824001Y-72081685D01*
X119826013Y-72093466D01*
X119825998Y-72104073D01*
X119825966Y-72125602D01*
X119825967Y-72125607D01*
X119839960Y-72178140D01*
X119841415Y-72183602D01*
X119846197Y-72211586D01*
X119852546Y-72225394D01*
X119855275Y-72235639D01*
X119855276Y-72235641D01*
X119859887Y-72252949D01*
X119859889Y-72252952D01*
X119859890Y-72252955D01*
X119871914Y-72273852D01*
X119886445Y-72299107D01*
X119901258Y-72331317D01*
X119913382Y-72345923D01*
X119922818Y-72362322D01*
X119925610Y-72367174D01*
X119925612Y-72367176D01*
X119953941Y-72395590D01*
X119957939Y-72399600D01*
X119985430Y-72432717D01*
X120004239Y-72446036D01*
X120274281Y-72716878D01*
X120765409Y-73209461D01*
X120798803Y-73270833D01*
X120793716Y-73340517D01*
X120751762Y-73396389D01*
X120731400Y-73408732D01*
X120601657Y-73471213D01*
X120601655Y-73471214D01*
X120578127Y-73490708D01*
X120578100Y-73490732D01*
X119440732Y-74628100D01*
X119440708Y-74628127D01*
X119421214Y-74651655D01*
X119421211Y-74651660D01*
X119362291Y-74774009D01*
X119362291Y-74774012D01*
X119342050Y-74908299D01*
X119352305Y-74976338D01*
X119362291Y-75042585D01*
X119362290Y-75042585D01*
X119364226Y-75046604D01*
X119375776Y-75070588D01*
X119387128Y-75139528D01*
X119359406Y-75203663D01*
X119351737Y-75212070D01*
X118935887Y-75627920D01*
X118859222Y-75742658D01*
X118806421Y-75870133D01*
X118806418Y-75870145D01*
X118787964Y-75962922D01*
X118787964Y-75962924D01*
X118779500Y-76005473D01*
X118779500Y-108786006D01*
X118779500Y-108923994D01*
X118779500Y-108923996D01*
X118779499Y-108923996D01*
X118806418Y-109059322D01*
X118806421Y-109059332D01*
X118859222Y-109186807D01*
X118935887Y-109301545D01*
X120016661Y-110382319D01*
X120020998Y-110390263D01*
X120028246Y-110395688D01*
X120037482Y-110420450D01*
X120050146Y-110443642D01*
X120049500Y-110452670D01*
X120052664Y-110461152D01*
X120047047Y-110486973D01*
X120045162Y-110513334D01*
X120039343Y-110522386D01*
X120037813Y-110529425D01*
X120016662Y-110557680D01*
X119981163Y-110593180D01*
X119919841Y-110626666D01*
X119893481Y-110629500D01*
X88706519Y-110629500D01*
X88639480Y-110609815D01*
X88618838Y-110593181D01*
X87840571Y-109814914D01*
X87807086Y-109753591D01*
X87812070Y-109683899D01*
X87840571Y-109639552D01*
X88834112Y-108646011D01*
X88834114Y-108646009D01*
X88910775Y-108531277D01*
X88918147Y-108513481D01*
X88963578Y-108403798D01*
X88963580Y-108403794D01*
X88990500Y-108268460D01*
X88990500Y-108130472D01*
X88990500Y-103859722D01*
X89010185Y-103792683D01*
X89045611Y-103756619D01*
X89075289Y-103736789D01*
X89186789Y-103625289D01*
X89274394Y-103494179D01*
X89334737Y-103348497D01*
X89365500Y-103193842D01*
X89365500Y-103036158D01*
X89365500Y-103036155D01*
X89365499Y-103036153D01*
X89334738Y-102881510D01*
X89334737Y-102881503D01*
X89334735Y-102881498D01*
X89274397Y-102735827D01*
X89274390Y-102735814D01*
X89186789Y-102604711D01*
X89186786Y-102604707D01*
X89075292Y-102493213D01*
X89075288Y-102493210D01*
X88986015Y-102433559D01*
X88941210Y-102379946D01*
X88932503Y-102310621D01*
X88962658Y-102247594D01*
X89022101Y-102210875D01*
X89042308Y-102207099D01*
X89067696Y-102204506D01*
X89234119Y-102149358D01*
X89234124Y-102149356D01*
X89383345Y-102057315D01*
X89507315Y-101933345D01*
X89599356Y-101784124D01*
X89599358Y-101784119D01*
X89654505Y-101617697D01*
X89654506Y-101617690D01*
X89664999Y-101514986D01*
X89665000Y-101514973D01*
X89665000Y-101365000D01*
X88570330Y-101365000D01*
X88590075Y-101345255D01*
X88639444Y-101259745D01*
X88665000Y-101164370D01*
X88665000Y-101065630D01*
X88639444Y-100970255D01*
X88590075Y-100884745D01*
X88570330Y-100865000D01*
X89664999Y-100865000D01*
X89664999Y-100715028D01*
X89664998Y-100715013D01*
X89654505Y-100612302D01*
X89599358Y-100445880D01*
X89599356Y-100445875D01*
X89507315Y-100296654D01*
X89383345Y-100172684D01*
X89234124Y-100080643D01*
X89234119Y-100080641D01*
X89067697Y-100025494D01*
X89067690Y-100025493D01*
X88964986Y-100015000D01*
X88540000Y-100015000D01*
X88540000Y-100834670D01*
X88520255Y-100814925D01*
X88434745Y-100765556D01*
X88339370Y-100740000D01*
X88240630Y-100740000D01*
X88145255Y-100765556D01*
X88059745Y-100814925D01*
X88040000Y-100834670D01*
X88040000Y-100015000D01*
X87615028Y-100015000D01*
X87615012Y-100015001D01*
X87512302Y-100025494D01*
X87345880Y-100080641D01*
X87345875Y-100080643D01*
X87196654Y-100172684D01*
X87072684Y-100296654D01*
X86980643Y-100445875D01*
X86980641Y-100445880D01*
X86925494Y-100612302D01*
X86925493Y-100612309D01*
X86915000Y-100715013D01*
X86915000Y-100865000D01*
X88009670Y-100865000D01*
X87989925Y-100884745D01*
X87940556Y-100970255D01*
X87915000Y-101065630D01*
X87915000Y-101164370D01*
X87940556Y-101259745D01*
X87989925Y-101345255D01*
X88009670Y-101365000D01*
X86915001Y-101365000D01*
X86915001Y-101514986D01*
X86925494Y-101617697D01*
X86980641Y-101784119D01*
X86980645Y-101784128D01*
X86996522Y-101809868D01*
X87014962Y-101877260D01*
X86994039Y-101943924D01*
X86940397Y-101988693D01*
X86871066Y-101997354D01*
X86808059Y-101967157D01*
X86803302Y-101962645D01*
X84216819Y-99376162D01*
X84183334Y-99314839D01*
X84180500Y-99288481D01*
X84180500Y-94801530D01*
X90689500Y-94801530D01*
X90689500Y-95008469D01*
X90729868Y-95211412D01*
X90729870Y-95211420D01*
X90809058Y-95402596D01*
X90924024Y-95574657D01*
X91070342Y-95720975D01*
X91070345Y-95720977D01*
X91242402Y-95835941D01*
X91433580Y-95915130D01*
X91636530Y-95955499D01*
X91636534Y-95955500D01*
X91636535Y-95955500D01*
X91843466Y-95955500D01*
X91843467Y-95955499D01*
X92046420Y-95915130D01*
X92166974Y-95865194D01*
X92236438Y-95857726D01*
X92298918Y-95889000D01*
X92302104Y-95892075D01*
X95603181Y-99193152D01*
X95636666Y-99254475D01*
X95639500Y-99280833D01*
X95639500Y-107392139D01*
X95622887Y-107454139D01*
X95563609Y-107556810D01*
X95563609Y-107556811D01*
X95563609Y-107556812D01*
X95563608Y-107556814D01*
X95529500Y-107684108D01*
X95529500Y-107815892D01*
X95546554Y-107879539D01*
X95563608Y-107943187D01*
X95596554Y-108000250D01*
X95629500Y-108057314D01*
X95722686Y-108150500D01*
X95836814Y-108216392D01*
X95964108Y-108250500D01*
X95964110Y-108250500D01*
X96095890Y-108250500D01*
X96095892Y-108250500D01*
X96223186Y-108216392D01*
X96337314Y-108150500D01*
X96430500Y-108057314D01*
X96496392Y-107943186D01*
X96530500Y-107815892D01*
X96530500Y-107684108D01*
X96496392Y-107556814D01*
X96430500Y-107442686D01*
X96337314Y-107349500D01*
X96337312Y-107349499D01*
X96337310Y-107349497D01*
X96302498Y-107329398D01*
X96254283Y-107278830D01*
X96240500Y-107222012D01*
X96240500Y-99065439D01*
X96220020Y-98989009D01*
X96220017Y-98989004D01*
X96180464Y-98920495D01*
X96180458Y-98920487D01*
X96057152Y-98797181D01*
X96046539Y-98777744D01*
X96032039Y-98761011D01*
X96030122Y-98747679D01*
X96023667Y-98735858D01*
X96025246Y-98713771D01*
X96022095Y-98691853D01*
X96027690Y-98679601D01*
X96028651Y-98666166D01*
X96041921Y-98648439D01*
X96051120Y-98628297D01*
X96062451Y-98621014D01*
X96070523Y-98610233D01*
X96091268Y-98602495D01*
X96109898Y-98590523D01*
X96131816Y-98587371D01*
X96135987Y-98585816D01*
X96144833Y-98585500D01*
X96164167Y-98585500D01*
X96231206Y-98605185D01*
X96251848Y-98621819D01*
X97410489Y-99780460D01*
X97469829Y-99814720D01*
X97479008Y-99820020D01*
X97479012Y-99820022D01*
X97555438Y-99840500D01*
X97555440Y-99840500D01*
X113864560Y-99840500D01*
X113864562Y-99840500D01*
X113940989Y-99820021D01*
X114009511Y-99780460D01*
X114065460Y-99724511D01*
X118360460Y-95429511D01*
X118375998Y-95402598D01*
X118400021Y-95360989D01*
X118420500Y-95284562D01*
X118420500Y-86155438D01*
X118400021Y-86079011D01*
X118400017Y-86079004D01*
X118360464Y-86010495D01*
X118360458Y-86010487D01*
X118076819Y-85726848D01*
X118043334Y-85665525D01*
X118040500Y-85639167D01*
X118040500Y-85549110D01*
X118040500Y-85549108D01*
X118006392Y-85421814D01*
X117940500Y-85307686D01*
X117847314Y-85214500D01*
X117790250Y-85181554D01*
X117733187Y-85148608D01*
X117669539Y-85131554D01*
X117605892Y-85114500D01*
X117474108Y-85114500D01*
X117346812Y-85148608D01*
X117232686Y-85214500D01*
X117232683Y-85214502D01*
X117139502Y-85307683D01*
X117139500Y-85307686D01*
X117073608Y-85421812D01*
X117039500Y-85549108D01*
X117039500Y-85680892D01*
X117051814Y-85726848D01*
X117073608Y-85808187D01*
X117106554Y-85865250D01*
X117139500Y-85922314D01*
X117232686Y-86015500D01*
X117331521Y-86072563D01*
X117342686Y-86079009D01*
X117346814Y-86081392D01*
X117474108Y-86115500D01*
X117474110Y-86115500D01*
X117564167Y-86115500D01*
X117593607Y-86124144D01*
X117623594Y-86130668D01*
X117628609Y-86134422D01*
X117631206Y-86135185D01*
X117651848Y-86151819D01*
X117783181Y-86283152D01*
X117816666Y-86344475D01*
X117819500Y-86370833D01*
X117819500Y-91022324D01*
X117799815Y-91089363D01*
X117747011Y-91135118D01*
X117677853Y-91145062D01*
X117614297Y-91116037D01*
X117607819Y-91110005D01*
X117587316Y-91089502D01*
X117587314Y-91089500D01*
X117518221Y-91049609D01*
X117473187Y-91023608D01*
X117409539Y-91006554D01*
X117345892Y-90989500D01*
X117214108Y-90989500D01*
X117086812Y-91023608D01*
X116972686Y-91089500D01*
X116972683Y-91089502D01*
X116879502Y-91182683D01*
X116879500Y-91182686D01*
X116813608Y-91296812D01*
X116779500Y-91424108D01*
X116779500Y-91555891D01*
X116813608Y-91683187D01*
X116820626Y-91695342D01*
X116879500Y-91797314D01*
X116972686Y-91890500D01*
X117086814Y-91956392D01*
X117214108Y-91990500D01*
X117214110Y-91990500D01*
X117345890Y-91990500D01*
X117345892Y-91990500D01*
X117473186Y-91956392D01*
X117587314Y-91890500D01*
X117607819Y-91869995D01*
X117669142Y-91836510D01*
X117738834Y-91841494D01*
X117794767Y-91883366D01*
X117819184Y-91948830D01*
X117819500Y-91957676D01*
X117819500Y-95069167D01*
X117799815Y-95136206D01*
X117783181Y-95156848D01*
X113736848Y-99203181D01*
X113675525Y-99236666D01*
X113649167Y-99239500D01*
X97770833Y-99239500D01*
X97703794Y-99219815D01*
X97683152Y-99203181D01*
X96676819Y-98196848D01*
X96643334Y-98135525D01*
X96640500Y-98109167D01*
X96640500Y-98019110D01*
X96640500Y-98019108D01*
X96606392Y-97891814D01*
X96540500Y-97777686D01*
X96447314Y-97684500D01*
X96390250Y-97651554D01*
X96333187Y-97618608D01*
X96269539Y-97601554D01*
X96205892Y-97584500D01*
X96074108Y-97584500D01*
X95946812Y-97618608D01*
X95832686Y-97684500D01*
X95832683Y-97684502D01*
X95739502Y-97777683D01*
X95739500Y-97777686D01*
X95673608Y-97891812D01*
X95639500Y-98019108D01*
X95639500Y-98080167D01*
X95619815Y-98147206D01*
X95567011Y-98192961D01*
X95497853Y-98202905D01*
X95434297Y-98173880D01*
X95427819Y-98167848D01*
X94813966Y-97553995D01*
X105319499Y-97553995D01*
X105346418Y-97689322D01*
X105346421Y-97689332D01*
X105399221Y-97816804D01*
X105399228Y-97816817D01*
X105475885Y-97931541D01*
X105475888Y-97931545D01*
X105573454Y-98029111D01*
X105573458Y-98029114D01*
X105688182Y-98105771D01*
X105688195Y-98105778D01*
X105815667Y-98158578D01*
X105815672Y-98158580D01*
X105815676Y-98158580D01*
X105815677Y-98158581D01*
X105951004Y-98185500D01*
X105951007Y-98185500D01*
X112168996Y-98185500D01*
X112260040Y-98167389D01*
X112304328Y-98158580D01*
X112368069Y-98132177D01*
X112431807Y-98105777D01*
X112431808Y-98105776D01*
X112431811Y-98105775D01*
X112546543Y-98029114D01*
X114583838Y-95991819D01*
X114645161Y-95958334D01*
X114671519Y-95955500D01*
X114783466Y-95955500D01*
X114783467Y-95955499D01*
X114986420Y-95915130D01*
X115177598Y-95835941D01*
X115349655Y-95720977D01*
X115495977Y-95574655D01*
X115610941Y-95402598D01*
X115690130Y-95211420D01*
X115730500Y-95008465D01*
X115730500Y-94801535D01*
X115690130Y-94598580D01*
X115610941Y-94407402D01*
X115495977Y-94235345D01*
X115495975Y-94235342D01*
X115349657Y-94089024D01*
X115263626Y-94031541D01*
X115177598Y-93974059D01*
X115177593Y-93974057D01*
X115115891Y-93948499D01*
X115012890Y-93905834D01*
X114958488Y-93861994D01*
X114936423Y-93795700D01*
X114953702Y-93728001D01*
X115004839Y-93680390D01*
X115022026Y-93673343D01*
X115198217Y-93616095D01*
X115387554Y-93519622D01*
X115441716Y-93480270D01*
X115441717Y-93480270D01*
X114809408Y-92847962D01*
X114872993Y-92830925D01*
X114987007Y-92765099D01*
X115080099Y-92672007D01*
X115145925Y-92557993D01*
X115162962Y-92494408D01*
X115795270Y-93126717D01*
X115795270Y-93126716D01*
X115834622Y-93072554D01*
X115931095Y-92883217D01*
X115996757Y-92681130D01*
X115996757Y-92681127D01*
X116030000Y-92471246D01*
X116030000Y-92258753D01*
X115996757Y-92048872D01*
X115996757Y-92048869D01*
X115931095Y-91846782D01*
X115834624Y-91657449D01*
X115795270Y-91603282D01*
X115795269Y-91603282D01*
X115162962Y-92235590D01*
X115145925Y-92172007D01*
X115080099Y-92057993D01*
X114987007Y-91964901D01*
X114872993Y-91899075D01*
X114809409Y-91882037D01*
X115441716Y-91249728D01*
X115387550Y-91210375D01*
X115198216Y-91113904D01*
X115022026Y-91056656D01*
X114964350Y-91017218D01*
X114937152Y-90952860D01*
X114949067Y-90884013D01*
X114996311Y-90832538D01*
X115012882Y-90824168D01*
X115177598Y-90755941D01*
X115349655Y-90640977D01*
X115495977Y-90494655D01*
X115610941Y-90322598D01*
X115690130Y-90131420D01*
X115730500Y-89928465D01*
X115730500Y-89721535D01*
X115690130Y-89518580D01*
X115610941Y-89327402D01*
X115495977Y-89155345D01*
X115495975Y-89155342D01*
X115349657Y-89009024D01*
X115263626Y-88951541D01*
X115177598Y-88894059D01*
X114986420Y-88814870D01*
X114986412Y-88814868D01*
X114783469Y-88774500D01*
X114783465Y-88774500D01*
X114576535Y-88774500D01*
X114576530Y-88774500D01*
X114373587Y-88814868D01*
X114373579Y-88814870D01*
X114182403Y-88894058D01*
X114010342Y-89009024D01*
X113864024Y-89155342D01*
X113749058Y-89327403D01*
X113669870Y-89518579D01*
X113669868Y-89518587D01*
X113629500Y-89721530D01*
X113629500Y-89928469D01*
X113669868Y-90131412D01*
X113669870Y-90131420D01*
X113749058Y-90322596D01*
X113864024Y-90494657D01*
X114010342Y-90640975D01*
X114182405Y-90755943D01*
X114285043Y-90798456D01*
X114347108Y-90824164D01*
X114401511Y-90868005D01*
X114423576Y-90934299D01*
X114406297Y-91001998D01*
X114355160Y-91049609D01*
X114337974Y-91056656D01*
X114161781Y-91113905D01*
X113972439Y-91210380D01*
X113918282Y-91249727D01*
X113918282Y-91249728D01*
X114550591Y-91882037D01*
X114487007Y-91899075D01*
X114372993Y-91964901D01*
X114279901Y-92057993D01*
X114214075Y-92172007D01*
X114197037Y-92235591D01*
X113564728Y-91603282D01*
X113564727Y-91603282D01*
X113525380Y-91657440D01*
X113520483Y-91667051D01*
X113472506Y-91717845D01*
X113404684Y-91734638D01*
X113338550Y-91712098D01*
X113299516Y-91667048D01*
X113294626Y-91657452D01*
X113255270Y-91603282D01*
X113255269Y-91603282D01*
X112622962Y-92235590D01*
X112605925Y-92172007D01*
X112540099Y-92057993D01*
X112447007Y-91964901D01*
X112332993Y-91899075D01*
X112269409Y-91882037D01*
X112901716Y-91249728D01*
X112847550Y-91210375D01*
X112658216Y-91113904D01*
X112482026Y-91056656D01*
X112424350Y-91017218D01*
X112397152Y-90952860D01*
X112409067Y-90884013D01*
X112456311Y-90832538D01*
X112472882Y-90824168D01*
X112637598Y-90755941D01*
X112809655Y-90640977D01*
X112955977Y-90494655D01*
X113070941Y-90322598D01*
X113150130Y-90131420D01*
X113190500Y-89928465D01*
X113190500Y-89721535D01*
X113150130Y-89518580D01*
X113070941Y-89327402D01*
X112955977Y-89155345D01*
X112955975Y-89155342D01*
X112809657Y-89009024D01*
X112723626Y-88951541D01*
X112637598Y-88894059D01*
X112446420Y-88814870D01*
X112446412Y-88814868D01*
X112243469Y-88774500D01*
X112243465Y-88774500D01*
X112036535Y-88774500D01*
X112036530Y-88774500D01*
X111833587Y-88814868D01*
X111833579Y-88814870D01*
X111642403Y-88894058D01*
X111470342Y-89009024D01*
X111324024Y-89155342D01*
X111209058Y-89327403D01*
X111129870Y-89518579D01*
X111129868Y-89518587D01*
X111089500Y-89721530D01*
X111089500Y-89928469D01*
X111129868Y-90131412D01*
X111129870Y-90131420D01*
X111209058Y-90322596D01*
X111324024Y-90494657D01*
X111470342Y-90640975D01*
X111642405Y-90755943D01*
X111745043Y-90798456D01*
X111807108Y-90824164D01*
X111861511Y-90868005D01*
X111883576Y-90934299D01*
X111866297Y-91001998D01*
X111815160Y-91049609D01*
X111797974Y-91056656D01*
X111621781Y-91113905D01*
X111432439Y-91210380D01*
X111378282Y-91249727D01*
X111378282Y-91249728D01*
X112010591Y-91882037D01*
X111947007Y-91899075D01*
X111832993Y-91964901D01*
X111739901Y-92057993D01*
X111674075Y-92172007D01*
X111657037Y-92235591D01*
X111024728Y-91603282D01*
X111024727Y-91603282D01*
X110985380Y-91657439D01*
X110888904Y-91846782D01*
X110823242Y-92048869D01*
X110823242Y-92048872D01*
X110790000Y-92258753D01*
X110790000Y-92471246D01*
X110823242Y-92681127D01*
X110823242Y-92681130D01*
X110888904Y-92883217D01*
X110985375Y-93072550D01*
X111024728Y-93126716D01*
X111657037Y-92494408D01*
X111674075Y-92557993D01*
X111739901Y-92672007D01*
X111832993Y-92765099D01*
X111947007Y-92830925D01*
X112010590Y-92847962D01*
X111378282Y-93480269D01*
X111378282Y-93480270D01*
X111432449Y-93519624D01*
X111621782Y-93616095D01*
X111797973Y-93673343D01*
X111855648Y-93712780D01*
X111882847Y-93777139D01*
X111870932Y-93845985D01*
X111823688Y-93897461D01*
X111807108Y-93905835D01*
X111642403Y-93974057D01*
X111470342Y-94089024D01*
X111324024Y-94235342D01*
X111209058Y-94407403D01*
X111129870Y-94598579D01*
X111129868Y-94598587D01*
X111089500Y-94801530D01*
X111089500Y-95008469D01*
X111129868Y-95211412D01*
X111129870Y-95211420D01*
X111209058Y-95402596D01*
X111324024Y-95574657D01*
X111470342Y-95720975D01*
X111470345Y-95720977D01*
X111642402Y-95835941D01*
X111833580Y-95915130D01*
X112036530Y-95955499D01*
X112036534Y-95955500D01*
X112036535Y-95955500D01*
X112243466Y-95955500D01*
X112243466Y-95955499D01*
X112336098Y-95937074D01*
X112405689Y-95943301D01*
X112460866Y-95986164D01*
X112484111Y-96052053D01*
X112468044Y-96120050D01*
X112447970Y-96146372D01*
X111846162Y-96748181D01*
X111784839Y-96781666D01*
X111758481Y-96784500D01*
X105951005Y-96784500D01*
X105815677Y-96811418D01*
X105815667Y-96811421D01*
X105688195Y-96864221D01*
X105688182Y-96864228D01*
X105573458Y-96940885D01*
X105573454Y-96940888D01*
X105475888Y-97038454D01*
X105475885Y-97038458D01*
X105399228Y-97153182D01*
X105399221Y-97153195D01*
X105346421Y-97280667D01*
X105346418Y-97280677D01*
X105319500Y-97416004D01*
X105319500Y-97416007D01*
X105319500Y-97553993D01*
X105319500Y-97553995D01*
X105319499Y-97553995D01*
X94813966Y-97553995D01*
X92727075Y-95467104D01*
X92693590Y-95405781D01*
X92698574Y-95336089D01*
X92700163Y-95332049D01*
X92750130Y-95211420D01*
X92790500Y-95008465D01*
X92790500Y-94801535D01*
X92790499Y-94801530D01*
X93229500Y-94801530D01*
X93229500Y-95008469D01*
X93269868Y-95211412D01*
X93269870Y-95211420D01*
X93349058Y-95402596D01*
X93464024Y-95574657D01*
X93610342Y-95720975D01*
X93610345Y-95720977D01*
X93782402Y-95835941D01*
X93973580Y-95915130D01*
X94176530Y-95955499D01*
X94176534Y-95955500D01*
X94176535Y-95955500D01*
X94383466Y-95955500D01*
X94383467Y-95955499D01*
X94586420Y-95915130D01*
X94777598Y-95835941D01*
X94949655Y-95720977D01*
X95095977Y-95574655D01*
X95210941Y-95402598D01*
X95290130Y-95211420D01*
X95330500Y-95008465D01*
X95330500Y-94801535D01*
X95290130Y-94598580D01*
X95210941Y-94407402D01*
X95095977Y-94235345D01*
X95095975Y-94235342D01*
X94949657Y-94089024D01*
X94863626Y-94031541D01*
X94777598Y-93974059D01*
X94777593Y-93974057D01*
X94586420Y-93894870D01*
X94586412Y-93894868D01*
X94383469Y-93854500D01*
X94383465Y-93854500D01*
X94176535Y-93854500D01*
X94176530Y-93854500D01*
X93973587Y-93894868D01*
X93973579Y-93894870D01*
X93782403Y-93974058D01*
X93610342Y-94089024D01*
X93464024Y-94235342D01*
X93349058Y-94407403D01*
X93269870Y-94598579D01*
X93269868Y-94598587D01*
X93229500Y-94801530D01*
X92790499Y-94801530D01*
X92750130Y-94598580D01*
X92670941Y-94407402D01*
X92555977Y-94235345D01*
X92555975Y-94235342D01*
X92409657Y-94089024D01*
X92323626Y-94031541D01*
X92237598Y-93974059D01*
X92237593Y-93974057D01*
X92046420Y-93894870D01*
X92046412Y-93894868D01*
X91843469Y-93854500D01*
X91843465Y-93854500D01*
X91636535Y-93854500D01*
X91636530Y-93854500D01*
X91433587Y-93894868D01*
X91433579Y-93894870D01*
X91242403Y-93974058D01*
X91070342Y-94089024D01*
X90924024Y-94235342D01*
X90809058Y-94407403D01*
X90729870Y-94598579D01*
X90729868Y-94598587D01*
X90689500Y-94801530D01*
X84180500Y-94801530D01*
X84180500Y-92261530D01*
X90689500Y-92261530D01*
X90689500Y-92468469D01*
X90729868Y-92671412D01*
X90729870Y-92671420D01*
X90809058Y-92862596D01*
X90924024Y-93034657D01*
X91070342Y-93180975D01*
X91070345Y-93180977D01*
X91242402Y-93295941D01*
X91433580Y-93375130D01*
X91636530Y-93415499D01*
X91636534Y-93415500D01*
X91636535Y-93415500D01*
X91843466Y-93415500D01*
X91843467Y-93415499D01*
X92046420Y-93375130D01*
X92237598Y-93295941D01*
X92409655Y-93180977D01*
X92555977Y-93034655D01*
X92670941Y-92862598D01*
X92750130Y-92671420D01*
X92790500Y-92468465D01*
X92790500Y-92261535D01*
X92790499Y-92261532D01*
X92790499Y-92261530D01*
X93229500Y-92261530D01*
X93229500Y-92468469D01*
X93269868Y-92671412D01*
X93269870Y-92671420D01*
X93349058Y-92862596D01*
X93464024Y-93034657D01*
X93610342Y-93180975D01*
X93610345Y-93180977D01*
X93782402Y-93295941D01*
X93973580Y-93375130D01*
X94176530Y-93415499D01*
X94176534Y-93415500D01*
X94176535Y-93415500D01*
X94383466Y-93415500D01*
X94383467Y-93415499D01*
X94586420Y-93375130D01*
X94777598Y-93295941D01*
X94949655Y-93180977D01*
X95095977Y-93034655D01*
X95210941Y-92862598D01*
X95290130Y-92671420D01*
X95330500Y-92468465D01*
X95330500Y-92261535D01*
X95330500Y-92261534D01*
X95330500Y-92261532D01*
X95330499Y-92261531D01*
X95330499Y-92261530D01*
X95290130Y-92058580D01*
X95210941Y-91867402D01*
X95095977Y-91695345D01*
X95095975Y-91695342D01*
X94949657Y-91549024D01*
X94863626Y-91491541D01*
X94777598Y-91434059D01*
X94753574Y-91424108D01*
X94586420Y-91354870D01*
X94586412Y-91354868D01*
X94383469Y-91314500D01*
X94383465Y-91314500D01*
X94176535Y-91314500D01*
X94176530Y-91314500D01*
X93973587Y-91354868D01*
X93973579Y-91354870D01*
X93782403Y-91434058D01*
X93610342Y-91549024D01*
X93464024Y-91695342D01*
X93349058Y-91867403D01*
X93269870Y-92058579D01*
X93269868Y-92058587D01*
X93229500Y-92261530D01*
X92790499Y-92261530D01*
X92750131Y-92058587D01*
X92750130Y-92058580D01*
X92670941Y-91867402D01*
X92555977Y-91695345D01*
X92555975Y-91695342D01*
X92409657Y-91549024D01*
X92323626Y-91491541D01*
X92237598Y-91434059D01*
X92213574Y-91424108D01*
X92046420Y-91354870D01*
X92046412Y-91354868D01*
X91843469Y-91314500D01*
X91843465Y-91314500D01*
X91636535Y-91314500D01*
X91636530Y-91314500D01*
X91433587Y-91354868D01*
X91433579Y-91354870D01*
X91242403Y-91434058D01*
X91070342Y-91549024D01*
X90924024Y-91695342D01*
X90809058Y-91867403D01*
X90729870Y-92058579D01*
X90729868Y-92058587D01*
X90689500Y-92261530D01*
X84180500Y-92261530D01*
X84180500Y-89721530D01*
X90689500Y-89721530D01*
X90689500Y-89928469D01*
X90729868Y-90131412D01*
X90729870Y-90131420D01*
X90809058Y-90322596D01*
X90924024Y-90494657D01*
X91070342Y-90640975D01*
X91070345Y-90640977D01*
X91242402Y-90755941D01*
X91433580Y-90835130D01*
X91598855Y-90868005D01*
X91636530Y-90875499D01*
X91636534Y-90875500D01*
X91636535Y-90875500D01*
X91843466Y-90875500D01*
X91843467Y-90875499D01*
X92046420Y-90835130D01*
X92237598Y-90755941D01*
X92409655Y-90640977D01*
X92555977Y-90494655D01*
X92670941Y-90322598D01*
X92750130Y-90131420D01*
X92790500Y-89928465D01*
X92790500Y-89721535D01*
X92790499Y-89721530D01*
X93229500Y-89721530D01*
X93229500Y-89928469D01*
X93269868Y-90131412D01*
X93269870Y-90131420D01*
X93349058Y-90322596D01*
X93464024Y-90494657D01*
X93610342Y-90640975D01*
X93610345Y-90640977D01*
X93782402Y-90755941D01*
X93973580Y-90835130D01*
X94138855Y-90868005D01*
X94176530Y-90875499D01*
X94176534Y-90875500D01*
X94176535Y-90875500D01*
X94383466Y-90875500D01*
X94383467Y-90875499D01*
X94586420Y-90835130D01*
X94777598Y-90755941D01*
X94949655Y-90640977D01*
X95095977Y-90494655D01*
X95210941Y-90322598D01*
X95290130Y-90131420D01*
X95330500Y-89928465D01*
X95330500Y-89721535D01*
X95290130Y-89518580D01*
X95210941Y-89327402D01*
X95095977Y-89155345D01*
X95095975Y-89155342D01*
X94949657Y-89009024D01*
X94863626Y-88951541D01*
X94777598Y-88894059D01*
X94586420Y-88814870D01*
X94586412Y-88814868D01*
X94383469Y-88774500D01*
X94383465Y-88774500D01*
X94176535Y-88774500D01*
X94176530Y-88774500D01*
X93973587Y-88814868D01*
X93973579Y-88814870D01*
X93782403Y-88894058D01*
X93610342Y-89009024D01*
X93464024Y-89155342D01*
X93349058Y-89327403D01*
X93269870Y-89518579D01*
X93269868Y-89518587D01*
X93229500Y-89721530D01*
X92790499Y-89721530D01*
X92750130Y-89518580D01*
X92670941Y-89327402D01*
X92555977Y-89155345D01*
X92555975Y-89155342D01*
X92409657Y-89009024D01*
X92323626Y-88951541D01*
X92237598Y-88894059D01*
X92046420Y-88814870D01*
X92046412Y-88814868D01*
X91843469Y-88774500D01*
X91843465Y-88774500D01*
X91636535Y-88774500D01*
X91636530Y-88774500D01*
X91433587Y-88814868D01*
X91433579Y-88814870D01*
X91242403Y-88894058D01*
X91070342Y-89009024D01*
X90924024Y-89155342D01*
X90809058Y-89327403D01*
X90729870Y-89518579D01*
X90729868Y-89518587D01*
X90689500Y-89721530D01*
X84180500Y-89721530D01*
X84180500Y-87181530D01*
X90689500Y-87181530D01*
X90689500Y-87388469D01*
X90729868Y-87591412D01*
X90729870Y-87591420D01*
X90809058Y-87782596D01*
X90924024Y-87954657D01*
X91070342Y-88100975D01*
X91070345Y-88100977D01*
X91242402Y-88215941D01*
X91433580Y-88295130D01*
X91636530Y-88335499D01*
X91636534Y-88335500D01*
X91636535Y-88335500D01*
X91843466Y-88335500D01*
X91843467Y-88335499D01*
X92046420Y-88295130D01*
X92237598Y-88215941D01*
X92409655Y-88100977D01*
X92555977Y-87954655D01*
X92670941Y-87782598D01*
X92750130Y-87591420D01*
X92790500Y-87388465D01*
X92790500Y-87181535D01*
X92790499Y-87181530D01*
X93229500Y-87181530D01*
X93229500Y-87388469D01*
X93269868Y-87591412D01*
X93269870Y-87591420D01*
X93349058Y-87782596D01*
X93464024Y-87954657D01*
X93610342Y-88100975D01*
X93610345Y-88100977D01*
X93782402Y-88215941D01*
X93973580Y-88295130D01*
X94176530Y-88335499D01*
X94176534Y-88335500D01*
X94176535Y-88335500D01*
X94383466Y-88335500D01*
X94383467Y-88335499D01*
X94586420Y-88295130D01*
X94777598Y-88215941D01*
X94949655Y-88100977D01*
X95095977Y-87954655D01*
X95210941Y-87782598D01*
X95290130Y-87591420D01*
X95330500Y-87388465D01*
X95330500Y-87181535D01*
X95330499Y-87181530D01*
X111089500Y-87181530D01*
X111089500Y-87388469D01*
X111129868Y-87591412D01*
X111129870Y-87591420D01*
X111209058Y-87782596D01*
X111324024Y-87954657D01*
X111470342Y-88100975D01*
X111470345Y-88100977D01*
X111642402Y-88215941D01*
X111833580Y-88295130D01*
X112036530Y-88335499D01*
X112036534Y-88335500D01*
X112036535Y-88335500D01*
X112243466Y-88335500D01*
X112243467Y-88335499D01*
X112446420Y-88295130D01*
X112637598Y-88215941D01*
X112809655Y-88100977D01*
X112955977Y-87954655D01*
X113070941Y-87782598D01*
X113150130Y-87591420D01*
X113190500Y-87388465D01*
X113190500Y-87181535D01*
X113190499Y-87181530D01*
X113629500Y-87181530D01*
X113629500Y-87388469D01*
X113669868Y-87591412D01*
X113669870Y-87591420D01*
X113749058Y-87782596D01*
X113864024Y-87954657D01*
X114010342Y-88100975D01*
X114010345Y-88100977D01*
X114182402Y-88215941D01*
X114373580Y-88295130D01*
X114576530Y-88335499D01*
X114576534Y-88335500D01*
X114576535Y-88335500D01*
X114783466Y-88335500D01*
X114783467Y-88335499D01*
X114986420Y-88295130D01*
X115177598Y-88215941D01*
X115349655Y-88100977D01*
X115495977Y-87954655D01*
X115610941Y-87782598D01*
X115690130Y-87591420D01*
X115730500Y-87388465D01*
X115730500Y-87181535D01*
X115690130Y-86978580D01*
X115610941Y-86787402D01*
X115495977Y-86615345D01*
X115495975Y-86615342D01*
X115349657Y-86469024D01*
X115202702Y-86370833D01*
X115177598Y-86354059D01*
X115154460Y-86344475D01*
X114986420Y-86274870D01*
X114986412Y-86274868D01*
X114783469Y-86234500D01*
X114783465Y-86234500D01*
X114576535Y-86234500D01*
X114576530Y-86234500D01*
X114373587Y-86274868D01*
X114373579Y-86274870D01*
X114182403Y-86354058D01*
X114010342Y-86469024D01*
X113864024Y-86615342D01*
X113749058Y-86787403D01*
X113669870Y-86978579D01*
X113669868Y-86978587D01*
X113629500Y-87181530D01*
X113190499Y-87181530D01*
X113150130Y-86978580D01*
X113070941Y-86787402D01*
X112955977Y-86615345D01*
X112955975Y-86615342D01*
X112809657Y-86469024D01*
X112662702Y-86370833D01*
X112637598Y-86354059D01*
X112614460Y-86344475D01*
X112446420Y-86274870D01*
X112446412Y-86274868D01*
X112243469Y-86234500D01*
X112243465Y-86234500D01*
X112036535Y-86234500D01*
X112036530Y-86234500D01*
X111833587Y-86274868D01*
X111833579Y-86274870D01*
X111642403Y-86354058D01*
X111470342Y-86469024D01*
X111324024Y-86615342D01*
X111209058Y-86787403D01*
X111129870Y-86978579D01*
X111129868Y-86978587D01*
X111089500Y-87181530D01*
X95330499Y-87181530D01*
X95290130Y-86978580D01*
X95210941Y-86787402D01*
X95095977Y-86615345D01*
X95095975Y-86615342D01*
X94949657Y-86469024D01*
X94802702Y-86370833D01*
X94777598Y-86354059D01*
X94754460Y-86344475D01*
X94586420Y-86274870D01*
X94586412Y-86274868D01*
X94383469Y-86234500D01*
X94383465Y-86234500D01*
X94176535Y-86234500D01*
X94176530Y-86234500D01*
X93973587Y-86274868D01*
X93973579Y-86274870D01*
X93782403Y-86354058D01*
X93610342Y-86469024D01*
X93464024Y-86615342D01*
X93349058Y-86787403D01*
X93269870Y-86978579D01*
X93269868Y-86978587D01*
X93229500Y-87181530D01*
X92790499Y-87181530D01*
X92750130Y-86978580D01*
X92670941Y-86787402D01*
X92555977Y-86615345D01*
X92555975Y-86615342D01*
X92409657Y-86469024D01*
X92262702Y-86370833D01*
X92237598Y-86354059D01*
X92214460Y-86344475D01*
X92046420Y-86274870D01*
X92046412Y-86274868D01*
X91843469Y-86234500D01*
X91843465Y-86234500D01*
X91636535Y-86234500D01*
X91636530Y-86234500D01*
X91433587Y-86274868D01*
X91433579Y-86274870D01*
X91242403Y-86354058D01*
X91070342Y-86469024D01*
X90924024Y-86615342D01*
X90809058Y-86787403D01*
X90729870Y-86978579D01*
X90729868Y-86978587D01*
X90689500Y-87181530D01*
X84180500Y-87181530D01*
X84180500Y-84641530D01*
X90689500Y-84641530D01*
X90689500Y-84848469D01*
X90729868Y-85051412D01*
X90729870Y-85051420D01*
X90809058Y-85242596D01*
X90924024Y-85414657D01*
X91070342Y-85560975D01*
X91070345Y-85560977D01*
X91242402Y-85675941D01*
X91433580Y-85755130D01*
X91636530Y-85795499D01*
X91636534Y-85795500D01*
X91636535Y-85795500D01*
X91843466Y-85795500D01*
X91843467Y-85795499D01*
X92046420Y-85755130D01*
X92237598Y-85675941D01*
X92409655Y-85560977D01*
X92555977Y-85414655D01*
X92670941Y-85242598D01*
X92750130Y-85051420D01*
X92790500Y-84848465D01*
X92790500Y-84641535D01*
X92790499Y-84641530D01*
X93229500Y-84641530D01*
X93229500Y-84848469D01*
X93269868Y-85051412D01*
X93269870Y-85051420D01*
X93349058Y-85242596D01*
X93464024Y-85414657D01*
X93610342Y-85560975D01*
X93610345Y-85560977D01*
X93782402Y-85675941D01*
X93973580Y-85755130D01*
X94176530Y-85795499D01*
X94176534Y-85795500D01*
X94176535Y-85795500D01*
X94383466Y-85795500D01*
X94383467Y-85795499D01*
X94586420Y-85755130D01*
X94777598Y-85675941D01*
X94949655Y-85560977D01*
X95095977Y-85414655D01*
X95210941Y-85242598D01*
X95290130Y-85051420D01*
X95330500Y-84848465D01*
X95330500Y-84641535D01*
X95330499Y-84641530D01*
X111089500Y-84641530D01*
X111089500Y-84848469D01*
X111129868Y-85051412D01*
X111129870Y-85051420D01*
X111209058Y-85242596D01*
X111324024Y-85414657D01*
X111470342Y-85560975D01*
X111470345Y-85560977D01*
X111642402Y-85675941D01*
X111833580Y-85755130D01*
X112036530Y-85795499D01*
X112036534Y-85795500D01*
X112036535Y-85795500D01*
X112243466Y-85795500D01*
X112243467Y-85795499D01*
X112446420Y-85755130D01*
X112637598Y-85675941D01*
X112809655Y-85560977D01*
X112955977Y-85414655D01*
X113070941Y-85242598D01*
X113150130Y-85051420D01*
X113190500Y-84848465D01*
X113190500Y-84641535D01*
X113190499Y-84641530D01*
X113629500Y-84641530D01*
X113629500Y-84848469D01*
X113669868Y-85051412D01*
X113669870Y-85051420D01*
X113749058Y-85242596D01*
X113864024Y-85414657D01*
X114010342Y-85560975D01*
X114010345Y-85560977D01*
X114182402Y-85675941D01*
X114373580Y-85755130D01*
X114576530Y-85795499D01*
X114576534Y-85795500D01*
X114576535Y-85795500D01*
X114783466Y-85795500D01*
X114783467Y-85795499D01*
X114986420Y-85755130D01*
X115177598Y-85675941D01*
X115349655Y-85560977D01*
X115495977Y-85414655D01*
X115610941Y-85242598D01*
X115690130Y-85051420D01*
X115730500Y-84848465D01*
X115730500Y-84641535D01*
X115690130Y-84438580D01*
X115610941Y-84247402D01*
X115495977Y-84075345D01*
X115495975Y-84075342D01*
X115349657Y-83929024D01*
X115263626Y-83871541D01*
X115177598Y-83814059D01*
X114986420Y-83734870D01*
X114986412Y-83734868D01*
X114783469Y-83694500D01*
X114783465Y-83694500D01*
X114576535Y-83694500D01*
X114576530Y-83694500D01*
X114373587Y-83734868D01*
X114373579Y-83734870D01*
X114182403Y-83814058D01*
X114010342Y-83929024D01*
X113864024Y-84075342D01*
X113749058Y-84247403D01*
X113669870Y-84438579D01*
X113669868Y-84438587D01*
X113629500Y-84641530D01*
X113190499Y-84641530D01*
X113150130Y-84438580D01*
X113070941Y-84247402D01*
X112955977Y-84075345D01*
X112955975Y-84075342D01*
X112809657Y-83929024D01*
X112723626Y-83871541D01*
X112637598Y-83814059D01*
X112446420Y-83734870D01*
X112446412Y-83734868D01*
X112243469Y-83694500D01*
X112243465Y-83694500D01*
X112036535Y-83694500D01*
X112036530Y-83694500D01*
X111833587Y-83734868D01*
X111833579Y-83734870D01*
X111642403Y-83814058D01*
X111470342Y-83929024D01*
X111324024Y-84075342D01*
X111209058Y-84247403D01*
X111129870Y-84438579D01*
X111129868Y-84438587D01*
X111089500Y-84641530D01*
X95330499Y-84641530D01*
X95290130Y-84438580D01*
X95210941Y-84247402D01*
X95095977Y-84075345D01*
X95095975Y-84075342D01*
X94949657Y-83929024D01*
X94863626Y-83871541D01*
X94777598Y-83814059D01*
X94586420Y-83734870D01*
X94586412Y-83734868D01*
X94383469Y-83694500D01*
X94383465Y-83694500D01*
X94176535Y-83694500D01*
X94176530Y-83694500D01*
X93973587Y-83734868D01*
X93973579Y-83734870D01*
X93782403Y-83814058D01*
X93610342Y-83929024D01*
X93464024Y-84075342D01*
X93349058Y-84247403D01*
X93269870Y-84438579D01*
X93269868Y-84438587D01*
X93229500Y-84641530D01*
X92790499Y-84641530D01*
X92750130Y-84438580D01*
X92670941Y-84247402D01*
X92555977Y-84075345D01*
X92555975Y-84075342D01*
X92409657Y-83929024D01*
X92323626Y-83871541D01*
X92237598Y-83814059D01*
X92046420Y-83734870D01*
X92046412Y-83734868D01*
X91843469Y-83694500D01*
X91843465Y-83694500D01*
X91636535Y-83694500D01*
X91636530Y-83694500D01*
X91433587Y-83734868D01*
X91433579Y-83734870D01*
X91242403Y-83814058D01*
X91070342Y-83929024D01*
X90924024Y-84075342D01*
X90809058Y-84247403D01*
X90729870Y-84438579D01*
X90729868Y-84438587D01*
X90689500Y-84641530D01*
X84180500Y-84641530D01*
X84180500Y-82356519D01*
X84200185Y-82289480D01*
X84216819Y-82268838D01*
X84384127Y-82101530D01*
X90689500Y-82101530D01*
X90689500Y-82308469D01*
X90729868Y-82511412D01*
X90729870Y-82511420D01*
X90809058Y-82702596D01*
X90924024Y-82874657D01*
X91070342Y-83020975D01*
X91070345Y-83020977D01*
X91242402Y-83135941D01*
X91433580Y-83215130D01*
X91636530Y-83255499D01*
X91636534Y-83255500D01*
X91636535Y-83255500D01*
X91843466Y-83255500D01*
X91843467Y-83255499D01*
X92046420Y-83215130D01*
X92237598Y-83135941D01*
X92409655Y-83020977D01*
X92555977Y-82874655D01*
X92670941Y-82702598D01*
X92750130Y-82511420D01*
X92790500Y-82308465D01*
X92790500Y-82101535D01*
X92790499Y-82101530D01*
X93229500Y-82101530D01*
X93229500Y-82308469D01*
X93269868Y-82511412D01*
X93269870Y-82511420D01*
X93349058Y-82702596D01*
X93464024Y-82874657D01*
X93610342Y-83020975D01*
X93610345Y-83020977D01*
X93782402Y-83135941D01*
X93973580Y-83215130D01*
X94176530Y-83255499D01*
X94176534Y-83255500D01*
X94176535Y-83255500D01*
X94383466Y-83255500D01*
X94383467Y-83255499D01*
X94586420Y-83215130D01*
X94777598Y-83135941D01*
X94949655Y-83020977D01*
X95095977Y-82874655D01*
X95210941Y-82702598D01*
X95290130Y-82511420D01*
X95330500Y-82308465D01*
X95330500Y-82101535D01*
X95330499Y-82101530D01*
X111089500Y-82101530D01*
X111089500Y-82308469D01*
X111129868Y-82511412D01*
X111129870Y-82511420D01*
X111209058Y-82702596D01*
X111324024Y-82874657D01*
X111470342Y-83020975D01*
X111470345Y-83020977D01*
X111642402Y-83135941D01*
X111833580Y-83215130D01*
X112036530Y-83255499D01*
X112036534Y-83255500D01*
X112036535Y-83255500D01*
X112243466Y-83255500D01*
X112243467Y-83255499D01*
X112446420Y-83215130D01*
X112637598Y-83135941D01*
X112809655Y-83020977D01*
X112955977Y-82874655D01*
X113070941Y-82702598D01*
X113150130Y-82511420D01*
X113190500Y-82308465D01*
X113190500Y-82101535D01*
X113190499Y-82101530D01*
X113629500Y-82101530D01*
X113629500Y-82308469D01*
X113669868Y-82511412D01*
X113669870Y-82511420D01*
X113749058Y-82702596D01*
X113864024Y-82874657D01*
X114010342Y-83020975D01*
X114010345Y-83020977D01*
X114182402Y-83135941D01*
X114373580Y-83215130D01*
X114576530Y-83255499D01*
X114576534Y-83255500D01*
X114576535Y-83255500D01*
X114783466Y-83255500D01*
X114783467Y-83255499D01*
X114986420Y-83215130D01*
X115177598Y-83135941D01*
X115349655Y-83020977D01*
X115495977Y-82874655D01*
X115610941Y-82702598D01*
X115690130Y-82511420D01*
X115730500Y-82308465D01*
X115730500Y-82101535D01*
X115690130Y-81898580D01*
X115610941Y-81707402D01*
X115495977Y-81535345D01*
X115495975Y-81535342D01*
X115349657Y-81389024D01*
X115263626Y-81331541D01*
X115177598Y-81274059D01*
X114986420Y-81194870D01*
X114986412Y-81194868D01*
X114783469Y-81154500D01*
X114783465Y-81154500D01*
X114576535Y-81154500D01*
X114576530Y-81154500D01*
X114373587Y-81194868D01*
X114373579Y-81194870D01*
X114182403Y-81274058D01*
X114010342Y-81389024D01*
X113864024Y-81535342D01*
X113749058Y-81707403D01*
X113669870Y-81898579D01*
X113669868Y-81898587D01*
X113629500Y-82101530D01*
X113190499Y-82101530D01*
X113150130Y-81898580D01*
X113070941Y-81707402D01*
X112955977Y-81535345D01*
X112955975Y-81535342D01*
X112809657Y-81389024D01*
X112723626Y-81331541D01*
X112637598Y-81274059D01*
X112446420Y-81194870D01*
X112446412Y-81194868D01*
X112243469Y-81154500D01*
X112243465Y-81154500D01*
X112036535Y-81154500D01*
X112036530Y-81154500D01*
X111833587Y-81194868D01*
X111833579Y-81194870D01*
X111642403Y-81274058D01*
X111470342Y-81389024D01*
X111324024Y-81535342D01*
X111209058Y-81707403D01*
X111129870Y-81898579D01*
X111129868Y-81898587D01*
X111089500Y-82101530D01*
X95330499Y-82101530D01*
X95290130Y-81898580D01*
X95210941Y-81707402D01*
X95095977Y-81535345D01*
X95095975Y-81535342D01*
X94949657Y-81389024D01*
X94863626Y-81331541D01*
X94777598Y-81274059D01*
X94586420Y-81194870D01*
X94586412Y-81194868D01*
X94383469Y-81154500D01*
X94383465Y-81154500D01*
X94176535Y-81154500D01*
X94176530Y-81154500D01*
X93973587Y-81194868D01*
X93973579Y-81194870D01*
X93782403Y-81274058D01*
X93610342Y-81389024D01*
X93464024Y-81535342D01*
X93349058Y-81707403D01*
X93269870Y-81898579D01*
X93269868Y-81898587D01*
X93229500Y-82101530D01*
X92790499Y-82101530D01*
X92750130Y-81898580D01*
X92670941Y-81707402D01*
X92555977Y-81535345D01*
X92555975Y-81535342D01*
X92409657Y-81389024D01*
X92323626Y-81331541D01*
X92237598Y-81274059D01*
X92046420Y-81194870D01*
X92046412Y-81194868D01*
X91843469Y-81154500D01*
X91843465Y-81154500D01*
X91636535Y-81154500D01*
X91636530Y-81154500D01*
X91433587Y-81194868D01*
X91433579Y-81194870D01*
X91242403Y-81274058D01*
X91070342Y-81389024D01*
X90924024Y-81535342D01*
X90809058Y-81707403D01*
X90729870Y-81898579D01*
X90729868Y-81898587D01*
X90689500Y-82101530D01*
X84384127Y-82101530D01*
X86924127Y-79561530D01*
X90689500Y-79561530D01*
X90689500Y-79768469D01*
X90729868Y-79971412D01*
X90729870Y-79971420D01*
X90809058Y-80162596D01*
X90924024Y-80334657D01*
X91070342Y-80480975D01*
X91070345Y-80480977D01*
X91242402Y-80595941D01*
X91433580Y-80675130D01*
X91636530Y-80715499D01*
X91636534Y-80715500D01*
X91636535Y-80715500D01*
X91843466Y-80715500D01*
X91843467Y-80715499D01*
X92046420Y-80675130D01*
X92237598Y-80595941D01*
X92409655Y-80480977D01*
X92555977Y-80334655D01*
X92670941Y-80162598D01*
X92750130Y-79971420D01*
X92790500Y-79768465D01*
X92790500Y-79561535D01*
X92790499Y-79561530D01*
X93229500Y-79561530D01*
X93229500Y-79768469D01*
X93269868Y-79971412D01*
X93269870Y-79971420D01*
X93349058Y-80162596D01*
X93464024Y-80334657D01*
X93610342Y-80480975D01*
X93610345Y-80480977D01*
X93782402Y-80595941D01*
X93973580Y-80675130D01*
X94176530Y-80715499D01*
X94176534Y-80715500D01*
X94176535Y-80715500D01*
X94383466Y-80715500D01*
X94383467Y-80715499D01*
X94586420Y-80675130D01*
X94777598Y-80595941D01*
X94949655Y-80480977D01*
X95095977Y-80334655D01*
X95210941Y-80162598D01*
X95290130Y-79971420D01*
X95330500Y-79768465D01*
X95330500Y-79561535D01*
X95330499Y-79561530D01*
X111089500Y-79561530D01*
X111089500Y-79768469D01*
X111129868Y-79971412D01*
X111129870Y-79971420D01*
X111209058Y-80162596D01*
X111324024Y-80334657D01*
X111470342Y-80480975D01*
X111470345Y-80480977D01*
X111642402Y-80595941D01*
X111833580Y-80675130D01*
X112036530Y-80715499D01*
X112036534Y-80715500D01*
X112036535Y-80715500D01*
X112243466Y-80715500D01*
X112243467Y-80715499D01*
X112446420Y-80675130D01*
X112637598Y-80595941D01*
X112809655Y-80480977D01*
X112955977Y-80334655D01*
X113070941Y-80162598D01*
X113150130Y-79971420D01*
X113190500Y-79768465D01*
X113190500Y-79561535D01*
X113190499Y-79561530D01*
X113629500Y-79561530D01*
X113629500Y-79768469D01*
X113669868Y-79971412D01*
X113669870Y-79971420D01*
X113749058Y-80162596D01*
X113864024Y-80334657D01*
X114010342Y-80480975D01*
X114010345Y-80480977D01*
X114182402Y-80595941D01*
X114373580Y-80675130D01*
X114576530Y-80715499D01*
X114576534Y-80715500D01*
X114576535Y-80715500D01*
X114783466Y-80715500D01*
X114783467Y-80715499D01*
X114986420Y-80675130D01*
X115177598Y-80595941D01*
X115349655Y-80480977D01*
X115495977Y-80334655D01*
X115610941Y-80162598D01*
X115690130Y-79971420D01*
X115730500Y-79768465D01*
X115730500Y-79561535D01*
X115690130Y-79358580D01*
X115610941Y-79167402D01*
X115495977Y-78995345D01*
X115495975Y-78995342D01*
X115349657Y-78849024D01*
X115223670Y-78764843D01*
X115177598Y-78734059D01*
X115127916Y-78713480D01*
X114986420Y-78654870D01*
X114986412Y-78654868D01*
X114783469Y-78614500D01*
X114783465Y-78614500D01*
X114576535Y-78614500D01*
X114576530Y-78614500D01*
X114373587Y-78654868D01*
X114373579Y-78654870D01*
X114182403Y-78734058D01*
X114010342Y-78849024D01*
X113864024Y-78995342D01*
X113749058Y-79167403D01*
X113669870Y-79358579D01*
X113669868Y-79358587D01*
X113629500Y-79561530D01*
X113190499Y-79561530D01*
X113150130Y-79358580D01*
X113070941Y-79167402D01*
X112955977Y-78995345D01*
X112955975Y-78995342D01*
X112809657Y-78849024D01*
X112683670Y-78764843D01*
X112637598Y-78734059D01*
X112587916Y-78713480D01*
X112446420Y-78654870D01*
X112446412Y-78654868D01*
X112243469Y-78614500D01*
X112243465Y-78614500D01*
X112036535Y-78614500D01*
X112036530Y-78614500D01*
X111833587Y-78654868D01*
X111833579Y-78654870D01*
X111642403Y-78734058D01*
X111470342Y-78849024D01*
X111324024Y-78995342D01*
X111209058Y-79167403D01*
X111129870Y-79358579D01*
X111129868Y-79358587D01*
X111089500Y-79561530D01*
X95330499Y-79561530D01*
X95290130Y-79358580D01*
X95210941Y-79167402D01*
X95095977Y-78995345D01*
X95095975Y-78995342D01*
X94949657Y-78849024D01*
X94823670Y-78764843D01*
X94777598Y-78734059D01*
X94727916Y-78713480D01*
X94586420Y-78654870D01*
X94586412Y-78654868D01*
X94383469Y-78614500D01*
X94383465Y-78614500D01*
X94176535Y-78614500D01*
X94176530Y-78614500D01*
X93973587Y-78654868D01*
X93973579Y-78654870D01*
X93782403Y-78734058D01*
X93610342Y-78849024D01*
X93464024Y-78995342D01*
X93349058Y-79167403D01*
X93269870Y-79358579D01*
X93269868Y-79358587D01*
X93229500Y-79561530D01*
X92790499Y-79561530D01*
X92750130Y-79358580D01*
X92670941Y-79167402D01*
X92555977Y-78995345D01*
X92555975Y-78995342D01*
X92409657Y-78849024D01*
X92283670Y-78764843D01*
X92237598Y-78734059D01*
X92187916Y-78713480D01*
X92046420Y-78654870D01*
X92046412Y-78654868D01*
X91843469Y-78614500D01*
X91843465Y-78614500D01*
X91636535Y-78614500D01*
X91636530Y-78614500D01*
X91433587Y-78654868D01*
X91433579Y-78654870D01*
X91242403Y-78734058D01*
X91070342Y-78849024D01*
X90924024Y-78995342D01*
X90809058Y-79167403D01*
X90729870Y-79358579D01*
X90729868Y-79358587D01*
X90689500Y-79561530D01*
X86924127Y-79561530D01*
X86984111Y-79501546D01*
X86984114Y-79501543D01*
X87060775Y-79386811D01*
X87113580Y-79259329D01*
X87113580Y-79259325D01*
X87113582Y-79259322D01*
X87118934Y-79232411D01*
X87118934Y-79232409D01*
X87140500Y-79123993D01*
X87140500Y-77021530D01*
X90689500Y-77021530D01*
X90689500Y-77228469D01*
X90729868Y-77431412D01*
X90729870Y-77431420D01*
X90808611Y-77621518D01*
X90809059Y-77622598D01*
X90826238Y-77648308D01*
X90924024Y-77794657D01*
X91070342Y-77940975D01*
X91070345Y-77940977D01*
X91242402Y-78055941D01*
X91433580Y-78135130D01*
X91578052Y-78163867D01*
X91636530Y-78175499D01*
X91636534Y-78175500D01*
X91636535Y-78175500D01*
X91843466Y-78175500D01*
X91843467Y-78175499D01*
X92046420Y-78135130D01*
X92237598Y-78055941D01*
X92409655Y-77940977D01*
X92555977Y-77794655D01*
X92670941Y-77622598D01*
X92750130Y-77431420D01*
X92790500Y-77228465D01*
X92790500Y-77021535D01*
X92750130Y-76818580D01*
X92670941Y-76627402D01*
X92555977Y-76455345D01*
X92555975Y-76455342D01*
X92409657Y-76309024D01*
X92329173Y-76255247D01*
X93229500Y-76255247D01*
X93229500Y-77994752D01*
X93241131Y-78053229D01*
X93241132Y-78053230D01*
X93285447Y-78119552D01*
X93351769Y-78163867D01*
X93351770Y-78163868D01*
X93410247Y-78175499D01*
X93410250Y-78175500D01*
X93410252Y-78175500D01*
X95149750Y-78175500D01*
X95149751Y-78175499D01*
X95164568Y-78172552D01*
X95208229Y-78163868D01*
X95208229Y-78163867D01*
X95208231Y-78163867D01*
X95274552Y-78119552D01*
X95318867Y-78053231D01*
X95318867Y-78053229D01*
X95318868Y-78053229D01*
X95330499Y-77994752D01*
X95330500Y-77994750D01*
X95330500Y-77021530D01*
X111089500Y-77021530D01*
X111089500Y-77228469D01*
X111129868Y-77431412D01*
X111129870Y-77431420D01*
X111208611Y-77621518D01*
X111209059Y-77622598D01*
X111226238Y-77648308D01*
X111324024Y-77794657D01*
X111470342Y-77940975D01*
X111470345Y-77940977D01*
X111642402Y-78055941D01*
X111833580Y-78135130D01*
X111978052Y-78163867D01*
X112036530Y-78175499D01*
X112036534Y-78175500D01*
X112036535Y-78175500D01*
X112243466Y-78175500D01*
X112243467Y-78175499D01*
X112446420Y-78135130D01*
X112637598Y-78055941D01*
X112809655Y-77940977D01*
X112955977Y-77794655D01*
X113070941Y-77622598D01*
X113150130Y-77431420D01*
X113190500Y-77228465D01*
X113190500Y-77021535D01*
X113150130Y-76818580D01*
X113070941Y-76627402D01*
X112955977Y-76455345D01*
X112955975Y-76455342D01*
X112809657Y-76309024D01*
X112729173Y-76255247D01*
X113629500Y-76255247D01*
X113629500Y-77994752D01*
X113641131Y-78053229D01*
X113641132Y-78053230D01*
X113685447Y-78119552D01*
X113751769Y-78163867D01*
X113751770Y-78163868D01*
X113810247Y-78175499D01*
X113810250Y-78175500D01*
X113810252Y-78175500D01*
X115549750Y-78175500D01*
X115549751Y-78175499D01*
X115564568Y-78172552D01*
X115608229Y-78163868D01*
X115608229Y-78163867D01*
X115608231Y-78163867D01*
X115674552Y-78119552D01*
X115718867Y-78053231D01*
X115718867Y-78053229D01*
X115718868Y-78053229D01*
X115730499Y-77994752D01*
X115730500Y-77994750D01*
X115730500Y-76255249D01*
X115730499Y-76255247D01*
X115718868Y-76196770D01*
X115718867Y-76196769D01*
X115674552Y-76130447D01*
X115608230Y-76086132D01*
X115608229Y-76086131D01*
X115549752Y-76074500D01*
X115549748Y-76074500D01*
X113810252Y-76074500D01*
X113810247Y-76074500D01*
X113751770Y-76086131D01*
X113751769Y-76086132D01*
X113685447Y-76130447D01*
X113641132Y-76196769D01*
X113641131Y-76196770D01*
X113629500Y-76255247D01*
X112729173Y-76255247D01*
X112654179Y-76205138D01*
X112637598Y-76194059D01*
X112633047Y-76192174D01*
X112446420Y-76114870D01*
X112446412Y-76114868D01*
X112243469Y-76074500D01*
X112243465Y-76074500D01*
X112036535Y-76074500D01*
X112036530Y-76074500D01*
X111833587Y-76114868D01*
X111833579Y-76114870D01*
X111642403Y-76194058D01*
X111470342Y-76309024D01*
X111324024Y-76455342D01*
X111209058Y-76627403D01*
X111129870Y-76818579D01*
X111129868Y-76818587D01*
X111089500Y-77021530D01*
X95330500Y-77021530D01*
X95330500Y-76255249D01*
X95330499Y-76255247D01*
X95318868Y-76196770D01*
X95318867Y-76196769D01*
X95274552Y-76130447D01*
X95208230Y-76086132D01*
X95208229Y-76086131D01*
X95149752Y-76074500D01*
X95149748Y-76074500D01*
X93410252Y-76074500D01*
X93410247Y-76074500D01*
X93351770Y-76086131D01*
X93351769Y-76086132D01*
X93285447Y-76130447D01*
X93241132Y-76196769D01*
X93241131Y-76196770D01*
X93229500Y-76255247D01*
X92329173Y-76255247D01*
X92254179Y-76205138D01*
X92237598Y-76194059D01*
X92233047Y-76192174D01*
X92046420Y-76114870D01*
X92046412Y-76114868D01*
X91843469Y-76074500D01*
X91843465Y-76074500D01*
X91636535Y-76074500D01*
X91636530Y-76074500D01*
X91433587Y-76114868D01*
X91433579Y-76114870D01*
X91242403Y-76194058D01*
X91070342Y-76309024D01*
X90924024Y-76455342D01*
X90809058Y-76627403D01*
X90729870Y-76818579D01*
X90729868Y-76818587D01*
X90689500Y-77021530D01*
X87140500Y-77021530D01*
X87140500Y-76340473D01*
X87139172Y-76333799D01*
X87113580Y-76205138D01*
X87110114Y-76196770D01*
X87060777Y-76077658D01*
X86984112Y-75962920D01*
X86400652Y-75379460D01*
X86367167Y-75318137D01*
X86364333Y-75291779D01*
X86364333Y-75179833D01*
X86364332Y-75179829D01*
X86345516Y-75085235D01*
X86323963Y-74976879D01*
X86244774Y-74785701D01*
X86129810Y-74613644D01*
X86129808Y-74613641D01*
X86129807Y-74613640D01*
X85771359Y-74255193D01*
X85771355Y-74255190D01*
X85599305Y-74140229D01*
X85599296Y-74140224D01*
X85408121Y-74061037D01*
X85408113Y-74061035D01*
X85205170Y-74020667D01*
X85205166Y-74020667D01*
X85193674Y-74020667D01*
X85126635Y-74000982D01*
X85080880Y-73948178D01*
X85070936Y-73879020D01*
X85099961Y-73815464D01*
X85106102Y-73808876D01*
X86154832Y-72763245D01*
X86170166Y-72752864D01*
X86201337Y-72716878D01*
X86235045Y-72683270D01*
X86238444Y-72677400D01*
X86252015Y-72658371D01*
X86256449Y-72653254D01*
X86275275Y-72614481D01*
X86279496Y-72606540D01*
X86301107Y-72569239D01*
X86302868Y-72562702D01*
X86311055Y-72540797D01*
X86314013Y-72534705D01*
X86322157Y-72492410D01*
X86323015Y-72487955D01*
X86335403Y-72441996D01*
X86335430Y-72423484D01*
X86338932Y-72405300D01*
X86336198Y-72367174D01*
X86335851Y-72362325D01*
X86335850Y-72362324D01*
X86335527Y-72357809D01*
X86335598Y-72310211D01*
X86330833Y-72292322D01*
X86329509Y-72273852D01*
X86313928Y-72228859D01*
X86301678Y-72182868D01*
X86292446Y-72166822D01*
X86286386Y-72149323D01*
X86259692Y-72109898D01*
X86235955Y-72068642D01*
X86222883Y-72055531D01*
X86212502Y-72040199D01*
X86212500Y-72040197D01*
X86210645Y-72037457D01*
X86189357Y-71970909D01*
X86207427Y-71903417D01*
X86226687Y-71879220D01*
X87152946Y-70974989D01*
X87214663Y-70942247D01*
X87284290Y-70948070D01*
G37*
%TD.AperFunction*%
%TD*%
M02*
