%TF.GenerationSoftware,KiCad,Pcbnew,9.0.7*%
%TF.CreationDate,2026-09-18T19:29:15+02:00*%
%TF.ProjectId,drone,64726f6e-652e-46b6-9963-61645f706362,rev?*%
%TF.SameCoordinates,Original*%
%TF.FileFunction,Soldermask,Top*%
%TF.FilePolarity,Negative*%
%FSLAX46Y46*%
G04 Gerber Fmt 4.6, Leading zero omitted, Abs format (unit mm)*
G04 Created by KiCad (PCBNEW 9.0.7) date 2026-09-18 19:29:15*
%MOMM*%
%LPD*%
G01*
G04 APERTURE LIST*
G04 Aperture macros list*
%AMRoundRect*
0 Rectangle with rounded corners*
0 $1 Rounding radius*
0 $2 $3 $4 $5 $6 $7 $8 $9 X,Y pos of 4 corners*
0 Add a 4 corners polygon primitive as box body*
4,1,4,$2,$3,$4,$5,$6,$7,$8,$9,$2,$3,0*
0 Add four circle primitives for the rounded corners*
1,1,$1+$1,$2,$3*
1,1,$1+$1,$4,$5*
1,1,$1+$1,$6,$7*
1,1,$1+$1,$8,$9*
0 Add four rect primitives between the rounded corners*
20,1,$1+$1,$2,$3,$4,$5,0*
20,1,$1+$1,$4,$5,$6,$7,0*
20,1,$1+$1,$6,$7,$8,$9,0*
20,1,$1+$1,$8,$9,$2,$3,0*%
%AMHorizOval*
0 Thick line with rounded ends*
0 $1 width*
0 $2 $3 position (X,Y) of the first rounded end (center of the circle)*
0 $4 $5 position (X,Y) of the second rounded end (center of the circle)*
0 Add line between two ends*
20,1,$1,$2,$3,$4,$5,0*
0 Add two circle primitives to create the rounded ends*
1,1,$1,$2,$3*
1,1,$1,$4,$5*%
G04 Aperture macros list end*
%ADD10R,1.700000X0.900000*%
%ADD11RoundRect,0.100000X-0.130000X-0.100000X0.130000X-0.100000X0.130000X0.100000X-0.130000X0.100000X0*%
%ADD12RoundRect,0.225000X0.250000X-0.225000X0.250000X0.225000X-0.250000X0.225000X-0.250000X-0.225000X0*%
%ADD13RoundRect,0.100000X0.100000X-0.130000X0.100000X0.130000X-0.100000X0.130000X-0.100000X-0.130000X0*%
%ADD14RoundRect,0.150000X0.587500X0.150000X-0.587500X0.150000X-0.587500X-0.150000X0.587500X-0.150000X0*%
%ADD15RoundRect,0.135000X-0.135000X-0.185000X0.135000X-0.185000X0.135000X0.185000X-0.135000X0.185000X0*%
%ADD16RoundRect,0.150000X-0.587500X-0.150000X0.587500X-0.150000X0.587500X0.150000X-0.587500X0.150000X0*%
%ADD17RoundRect,0.100000X0.130000X0.100000X-0.130000X0.100000X-0.130000X-0.100000X0.130000X-0.100000X0*%
%ADD18RoundRect,0.112500X-0.112500X0.187500X-0.112500X-0.187500X0.112500X-0.187500X0.112500X0.187500X0*%
%ADD19RoundRect,0.200000X-0.275000X0.200000X-0.275000X-0.200000X0.275000X-0.200000X0.275000X0.200000X0*%
%ADD20RoundRect,0.250000X-0.625000X0.350000X-0.625000X-0.350000X0.625000X-0.350000X0.625000X0.350000X0*%
%ADD21O,1.750000X1.200000*%
%ADD22R,1.700000X1.700000*%
%ADD23C,1.700000*%
%ADD24RoundRect,0.150000X-0.150000X0.587500X-0.150000X-0.587500X0.150000X-0.587500X0.150000X0.587500X0*%
%ADD25RoundRect,0.200000X0.200000X0.275000X-0.200000X0.275000X-0.200000X-0.275000X0.200000X-0.275000X0*%
%ADD26RoundRect,0.225000X0.225000X0.250000X-0.225000X0.250000X-0.225000X-0.250000X0.225000X-0.250000X0*%
%ADD27RoundRect,0.060300X-0.716700X-0.341700X0.716700X-0.341700X0.716700X0.341700X-0.716700X0.341700X0*%
%ADD28RoundRect,0.250000X0.106066X-0.954594X0.954594X-0.106066X-0.106066X0.954594X-0.954594X0.106066X0*%
%ADD29HorizOval,1.700000X-0.106066X0.106066X0.106066X-0.106066X0*%
%ADD30RoundRect,0.250000X-0.954594X-0.106066X-0.106066X-0.954594X0.954594X0.106066X0.106066X0.954594X0*%
%ADD31HorizOval,1.700000X-0.106066X-0.106066X0.106066X0.106066X0*%
%ADD32RoundRect,0.250000X0.954594X0.106066X0.106066X0.954594X-0.954594X-0.106066X-0.106066X-0.954594X0*%
%ADD33HorizOval,1.700000X0.106066X0.106066X-0.106066X-0.106066X0*%
%ADD34RoundRect,0.250000X-0.106066X0.954594X-0.954594X0.106066X0.106066X-0.954594X0.954594X-0.106066X0*%
G04 APERTURE END LIST*
D10*
%TO.C,SW1*%
X122500000Y-103200000D03*
X122500000Y-99800000D03*
%TD*%
D11*
%TO.C,R1*%
X123000000Y-96500000D03*
X123640000Y-96500000D03*
%TD*%
D12*
%TO.C,C7*%
X89500000Y-108025000D03*
X89500000Y-106475000D03*
%TD*%
D13*
%TO.C,D9*%
X123950000Y-93785000D03*
X123950000Y-93145000D03*
%TD*%
D14*
%TO.C,Q3*%
X92300000Y-111095000D03*
X92300000Y-109195000D03*
X90425000Y-110145000D03*
%TD*%
D11*
%TO.C,R9*%
X117235000Y-83435000D03*
X117875000Y-83435000D03*
%TD*%
D14*
%TO.C,Q1*%
X87377500Y-83485000D03*
X87377500Y-81585000D03*
X85502500Y-82535000D03*
%TD*%
D15*
%TO.C,R14*%
X86990000Y-87500000D03*
X88010000Y-87500000D03*
%TD*%
D11*
%TO.C,R10*%
X95860000Y-110840000D03*
X96500000Y-110840000D03*
%TD*%
%TO.C,R8*%
X88880000Y-82085000D03*
X89520000Y-82085000D03*
%TD*%
D16*
%TO.C,Q2*%
X118200000Y-80285000D03*
X118200000Y-82185000D03*
X120075000Y-81235000D03*
%TD*%
D17*
%TO.C,C9*%
X97540000Y-100570000D03*
X96900000Y-100570000D03*
%TD*%
D12*
%TO.C,C6*%
X88000000Y-108025000D03*
X88000000Y-106475000D03*
%TD*%
D18*
%TO.C,D1*%
X92200000Y-100357500D03*
X92200000Y-102457500D03*
%TD*%
D19*
%TO.C,R16*%
X91750000Y-105675000D03*
X91750000Y-107325000D03*
%TD*%
D20*
%TO.C,J23*%
X88290000Y-101115000D03*
D21*
X88290000Y-103115000D03*
%TD*%
D11*
%TO.C,R22*%
X120880000Y-88695000D03*
X121520000Y-88695000D03*
%TD*%
D22*
%TO.C,J1*%
X114680000Y-77125000D03*
D23*
X112140000Y-77125000D03*
X114680000Y-79665000D03*
X112140000Y-79665000D03*
X114680000Y-82205000D03*
X112140000Y-82205000D03*
X114680000Y-84745000D03*
X112140000Y-84745000D03*
X114680000Y-87285000D03*
X112140000Y-87285000D03*
X114680000Y-89825000D03*
X112140000Y-89825000D03*
X114680000Y-92365000D03*
X112140000Y-92365000D03*
X114680000Y-94905000D03*
X112140000Y-94905000D03*
%TD*%
D24*
%TO.C,Q4*%
X116760000Y-108340000D03*
X114860000Y-108340000D03*
X115810000Y-110215000D03*
%TD*%
D25*
%TO.C,R15*%
X85825000Y-88000000D03*
X84175000Y-88000000D03*
%TD*%
D11*
%TO.C,R24*%
X122260000Y-95045000D03*
X122900000Y-95045000D03*
%TD*%
D22*
%TO.C,J2*%
X94110000Y-113825000D03*
D23*
X96650000Y-113825000D03*
X99190000Y-113825000D03*
X101730000Y-113825000D03*
X104270000Y-113825000D03*
X106810000Y-113825000D03*
X109350000Y-113825000D03*
X111890000Y-113825000D03*
%TD*%
D11*
%TO.C,R23*%
X120910000Y-91385000D03*
X121550000Y-91385000D03*
%TD*%
D13*
%TO.C,D8*%
X123910000Y-91165000D03*
X123910000Y-90525000D03*
%TD*%
D26*
%TO.C,C8*%
X99275000Y-97750000D03*
X97725000Y-97750000D03*
%TD*%
D11*
%TO.C,R11*%
X119510000Y-105605000D03*
X120150000Y-105605000D03*
%TD*%
%TO.C,R21*%
X121320000Y-86295000D03*
X121960000Y-86295000D03*
%TD*%
D13*
%TO.C,D6*%
X123930000Y-85775000D03*
X123930000Y-85135000D03*
%TD*%
%TO.C,D7*%
X123940000Y-88435000D03*
X123940000Y-87795000D03*
%TD*%
D22*
%TO.C,J6*%
X94280000Y-77125000D03*
D23*
X91740000Y-77125000D03*
X94280000Y-79665000D03*
X91740000Y-79665000D03*
X94280000Y-82205000D03*
X91740000Y-82205000D03*
X94280000Y-84745000D03*
X91740000Y-84745000D03*
X94280000Y-87285000D03*
X91740000Y-87285000D03*
X94280000Y-89825000D03*
X91740000Y-89825000D03*
X94280000Y-92365000D03*
X91740000Y-92365000D03*
X94280000Y-94905000D03*
X91740000Y-94905000D03*
%TD*%
D27*
%TO.C,U5*%
X94670000Y-104025000D03*
X94670000Y-104975000D03*
X94670000Y-105925000D03*
X97040000Y-105925000D03*
X97040000Y-104025000D03*
%TD*%
D28*
%TO.C,J4*%
X83440000Y-76945000D03*
D29*
X85207767Y-75177233D03*
%TD*%
D30*
%TO.C,J11*%
X120752233Y-74802233D03*
D31*
X122520000Y-76570000D03*
%TD*%
D32*
%TO.C,J16*%
X85720000Y-114360000D03*
D33*
X83952233Y-112592233D03*
%TD*%
D34*
%TO.C,J21*%
X122850000Y-112210000D03*
D29*
X121082233Y-113977767D03*
%TD*%
M02*
