%TF.GenerationSoftware,KiCad,Pcbnew,9.0.7*%
%TF.CreationDate,2026-07-20T11:46:35+02:00*%
%TF.ProjectId,drone,64726f6e-652e-46b6-9963-61645f706362,rev?*%
%TF.SameCoordinates,Original*%
%TF.FileFunction,Component,L1,Top*%
%TF.FilePolarity,Positive*%
%FSLAX46Y46*%
G04 Gerber Fmt 4.6, Leading zero omitted, Abs format (unit mm)*
G04 Created by KiCad (PCBNEW 9.0.7) date 2026-07-20 11:46:35*
%MOMM*%
%LPD*%
G01*
G04 APERTURE LIST*
%TA.AperFunction,ComponentMain*%
%ADD10C,0.300000*%
%TD*%
%TA.AperFunction,ComponentOutline,Courtyard*%
%ADD11C,0.100000*%
%TD*%
%TA.AperFunction,ComponentPin*%
%ADD12P,0.360000X4X0.000000*%
%TD*%
%TA.AperFunction,ComponentPin*%
%ADD13C,0.100000*%
%TD*%
G04 APERTURE END LIST*
D10*
%TO.C,C7*%
%TO.CFtp,C_0201_0603Metric*%
%TO.CVal,10uF/10V*%
%TO.CLbN,Capacitor_SMD*%
%TO.CMnt,SMD*%
%TO.CRot,90*%
X90320000Y-106235000D03*
D11*
X90665000Y-105540000D02*
X90665000Y-106930000D01*
X89975000Y-106930000D01*
X89975000Y-105540000D01*
X90665000Y-105540000D01*
D12*
%TO.P,C7,1*%
X90320000Y-106555000D03*
D13*
%TO.P,C7,2*%
X90320000Y-105915000D03*
%TD*%
D10*
%TO.C,D9*%
%TO.CFtp,LED_0201_0603Metric*%
%TO.CVal,LED_B*%
%TO.CLbN,LED_SMD*%
%TO.CMnt,SMD*%
%TO.CRot,90*%
X123950000Y-93465000D03*
D11*
X124295000Y-92770000D02*
X124295000Y-94160000D01*
X123605000Y-94160000D01*
X123605000Y-92770000D01*
X124295000Y-92770000D01*
D12*
%TO.P,D9,1,K*%
X123950000Y-93785000D03*
D13*
%TO.P,D9,2,A*%
X123950000Y-93145000D03*
%TD*%
D10*
%TO.C,Q3*%
%TO.CFtp,SOT-23*%
%TO.CVal,AO3400A*%
%TO.CLbN,Package_TO_SOT_SMD*%
%TO.CMnt,SMD*%
%TO.CRot,180*%
X91362500Y-110145000D03*
D11*
X92257500Y-108450000D02*
X92257500Y-108650000D01*
X93287500Y-108650000D01*
X93287500Y-109750000D01*
X92257500Y-109750000D01*
X92257500Y-110540000D01*
X93287500Y-110540000D01*
X93287500Y-111640000D01*
X92257500Y-111640000D01*
X92257500Y-111840000D01*
X90467500Y-111840000D01*
X90467500Y-110690000D01*
X89437500Y-110690000D01*
X89437500Y-109600000D01*
X90467500Y-109600000D01*
X90467500Y-108450000D01*
X92257500Y-108450000D01*
D12*
%TO.P,Q3,1,G*%
X92300000Y-111095000D03*
D13*
%TO.P,Q3,2,S*%
X92300000Y-109195000D03*
%TO.P,Q3,3,D*%
X90425000Y-110145000D03*
%TD*%
D10*
%TO.C,R9*%
%TO.CFtp,R_0201_0603Metric*%
%TO.CVal,10K/1\u0025*%
%TO.CLbN,Resistor_SMD*%
%TO.CMnt,SMD*%
%TO.CRot,0*%
X117555000Y-83435000D03*
D11*
X118250000Y-83090000D02*
X118250000Y-83780000D01*
X116860000Y-83780000D01*
X116860000Y-83090000D01*
X118250000Y-83090000D01*
D12*
%TO.P,R9,1*%
X117235000Y-83435000D03*
D13*
%TO.P,R9,2*%
X117875000Y-83435000D03*
%TD*%
D10*
%TO.C,Q1*%
%TO.CFtp,SOT-23*%
%TO.CVal,AO3400A*%
%TO.CLbN,Package_TO_SOT_SMD*%
%TO.CMnt,SMD*%
%TO.CRot,180*%
X86440000Y-82535000D03*
D11*
X87335000Y-80840000D02*
X87335000Y-81040000D01*
X88365000Y-81040000D01*
X88365000Y-82140000D01*
X87335000Y-82140000D01*
X87335000Y-82930000D01*
X88365000Y-82930000D01*
X88365000Y-84030000D01*
X87335000Y-84030000D01*
X87335000Y-84230000D01*
X85545000Y-84230000D01*
X85545000Y-83080000D01*
X84515000Y-83080000D01*
X84515000Y-81990000D01*
X85545000Y-81990000D01*
X85545000Y-80840000D01*
X87335000Y-80840000D01*
D12*
%TO.P,Q1,1,G*%
X87377500Y-83485000D03*
D13*
%TO.P,Q1,2,S*%
X87377500Y-81585000D03*
%TO.P,Q1,3,D*%
X85502500Y-82535000D03*
%TD*%
D10*
%TO.C,R14*%
%TO.CFtp,R_0201_0603Metric*%
%TO.CVal,47.5K/1\u0025*%
%TO.CLbN,Resistor_SMD*%
%TO.CMnt,SMD*%
%TO.CRot,0*%
X87760000Y-87645000D03*
D11*
X88455000Y-87300000D02*
X88455000Y-87990000D01*
X87065000Y-87990000D01*
X87065000Y-87300000D01*
X88455000Y-87300000D01*
D12*
%TO.P,R14,1*%
X87440000Y-87645000D03*
D13*
%TO.P,R14,2*%
X88080000Y-87645000D03*
%TD*%
D10*
%TO.C,R10*%
%TO.CFtp,R_0201_0603Metric*%
%TO.CVal,10K/1\u0025*%
%TO.CLbN,Resistor_SMD*%
%TO.CMnt,SMD*%
%TO.CRot,0*%
X95580000Y-110840000D03*
D11*
X96275000Y-110495000D02*
X96275000Y-111185000D01*
X94885000Y-111185000D01*
X94885000Y-110495000D01*
X96275000Y-110495000D01*
D12*
%TO.P,R10,1*%
X95260000Y-110840000D03*
D13*
%TO.P,R10,2*%
X95900000Y-110840000D03*
%TD*%
D10*
%TO.C,R8*%
%TO.CFtp,R_0201_0603Metric*%
%TO.CVal,10K/1\u0025*%
%TO.CLbN,Resistor_SMD*%
%TO.CMnt,SMD*%
%TO.CRot,0*%
X89200000Y-82085000D03*
D11*
X89895000Y-81740000D02*
X89895000Y-82430000D01*
X88505000Y-82430000D01*
X88505000Y-81740000D01*
X89895000Y-81740000D01*
D12*
%TO.P,R8,1*%
X88880000Y-82085000D03*
D13*
%TO.P,R8,2*%
X89520000Y-82085000D03*
%TD*%
D10*
%TO.C,Q2*%
%TO.CFtp,SOT-23*%
%TO.CVal,AO3400A*%
%TO.CLbN,Package_TO_SOT_SMD*%
%TO.CMnt,SMD*%
%TO.CRot,0*%
X119137500Y-81235000D03*
D11*
X120032500Y-79540000D02*
X120032500Y-80690000D01*
X121062500Y-80690000D01*
X121062500Y-81780000D01*
X120032500Y-81780000D01*
X120032500Y-82930000D01*
X118242500Y-82930000D01*
X118242500Y-82730000D01*
X117212500Y-82730000D01*
X117212500Y-81630000D01*
X118242500Y-81630000D01*
X118242500Y-80840000D01*
X117212500Y-80840000D01*
X117212500Y-79740000D01*
X118242500Y-79740000D01*
X118242500Y-79540000D01*
X120032500Y-79540000D01*
D12*
%TO.P,Q2,1,G*%
X118200000Y-80285000D03*
D13*
%TO.P,Q2,2,S*%
X118200000Y-82185000D03*
%TO.P,Q2,3,D*%
X120075000Y-81235000D03*
%TD*%
D10*
%TO.C,C9*%
%TO.CFtp,C_0201_0603Metric*%
%TO.CVal,1uF/10V*%
%TO.CLbN,Capacitor_SMD*%
%TO.CMnt,SMD*%
%TO.CRot,180*%
X97220000Y-100570000D03*
D11*
X97915000Y-100225000D02*
X97915000Y-100915000D01*
X96525000Y-100915000D01*
X96525000Y-100225000D01*
X97915000Y-100225000D01*
D12*
%TO.P,C9,1*%
X97540000Y-100570000D03*
D13*
%TO.P,C9,2*%
X96900000Y-100570000D03*
%TD*%
D10*
%TO.C,C6*%
%TO.CFtp,C_0201_0603Metric*%
%TO.CVal,10uF/10V*%
%TO.CLbN,Capacitor_SMD*%
%TO.CMnt,SMD*%
%TO.CRot,90*%
X88670000Y-106005000D03*
D11*
X89015000Y-105310000D02*
X89015000Y-106700000D01*
X88325000Y-106700000D01*
X88325000Y-105310000D01*
X89015000Y-105310000D01*
D12*
%TO.P,C6,1*%
X88670000Y-106325000D03*
D13*
%TO.P,C6,2*%
X88670000Y-105685000D03*
%TD*%
D10*
%TO.C,U1*%
%TO.CFtp,ESP32-S2-MINI-1*%
%TO.CVal,ESP32-S3-MINI-1*%
%TO.CLbN,RF_Module*%
%TO.CMnt,SMD*%
%TO.CRot,0*%
X103905500Y-85910000D03*
%TD*%
%TO.C,D1*%
%TO.CFtp,D_SOD-323*%
%TO.CVal,BAT60A*%
%TO.CLbN,Diode_SMD*%
%TO.CMnt,SMD*%
%TO.CRot,-90*%
X92200000Y-101407500D03*
D11*
X93145000Y-99812500D02*
X93145000Y-103002500D01*
X91255000Y-103002500D01*
X91255000Y-99812500D01*
X93145000Y-99812500D01*
D12*
%TO.P,D1,1,K*%
X92200000Y-100357500D03*
D13*
%TO.P,D1,2,A*%
X92200000Y-102457500D03*
%TD*%
D10*
%TO.C,R16*%
%TO.CFtp,R_0201_0603Metric*%
%TO.CVal,82K/1\u0025*%
%TO.CLbN,Resistor_SMD*%
%TO.CMnt,SMD*%
%TO.CRot,-90*%
X91620000Y-106160000D03*
D11*
X91965000Y-105465000D02*
X91965000Y-106855000D01*
X91275000Y-106855000D01*
X91275000Y-105465000D01*
X91965000Y-105465000D01*
D12*
%TO.P,R16,1*%
X91620000Y-105840000D03*
D13*
%TO.P,R16,2*%
X91620000Y-106480000D03*
%TD*%
D10*
%TO.C,J23*%
%TO.CFtp,JST_PH_S2B-PH-K_1x02_P2.00mm_Horizontal*%
%TO.CVal,Conn_01x02_Pin*%
%TO.CLbN,Connector_JST*%
%TO.CMnt,TH*%
%TO.CRot,-90*%
X88290000Y-101115000D03*
D11*
X90135000Y-98670000D02*
X90135000Y-105560000D01*
X81545000Y-105560000D01*
X81545000Y-98670000D01*
X90135000Y-98670000D01*
D12*
%TO.P,J23,1,Pin_1*%
X88290000Y-101115000D03*
D13*
%TO.P,J23,2,Pin_2*%
X88290000Y-103115000D03*
%TD*%
D10*
%TO.C,R22*%
%TO.CFtp,R_0201_0603Metric*%
%TO.CVal,1.5K/1\u0025*%
%TO.CLbN,Resistor_SMD*%
%TO.CMnt,SMD*%
%TO.CRot,0*%
X121200000Y-88695000D03*
D11*
X121895000Y-88350000D02*
X121895000Y-89040000D01*
X120505000Y-89040000D01*
X120505000Y-88350000D01*
X121895000Y-88350000D01*
D12*
%TO.P,R22,1*%
X120880000Y-88695000D03*
D13*
%TO.P,R22,2*%
X121520000Y-88695000D03*
%TD*%
D10*
%TO.C,J1*%
%TO.CFtp,PinSocket_2x08_P2.54mm_Vertical*%
%TO.CVal,Conn_02x08_Odd_Even*%
%TO.CLbN,Connector_PinSocket_2.54mm*%
%TO.CMnt,TH*%
%TO.CRot,0*%
X114680000Y-77125000D03*
D11*
X116435000Y-75330000D02*
X116435000Y-96670000D01*
X110345000Y-96670000D01*
X110345000Y-75330000D01*
X116435000Y-75330000D01*
D12*
%TO.P,J1,1,Pin_1*%
X114680000Y-77125000D03*
D13*
%TO.P,J1,2,Pin_2*%
X112140000Y-77125000D03*
%TO.P,J1,3,Pin_3*%
X114680000Y-79665000D03*
%TO.P,J1,4,Pin_4*%
X112140000Y-79665000D03*
%TO.P,J1,5,Pin_5*%
X114680000Y-82205000D03*
%TO.P,J1,6,Pin_6*%
X112140000Y-82205000D03*
%TO.P,J1,7,Pin_7*%
X114680000Y-84745000D03*
%TO.P,J1,8,Pin_8*%
X112140000Y-84745000D03*
%TO.P,J1,9,Pin_9*%
X114680000Y-87285000D03*
%TO.P,J1,10,Pin_10*%
X112140000Y-87285000D03*
%TO.P,J1,11,Pin_11*%
X114680000Y-89825000D03*
%TO.P,J1,12,Pin_12*%
X112140000Y-89825000D03*
%TO.P,J1,13,Pin_13*%
X114680000Y-92365000D03*
%TO.P,J1,14,Pin_14*%
X112140000Y-92365000D03*
%TO.P,J1,15,Pin_15*%
X114680000Y-94905000D03*
%TO.P,J1,16,Pin_16*%
X112140000Y-94905000D03*
%TD*%
D10*
%TO.C,Q4*%
%TO.CFtp,SOT-23*%
%TO.CVal,AO3400A*%
%TO.CLbN,Package_TO_SOT_SMD*%
%TO.CMnt,SMD*%
%TO.CRot,-90*%
X115810000Y-109277500D03*
D11*
X115415000Y-107352500D02*
X115415000Y-108382500D01*
X116205000Y-108382500D01*
X116205000Y-107352500D01*
X117305000Y-107352500D01*
X117305000Y-108382500D01*
X117505000Y-108382500D01*
X117505000Y-110172500D01*
X116355000Y-110172500D01*
X116355000Y-111202500D01*
X115265000Y-111202500D01*
X115265000Y-110172500D01*
X114115000Y-110172500D01*
X114115000Y-108382500D01*
X114315000Y-108382500D01*
X114315000Y-107352500D01*
X115415000Y-107352500D01*
D12*
%TO.P,Q4,1,G*%
X116760000Y-108340000D03*
D13*
%TO.P,Q4,2,S*%
X114860000Y-108340000D03*
%TO.P,Q4,3,D*%
X115810000Y-110215000D03*
%TD*%
D10*
%TO.C,R15*%
%TO.CFtp,R_0201_0603Metric*%
%TO.CVal,82K/1\u0025*%
%TO.CLbN,Resistor_SMD*%
%TO.CMnt,SMD*%
%TO.CRot,180*%
X84830000Y-87665000D03*
D11*
X85525000Y-87320000D02*
X85525000Y-88010000D01*
X84135000Y-88010000D01*
X84135000Y-87320000D01*
X85525000Y-87320000D01*
D12*
%TO.P,R15,1*%
X85150000Y-87665000D03*
D13*
%TO.P,R15,2*%
X84510000Y-87665000D03*
%TD*%
D10*
%TO.C,R24*%
%TO.CFtp,R_0201_0603Metric*%
%TO.CVal,1.5K/1\u0025*%
%TO.CLbN,Resistor_SMD*%
%TO.CMnt,SMD*%
%TO.CRot,0*%
X122580000Y-95045000D03*
D11*
X123275000Y-94700000D02*
X123275000Y-95390000D01*
X121885000Y-95390000D01*
X121885000Y-94700000D01*
X123275000Y-94700000D01*
D12*
%TO.P,R24,1*%
X122260000Y-95045000D03*
D13*
%TO.P,R24,2*%
X122900000Y-95045000D03*
%TD*%
D10*
%TO.C,J2*%
%TO.CFtp,PinHeader_1x08_P2.54mm_Vertical*%
%TO.CVal,Conn_01x08*%
%TO.CLbN,Connector_PinHeader_2.54mm*%
%TO.CMnt,TH*%
%TO.CRot,90*%
X94110000Y-113825000D03*
D11*
X113655000Y-112060000D02*
X113655000Y-115590000D01*
X92345000Y-115590000D01*
X92345000Y-112060000D01*
X113655000Y-112060000D01*
D12*
%TO.P,J2,1,Pin_1*%
X94110000Y-113825000D03*
D13*
%TO.P,J2,2,Pin_2*%
X96650000Y-113825000D03*
%TO.P,J2,3,Pin_3*%
X99190000Y-113825000D03*
%TO.P,J2,4,Pin_4*%
X101730000Y-113825000D03*
%TO.P,J2,5,Pin_5*%
X104270000Y-113825000D03*
%TO.P,J2,6,Pin_6*%
X106810000Y-113825000D03*
%TO.P,J2,7,Pin_7*%
X109350000Y-113825000D03*
%TO.P,J2,8,Pin_8*%
X111890000Y-113825000D03*
%TD*%
D10*
%TO.C,R23*%
%TO.CFtp,R_0201_0603Metric*%
%TO.CVal,1.5K/1\u0025*%
%TO.CLbN,Resistor_SMD*%
%TO.CMnt,SMD*%
%TO.CRot,0*%
X121230000Y-91385000D03*
D11*
X121925000Y-91040000D02*
X121925000Y-91730000D01*
X120535000Y-91730000D01*
X120535000Y-91040000D01*
X121925000Y-91040000D01*
D12*
%TO.P,R23,1*%
X120910000Y-91385000D03*
D13*
%TO.P,R23,2*%
X121550000Y-91385000D03*
%TD*%
D10*
%TO.C,D8*%
%TO.CFtp,LED_0201_0603Metric*%
%TO.CVal,LED_G*%
%TO.CLbN,LED_SMD*%
%TO.CMnt,SMD*%
%TO.CRot,90*%
X123910000Y-90845000D03*
D11*
X124255000Y-90150000D02*
X124255000Y-91540000D01*
X123565000Y-91540000D01*
X123565000Y-90150000D01*
X124255000Y-90150000D01*
D12*
%TO.P,D8,1,K*%
X123910000Y-91165000D03*
D13*
%TO.P,D8,2,A*%
X123910000Y-90525000D03*
%TD*%
D10*
%TO.C,C8*%
%TO.CFtp,C_0201_0603Metric*%
%TO.CVal,10uF/10V*%
%TO.CLbN,Capacitor_SMD*%
%TO.CMnt,SMD*%
%TO.CRot,180*%
X98210000Y-99070000D03*
D11*
X98905000Y-98725000D02*
X98905000Y-99415000D01*
X97515000Y-99415000D01*
X97515000Y-98725000D01*
X98905000Y-98725000D01*
D12*
%TO.P,C8,1*%
X98530000Y-99070000D03*
D13*
%TO.P,C8,2*%
X97890000Y-99070000D03*
%TD*%
D10*
%TO.C,R11*%
%TO.CFtp,R_0201_0603Metric*%
%TO.CVal,10K/1\u0025*%
%TO.CLbN,Resistor_SMD*%
%TO.CMnt,SMD*%
%TO.CRot,0*%
X119830000Y-105605000D03*
D11*
X120525000Y-105260000D02*
X120525000Y-105950000D01*
X119135000Y-105950000D01*
X119135000Y-105260000D01*
X120525000Y-105260000D01*
D12*
%TO.P,R11,1*%
X119510000Y-105605000D03*
D13*
%TO.P,R11,2*%
X120150000Y-105605000D03*
%TD*%
D10*
%TO.C,R21*%
%TO.CFtp,R_0201_0603Metric*%
%TO.CVal,1.5K/1\u0025*%
%TO.CLbN,Resistor_SMD*%
%TO.CMnt,SMD*%
%TO.CRot,0*%
X121640000Y-86295000D03*
D11*
X122335000Y-85950000D02*
X122335000Y-86640000D01*
X120945000Y-86640000D01*
X120945000Y-85950000D01*
X122335000Y-85950000D01*
D12*
%TO.P,R21,1*%
X121320000Y-86295000D03*
D13*
%TO.P,R21,2*%
X121960000Y-86295000D03*
%TD*%
D10*
%TO.C,D6*%
%TO.CFtp,LED_0201_0603Metric*%
%TO.CVal,LED_WHT*%
%TO.CLbN,LED_SMD*%
%TO.CMnt,SMD*%
%TO.CRot,90*%
X123930000Y-85455000D03*
D11*
X124275000Y-84760000D02*
X124275000Y-86150000D01*
X123585000Y-86150000D01*
X123585000Y-84760000D01*
X124275000Y-84760000D01*
D12*
%TO.P,D6,1,K*%
X123930000Y-85775000D03*
D13*
%TO.P,D6,2,A*%
X123930000Y-85135000D03*
%TD*%
D10*
%TO.C,D7*%
%TO.CFtp,LED_0201_0603Metric*%
%TO.CVal,LED_R*%
%TO.CLbN,LED_SMD*%
%TO.CMnt,SMD*%
%TO.CRot,90*%
X123940000Y-88115000D03*
D11*
X124285000Y-87420000D02*
X124285000Y-88810000D01*
X123595000Y-88810000D01*
X123595000Y-87420000D01*
X124285000Y-87420000D01*
D12*
%TO.P,D7,1,K*%
X123940000Y-88435000D03*
D13*
%TO.P,D7,2,A*%
X123940000Y-87795000D03*
%TD*%
D10*
%TO.C,J6*%
%TO.CFtp,PinSocket_2x08_P2.54mm_Vertical*%
%TO.CVal,Conn_02x08_Odd_Even*%
%TO.CLbN,Connector_PinSocket_2.54mm*%
%TO.CMnt,TH*%
%TO.CRot,0*%
X94280000Y-77125000D03*
D11*
X96035000Y-75330000D02*
X96035000Y-96670000D01*
X89945000Y-96670000D01*
X89945000Y-75330000D01*
X96035000Y-75330000D01*
D12*
%TO.P,J6,1,Pin_1*%
X94280000Y-77125000D03*
D13*
%TO.P,J6,2,Pin_2*%
X91740000Y-77125000D03*
%TO.P,J6,3,Pin_3*%
X94280000Y-79665000D03*
%TO.P,J6,4,Pin_4*%
X91740000Y-79665000D03*
%TO.P,J6,5,Pin_5*%
X94280000Y-82205000D03*
%TO.P,J6,6,Pin_6*%
X91740000Y-82205000D03*
%TO.P,J6,7,Pin_7*%
X94280000Y-84745000D03*
%TO.P,J6,8,Pin_8*%
X91740000Y-84745000D03*
%TO.P,J6,9,Pin_9*%
X94280000Y-87285000D03*
%TO.P,J6,10,Pin_10*%
X91740000Y-87285000D03*
%TO.P,J6,11,Pin_11*%
X94280000Y-89825000D03*
%TO.P,J6,12,Pin_12*%
X91740000Y-89825000D03*
%TO.P,J6,13,Pin_13*%
X94280000Y-92365000D03*
%TO.P,J6,14,Pin_14*%
X91740000Y-92365000D03*
%TO.P,J6,15,Pin_15*%
X94280000Y-94905000D03*
%TO.P,J6,16,Pin_16*%
X91740000Y-94905000D03*
%TD*%
D10*
%TO.C,U5*%
%TO.CFtp,AP2112K-3.3TRG1*%
%TO.CVal,AP2112K-3.3TRG1*%
%TO.CLbN,amplificador*%
%TO.CMnt,SMD*%
%TO.CRot,0*%
X95855000Y-104975000D03*
D11*
X96950000Y-103180000D02*
X96950000Y-103480000D01*
X97960000Y-103480000D01*
X97960000Y-106470000D01*
X96950000Y-106470000D01*
X96950000Y-106770000D01*
X94760000Y-106770000D01*
X94760000Y-106470000D01*
X93750000Y-106470000D01*
X93750000Y-103480000D01*
X94760000Y-103480000D01*
X94760000Y-103180000D01*
X96950000Y-103180000D01*
D12*
%TO.P,U5,1,VIN*%
X94670000Y-104025000D03*
D13*
%TO.P,U5,2,GND*%
X94670000Y-104975000D03*
%TO.P,U5,3,EN*%
X94670000Y-105925000D03*
%TO.P,U5,4,P4*%
X97040000Y-105925000D03*
%TO.P,U5,5,VOUT*%
X97040000Y-104025000D03*
%TD*%
M02*
