%TF.GenerationSoftware,KiCad,Pcbnew,9.0.7*%
%TF.CreationDate,2026-07-20T11:46:50+02:00*%
%TF.ProjectId,drone,64726f6e-652e-46b6-9963-61645f706362,rev?*%
%TF.SameCoordinates,Original*%
%TF.FileFunction,Legend,Bot*%
%TF.FilePolarity,Positive*%
%FSLAX46Y46*%
G04 Gerber Fmt 4.6, Leading zero omitted, Abs format (unit mm)*
G04 Created by KiCad (PCBNEW 9.0.7) date 2026-07-20 11:46:50*
%MOMM*%
%LPD*%
G01*
G04 APERTURE LIST*
%ADD10C,0.150000*%
%ADD11C,0.120000*%
G04 APERTURE END LIST*
D10*
X87780329Y-79046157D02*
X88285405Y-79551233D01*
X88285405Y-79551233D02*
X88420092Y-79618577D01*
X88420092Y-79618577D02*
X88554779Y-79618577D01*
X88554779Y-79618577D02*
X88689466Y-79551233D01*
X88689466Y-79551233D02*
X88756810Y-79483890D01*
X87376268Y-79921623D02*
X87847672Y-80393027D01*
X87275252Y-79483890D02*
X87948687Y-79820607D01*
X87948687Y-79820607D02*
X87510955Y-80258340D01*
X118987792Y-79479279D02*
X118482716Y-79984355D01*
X118482716Y-79984355D02*
X118415372Y-80119042D01*
X118415372Y-80119042D02*
X118415372Y-80253729D01*
X118415372Y-80253729D02*
X118482716Y-80388416D01*
X118482716Y-80388416D02*
X118550059Y-80455760D01*
X117573578Y-79479279D02*
X117977639Y-79883340D01*
X117775609Y-79681309D02*
X118482716Y-78974202D01*
X118482716Y-78974202D02*
X118449044Y-79142561D01*
X118449044Y-79142561D02*
X118449044Y-79277248D01*
X118449044Y-79277248D02*
X118482716Y-79378263D01*
X116900143Y-78805844D02*
X117304204Y-79209905D01*
X117102174Y-79007874D02*
X117809281Y-78300767D01*
X117809281Y-78300767D02*
X117775609Y-78469126D01*
X117775609Y-78469126D02*
X117775609Y-78603813D01*
X117775609Y-78603813D02*
X117809281Y-78704828D01*
X89400281Y-110056790D02*
X88895205Y-110561866D01*
X88895205Y-110561866D02*
X88827861Y-110696553D01*
X88827861Y-110696553D02*
X88827861Y-110831240D01*
X88827861Y-110831240D02*
X88895205Y-110965927D01*
X88895205Y-110965927D02*
X88962548Y-111033271D01*
X87986067Y-110056790D02*
X88390128Y-110460851D01*
X88188098Y-110258820D02*
X88895205Y-109551713D01*
X88895205Y-109551713D02*
X88861533Y-109720072D01*
X88861533Y-109720072D02*
X88861533Y-109854759D01*
X88861533Y-109854759D02*
X88895205Y-109955774D01*
X88087083Y-108743591D02*
X88221770Y-108878278D01*
X88221770Y-108878278D02*
X88255441Y-108979294D01*
X88255441Y-108979294D02*
X88255441Y-109046637D01*
X88255441Y-109046637D02*
X88221770Y-109214996D01*
X88221770Y-109214996D02*
X88120754Y-109383355D01*
X88120754Y-109383355D02*
X87851380Y-109652729D01*
X87851380Y-109652729D02*
X87750365Y-109686400D01*
X87750365Y-109686400D02*
X87683022Y-109686400D01*
X87683022Y-109686400D02*
X87582006Y-109652729D01*
X87582006Y-109652729D02*
X87447319Y-109518042D01*
X87447319Y-109518042D02*
X87413648Y-109417026D01*
X87413648Y-109417026D02*
X87413648Y-109349683D01*
X87413648Y-109349683D02*
X87447319Y-109248668D01*
X87447319Y-109248668D02*
X87615678Y-109080309D01*
X87615678Y-109080309D02*
X87716693Y-109046637D01*
X87716693Y-109046637D02*
X87784037Y-109046637D01*
X87784037Y-109046637D02*
X87885052Y-109080309D01*
X87885052Y-109080309D02*
X88019739Y-109214996D01*
X88019739Y-109214996D02*
X88053411Y-109316011D01*
X88053411Y-109316011D02*
X88053411Y-109383355D01*
X88053411Y-109383355D02*
X88019739Y-109484370D01*
X118546790Y-108529718D02*
X119051866Y-109034794D01*
X119051866Y-109034794D02*
X119186553Y-109102138D01*
X119186553Y-109102138D02*
X119321240Y-109102138D01*
X119321240Y-109102138D02*
X119455927Y-109034794D01*
X119455927Y-109034794D02*
X119523271Y-108967451D01*
X118311087Y-108900107D02*
X118243744Y-108900107D01*
X118243744Y-108900107D02*
X118142729Y-108933779D01*
X118142729Y-108933779D02*
X117974370Y-109102138D01*
X117974370Y-109102138D02*
X117940698Y-109203153D01*
X117940698Y-109203153D02*
X117940698Y-109270497D01*
X117940698Y-109270497D02*
X117974370Y-109371512D01*
X117974370Y-109371512D02*
X118041713Y-109438855D01*
X118041713Y-109438855D02*
X118176400Y-109506199D01*
X118176400Y-109506199D02*
X118984522Y-109506199D01*
X118984522Y-109506199D02*
X118546790Y-109943932D01*
X117873355Y-110617367D02*
X118277416Y-110213306D01*
X118075385Y-110415336D02*
X117368278Y-109708229D01*
X117368278Y-109708229D02*
X117536637Y-109741901D01*
X117536637Y-109741901D02*
X117671324Y-109741901D01*
X117671324Y-109741901D02*
X117772339Y-109708229D01*
D11*
%TO.C,J4*%
X76178013Y-73303400D02*
X84465305Y-81590692D01*
X78872090Y-70609323D02*
X76178013Y-73303400D01*
X78872090Y-70609323D02*
X81566167Y-67915246D01*
X81566167Y-67915246D02*
X89853459Y-76202538D01*
X84465305Y-81590692D02*
X85469396Y-80586600D01*
X84500660Y-78005660D02*
X84712792Y-78642056D01*
X84712792Y-78642056D02*
X85137056Y-78217792D01*
X85137056Y-78217792D02*
X84500660Y-78005660D01*
X85469396Y-80586600D02*
X82287416Y-77404619D01*
X88849367Y-77206630D02*
X85667386Y-74024649D01*
X89853459Y-76202538D02*
X88849367Y-77206630D01*
X82485406Y-75636852D02*
X82131852Y-75990406D01*
X78242765Y-72101319D01*
X78596319Y-71747765D01*
X82485406Y-75636852D01*
X84253173Y-73869086D02*
X83899619Y-74222639D01*
X80010532Y-70333552D01*
X80364086Y-69979998D01*
X84253173Y-73869086D01*
%TO.C,J11*%
X116106541Y-75827538D02*
X117110633Y-76831629D01*
X117110633Y-76831629D02*
X120292614Y-73649649D01*
X119055177Y-76075025D02*
X119479441Y-76499289D01*
X119479441Y-76499289D02*
X119691573Y-75862893D01*
X119691573Y-75862893D02*
X119055177Y-76075025D01*
X120490603Y-80211600D02*
X123672584Y-77029619D01*
X121494695Y-81215692D02*
X120490603Y-80211600D01*
X124393833Y-67540246D02*
X116106541Y-75827538D01*
X127087910Y-70234323D02*
X124393833Y-67540246D01*
X127087910Y-70234323D02*
X129781987Y-72928400D01*
X129781987Y-72928400D02*
X121494695Y-81215692D01*
X125949468Y-69958552D02*
X122060381Y-73847639D01*
X121706827Y-73494085D01*
X125595914Y-69604998D01*
X125949468Y-69958552D01*
X127717235Y-71726319D02*
X123828147Y-75615406D01*
X123474594Y-75261852D01*
X127363681Y-71372765D01*
X127717235Y-71726319D01*
%TO.C,J16*%
X76690246Y-116233833D02*
X84977538Y-107946541D01*
X79384323Y-118927910D02*
X76690246Y-116233833D01*
X79384323Y-118927910D02*
X82078400Y-121621987D01*
X82078400Y-121621987D02*
X90365692Y-113334695D01*
X84977538Y-107946541D02*
X85981630Y-108950633D01*
X85981630Y-108950633D02*
X82799649Y-112132614D01*
X86780660Y-113299340D02*
X87417056Y-113087208D01*
X86992792Y-112662944D02*
X86780660Y-113299340D01*
X87417056Y-113087208D02*
X86992792Y-112662944D01*
X89361600Y-112330604D02*
X86179619Y-115512584D01*
X90365692Y-113334695D02*
X89361600Y-112330604D01*
X82997639Y-113900381D02*
X79108552Y-117789468D01*
X78754998Y-117435914D01*
X82644086Y-113546827D01*
X82997639Y-113900381D01*
X84765406Y-115668148D02*
X80876319Y-119557235D01*
X80522765Y-119203681D01*
X84411852Y-115314594D01*
X84765406Y-115668148D01*
%TO.C,J21*%
X116436541Y-112952462D02*
X117440633Y-111948370D01*
X117440633Y-111948370D02*
X120622614Y-115130351D01*
X120820604Y-108568400D02*
X124002584Y-111750381D01*
X121152944Y-110937208D02*
X121789340Y-111149340D01*
X121577208Y-110512944D02*
X121152944Y-110937208D01*
X121789340Y-111149340D02*
X121577208Y-110512944D01*
X121824695Y-107564308D02*
X120820604Y-108568400D01*
X124723833Y-121239754D02*
X116436541Y-112952462D01*
X127417910Y-118545677D02*
X124723833Y-121239754D01*
X127417910Y-118545677D02*
X130111987Y-115851600D01*
X130111987Y-115851600D02*
X121824695Y-107564308D01*
X126279468Y-118821448D02*
X125925914Y-119175002D01*
X122036827Y-115285914D01*
X122390381Y-114932361D01*
X126279468Y-118821448D01*
X128047235Y-117053681D02*
X127693681Y-117407235D01*
X123804594Y-113518148D01*
X124158148Y-113164594D01*
X128047235Y-117053681D01*
%TD*%
M02*
