%TF.GenerationSoftware,KiCad,Pcbnew,9.0.7*%
%TF.CreationDate,2026-05-21T17:13:55+02:00*%
%TF.ProjectId,drone,64726f6e-652e-46b6-9963-61645f706362,rev?*%
%TF.SameCoordinates,Original*%
%TF.FileFunction,Profile,NP*%
%FSLAX46Y46*%
G04 Gerber Fmt 4.6, Leading zero omitted, Abs format (unit mm)*
G04 Created by KiCad (PCBNEW 9.0.7) date 2026-05-21 17:13:55*
%MOMM*%
%LPD*%
G01*
G04 APERTURE LIST*
%TA.AperFunction,Profile*%
%ADD10C,0.050000*%
%TD*%
%TA.AperFunction,Profile*%
%ADD11C,0.100000*%
%TD*%
G04 APERTURE END LIST*
D10*
X206016566Y-82591280D02*
G75*
G02*
X205016554Y-82584384I-507966J-1150820D01*
G01*
X205000000Y-118158720D02*
G75*
G02*
X205999992Y-118165568I507900J1150820D01*
G01*
X251312500Y-131812500D02*
G75*
G02*
X248062500Y-135312500I-1625000J-1750000D01*
G01*
X184312500Y-134687500D02*
G75*
G02*
X180812500Y-131437500I-1750000J1625000D01*
G01*
X227500000Y-82599178D02*
G75*
G02*
X226500008Y-82592330I-507900J-1150822D01*
G01*
X251014421Y-140805229D02*
X229404733Y-119999323D01*
X205000000Y-120000000D02*
X202500000Y-120006939D01*
X195944912Y-86608011D02*
X196000000Y-113000000D01*
X206000000Y-80000000D02*
X206016566Y-82591281D01*
D11*
X260257805Y-139757805D02*
G75*
G02*
X252242195Y-139757805I-4007805J0D01*
G01*
X252242195Y-139757805D02*
G75*
G02*
X260257805Y-139757805I4007805J0D01*
G01*
D10*
X175555089Y-65391988D02*
X195944912Y-86608011D01*
X195531250Y-82531250D02*
X198843750Y-79093750D01*
X247837500Y-64437500D02*
G75*
G02*
X251337500Y-67687500I1750000J-1625000D01*
G01*
X236750000Y-117250000D02*
X233437500Y-120687500D01*
X251312500Y-131812500D02*
X236750000Y-117250000D01*
X256599903Y-134521251D02*
G75*
G02*
X251014421Y-140805229I-382883J-5283979D01*
G01*
X233275000Y-79000000D02*
X236712500Y-82312500D01*
X226500000Y-120000000D02*
X226500003Y-118158694D01*
X247837500Y-64437500D02*
X233275000Y-79000000D01*
X198875000Y-120125000D02*
X195437500Y-116812500D01*
X227500000Y-79989990D02*
X227500000Y-82599179D01*
D11*
X180007805Y-60257805D02*
G75*
G02*
X171992195Y-60257805I-4007805J0D01*
G01*
X171992195Y-60257805D02*
G75*
G02*
X180007805Y-60257805I4007805J0D01*
G01*
X259757805Y-60000000D02*
G75*
G02*
X251742195Y-60000000I-4007805J0D01*
G01*
X251742195Y-60000000D02*
G75*
G02*
X259757805Y-60000000I4007805J0D01*
G01*
D10*
X256599903Y-134521252D02*
X236006939Y-113000000D01*
X226500002Y-118158695D02*
G75*
G02*
X227499993Y-118165541I507898J1150795D01*
G01*
X227499999Y-120000000D02*
X229404733Y-119999323D01*
X256750000Y-65195659D02*
X236009981Y-86736914D01*
X180968750Y-67968750D02*
X195531250Y-82531250D01*
X251337500Y-67687500D02*
X236712500Y-82312500D01*
X180812500Y-131437500D02*
X195437500Y-116812500D01*
X226500001Y-79984270D02*
X226500000Y-82592311D01*
D11*
X180007805Y-140007805D02*
G75*
G02*
X171992195Y-140007805I-4007805J0D01*
G01*
X171992195Y-140007805D02*
G75*
G02*
X180007805Y-140007805I4007805J0D01*
G01*
D10*
X184218750Y-64468750D02*
X198843750Y-79093750D01*
X175555089Y-65391989D02*
G75*
G02*
X181140612Y-59108003I382911J5283989D01*
G01*
X250466023Y-59610177D02*
X229250000Y-80000000D01*
X236006939Y-113000000D02*
X236007682Y-86739302D01*
X250466022Y-59610177D02*
G75*
G02*
X256750008Y-65195699I5283978J-382923D01*
G01*
X226500000Y-120000000D02*
X205999999Y-120000000D01*
X205016567Y-80000000D02*
X205016566Y-82584413D01*
X206000000Y-80000000D02*
X226500001Y-79984270D01*
X227499999Y-120000000D02*
X227500003Y-118165536D01*
X181140571Y-59108011D02*
X202758689Y-80000000D01*
X202750000Y-80000000D02*
X205016567Y-80000000D01*
X205000000Y-120000000D02*
X205000000Y-118158719D01*
X181283978Y-140396762D02*
G75*
G02*
X175000004Y-134811303I-5283978J382862D01*
G01*
X184312500Y-134687500D02*
X198875000Y-120125000D01*
X205999999Y-120000000D02*
X206000002Y-118165562D01*
X181283977Y-140396762D02*
X202500000Y-120006939D01*
X180968750Y-67968750D02*
G75*
G02*
X184218750Y-64468750I1625000J1750000D01*
G01*
X248062500Y-135312500D02*
X233437500Y-120687500D01*
X175000000Y-134811280D02*
X196000000Y-113000000D01*
X227500000Y-79989990D02*
X229250000Y-80000000D01*
M02*
