%TF.GenerationSoftware,KiCad,Pcbnew,9.0.7*%
%TF.CreationDate,2026-05-21T17:13:55+02:00*%
%TF.ProjectId,drone,64726f6e-652e-46b6-9963-61645f706362,rev?*%
%TF.SameCoordinates,Original*%
%TF.FileFunction,Copper,L2,Bot*%
%TF.FilePolarity,Positive*%
%FSLAX46Y46*%
G04 Gerber Fmt 4.6, Leading zero omitted, Abs format (unit mm)*
G04 Created by KiCad (PCBNEW 9.0.7) date 2026-05-21 17:13:55*
%MOMM*%
%LPD*%
G01*
G04 APERTURE LIST*
G04 Aperture macros list*
%AMRoundRect*
0 Rectangle with rounded corners*
0 $1 Rounding radius*
0 $2 $3 $4 $5 $6 $7 $8 $9 X,Y pos of 4 corners*
0 Add a 4 corners polygon primitive as box body*
4,1,4,$2,$3,$4,$5,$6,$7,$8,$9,$2,$3,0*
0 Add four circle primitives for the rounded corners*
1,1,$1+$1,$2,$3*
1,1,$1+$1,$4,$5*
1,1,$1+$1,$6,$7*
1,1,$1+$1,$8,$9*
0 Add four rect primitives between the rounded corners*
20,1,$1+$1,$2,$3,$4,$5,0*
20,1,$1+$1,$4,$5,$6,$7,0*
20,1,$1+$1,$6,$7,$8,$9,0*
20,1,$1+$1,$8,$9,$2,$3,0*%
%AMHorizOval*
0 Thick line with rounded ends*
0 $1 width*
0 $2 $3 position (X,Y) of the first rounded end (center of the circle)*
0 $4 $5 position (X,Y) of the second rounded end (center of the circle)*
0 Add line between two ends*
20,1,$1,$2,$3,$4,$5,0*
0 Add two circle primitives to create the rounded ends*
1,1,$1,$2,$3*
1,1,$1,$4,$5*%
G04 Aperture macros list end*
%TA.AperFunction,ComponentPad*%
%ADD10R,1.700000X1.700000*%
%TD*%
%TA.AperFunction,ComponentPad*%
%ADD11C,1.700000*%
%TD*%
%TA.AperFunction,ComponentPad*%
%ADD12RoundRect,0.250000X-0.350000X-0.625000X0.350000X-0.625000X0.350000X0.625000X-0.350000X0.625000X0*%
%TD*%
%TA.AperFunction,ComponentPad*%
%ADD13O,1.200000X1.750000*%
%TD*%
%TA.AperFunction,ComponentPad*%
%ADD14RoundRect,0.250000X-0.954594X-0.106066X-0.106066X-0.954594X0.954594X0.106066X0.106066X0.954594X0*%
%TD*%
%TA.AperFunction,ComponentPad*%
%ADD15HorizOval,1.700000X-0.106066X-0.106066X0.106066X0.106066X0*%
%TD*%
%TA.AperFunction,ComponentPad*%
%ADD16RoundRect,0.250000X0.954594X0.106066X0.106066X0.954594X-0.954594X-0.106066X-0.106066X-0.954594X0*%
%TD*%
%TA.AperFunction,ComponentPad*%
%ADD17HorizOval,1.700000X0.106066X0.106066X-0.106066X-0.106066X0*%
%TD*%
%TA.AperFunction,ComponentPad*%
%ADD18RoundRect,0.250000X0.106066X-0.954594X0.954594X-0.106066X-0.106066X0.954594X-0.954594X0.106066X0*%
%TD*%
%TA.AperFunction,ComponentPad*%
%ADD19HorizOval,1.700000X-0.106066X0.106066X0.106066X-0.106066X0*%
%TD*%
%TA.AperFunction,ComponentPad*%
%ADD20RoundRect,0.250000X-0.106066X0.954594X-0.954594X0.106066X0.106066X-0.954594X0.954594X-0.106066X0*%
%TD*%
%TA.AperFunction,ViaPad*%
%ADD21C,0.600000*%
%TD*%
%TA.AperFunction,Conductor*%
%ADD22C,0.200000*%
%TD*%
%TA.AperFunction,Conductor*%
%ADD23C,1.500000*%
%TD*%
G04 APERTURE END LIST*
D10*
%TO.P,J6,1,Pin_1*%
%TO.N,MPU_SDA*%
X207491344Y-88153577D03*
D11*
%TO.P,J6,2,Pin_2*%
%TO.N,ESP_EN*%
X204951344Y-88153577D03*
%TO.P,J6,3,Pin_3*%
%TO.N,MOT_1*%
X207491344Y-90693577D03*
%TO.P,J6,4,Pin_4*%
%TO.N,MPU_SCL*%
X204951344Y-90693577D03*
%TO.P,J6,5,Pin_5*%
%TO.N,ADC_BAT*%
X207491344Y-93233577D03*
%TO.P,J6,6,Pin_6*%
%TO.N,unconnected-(J6-Pin_6-Pad6)*%
X204951344Y-93233577D03*
%TO.P,J6,7,Pin_7*%
%TO.N,MPU_INT*%
X207491344Y-95773577D03*
%TO.P,J6,8,Pin_8*%
%TO.N,VL5_SCL*%
X204951344Y-95773577D03*
%TO.P,J6,9,Pin_9*%
%TO.N,VL5_SDA*%
X207491344Y-98313577D03*
%TO.P,J6,10,Pin_10*%
%TO.N,LED_R*%
X204951344Y-98313577D03*
%TO.P,J6,11,Pin_11*%
%TO.N,unconnected-(J6-Pin_11-Pad11)*%
X207491344Y-100853577D03*
%TO.P,J6,12,Pin_12*%
%TO.N,LED_G*%
X204951344Y-100853577D03*
%TO.P,J6,13,Pin_13*%
%TO.N,MOT_4*%
X207491344Y-103393577D03*
%TO.P,J6,14,Pin_14*%
%TO.N,LED_B*%
X204951344Y-103393577D03*
%TO.P,J6,15,Pin_15*%
%TO.N,MOT_3*%
X207491344Y-105933577D03*
%TO.P,J6,16,Pin_16*%
%TO.N,unconnected-(J6-Pin_16-Pad16)*%
X204951344Y-105933577D03*
%TD*%
D10*
%TO.P,J1,1,Pin_1*%
%TO.N,VL5_INT*%
X227891344Y-88153577D03*
D11*
%TO.P,J1,2,Pin_2*%
%TO.N,unconnected-(J1-Pin_2-Pad2)*%
X225351344Y-88153577D03*
%TO.P,J1,3,Pin_3*%
%TO.N,VL5_RESET*%
X227891344Y-90693577D03*
%TO.P,J1,4,Pin_4*%
%TO.N,unconnected-(J1-Pin_4-Pad4)*%
X225351344Y-90693577D03*
%TO.P,J1,5,Pin_5*%
%TO.N,VL5_LP*%
X227891344Y-93233577D03*
%TO.P,J1,6,Pin_6*%
%TO.N,unconnected-(J1-Pin_6-Pad6)*%
X225351344Y-93233577D03*
%TO.P,J1,7,Pin_7*%
%TO.N,unconnected-(J1-Pin_7-Pad7)*%
X227891344Y-95773577D03*
%TO.P,J1,8,Pin_8*%
%TO.N,unconnected-(J1-Pin_8-Pad8)*%
X225351344Y-95773577D03*
%TO.P,J1,9,Pin_9*%
%TO.N,unconnected-(J1-Pin_9-Pad9)*%
X227891344Y-98313577D03*
%TO.P,J1,10,Pin_10*%
%TO.N,unconnected-(J1-Pin_10-Pad10)*%
X225351344Y-98313577D03*
%TO.P,J1,11,Pin_11*%
%TO.N,MOT_2*%
X227891344Y-100853577D03*
%TO.P,J1,12,Pin_12*%
%TO.N,BUZ_1*%
X225351344Y-100853577D03*
%TO.P,J1,13,Pin_13*%
%TO.N,GND*%
X227891344Y-103393577D03*
%TO.P,J1,14,Pin_14*%
X225351344Y-103393577D03*
%TO.P,J1,15,Pin_15*%
%TO.N,VDD33*%
X227891344Y-105933577D03*
%TO.P,J1,16,Pin_16*%
%TO.N,BUZ_2*%
X225351344Y-105933577D03*
%TD*%
D12*
%TO.P,J23,1,Pin_1*%
%TO.N,GND*%
X214640344Y-116500000D03*
D13*
%TO.P,J23,2,Pin_2*%
%TO.N,VBAT*%
X216640344Y-116500000D03*
%TD*%
D14*
%TO.P,J11,1,Pin_1*%
%TO.N,VBAT*%
X232732233Y-81732233D03*
D15*
%TO.P,J11,2,Pin_2*%
%TO.N,Net-(J11-Pin_2)*%
X234500000Y-83500000D03*
%TD*%
D16*
%TO.P,J21,1,Pin_1*%
%TO.N,VBAT*%
X199692031Y-117825736D03*
D17*
%TO.P,J21,2,Pin_2*%
%TO.N,Net-(J21-Pin_2)*%
X197924264Y-116057969D03*
%TD*%
D18*
%TO.P,J4,1,Pin_1*%
%TO.N,Net-(J4-Pin_1)*%
X197924264Y-83442031D03*
D19*
%TO.P,J4,2,Pin_2*%
%TO.N,VBAT*%
X199692031Y-81674264D03*
%TD*%
D20*
%TO.P,J16,1,Pin_1*%
%TO.N,Net-(J16-Pin_1)*%
X234500000Y-116250000D03*
D19*
%TO.P,J16,2,Pin_2*%
%TO.N,VBAT*%
X232732233Y-118017767D03*
%TD*%
D21*
%TO.N,GND*%
X219391344Y-99433577D03*
X214391344Y-96132577D03*
X218391344Y-98233577D03*
X201191344Y-101833577D03*
X214391344Y-102433577D03*
X202000000Y-87500000D03*
X200991344Y-99833577D03*
X201391344Y-103833577D03*
%TO.N,VBAT*%
X198323577Y-95833577D03*
%TO.N,VSYS*%
X200191344Y-104933577D03*
X214250000Y-114000000D03*
%TO.N,VDD33*%
X217691344Y-96133577D03*
X221741344Y-101583577D03*
%TO.N,MPU_SDA*%
X209891344Y-96233577D03*
%TO.N,MOT_3*%
X219791344Y-107833577D03*
%TO.N,MPU_SCL*%
X211191344Y-96233577D03*
X210691344Y-94333577D03*
%TD*%
D22*
%TO.N,GND*%
X216391344Y-102433577D02*
X214391344Y-102433577D01*
X218591344Y-98633577D02*
X219391344Y-99433577D01*
X201191344Y-103633577D02*
X201391344Y-103833577D01*
X214391344Y-96132577D02*
X216290344Y-96132577D01*
X218591344Y-98433577D02*
X218591344Y-98633577D01*
X216290344Y-96132577D02*
X218391344Y-98233577D01*
X200991344Y-99833577D02*
X200991344Y-101633577D01*
X200991344Y-101633577D02*
X201191344Y-101833577D01*
X219391344Y-99433577D02*
X216391344Y-102433577D01*
X218391344Y-98233577D02*
X218591344Y-98433577D01*
X201191344Y-101833577D02*
X201191344Y-103633577D01*
D23*
%TO.N,VBAT*%
X199692031Y-81674264D02*
X199709798Y-81674264D01*
X204750000Y-111500000D02*
X211576000Y-118326000D01*
X197750000Y-88250000D02*
X197750000Y-110500000D01*
X230400000Y-112250000D02*
X231450000Y-113300000D01*
X226950000Y-112250000D02*
X232200000Y-112250000D01*
X200660492Y-85339508D02*
X197750000Y-88250000D01*
X200875000Y-113625000D02*
X200875000Y-116892767D01*
X215494742Y-118326000D02*
X216640344Y-117180398D01*
X211576000Y-118326000D02*
X215494742Y-118326000D01*
X200875000Y-116892767D02*
X199942031Y-117825736D01*
X202750000Y-111500000D02*
X204750000Y-111500000D01*
X224200000Y-115000000D02*
X226950000Y-112250000D01*
X197750000Y-110500000D02*
X200875000Y-113625000D01*
X216640344Y-117180398D02*
X216640344Y-116500000D01*
X232500000Y-81732233D02*
X232732233Y-81732233D01*
X218140344Y-115000000D02*
X224200000Y-115000000D01*
X199692031Y-81674264D02*
X200660492Y-82642725D01*
X231450000Y-116735534D02*
X232732233Y-118017767D01*
X232200000Y-112250000D02*
X234756668Y-109693332D01*
X200875000Y-113375000D02*
X202750000Y-111500000D01*
X200660492Y-82642725D02*
X200660492Y-85339508D01*
X216640344Y-116500000D02*
X218140344Y-115000000D01*
X231450000Y-113300000D02*
X231450000Y-116735534D01*
X234756668Y-109693332D02*
X234756668Y-87249993D01*
X234756668Y-87249993D02*
X231600862Y-84094187D01*
X200875000Y-113625000D02*
X200875000Y-113375000D01*
X231600862Y-84094187D02*
X231600862Y-82631371D01*
X199709798Y-81674264D02*
X200267767Y-82232233D01*
X231600862Y-82631371D02*
X232500000Y-81732233D01*
X199942031Y-117825736D02*
X199692031Y-117825736D01*
D22*
%TO.N,VSYS*%
X202183577Y-104933577D02*
X200191344Y-104933577D01*
X214250000Y-114000000D02*
X213683577Y-113433577D01*
X210683577Y-113433577D02*
X202183577Y-104933577D01*
X213683577Y-113433577D02*
X210683577Y-113433577D01*
%TO.N,VDD33*%
X221991344Y-101333577D02*
X221741344Y-101583577D01*
X217691344Y-96133577D02*
X221991344Y-100433577D01*
X221991344Y-100433577D02*
X221991344Y-101333577D01*
%TO.N,MPU_SDA*%
X209891344Y-96233577D02*
X209891344Y-90553577D01*
X209891344Y-90553577D02*
X207491344Y-88153577D01*
%TO.N,MOT_3*%
X219691344Y-107733577D02*
X209291344Y-107733577D01*
X209291344Y-107733577D02*
X207491344Y-105933577D01*
X219791344Y-107833577D02*
X219691344Y-107733577D01*
%TO.N,MPU_SCL*%
X211191344Y-94833577D02*
X211191344Y-96233577D01*
X210691344Y-94333577D02*
X211191344Y-94833577D01*
%TD*%
%TA.AperFunction,Conductor*%
%TO.N,GND*%
G36*
X202297077Y-80253262D02*
G01*
X202316211Y-80268413D01*
X202328196Y-80279996D01*
X202344515Y-80300889D01*
X202344550Y-80300863D01*
X202347683Y-80304946D01*
X202349404Y-80307149D01*
X202349495Y-80307307D01*
X202349498Y-80307311D01*
X202349500Y-80307314D01*
X202442686Y-80400500D01*
X202556814Y-80466392D01*
X202684108Y-80500500D01*
X202684110Y-80500500D01*
X202697137Y-80500500D01*
X202701354Y-80501553D01*
X202762993Y-80500500D01*
X204392067Y-80500500D01*
X204459106Y-80520185D01*
X204504861Y-80572989D01*
X204516066Y-80624499D01*
X204516066Y-81464728D01*
X204516066Y-82221893D01*
X204496381Y-82288933D01*
X204471695Y-82316947D01*
X204279721Y-82477767D01*
X204279718Y-82477769D01*
X204279717Y-82477771D01*
X204221534Y-82543343D01*
X204107013Y-82672411D01*
X203964841Y-82890342D01*
X203964838Y-82890348D01*
X203856287Y-83126840D01*
X203783727Y-83376729D01*
X203783725Y-83376738D01*
X203748735Y-83634588D01*
X203751735Y-83868113D01*
X203752078Y-83894780D01*
X203757265Y-83926807D01*
X203793678Y-84151643D01*
X203872633Y-84399590D01*
X203872635Y-84399594D01*
X203987224Y-84633220D01*
X204134950Y-84847436D01*
X204312597Y-85037576D01*
X204516294Y-85199498D01*
X204741606Y-85329677D01*
X204741608Y-85329678D01*
X204767998Y-85340102D01*
X204983623Y-85425275D01*
X205237075Y-85484212D01*
X205496442Y-85505203D01*
X205670175Y-85493551D01*
X205756062Y-85487792D01*
X205756065Y-85487791D01*
X205756073Y-85487791D01*
X206010314Y-85432355D01*
X206253627Y-85340104D01*
X206480712Y-85213045D01*
X206686623Y-85053947D01*
X206866875Y-84866275D01*
X207017542Y-84654117D01*
X207135342Y-84422094D01*
X207217709Y-84175259D01*
X207262849Y-83918990D01*
X207269779Y-83658868D01*
X207269778Y-83658867D01*
X207269779Y-83658863D01*
X207238349Y-83400559D01*
X207232538Y-83379465D01*
X207169241Y-83149689D01*
X207169238Y-83149684D01*
X207169237Y-83149678D01*
X207063964Y-82911725D01*
X207055490Y-82898336D01*
X206984131Y-82785582D01*
X206924809Y-82691847D01*
X206921421Y-82687921D01*
X206754803Y-82494840D01*
X206680807Y-82431095D01*
X206557843Y-82325165D01*
X206519899Y-82266496D01*
X206514778Y-82232017D01*
X206504504Y-80624809D01*
X206523759Y-80557646D01*
X206576270Y-80511554D01*
X206628404Y-80500017D01*
X225875405Y-80485248D01*
X225942459Y-80504881D01*
X225988255Y-80557650D01*
X225999500Y-80609248D01*
X225999500Y-82229873D01*
X225979815Y-82296912D01*
X225955134Y-82324923D01*
X225763174Y-82485748D01*
X225590483Y-82680393D01*
X225590479Y-82680397D01*
X225448318Y-82898336D01*
X225339780Y-83134831D01*
X225267233Y-83384723D01*
X225267232Y-83384727D01*
X225255631Y-83470252D01*
X225232256Y-83642573D01*
X225232256Y-83642577D01*
X225232256Y-83642578D01*
X225235609Y-83902760D01*
X225235610Y-83902765D01*
X225277225Y-84159631D01*
X225356189Y-84407562D01*
X225470787Y-84641178D01*
X225470792Y-84641186D01*
X225618522Y-84855385D01*
X225628697Y-84866274D01*
X225796176Y-85045515D01*
X225999879Y-85207425D01*
X226225193Y-85337591D01*
X226467211Y-85433177D01*
X226720663Y-85492100D01*
X226720671Y-85492100D01*
X226720673Y-85492101D01*
X226850345Y-85502589D01*
X226980027Y-85513079D01*
X227239653Y-85495654D01*
X227469773Y-85445466D01*
X227493884Y-85440208D01*
X227493884Y-85440207D01*
X227493888Y-85440207D01*
X227737193Y-85347945D01*
X227964269Y-85220877D01*
X228170170Y-85061771D01*
X228350410Y-84874093D01*
X228473962Y-84700098D01*
X228501061Y-84661936D01*
X228501064Y-84661931D01*
X228618852Y-84429906D01*
X228701206Y-84183071D01*
X228746333Y-83926803D01*
X228753250Y-83666684D01*
X228751111Y-83649115D01*
X228721808Y-83408388D01*
X228721807Y-83408387D01*
X228721807Y-83408380D01*
X228652689Y-83157517D01*
X228547400Y-82919559D01*
X228515376Y-82868963D01*
X228408240Y-82699696D01*
X228408237Y-82699692D01*
X228408235Y-82699689D01*
X228398079Y-82687921D01*
X228238231Y-82502703D01*
X228238225Y-82502697D01*
X228147751Y-82424764D01*
X228043571Y-82335024D01*
X228005626Y-82276359D01*
X228000500Y-82241075D01*
X228000500Y-80618072D01*
X228020185Y-80551033D01*
X228072989Y-80505278D01*
X228125207Y-80494074D01*
X229243608Y-80500471D01*
X229305943Y-80501710D01*
X229309434Y-80500848D01*
X229313028Y-80500869D01*
X229372490Y-80485299D01*
X229374115Y-80484887D01*
X229433877Y-80470139D01*
X229433878Y-80470138D01*
X229433888Y-80470136D01*
X229433896Y-80470131D01*
X229434169Y-80470025D01*
X229434200Y-80470013D01*
X229437998Y-80468528D01*
X229439649Y-80467882D01*
X229440233Y-80467603D01*
X229440501Y-80467492D01*
X229440515Y-80467489D01*
X229494062Y-80436979D01*
X229495345Y-80436260D01*
X229549302Y-80406522D01*
X229549308Y-80406516D01*
X229549532Y-80406352D01*
X229549556Y-80406334D01*
X229552869Y-80403895D01*
X229552873Y-80403893D01*
X229554298Y-80402843D01*
X229554788Y-80402425D01*
X229555010Y-80402256D01*
X229555019Y-80402251D01*
X229598853Y-80358914D01*
X229599963Y-80357832D01*
X229693257Y-80268171D01*
X229755233Y-80235911D01*
X229779180Y-80233577D01*
X232445894Y-80233577D01*
X232512933Y-80253262D01*
X232558688Y-80306066D01*
X232568632Y-80375224D01*
X232539607Y-80438780D01*
X232533575Y-80445258D01*
X232134049Y-80844783D01*
X232108580Y-80864367D01*
X232101443Y-80868505D01*
X232049769Y-80889911D01*
X231955940Y-80952606D01*
X231952669Y-80954790D01*
X231952663Y-80954795D01*
X231894088Y-80993933D01*
X230862562Y-82025459D01*
X230862559Y-82025463D01*
X230758540Y-82181137D01*
X230758539Y-82181140D01*
X230720646Y-82272622D01*
X230720643Y-82272629D01*
X230718449Y-82277928D01*
X230686889Y-82354120D01*
X230672837Y-82424764D01*
X230671579Y-82431088D01*
X230671577Y-82431095D01*
X230655986Y-82509481D01*
X230655986Y-82509484D01*
X230650362Y-82537754D01*
X230650362Y-84187807D01*
X230686887Y-84371431D01*
X230686890Y-84371442D01*
X230698550Y-84399588D01*
X230698551Y-84399594D01*
X230698552Y-84399594D01*
X230758539Y-84544417D01*
X230758540Y-84544420D01*
X230862559Y-84700094D01*
X230862562Y-84700098D01*
X233769849Y-87607384D01*
X233803334Y-87668707D01*
X233806168Y-87695065D01*
X233806168Y-109248260D01*
X233786483Y-109315299D01*
X233769849Y-109335941D01*
X231842609Y-111263181D01*
X231781286Y-111296666D01*
X231754928Y-111299500D01*
X226856378Y-111299500D01*
X226672756Y-111336025D01*
X226672748Y-111336027D01*
X226499771Y-111407676D01*
X226435682Y-111450500D01*
X226435681Y-111450500D01*
X226344095Y-111511695D01*
X226344087Y-111511701D01*
X223842609Y-114013181D01*
X223781286Y-114046666D01*
X223754928Y-114049500D01*
X218046725Y-114049500D01*
X217991788Y-114060428D01*
X217964319Y-114065892D01*
X217891900Y-114080296D01*
X217863091Y-114086027D01*
X217690115Y-114157676D01*
X217636972Y-114193186D01*
X217636971Y-114193186D01*
X217534439Y-114261695D01*
X217534431Y-114261701D01*
X216311659Y-115484473D01*
X216271437Y-115511350D01*
X216261169Y-115515603D01*
X216261162Y-115515607D01*
X216130059Y-115603207D01*
X216130051Y-115603213D01*
X216018557Y-115714707D01*
X216018554Y-115714711D01*
X215958903Y-115803985D01*
X215905290Y-115848790D01*
X215835965Y-115857497D01*
X215772938Y-115827342D01*
X215736219Y-115767899D01*
X215732443Y-115747692D01*
X215729850Y-115722303D01*
X215674702Y-115555880D01*
X215674700Y-115555875D01*
X215582659Y-115406654D01*
X215458689Y-115282684D01*
X215309468Y-115190643D01*
X215309463Y-115190641D01*
X215143041Y-115135494D01*
X215143034Y-115135493D01*
X215040330Y-115125000D01*
X214890344Y-115125000D01*
X214890344Y-116219670D01*
X214870599Y-116199925D01*
X214785089Y-116150556D01*
X214689714Y-116125000D01*
X214590974Y-116125000D01*
X214495599Y-116150556D01*
X214410089Y-116199925D01*
X214390344Y-116219670D01*
X214390344Y-115125000D01*
X214240371Y-115125000D01*
X214240356Y-115125001D01*
X214137646Y-115135494D01*
X213971224Y-115190641D01*
X213971219Y-115190643D01*
X213821998Y-115282684D01*
X213698028Y-115406654D01*
X213605987Y-115555875D01*
X213605985Y-115555880D01*
X213550838Y-115722302D01*
X213550837Y-115722309D01*
X213540344Y-115825013D01*
X213540344Y-116250000D01*
X214360014Y-116250000D01*
X214340269Y-116269745D01*
X214290900Y-116355255D01*
X214265344Y-116450630D01*
X214265344Y-116549370D01*
X214290900Y-116644745D01*
X214340269Y-116730255D01*
X214360014Y-116750000D01*
X213540345Y-116750000D01*
X213540345Y-117174986D01*
X213546875Y-117238898D01*
X213534106Y-117307591D01*
X213486225Y-117358475D01*
X213423517Y-117375500D01*
X212021072Y-117375500D01*
X211954033Y-117355815D01*
X211933391Y-117339181D01*
X210503755Y-115909545D01*
X205355911Y-110761700D01*
X205355907Y-110761697D01*
X205200236Y-110657680D01*
X205200223Y-110657673D01*
X205085489Y-110610150D01*
X205085487Y-110610149D01*
X205078620Y-110607305D01*
X205027251Y-110586027D01*
X204935433Y-110567763D01*
X204930771Y-110566835D01*
X204930765Y-110566834D01*
X204843620Y-110549500D01*
X204843617Y-110549500D01*
X204843616Y-110549500D01*
X202843616Y-110549500D01*
X202656383Y-110549500D01*
X202656378Y-110549500D01*
X202472756Y-110586025D01*
X202472748Y-110586027D01*
X202299771Y-110657676D01*
X202299762Y-110657681D01*
X202144091Y-110761698D01*
X202144089Y-110761700D01*
X200837680Y-112068108D01*
X200776357Y-112101593D01*
X200706665Y-112096609D01*
X200662318Y-112068108D01*
X198736819Y-110142609D01*
X198703334Y-110081286D01*
X198700500Y-110054928D01*
X198700500Y-104867685D01*
X199690844Y-104867685D01*
X199690844Y-104999469D01*
X199691693Y-105002636D01*
X199724952Y-105126764D01*
X199757898Y-105183827D01*
X199790844Y-105240891D01*
X199884030Y-105334077D01*
X199998158Y-105399969D01*
X200125452Y-105434077D01*
X200125454Y-105434077D01*
X200257234Y-105434077D01*
X200257236Y-105434077D01*
X200384530Y-105399969D01*
X200498658Y-105334077D01*
X200562339Y-105270396D01*
X200623662Y-105236911D01*
X200650020Y-105234077D01*
X202007744Y-105234077D01*
X202074783Y-105253762D01*
X202095425Y-105270396D01*
X210443117Y-113618088D01*
X210499066Y-113674037D01*
X210499068Y-113674038D01*
X210499072Y-113674041D01*
X210567581Y-113713594D01*
X210567588Y-113713598D01*
X210644015Y-113734077D01*
X213507744Y-113734077D01*
X213537184Y-113742721D01*
X213567171Y-113749245D01*
X213572186Y-113752999D01*
X213574783Y-113753762D01*
X213595425Y-113770396D01*
X213713181Y-113888152D01*
X213746666Y-113949475D01*
X213749500Y-113975833D01*
X213749500Y-114065892D01*
X213783608Y-114193186D01*
X213849500Y-114307314D01*
X213942686Y-114400500D01*
X214056814Y-114466392D01*
X214184108Y-114500500D01*
X214184110Y-114500500D01*
X214315890Y-114500500D01*
X214315892Y-114500500D01*
X214443186Y-114466392D01*
X214557314Y-114400500D01*
X214650500Y-114307314D01*
X214716392Y-114193186D01*
X214750500Y-114065892D01*
X214750500Y-113934108D01*
X214716392Y-113806814D01*
X214650500Y-113692686D01*
X214557314Y-113599500D01*
X214500250Y-113566554D01*
X214443187Y-113533608D01*
X214379539Y-113516554D01*
X214315892Y-113499500D01*
X214225833Y-113499500D01*
X214158794Y-113479815D01*
X214138152Y-113463181D01*
X213868087Y-113193116D01*
X213850324Y-113182861D01*
X213836308Y-113174769D01*
X213817609Y-113163973D01*
X213799567Y-113153556D01*
X213774090Y-113146729D01*
X213723139Y-113133077D01*
X213723137Y-113133077D01*
X210859410Y-113133077D01*
X210792371Y-113113392D01*
X210771729Y-113096758D01*
X204870729Y-107195758D01*
X204837244Y-107134435D01*
X204842228Y-107064743D01*
X204884100Y-107008810D01*
X204949564Y-106984393D01*
X204958410Y-106984077D01*
X205054810Y-106984077D01*
X205054811Y-106984076D01*
X205257764Y-106943707D01*
X205448942Y-106864518D01*
X205620999Y-106749554D01*
X205767321Y-106603232D01*
X205882285Y-106431175D01*
X205961474Y-106239997D01*
X206001844Y-106037042D01*
X206001844Y-105830112D01*
X206001843Y-105830107D01*
X206440844Y-105830107D01*
X206440844Y-106037046D01*
X206481212Y-106239989D01*
X206481214Y-106239997D01*
X206560402Y-106431173D01*
X206675368Y-106603234D01*
X206821686Y-106749552D01*
X206821689Y-106749554D01*
X206993746Y-106864518D01*
X207184924Y-106943707D01*
X207387874Y-106984076D01*
X207387878Y-106984077D01*
X207387879Y-106984077D01*
X207594810Y-106984077D01*
X207594811Y-106984076D01*
X207797764Y-106943707D01*
X207918318Y-106893771D01*
X207987782Y-106886303D01*
X208050262Y-106917577D01*
X208053448Y-106920652D01*
X209050884Y-107918088D01*
X209106833Y-107974037D01*
X209106835Y-107974038D01*
X209106839Y-107974041D01*
X209175348Y-108013594D01*
X209175355Y-108013598D01*
X209251782Y-108034077D01*
X209330906Y-108034077D01*
X219257584Y-108034077D01*
X219324623Y-108053762D01*
X219364970Y-108096076D01*
X219390844Y-108140891D01*
X219484030Y-108234077D01*
X219598158Y-108299969D01*
X219725452Y-108334077D01*
X219725454Y-108334077D01*
X219857234Y-108334077D01*
X219857236Y-108334077D01*
X219984530Y-108299969D01*
X220098658Y-108234077D01*
X220191844Y-108140891D01*
X220257736Y-108026763D01*
X220291844Y-107899469D01*
X220291844Y-107767685D01*
X220257736Y-107640391D01*
X220191844Y-107526263D01*
X220098658Y-107433077D01*
X220035752Y-107396758D01*
X219984531Y-107367185D01*
X219920883Y-107350131D01*
X219857236Y-107333077D01*
X219725452Y-107333077D01*
X219598158Y-107367185D01*
X219598157Y-107367185D01*
X219598155Y-107367186D01*
X219598154Y-107367186D01*
X219512804Y-107416464D01*
X219450804Y-107433077D01*
X209467177Y-107433077D01*
X209400138Y-107413392D01*
X209379496Y-107396758D01*
X208478419Y-106495681D01*
X208444934Y-106434358D01*
X208449918Y-106364666D01*
X208451507Y-106360626D01*
X208501474Y-106239997D01*
X208541844Y-106037042D01*
X208541844Y-105830112D01*
X208501474Y-105627157D01*
X208422285Y-105435979D01*
X208307321Y-105263922D01*
X208307319Y-105263919D01*
X208161001Y-105117601D01*
X208074970Y-105060118D01*
X207988942Y-105002636D01*
X207988937Y-105002634D01*
X207797764Y-104923447D01*
X207797756Y-104923445D01*
X207594813Y-104883077D01*
X207594809Y-104883077D01*
X207387879Y-104883077D01*
X207387874Y-104883077D01*
X207184931Y-104923445D01*
X207184923Y-104923447D01*
X206993747Y-105002635D01*
X206821686Y-105117601D01*
X206675368Y-105263919D01*
X206560402Y-105435980D01*
X206481214Y-105627156D01*
X206481212Y-105627164D01*
X206440844Y-105830107D01*
X206001843Y-105830107D01*
X205961474Y-105627157D01*
X205882285Y-105435979D01*
X205767321Y-105263922D01*
X205767319Y-105263919D01*
X205621001Y-105117601D01*
X205534970Y-105060118D01*
X205448942Y-105002636D01*
X205448937Y-105002634D01*
X205257764Y-104923447D01*
X205257756Y-104923445D01*
X205054813Y-104883077D01*
X205054809Y-104883077D01*
X204847879Y-104883077D01*
X204847874Y-104883077D01*
X204644931Y-104923445D01*
X204644923Y-104923447D01*
X204453747Y-105002635D01*
X204281686Y-105117601D01*
X204135368Y-105263919D01*
X204020402Y-105435980D01*
X203941214Y-105627156D01*
X203941212Y-105627164D01*
X203900844Y-105830107D01*
X203900844Y-105926511D01*
X203881159Y-105993550D01*
X203828355Y-106039305D01*
X203759197Y-106049249D01*
X203695641Y-106020224D01*
X203689163Y-106014192D01*
X202368089Y-104693118D01*
X202368084Y-104693114D01*
X202358642Y-104687663D01*
X202358641Y-104687663D01*
X202299568Y-104653557D01*
X202299567Y-104653556D01*
X202266411Y-104644672D01*
X202223139Y-104633077D01*
X202223137Y-104633077D01*
X200650020Y-104633077D01*
X200582981Y-104613392D01*
X200562339Y-104596758D01*
X200498660Y-104533079D01*
X200498658Y-104533077D01*
X200441594Y-104500131D01*
X200384531Y-104467185D01*
X200298285Y-104444076D01*
X200257236Y-104433077D01*
X200125452Y-104433077D01*
X199998156Y-104467185D01*
X199884030Y-104533077D01*
X199884027Y-104533079D01*
X199790846Y-104626260D01*
X199790844Y-104626263D01*
X199724952Y-104740389D01*
X199707448Y-104805716D01*
X199690844Y-104867685D01*
X198700500Y-104867685D01*
X198700500Y-103290107D01*
X203900844Y-103290107D01*
X203900844Y-103497046D01*
X203941212Y-103699989D01*
X203941214Y-103699997D01*
X204020402Y-103891173D01*
X204135368Y-104063234D01*
X204281686Y-104209552D01*
X204281689Y-104209554D01*
X204453746Y-104324518D01*
X204644924Y-104403707D01*
X204792578Y-104433077D01*
X204847874Y-104444076D01*
X204847878Y-104444077D01*
X204847879Y-104444077D01*
X205054810Y-104444077D01*
X205054811Y-104444076D01*
X205257764Y-104403707D01*
X205448942Y-104324518D01*
X205620999Y-104209554D01*
X205767321Y-104063232D01*
X205882285Y-103891175D01*
X205961474Y-103699997D01*
X206001844Y-103497042D01*
X206001844Y-103290112D01*
X206001843Y-103290109D01*
X206001843Y-103290107D01*
X206440844Y-103290107D01*
X206440844Y-103497046D01*
X206481212Y-103699989D01*
X206481214Y-103699997D01*
X206560402Y-103891173D01*
X206675368Y-104063234D01*
X206821686Y-104209552D01*
X206821689Y-104209554D01*
X206993746Y-104324518D01*
X207184924Y-104403707D01*
X207332578Y-104433077D01*
X207387874Y-104444076D01*
X207387878Y-104444077D01*
X207387879Y-104444077D01*
X207594810Y-104444077D01*
X207594811Y-104444076D01*
X207797764Y-104403707D01*
X207988942Y-104324518D01*
X208160999Y-104209554D01*
X208307321Y-104063232D01*
X208422285Y-103891175D01*
X208501474Y-103699997D01*
X208541844Y-103497042D01*
X208541844Y-103290112D01*
X208541844Y-103290111D01*
X208541844Y-103290109D01*
X208541843Y-103290108D01*
X208541843Y-103290107D01*
X208541291Y-103287330D01*
X224001344Y-103287330D01*
X224001344Y-103499823D01*
X224034586Y-103709704D01*
X224034586Y-103709707D01*
X224100248Y-103911794D01*
X224196719Y-104101127D01*
X224236072Y-104155293D01*
X224868381Y-103522985D01*
X224885419Y-103586570D01*
X224951245Y-103700584D01*
X225044337Y-103793676D01*
X225158351Y-103859502D01*
X225221934Y-103876539D01*
X224589626Y-104508846D01*
X224589626Y-104508847D01*
X224643793Y-104548201D01*
X224833126Y-104644672D01*
X225009317Y-104701920D01*
X225066992Y-104741357D01*
X225094191Y-104805716D01*
X225082276Y-104874562D01*
X225035032Y-104926038D01*
X225018452Y-104934412D01*
X224853747Y-105002634D01*
X224681686Y-105117601D01*
X224535368Y-105263919D01*
X224420402Y-105435980D01*
X224341214Y-105627156D01*
X224341212Y-105627164D01*
X224300844Y-105830107D01*
X224300844Y-106037046D01*
X224341212Y-106239989D01*
X224341214Y-106239997D01*
X224420402Y-106431173D01*
X224535368Y-106603234D01*
X224681686Y-106749552D01*
X224681689Y-106749554D01*
X224853746Y-106864518D01*
X225044924Y-106943707D01*
X225247874Y-106984076D01*
X225247878Y-106984077D01*
X225247879Y-106984077D01*
X225454810Y-106984077D01*
X225454811Y-106984076D01*
X225657764Y-106943707D01*
X225848942Y-106864518D01*
X226020999Y-106749554D01*
X226167321Y-106603232D01*
X226282285Y-106431175D01*
X226361474Y-106239997D01*
X226401844Y-106037042D01*
X226401844Y-105830112D01*
X226361474Y-105627157D01*
X226282285Y-105435979D01*
X226167321Y-105263922D01*
X226167319Y-105263919D01*
X226021001Y-105117601D01*
X225934970Y-105060118D01*
X225848942Y-105002636D01*
X225848937Y-105002634D01*
X225787235Y-104977076D01*
X225684234Y-104934411D01*
X225629832Y-104890571D01*
X225607767Y-104824277D01*
X225625046Y-104756578D01*
X225676183Y-104708967D01*
X225693370Y-104701920D01*
X225869561Y-104644672D01*
X226058898Y-104548199D01*
X226113060Y-104508847D01*
X226113061Y-104508847D01*
X225480752Y-103876539D01*
X225544337Y-103859502D01*
X225658351Y-103793676D01*
X225751443Y-103700584D01*
X225817269Y-103586570D01*
X225834306Y-103522985D01*
X226466614Y-104155294D01*
X226466614Y-104155293D01*
X226505966Y-104101131D01*
X226510858Y-104091531D01*
X226558832Y-104040734D01*
X226626652Y-104023938D01*
X226692788Y-104046474D01*
X226731830Y-104091531D01*
X226736719Y-104101127D01*
X226776072Y-104155293D01*
X227408381Y-103522985D01*
X227425419Y-103586570D01*
X227491245Y-103700584D01*
X227584337Y-103793676D01*
X227698351Y-103859502D01*
X227761934Y-103876539D01*
X227129626Y-104508846D01*
X227129626Y-104508847D01*
X227183793Y-104548201D01*
X227373126Y-104644672D01*
X227549317Y-104701920D01*
X227606992Y-104741357D01*
X227634191Y-104805716D01*
X227622276Y-104874562D01*
X227575032Y-104926038D01*
X227558452Y-104934412D01*
X227393747Y-105002634D01*
X227221686Y-105117601D01*
X227075368Y-105263919D01*
X226960402Y-105435980D01*
X226881214Y-105627156D01*
X226881212Y-105627164D01*
X226840844Y-105830107D01*
X226840844Y-106037046D01*
X226881212Y-106239989D01*
X226881214Y-106239997D01*
X226960402Y-106431173D01*
X227075368Y-106603234D01*
X227221686Y-106749552D01*
X227221689Y-106749554D01*
X227393746Y-106864518D01*
X227584924Y-106943707D01*
X227787874Y-106984076D01*
X227787878Y-106984077D01*
X227787879Y-106984077D01*
X227994810Y-106984077D01*
X227994811Y-106984076D01*
X228197764Y-106943707D01*
X228388942Y-106864518D01*
X228560999Y-106749554D01*
X228707321Y-106603232D01*
X228822285Y-106431175D01*
X228901474Y-106239997D01*
X228941844Y-106037042D01*
X228941844Y-105830112D01*
X228901474Y-105627157D01*
X228822285Y-105435979D01*
X228707321Y-105263922D01*
X228707319Y-105263919D01*
X228561001Y-105117601D01*
X228474970Y-105060118D01*
X228388942Y-105002636D01*
X228388937Y-105002634D01*
X228327235Y-104977076D01*
X228224234Y-104934411D01*
X228169832Y-104890571D01*
X228147767Y-104824277D01*
X228165046Y-104756578D01*
X228216183Y-104708967D01*
X228233370Y-104701920D01*
X228409561Y-104644672D01*
X228598898Y-104548199D01*
X228653060Y-104508847D01*
X228653061Y-104508847D01*
X228020752Y-103876539D01*
X228084337Y-103859502D01*
X228198351Y-103793676D01*
X228291443Y-103700584D01*
X228357269Y-103586570D01*
X228374306Y-103522985D01*
X229006614Y-104155294D01*
X229006614Y-104155293D01*
X229045966Y-104101131D01*
X229142439Y-103911794D01*
X229208101Y-103709707D01*
X229208101Y-103709704D01*
X229241344Y-103499823D01*
X229241344Y-103287330D01*
X229208101Y-103077449D01*
X229208101Y-103077446D01*
X229142439Y-102875359D01*
X229045968Y-102686026D01*
X229006614Y-102631859D01*
X229006613Y-102631859D01*
X228374306Y-103264167D01*
X228357269Y-103200584D01*
X228291443Y-103086570D01*
X228198351Y-102993478D01*
X228084337Y-102927652D01*
X228020753Y-102910614D01*
X228653060Y-102278305D01*
X228598894Y-102238952D01*
X228409560Y-102142481D01*
X228233370Y-102085233D01*
X228175694Y-102045795D01*
X228148496Y-101981437D01*
X228160411Y-101912590D01*
X228207655Y-101861115D01*
X228224226Y-101852745D01*
X228388942Y-101784518D01*
X228560999Y-101669554D01*
X228707321Y-101523232D01*
X228822285Y-101351175D01*
X228901474Y-101159997D01*
X228941844Y-100957042D01*
X228941844Y-100750112D01*
X228901474Y-100547157D01*
X228822285Y-100355979D01*
X228707321Y-100183922D01*
X228707319Y-100183919D01*
X228561001Y-100037601D01*
X228474970Y-99980118D01*
X228388942Y-99922636D01*
X228197764Y-99843447D01*
X228197756Y-99843445D01*
X227994813Y-99803077D01*
X227994809Y-99803077D01*
X227787879Y-99803077D01*
X227787874Y-99803077D01*
X227584931Y-99843445D01*
X227584923Y-99843447D01*
X227393747Y-99922635D01*
X227221686Y-100037601D01*
X227075368Y-100183919D01*
X226960402Y-100355980D01*
X226881214Y-100547156D01*
X226881212Y-100547164D01*
X226840844Y-100750107D01*
X226840844Y-100957046D01*
X226872698Y-101117185D01*
X226881214Y-101159997D01*
X226960403Y-101351175D01*
X226975079Y-101373139D01*
X227075368Y-101523234D01*
X227221686Y-101669552D01*
X227393749Y-101784520D01*
X227496387Y-101827033D01*
X227558452Y-101852741D01*
X227612855Y-101896582D01*
X227634920Y-101962876D01*
X227617641Y-102030575D01*
X227566504Y-102078186D01*
X227549318Y-102085233D01*
X227373125Y-102142482D01*
X227183783Y-102238957D01*
X227129626Y-102278304D01*
X227129626Y-102278305D01*
X227761935Y-102910614D01*
X227698351Y-102927652D01*
X227584337Y-102993478D01*
X227491245Y-103086570D01*
X227425419Y-103200584D01*
X227408381Y-103264168D01*
X226776072Y-102631859D01*
X226776071Y-102631859D01*
X226736724Y-102686017D01*
X226731827Y-102695628D01*
X226683850Y-102746422D01*
X226616028Y-102763215D01*
X226549894Y-102740675D01*
X226510860Y-102695625D01*
X226505970Y-102686029D01*
X226466614Y-102631859D01*
X226466613Y-102631859D01*
X225834306Y-103264167D01*
X225817269Y-103200584D01*
X225751443Y-103086570D01*
X225658351Y-102993478D01*
X225544337Y-102927652D01*
X225480753Y-102910614D01*
X226113060Y-102278305D01*
X226058894Y-102238952D01*
X225869560Y-102142481D01*
X225693370Y-102085233D01*
X225635694Y-102045795D01*
X225608496Y-101981437D01*
X225620411Y-101912590D01*
X225667655Y-101861115D01*
X225684226Y-101852745D01*
X225848942Y-101784518D01*
X226020999Y-101669554D01*
X226167321Y-101523232D01*
X226282285Y-101351175D01*
X226361474Y-101159997D01*
X226401844Y-100957042D01*
X226401844Y-100750112D01*
X226361474Y-100547157D01*
X226282285Y-100355979D01*
X226167321Y-100183922D01*
X226167319Y-100183919D01*
X226021001Y-100037601D01*
X225934970Y-99980118D01*
X225848942Y-99922636D01*
X225657764Y-99843447D01*
X225657756Y-99843445D01*
X225454813Y-99803077D01*
X225454809Y-99803077D01*
X225247879Y-99803077D01*
X225247874Y-99803077D01*
X225044931Y-99843445D01*
X225044923Y-99843447D01*
X224853747Y-99922635D01*
X224681686Y-100037601D01*
X224535368Y-100183919D01*
X224420402Y-100355980D01*
X224341214Y-100547156D01*
X224341212Y-100547164D01*
X224300844Y-100750107D01*
X224300844Y-100957046D01*
X224332698Y-101117185D01*
X224341214Y-101159997D01*
X224420403Y-101351175D01*
X224435079Y-101373139D01*
X224535368Y-101523234D01*
X224681686Y-101669552D01*
X224853749Y-101784520D01*
X224956387Y-101827033D01*
X225018452Y-101852741D01*
X225072855Y-101896582D01*
X225094920Y-101962876D01*
X225077641Y-102030575D01*
X225026504Y-102078186D01*
X225009318Y-102085233D01*
X224833125Y-102142482D01*
X224643783Y-102238957D01*
X224589626Y-102278304D01*
X224589626Y-102278305D01*
X225221935Y-102910614D01*
X225158351Y-102927652D01*
X225044337Y-102993478D01*
X224951245Y-103086570D01*
X224885419Y-103200584D01*
X224868381Y-103264168D01*
X224236072Y-102631859D01*
X224236071Y-102631859D01*
X224196724Y-102686016D01*
X224100248Y-102875359D01*
X224034586Y-103077446D01*
X224034586Y-103077449D01*
X224001344Y-103287330D01*
X208541291Y-103287330D01*
X208501474Y-103087157D01*
X208422285Y-102895979D01*
X208307321Y-102723922D01*
X208307319Y-102723919D01*
X208161001Y-102577601D01*
X208074970Y-102520118D01*
X207988942Y-102462636D01*
X207797764Y-102383447D01*
X207797756Y-102383445D01*
X207594813Y-102343077D01*
X207594809Y-102343077D01*
X207387879Y-102343077D01*
X207387874Y-102343077D01*
X207184931Y-102383445D01*
X207184923Y-102383447D01*
X206993747Y-102462635D01*
X206821686Y-102577601D01*
X206675368Y-102723919D01*
X206560402Y-102895980D01*
X206481214Y-103087156D01*
X206481212Y-103087164D01*
X206440844Y-103290107D01*
X206001843Y-103290107D01*
X205961475Y-103087164D01*
X205961474Y-103087157D01*
X205882285Y-102895979D01*
X205767321Y-102723922D01*
X205767319Y-102723919D01*
X205621001Y-102577601D01*
X205534970Y-102520118D01*
X205448942Y-102462636D01*
X205257764Y-102383447D01*
X205257756Y-102383445D01*
X205054813Y-102343077D01*
X205054809Y-102343077D01*
X204847879Y-102343077D01*
X204847874Y-102343077D01*
X204644931Y-102383445D01*
X204644923Y-102383447D01*
X204453747Y-102462635D01*
X204281686Y-102577601D01*
X204135368Y-102723919D01*
X204020402Y-102895980D01*
X203941214Y-103087156D01*
X203941212Y-103087164D01*
X203900844Y-103290107D01*
X198700500Y-103290107D01*
X198700500Y-100750107D01*
X203900844Y-100750107D01*
X203900844Y-100957046D01*
X203932698Y-101117185D01*
X203941214Y-101159997D01*
X204020403Y-101351175D01*
X204035079Y-101373139D01*
X204135368Y-101523234D01*
X204281686Y-101669552D01*
X204281689Y-101669554D01*
X204453746Y-101784518D01*
X204644924Y-101863707D01*
X204810199Y-101896582D01*
X204847874Y-101904076D01*
X204847878Y-101904077D01*
X204847879Y-101904077D01*
X205054810Y-101904077D01*
X205054811Y-101904076D01*
X205257764Y-101863707D01*
X205448942Y-101784518D01*
X205620999Y-101669554D01*
X205767321Y-101523232D01*
X205882285Y-101351175D01*
X205961474Y-101159997D01*
X206001844Y-100957042D01*
X206001844Y-100750112D01*
X206001843Y-100750107D01*
X206440844Y-100750107D01*
X206440844Y-100957046D01*
X206472698Y-101117185D01*
X206481214Y-101159997D01*
X206560403Y-101351175D01*
X206575079Y-101373139D01*
X206675368Y-101523234D01*
X206821686Y-101669552D01*
X206821689Y-101669554D01*
X206993746Y-101784518D01*
X207184924Y-101863707D01*
X207350199Y-101896582D01*
X207387874Y-101904076D01*
X207387878Y-101904077D01*
X207387879Y-101904077D01*
X207594810Y-101904077D01*
X207594811Y-101904076D01*
X207797764Y-101863707D01*
X207988942Y-101784518D01*
X208160999Y-101669554D01*
X208307321Y-101523232D01*
X208422285Y-101351175D01*
X208501474Y-101159997D01*
X208541844Y-100957042D01*
X208541844Y-100750112D01*
X208501474Y-100547157D01*
X208422285Y-100355979D01*
X208307321Y-100183922D01*
X208307319Y-100183919D01*
X208161001Y-100037601D01*
X208074970Y-99980118D01*
X207988942Y-99922636D01*
X207797764Y-99843447D01*
X207797756Y-99843445D01*
X207594813Y-99803077D01*
X207594809Y-99803077D01*
X207387879Y-99803077D01*
X207387874Y-99803077D01*
X207184931Y-99843445D01*
X207184923Y-99843447D01*
X206993747Y-99922635D01*
X206821686Y-100037601D01*
X206675368Y-100183919D01*
X206560402Y-100355980D01*
X206481214Y-100547156D01*
X206481212Y-100547164D01*
X206440844Y-100750107D01*
X206001843Y-100750107D01*
X205961474Y-100547157D01*
X205882285Y-100355979D01*
X205767321Y-100183922D01*
X205767319Y-100183919D01*
X205621001Y-100037601D01*
X205534970Y-99980118D01*
X205448942Y-99922636D01*
X205257764Y-99843447D01*
X205257756Y-99843445D01*
X205054813Y-99803077D01*
X205054809Y-99803077D01*
X204847879Y-99803077D01*
X204847874Y-99803077D01*
X204644931Y-99843445D01*
X204644923Y-99843447D01*
X204453747Y-99922635D01*
X204281686Y-100037601D01*
X204135368Y-100183919D01*
X204020402Y-100355980D01*
X203941214Y-100547156D01*
X203941212Y-100547164D01*
X203900844Y-100750107D01*
X198700500Y-100750107D01*
X198700500Y-98210107D01*
X203900844Y-98210107D01*
X203900844Y-98417046D01*
X203941212Y-98619989D01*
X203941214Y-98619997D01*
X204020402Y-98811173D01*
X204135368Y-98983234D01*
X204281686Y-99129552D01*
X204281689Y-99129554D01*
X204453746Y-99244518D01*
X204644924Y-99323707D01*
X204847874Y-99364076D01*
X204847878Y-99364077D01*
X204847879Y-99364077D01*
X205054810Y-99364077D01*
X205054811Y-99364076D01*
X205257764Y-99323707D01*
X205448942Y-99244518D01*
X205620999Y-99129554D01*
X205767321Y-98983232D01*
X205882285Y-98811175D01*
X205961474Y-98619997D01*
X206001844Y-98417042D01*
X206001844Y-98210112D01*
X206001843Y-98210107D01*
X206440844Y-98210107D01*
X206440844Y-98417046D01*
X206481212Y-98619989D01*
X206481214Y-98619997D01*
X206560402Y-98811173D01*
X206675368Y-98983234D01*
X206821686Y-99129552D01*
X206821689Y-99129554D01*
X206993746Y-99244518D01*
X207184924Y-99323707D01*
X207387874Y-99364076D01*
X207387878Y-99364077D01*
X207387879Y-99364077D01*
X207594810Y-99364077D01*
X207594811Y-99364076D01*
X207797764Y-99323707D01*
X207988942Y-99244518D01*
X208160999Y-99129554D01*
X208307321Y-98983232D01*
X208422285Y-98811175D01*
X208501474Y-98619997D01*
X208541844Y-98417042D01*
X208541844Y-98210112D01*
X208501474Y-98007157D01*
X208422285Y-97815979D01*
X208307321Y-97643922D01*
X208307319Y-97643919D01*
X208161001Y-97497601D01*
X208074970Y-97440118D01*
X207988942Y-97382636D01*
X207797764Y-97303447D01*
X207797756Y-97303445D01*
X207594813Y-97263077D01*
X207594809Y-97263077D01*
X207387879Y-97263077D01*
X207387874Y-97263077D01*
X207184931Y-97303445D01*
X207184923Y-97303447D01*
X206993747Y-97382635D01*
X206821686Y-97497601D01*
X206675368Y-97643919D01*
X206560402Y-97815980D01*
X206481214Y-98007156D01*
X206481212Y-98007164D01*
X206440844Y-98210107D01*
X206001843Y-98210107D01*
X205961474Y-98007157D01*
X205882285Y-97815979D01*
X205767321Y-97643922D01*
X205767319Y-97643919D01*
X205621001Y-97497601D01*
X205534970Y-97440118D01*
X205448942Y-97382636D01*
X205257764Y-97303447D01*
X205257756Y-97303445D01*
X205054813Y-97263077D01*
X205054809Y-97263077D01*
X204847879Y-97263077D01*
X204847874Y-97263077D01*
X204644931Y-97303445D01*
X204644923Y-97303447D01*
X204453747Y-97382635D01*
X204281686Y-97497601D01*
X204135368Y-97643919D01*
X204020402Y-97815980D01*
X203941214Y-98007156D01*
X203941212Y-98007164D01*
X203900844Y-98210107D01*
X198700500Y-98210107D01*
X198700500Y-96213709D01*
X198720185Y-96146670D01*
X198723286Y-96142258D01*
X198724072Y-96140895D01*
X198724077Y-96140891D01*
X198789969Y-96026763D01*
X198824077Y-95899469D01*
X198824077Y-95767685D01*
X198797931Y-95670107D01*
X203900844Y-95670107D01*
X203900844Y-95877046D01*
X203941212Y-96079989D01*
X203941214Y-96079997D01*
X203967003Y-96142258D01*
X204020403Y-96271175D01*
X204057546Y-96326764D01*
X204135368Y-96443234D01*
X204281686Y-96589552D01*
X204281689Y-96589554D01*
X204453746Y-96704518D01*
X204644924Y-96783707D01*
X204847874Y-96824076D01*
X204847878Y-96824077D01*
X204847879Y-96824077D01*
X205054810Y-96824077D01*
X205054811Y-96824076D01*
X205257764Y-96783707D01*
X205448942Y-96704518D01*
X205620999Y-96589554D01*
X205767321Y-96443232D01*
X205882285Y-96271175D01*
X205961474Y-96079997D01*
X206001844Y-95877042D01*
X206001844Y-95670112D01*
X206001843Y-95670107D01*
X206440844Y-95670107D01*
X206440844Y-95877046D01*
X206481212Y-96079989D01*
X206481214Y-96079997D01*
X206507003Y-96142258D01*
X206560403Y-96271175D01*
X206597546Y-96326764D01*
X206675368Y-96443234D01*
X206821686Y-96589552D01*
X206821689Y-96589554D01*
X206993746Y-96704518D01*
X207184924Y-96783707D01*
X207387874Y-96824076D01*
X207387878Y-96824077D01*
X207387879Y-96824077D01*
X207594810Y-96824077D01*
X207594811Y-96824076D01*
X207797764Y-96783707D01*
X207988942Y-96704518D01*
X208160999Y-96589554D01*
X208307321Y-96443232D01*
X208422285Y-96271175D01*
X208501474Y-96079997D01*
X208541844Y-95877042D01*
X208541844Y-95670112D01*
X208501474Y-95467157D01*
X208422285Y-95275979D01*
X208307321Y-95103922D01*
X208307319Y-95103919D01*
X208161001Y-94957601D01*
X207989069Y-94842721D01*
X207988942Y-94842636D01*
X207968276Y-94834076D01*
X207797764Y-94763447D01*
X207797756Y-94763445D01*
X207594813Y-94723077D01*
X207594809Y-94723077D01*
X207387879Y-94723077D01*
X207387874Y-94723077D01*
X207184931Y-94763445D01*
X207184923Y-94763447D01*
X206993747Y-94842635D01*
X206821686Y-94957601D01*
X206675368Y-95103919D01*
X206560402Y-95275980D01*
X206481214Y-95467156D01*
X206481212Y-95467164D01*
X206440844Y-95670107D01*
X206001843Y-95670107D01*
X205961474Y-95467157D01*
X205882285Y-95275979D01*
X205767321Y-95103922D01*
X205767319Y-95103919D01*
X205621001Y-94957601D01*
X205449069Y-94842721D01*
X205448942Y-94842636D01*
X205428276Y-94834076D01*
X205257764Y-94763447D01*
X205257756Y-94763445D01*
X205054813Y-94723077D01*
X205054809Y-94723077D01*
X204847879Y-94723077D01*
X204847874Y-94723077D01*
X204644931Y-94763445D01*
X204644923Y-94763447D01*
X204453747Y-94842635D01*
X204281686Y-94957601D01*
X204135368Y-95103919D01*
X204020402Y-95275980D01*
X203941214Y-95467156D01*
X203941212Y-95467164D01*
X203900844Y-95670107D01*
X198797931Y-95670107D01*
X198789969Y-95640391D01*
X198724077Y-95526263D01*
X198719782Y-95521968D01*
X198712525Y-95506712D01*
X198708995Y-95484620D01*
X198700929Y-95463751D01*
X198700500Y-95453444D01*
X198700500Y-93130107D01*
X203900844Y-93130107D01*
X203900844Y-93337046D01*
X203941212Y-93539989D01*
X203941214Y-93539997D01*
X204020402Y-93731173D01*
X204135368Y-93903234D01*
X204281686Y-94049552D01*
X204281689Y-94049554D01*
X204453746Y-94164518D01*
X204644924Y-94243707D01*
X204847874Y-94284076D01*
X204847878Y-94284077D01*
X204847879Y-94284077D01*
X205054810Y-94284077D01*
X205054811Y-94284076D01*
X205257764Y-94243707D01*
X205448942Y-94164518D01*
X205620999Y-94049554D01*
X205767321Y-93903232D01*
X205882285Y-93731175D01*
X205961474Y-93539997D01*
X206001844Y-93337042D01*
X206001844Y-93130112D01*
X206001843Y-93130107D01*
X206440844Y-93130107D01*
X206440844Y-93337046D01*
X206481212Y-93539989D01*
X206481214Y-93539997D01*
X206560402Y-93731173D01*
X206675368Y-93903234D01*
X206821686Y-94049552D01*
X206821689Y-94049554D01*
X206993746Y-94164518D01*
X207184924Y-94243707D01*
X207387874Y-94284076D01*
X207387878Y-94284077D01*
X207387879Y-94284077D01*
X207594810Y-94284077D01*
X207594811Y-94284076D01*
X207797764Y-94243707D01*
X207988942Y-94164518D01*
X208160999Y-94049554D01*
X208307321Y-93903232D01*
X208422285Y-93731175D01*
X208501474Y-93539997D01*
X208541844Y-93337042D01*
X208541844Y-93130112D01*
X208501474Y-92927157D01*
X208422285Y-92735979D01*
X208307321Y-92563922D01*
X208307319Y-92563919D01*
X208161001Y-92417601D01*
X208074970Y-92360118D01*
X207988942Y-92302636D01*
X207797764Y-92223447D01*
X207797756Y-92223445D01*
X207594813Y-92183077D01*
X207594809Y-92183077D01*
X207387879Y-92183077D01*
X207387874Y-92183077D01*
X207184931Y-92223445D01*
X207184923Y-92223447D01*
X206993747Y-92302635D01*
X206821686Y-92417601D01*
X206675368Y-92563919D01*
X206560402Y-92735980D01*
X206481214Y-92927156D01*
X206481212Y-92927164D01*
X206440844Y-93130107D01*
X206001843Y-93130107D01*
X205961474Y-92927157D01*
X205882285Y-92735979D01*
X205767321Y-92563922D01*
X205767319Y-92563919D01*
X205621001Y-92417601D01*
X205534970Y-92360118D01*
X205448942Y-92302636D01*
X205257764Y-92223447D01*
X205257756Y-92223445D01*
X205054813Y-92183077D01*
X205054809Y-92183077D01*
X204847879Y-92183077D01*
X204847874Y-92183077D01*
X204644931Y-92223445D01*
X204644923Y-92223447D01*
X204453747Y-92302635D01*
X204281686Y-92417601D01*
X204135368Y-92563919D01*
X204020402Y-92735980D01*
X203941214Y-92927156D01*
X203941212Y-92927164D01*
X203900844Y-93130107D01*
X198700500Y-93130107D01*
X198700500Y-90590107D01*
X203900844Y-90590107D01*
X203900844Y-90797046D01*
X203941212Y-90999989D01*
X203941214Y-90999997D01*
X204020402Y-91191173D01*
X204135368Y-91363234D01*
X204281686Y-91509552D01*
X204281689Y-91509554D01*
X204453746Y-91624518D01*
X204644924Y-91703707D01*
X204847874Y-91744076D01*
X204847878Y-91744077D01*
X204847879Y-91744077D01*
X205054810Y-91744077D01*
X205054811Y-91744076D01*
X205257764Y-91703707D01*
X205448942Y-91624518D01*
X205620999Y-91509554D01*
X205767321Y-91363232D01*
X205882285Y-91191175D01*
X205961474Y-90999997D01*
X206001844Y-90797042D01*
X206001844Y-90590112D01*
X206001843Y-90590107D01*
X206440844Y-90590107D01*
X206440844Y-90797046D01*
X206481212Y-90999989D01*
X206481214Y-90999997D01*
X206560402Y-91191173D01*
X206675368Y-91363234D01*
X206821686Y-91509552D01*
X206821689Y-91509554D01*
X206993746Y-91624518D01*
X207184924Y-91703707D01*
X207387874Y-91744076D01*
X207387878Y-91744077D01*
X207387879Y-91744077D01*
X207594810Y-91744077D01*
X207594811Y-91744076D01*
X207797764Y-91703707D01*
X207988942Y-91624518D01*
X208160999Y-91509554D01*
X208307321Y-91363232D01*
X208422285Y-91191175D01*
X208501474Y-90999997D01*
X208541844Y-90797042D01*
X208541844Y-90590112D01*
X208501474Y-90387157D01*
X208422285Y-90195979D01*
X208307321Y-90023922D01*
X208307319Y-90023919D01*
X208161001Y-89877601D01*
X208074970Y-89820118D01*
X207988942Y-89762636D01*
X207797764Y-89683447D01*
X207797756Y-89683445D01*
X207594813Y-89643077D01*
X207594809Y-89643077D01*
X207387879Y-89643077D01*
X207387874Y-89643077D01*
X207184931Y-89683445D01*
X207184923Y-89683447D01*
X206993747Y-89762635D01*
X206821686Y-89877601D01*
X206675368Y-90023919D01*
X206560402Y-90195980D01*
X206481214Y-90387156D01*
X206481212Y-90387164D01*
X206440844Y-90590107D01*
X206001843Y-90590107D01*
X205961474Y-90387157D01*
X205882285Y-90195979D01*
X205767321Y-90023922D01*
X205767319Y-90023919D01*
X205621001Y-89877601D01*
X205534970Y-89820118D01*
X205448942Y-89762636D01*
X205257764Y-89683447D01*
X205257756Y-89683445D01*
X205054813Y-89643077D01*
X205054809Y-89643077D01*
X204847879Y-89643077D01*
X204847874Y-89643077D01*
X204644931Y-89683445D01*
X204644923Y-89683447D01*
X204453747Y-89762635D01*
X204281686Y-89877601D01*
X204135368Y-90023919D01*
X204020402Y-90195980D01*
X203941214Y-90387156D01*
X203941212Y-90387164D01*
X203900844Y-90590107D01*
X198700500Y-90590107D01*
X198700500Y-88695072D01*
X198720185Y-88628033D01*
X198736819Y-88607391D01*
X199294103Y-88050107D01*
X203900844Y-88050107D01*
X203900844Y-88257046D01*
X203941212Y-88459989D01*
X203941214Y-88459997D01*
X204020402Y-88651173D01*
X204135368Y-88823234D01*
X204281686Y-88969552D01*
X204281689Y-88969554D01*
X204453746Y-89084518D01*
X204644924Y-89163707D01*
X204789396Y-89192444D01*
X204847874Y-89204076D01*
X204847878Y-89204077D01*
X204847879Y-89204077D01*
X205054810Y-89204077D01*
X205054811Y-89204076D01*
X205257764Y-89163707D01*
X205448942Y-89084518D01*
X205620999Y-88969554D01*
X205767321Y-88823232D01*
X205882285Y-88651175D01*
X205961474Y-88459997D01*
X206001844Y-88257042D01*
X206001844Y-88050112D01*
X205961474Y-87847157D01*
X205882285Y-87655979D01*
X205767321Y-87483922D01*
X205767319Y-87483919D01*
X205621001Y-87337601D01*
X205540517Y-87283824D01*
X206440844Y-87283824D01*
X206440844Y-89023329D01*
X206452475Y-89081806D01*
X206452476Y-89081807D01*
X206496791Y-89148129D01*
X206563113Y-89192444D01*
X206563114Y-89192445D01*
X206621591Y-89204076D01*
X206621594Y-89204077D01*
X206621596Y-89204077D01*
X208065511Y-89204077D01*
X208132550Y-89223762D01*
X208153192Y-89240396D01*
X209554525Y-90641729D01*
X209588010Y-90703052D01*
X209590844Y-90729410D01*
X209590844Y-95774900D01*
X209571159Y-95841939D01*
X209554526Y-95862581D01*
X209490844Y-95926263D01*
X209424952Y-96040389D01*
X209390844Y-96167685D01*
X209390844Y-96299468D01*
X209424952Y-96426764D01*
X209457898Y-96483827D01*
X209490844Y-96540891D01*
X209584030Y-96634077D01*
X209698158Y-96699969D01*
X209825452Y-96734077D01*
X209825454Y-96734077D01*
X209957234Y-96734077D01*
X209957236Y-96734077D01*
X210084530Y-96699969D01*
X210198658Y-96634077D01*
X210291844Y-96540891D01*
X210357736Y-96426763D01*
X210391844Y-96299469D01*
X210391844Y-96167685D01*
X210357736Y-96040391D01*
X210291844Y-95926263D01*
X210228162Y-95862581D01*
X210194678Y-95801257D01*
X210191844Y-95774900D01*
X210191844Y-94837892D01*
X210211529Y-94770853D01*
X210264333Y-94725098D01*
X210333491Y-94715154D01*
X210377845Y-94730505D01*
X210384027Y-94734074D01*
X210384030Y-94734077D01*
X210498158Y-94799969D01*
X210625452Y-94834077D01*
X210625454Y-94834077D01*
X210715511Y-94834077D01*
X210744951Y-94842721D01*
X210774938Y-94849245D01*
X210779953Y-94852999D01*
X210782550Y-94853762D01*
X210803192Y-94870396D01*
X210854525Y-94921729D01*
X210888010Y-94983052D01*
X210890844Y-95009410D01*
X210890844Y-95774900D01*
X210871159Y-95841939D01*
X210854526Y-95862581D01*
X210790844Y-95926263D01*
X210724952Y-96040389D01*
X210690844Y-96167685D01*
X210690844Y-96299468D01*
X210724952Y-96426764D01*
X210757898Y-96483827D01*
X210790844Y-96540891D01*
X210884030Y-96634077D01*
X210998158Y-96699969D01*
X211125452Y-96734077D01*
X211125454Y-96734077D01*
X211257234Y-96734077D01*
X211257236Y-96734077D01*
X211384530Y-96699969D01*
X211498658Y-96634077D01*
X211591844Y-96540891D01*
X211657736Y-96426763D01*
X211691844Y-96299469D01*
X211691844Y-96167685D01*
X211665049Y-96067685D01*
X217190844Y-96067685D01*
X217190844Y-96199469D01*
X217194660Y-96213709D01*
X217224952Y-96326764D01*
X217257898Y-96383827D01*
X217290844Y-96440891D01*
X217384030Y-96534077D01*
X217498158Y-96599969D01*
X217625452Y-96634077D01*
X217625454Y-96634077D01*
X217715511Y-96634077D01*
X217782550Y-96653762D01*
X217803192Y-96670396D01*
X221654525Y-100521729D01*
X221688010Y-100583052D01*
X221690844Y-100609410D01*
X221690844Y-100983804D01*
X221671159Y-101050843D01*
X221618355Y-101096598D01*
X221598941Y-101103577D01*
X221548158Y-101117185D01*
X221548156Y-101117185D01*
X221548156Y-101117186D01*
X221434030Y-101183077D01*
X221434027Y-101183079D01*
X221340846Y-101276260D01*
X221340844Y-101276263D01*
X221274952Y-101390389D01*
X221240844Y-101517685D01*
X221240844Y-101649468D01*
X221274952Y-101776764D01*
X221307898Y-101833827D01*
X221340844Y-101890891D01*
X221434030Y-101984077D01*
X221548158Y-102049969D01*
X221675452Y-102084077D01*
X221675454Y-102084077D01*
X221807234Y-102084077D01*
X221807236Y-102084077D01*
X221934530Y-102049969D01*
X222048658Y-101984077D01*
X222141844Y-101890891D01*
X222207736Y-101776763D01*
X222241844Y-101649469D01*
X222241844Y-101533922D01*
X222258461Y-101471914D01*
X222260959Y-101467589D01*
X222271365Y-101449566D01*
X222291844Y-101373139D01*
X222291844Y-100394015D01*
X222271365Y-100317588D01*
X222271361Y-100317581D01*
X222231808Y-100249072D01*
X222231802Y-100249064D01*
X220192845Y-98210107D01*
X224300844Y-98210107D01*
X224300844Y-98417046D01*
X224341212Y-98619989D01*
X224341214Y-98619997D01*
X224420402Y-98811173D01*
X224535368Y-98983234D01*
X224681686Y-99129552D01*
X224681689Y-99129554D01*
X224853746Y-99244518D01*
X225044924Y-99323707D01*
X225247874Y-99364076D01*
X225247878Y-99364077D01*
X225247879Y-99364077D01*
X225454810Y-99364077D01*
X225454811Y-99364076D01*
X225657764Y-99323707D01*
X225848942Y-99244518D01*
X226020999Y-99129554D01*
X226167321Y-98983232D01*
X226282285Y-98811175D01*
X226361474Y-98619997D01*
X226401844Y-98417042D01*
X226401844Y-98210112D01*
X226401843Y-98210107D01*
X226840844Y-98210107D01*
X226840844Y-98417046D01*
X226881212Y-98619989D01*
X226881214Y-98619997D01*
X226960402Y-98811173D01*
X227075368Y-98983234D01*
X227221686Y-99129552D01*
X227221689Y-99129554D01*
X227393746Y-99244518D01*
X227584924Y-99323707D01*
X227787874Y-99364076D01*
X227787878Y-99364077D01*
X227787879Y-99364077D01*
X227994810Y-99364077D01*
X227994811Y-99364076D01*
X228197764Y-99323707D01*
X228388942Y-99244518D01*
X228560999Y-99129554D01*
X228707321Y-98983232D01*
X228822285Y-98811175D01*
X228901474Y-98619997D01*
X228941844Y-98417042D01*
X228941844Y-98210112D01*
X228901474Y-98007157D01*
X228822285Y-97815979D01*
X228707321Y-97643922D01*
X228707319Y-97643919D01*
X228561001Y-97497601D01*
X228474970Y-97440118D01*
X228388942Y-97382636D01*
X228197764Y-97303447D01*
X228197756Y-97303445D01*
X227994813Y-97263077D01*
X227994809Y-97263077D01*
X227787879Y-97263077D01*
X227787874Y-97263077D01*
X227584931Y-97303445D01*
X227584923Y-97303447D01*
X227393747Y-97382635D01*
X227221686Y-97497601D01*
X227075368Y-97643919D01*
X226960402Y-97815980D01*
X226881214Y-98007156D01*
X226881212Y-98007164D01*
X226840844Y-98210107D01*
X226401843Y-98210107D01*
X226361474Y-98007157D01*
X226282285Y-97815979D01*
X226167321Y-97643922D01*
X226167319Y-97643919D01*
X226021001Y-97497601D01*
X225934970Y-97440118D01*
X225848942Y-97382636D01*
X225657764Y-97303447D01*
X225657756Y-97303445D01*
X225454813Y-97263077D01*
X225454809Y-97263077D01*
X225247879Y-97263077D01*
X225247874Y-97263077D01*
X225044931Y-97303445D01*
X225044923Y-97303447D01*
X224853747Y-97382635D01*
X224681686Y-97497601D01*
X224535368Y-97643919D01*
X224420402Y-97815980D01*
X224341214Y-98007156D01*
X224341212Y-98007164D01*
X224300844Y-98210107D01*
X220192845Y-98210107D01*
X218228163Y-96245425D01*
X218194678Y-96184102D01*
X218191844Y-96157744D01*
X218191844Y-96067687D01*
X218191844Y-96067685D01*
X218157736Y-95940391D01*
X218091844Y-95826263D01*
X217998658Y-95733077D01*
X217941594Y-95700131D01*
X217889592Y-95670107D01*
X224300844Y-95670107D01*
X224300844Y-95877046D01*
X224341212Y-96079989D01*
X224341214Y-96079997D01*
X224367003Y-96142258D01*
X224420403Y-96271175D01*
X224457546Y-96326764D01*
X224535368Y-96443234D01*
X224681686Y-96589552D01*
X224681689Y-96589554D01*
X224853746Y-96704518D01*
X225044924Y-96783707D01*
X225247874Y-96824076D01*
X225247878Y-96824077D01*
X225247879Y-96824077D01*
X225454810Y-96824077D01*
X225454811Y-96824076D01*
X225657764Y-96783707D01*
X225848942Y-96704518D01*
X226020999Y-96589554D01*
X226167321Y-96443232D01*
X226282285Y-96271175D01*
X226361474Y-96079997D01*
X226401844Y-95877042D01*
X226401844Y-95670112D01*
X226401843Y-95670107D01*
X226840844Y-95670107D01*
X226840844Y-95877046D01*
X226881212Y-96079989D01*
X226881214Y-96079997D01*
X226907003Y-96142258D01*
X226960403Y-96271175D01*
X226997546Y-96326764D01*
X227075368Y-96443234D01*
X227221686Y-96589552D01*
X227221689Y-96589554D01*
X227393746Y-96704518D01*
X227584924Y-96783707D01*
X227787874Y-96824076D01*
X227787878Y-96824077D01*
X227787879Y-96824077D01*
X227994810Y-96824077D01*
X227994811Y-96824076D01*
X228197764Y-96783707D01*
X228388942Y-96704518D01*
X228560999Y-96589554D01*
X228707321Y-96443232D01*
X228822285Y-96271175D01*
X228901474Y-96079997D01*
X228941844Y-95877042D01*
X228941844Y-95670112D01*
X228901474Y-95467157D01*
X228822285Y-95275979D01*
X228707321Y-95103922D01*
X228707319Y-95103919D01*
X228561001Y-94957601D01*
X228389069Y-94842721D01*
X228388942Y-94842636D01*
X228368276Y-94834076D01*
X228197764Y-94763447D01*
X228197756Y-94763445D01*
X227994813Y-94723077D01*
X227994809Y-94723077D01*
X227787879Y-94723077D01*
X227787874Y-94723077D01*
X227584931Y-94763445D01*
X227584923Y-94763447D01*
X227393747Y-94842635D01*
X227221686Y-94957601D01*
X227075368Y-95103919D01*
X226960402Y-95275980D01*
X226881214Y-95467156D01*
X226881212Y-95467164D01*
X226840844Y-95670107D01*
X226401843Y-95670107D01*
X226361474Y-95467157D01*
X226282285Y-95275979D01*
X226167321Y-95103922D01*
X226167319Y-95103919D01*
X226021001Y-94957601D01*
X225849069Y-94842721D01*
X225848942Y-94842636D01*
X225828276Y-94834076D01*
X225657764Y-94763447D01*
X225657756Y-94763445D01*
X225454813Y-94723077D01*
X225454809Y-94723077D01*
X225247879Y-94723077D01*
X225247874Y-94723077D01*
X225044931Y-94763445D01*
X225044923Y-94763447D01*
X224853747Y-94842635D01*
X224681686Y-94957601D01*
X224535368Y-95103919D01*
X224420402Y-95275980D01*
X224341214Y-95467156D01*
X224341212Y-95467164D01*
X224300844Y-95670107D01*
X217889592Y-95670107D01*
X217884531Y-95667185D01*
X217784532Y-95640391D01*
X217757236Y-95633077D01*
X217625452Y-95633077D01*
X217498156Y-95667185D01*
X217384030Y-95733077D01*
X217384027Y-95733079D01*
X217290846Y-95826260D01*
X217290844Y-95826263D01*
X217224952Y-95940389D01*
X217198158Y-96040389D01*
X217190844Y-96067685D01*
X211665049Y-96067685D01*
X211657736Y-96040391D01*
X211591844Y-95926263D01*
X211528162Y-95862581D01*
X211494678Y-95801257D01*
X211491844Y-95774900D01*
X211491844Y-94794016D01*
X211491843Y-94794012D01*
X211485637Y-94770853D01*
X211483653Y-94763447D01*
X211471366Y-94717589D01*
X211431804Y-94649066D01*
X211228163Y-94445425D01*
X211194678Y-94384102D01*
X211191844Y-94357744D01*
X211191844Y-94267687D01*
X211191844Y-94267685D01*
X211157736Y-94140391D01*
X211091844Y-94026263D01*
X210998658Y-93933077D01*
X210941594Y-93900131D01*
X210884531Y-93867185D01*
X210820883Y-93850131D01*
X210757236Y-93833077D01*
X210625452Y-93833077D01*
X210498158Y-93867185D01*
X210498157Y-93867185D01*
X210498155Y-93867186D01*
X210498154Y-93867186D01*
X210377844Y-93936648D01*
X210309944Y-93953121D01*
X210243917Y-93930269D01*
X210200726Y-93875347D01*
X210191844Y-93829261D01*
X210191844Y-93130107D01*
X224300844Y-93130107D01*
X224300844Y-93337046D01*
X224341212Y-93539989D01*
X224341214Y-93539997D01*
X224420402Y-93731173D01*
X224535368Y-93903234D01*
X224681686Y-94049552D01*
X224681689Y-94049554D01*
X224853746Y-94164518D01*
X225044924Y-94243707D01*
X225247874Y-94284076D01*
X225247878Y-94284077D01*
X225247879Y-94284077D01*
X225454810Y-94284077D01*
X225454811Y-94284076D01*
X225657764Y-94243707D01*
X225848942Y-94164518D01*
X226020999Y-94049554D01*
X226167321Y-93903232D01*
X226282285Y-93731175D01*
X226361474Y-93539997D01*
X226401844Y-93337042D01*
X226401844Y-93130112D01*
X226401843Y-93130107D01*
X226840844Y-93130107D01*
X226840844Y-93337046D01*
X226881212Y-93539989D01*
X226881214Y-93539997D01*
X226960402Y-93731173D01*
X227075368Y-93903234D01*
X227221686Y-94049552D01*
X227221689Y-94049554D01*
X227393746Y-94164518D01*
X227584924Y-94243707D01*
X227787874Y-94284076D01*
X227787878Y-94284077D01*
X227787879Y-94284077D01*
X227994810Y-94284077D01*
X227994811Y-94284076D01*
X228197764Y-94243707D01*
X228388942Y-94164518D01*
X228560999Y-94049554D01*
X228707321Y-93903232D01*
X228822285Y-93731175D01*
X228901474Y-93539997D01*
X228941844Y-93337042D01*
X228941844Y-93130112D01*
X228901474Y-92927157D01*
X228822285Y-92735979D01*
X228707321Y-92563922D01*
X228707319Y-92563919D01*
X228561001Y-92417601D01*
X228474970Y-92360118D01*
X228388942Y-92302636D01*
X228197764Y-92223447D01*
X228197756Y-92223445D01*
X227994813Y-92183077D01*
X227994809Y-92183077D01*
X227787879Y-92183077D01*
X227787874Y-92183077D01*
X227584931Y-92223445D01*
X227584923Y-92223447D01*
X227393747Y-92302635D01*
X227221686Y-92417601D01*
X227075368Y-92563919D01*
X226960402Y-92735980D01*
X226881214Y-92927156D01*
X226881212Y-92927164D01*
X226840844Y-93130107D01*
X226401843Y-93130107D01*
X226361474Y-92927157D01*
X226282285Y-92735979D01*
X226167321Y-92563922D01*
X226167319Y-92563919D01*
X226021001Y-92417601D01*
X225934970Y-92360118D01*
X225848942Y-92302636D01*
X225657764Y-92223447D01*
X225657756Y-92223445D01*
X225454813Y-92183077D01*
X225454809Y-92183077D01*
X225247879Y-92183077D01*
X225247874Y-92183077D01*
X225044931Y-92223445D01*
X225044923Y-92223447D01*
X224853747Y-92302635D01*
X224681686Y-92417601D01*
X224535368Y-92563919D01*
X224420402Y-92735980D01*
X224341214Y-92927156D01*
X224341212Y-92927164D01*
X224300844Y-93130107D01*
X210191844Y-93130107D01*
X210191844Y-90590107D01*
X224300844Y-90590107D01*
X224300844Y-90797046D01*
X224341212Y-90999989D01*
X224341214Y-90999997D01*
X224420402Y-91191173D01*
X224535368Y-91363234D01*
X224681686Y-91509552D01*
X224681689Y-91509554D01*
X224853746Y-91624518D01*
X225044924Y-91703707D01*
X225247874Y-91744076D01*
X225247878Y-91744077D01*
X225247879Y-91744077D01*
X225454810Y-91744077D01*
X225454811Y-91744076D01*
X225657764Y-91703707D01*
X225848942Y-91624518D01*
X226020999Y-91509554D01*
X226167321Y-91363232D01*
X226282285Y-91191175D01*
X226361474Y-90999997D01*
X226401844Y-90797042D01*
X226401844Y-90590112D01*
X226401843Y-90590107D01*
X226840844Y-90590107D01*
X226840844Y-90797046D01*
X226881212Y-90999989D01*
X226881214Y-90999997D01*
X226960402Y-91191173D01*
X227075368Y-91363234D01*
X227221686Y-91509552D01*
X227221689Y-91509554D01*
X227393746Y-91624518D01*
X227584924Y-91703707D01*
X227787874Y-91744076D01*
X227787878Y-91744077D01*
X227787879Y-91744077D01*
X227994810Y-91744077D01*
X227994811Y-91744076D01*
X228197764Y-91703707D01*
X228388942Y-91624518D01*
X228560999Y-91509554D01*
X228707321Y-91363232D01*
X228822285Y-91191175D01*
X228901474Y-90999997D01*
X228941844Y-90797042D01*
X228941844Y-90590112D01*
X228901474Y-90387157D01*
X228822285Y-90195979D01*
X228707321Y-90023922D01*
X228707319Y-90023919D01*
X228561001Y-89877601D01*
X228474970Y-89820118D01*
X228388942Y-89762636D01*
X228197764Y-89683447D01*
X228197756Y-89683445D01*
X227994813Y-89643077D01*
X227994809Y-89643077D01*
X227787879Y-89643077D01*
X227787874Y-89643077D01*
X227584931Y-89683445D01*
X227584923Y-89683447D01*
X227393747Y-89762635D01*
X227221686Y-89877601D01*
X227075368Y-90023919D01*
X226960402Y-90195980D01*
X226881214Y-90387156D01*
X226881212Y-90387164D01*
X226840844Y-90590107D01*
X226401843Y-90590107D01*
X226361474Y-90387157D01*
X226282285Y-90195979D01*
X226167321Y-90023922D01*
X226167319Y-90023919D01*
X226021001Y-89877601D01*
X225934970Y-89820118D01*
X225848942Y-89762636D01*
X225657764Y-89683447D01*
X225657756Y-89683445D01*
X225454813Y-89643077D01*
X225454809Y-89643077D01*
X225247879Y-89643077D01*
X225247874Y-89643077D01*
X225044931Y-89683445D01*
X225044923Y-89683447D01*
X224853747Y-89762635D01*
X224681686Y-89877601D01*
X224535368Y-90023919D01*
X224420402Y-90195980D01*
X224341214Y-90387156D01*
X224341212Y-90387164D01*
X224300844Y-90590107D01*
X210191844Y-90590107D01*
X210191844Y-90514017D01*
X210191843Y-90514013D01*
X210181300Y-90474664D01*
X210171366Y-90437589D01*
X210131804Y-90369066D01*
X208578163Y-88815425D01*
X208544678Y-88754102D01*
X208541844Y-88727744D01*
X208541844Y-88050107D01*
X224300844Y-88050107D01*
X224300844Y-88257046D01*
X224341212Y-88459989D01*
X224341214Y-88459997D01*
X224420402Y-88651173D01*
X224535368Y-88823234D01*
X224681686Y-88969552D01*
X224681689Y-88969554D01*
X224853746Y-89084518D01*
X225044924Y-89163707D01*
X225189396Y-89192444D01*
X225247874Y-89204076D01*
X225247878Y-89204077D01*
X225247879Y-89204077D01*
X225454810Y-89204077D01*
X225454811Y-89204076D01*
X225657764Y-89163707D01*
X225848942Y-89084518D01*
X226020999Y-88969554D01*
X226167321Y-88823232D01*
X226282285Y-88651175D01*
X226361474Y-88459997D01*
X226401844Y-88257042D01*
X226401844Y-88050112D01*
X226361474Y-87847157D01*
X226282285Y-87655979D01*
X226167321Y-87483922D01*
X226167319Y-87483919D01*
X226021001Y-87337601D01*
X225940517Y-87283824D01*
X226840844Y-87283824D01*
X226840844Y-89023329D01*
X226852475Y-89081806D01*
X226852476Y-89081807D01*
X226896791Y-89148129D01*
X226963113Y-89192444D01*
X226963114Y-89192445D01*
X227021591Y-89204076D01*
X227021594Y-89204077D01*
X227021596Y-89204077D01*
X228761094Y-89204077D01*
X228761095Y-89204076D01*
X228775912Y-89201129D01*
X228819573Y-89192445D01*
X228819573Y-89192444D01*
X228819575Y-89192444D01*
X228885896Y-89148129D01*
X228930211Y-89081808D01*
X228930211Y-89081806D01*
X228930212Y-89081806D01*
X228941843Y-89023329D01*
X228941844Y-89023327D01*
X228941844Y-87283826D01*
X228941843Y-87283824D01*
X228930212Y-87225347D01*
X228930211Y-87225346D01*
X228885896Y-87159024D01*
X228819574Y-87114709D01*
X228819573Y-87114708D01*
X228761096Y-87103077D01*
X228761092Y-87103077D01*
X227021596Y-87103077D01*
X227021591Y-87103077D01*
X226963114Y-87114708D01*
X226963113Y-87114709D01*
X226896791Y-87159024D01*
X226852476Y-87225346D01*
X226852475Y-87225347D01*
X226840844Y-87283824D01*
X225940517Y-87283824D01*
X225852999Y-87225347D01*
X225848942Y-87222636D01*
X225657764Y-87143447D01*
X225657756Y-87143445D01*
X225454813Y-87103077D01*
X225454809Y-87103077D01*
X225247879Y-87103077D01*
X225247874Y-87103077D01*
X225044931Y-87143445D01*
X225044923Y-87143447D01*
X224853747Y-87222635D01*
X224681686Y-87337601D01*
X224535368Y-87483919D01*
X224420402Y-87655980D01*
X224341214Y-87847156D01*
X224341214Y-87847157D01*
X224300844Y-88050107D01*
X208541844Y-88050107D01*
X208541844Y-87283826D01*
X208541843Y-87283824D01*
X208530212Y-87225347D01*
X208530211Y-87225346D01*
X208485896Y-87159024D01*
X208419574Y-87114709D01*
X208419573Y-87114708D01*
X208361096Y-87103077D01*
X208361092Y-87103077D01*
X206621596Y-87103077D01*
X206621591Y-87103077D01*
X206563114Y-87114708D01*
X206563113Y-87114709D01*
X206496791Y-87159024D01*
X206452476Y-87225346D01*
X206452475Y-87225347D01*
X206440844Y-87283824D01*
X205540517Y-87283824D01*
X205452999Y-87225347D01*
X205448942Y-87222636D01*
X205257764Y-87143447D01*
X205257756Y-87143445D01*
X205054813Y-87103077D01*
X205054809Y-87103077D01*
X204847879Y-87103077D01*
X204847874Y-87103077D01*
X204644931Y-87143445D01*
X204644923Y-87143447D01*
X204453747Y-87222635D01*
X204281686Y-87337601D01*
X204135368Y-87483919D01*
X204020402Y-87655980D01*
X203941214Y-87847156D01*
X203941214Y-87847157D01*
X203900844Y-88050107D01*
X199294103Y-88050107D01*
X201398790Y-85945420D01*
X201398793Y-85945417D01*
X201502814Y-85789739D01*
X201574465Y-85616758D01*
X201610992Y-85433125D01*
X201610992Y-85245891D01*
X201610992Y-82549109D01*
X201574465Y-82365474D01*
X201538202Y-82277928D01*
X201537552Y-82276359D01*
X201514290Y-82220198D01*
X201502815Y-82192495D01*
X201502813Y-82192493D01*
X201502813Y-82192491D01*
X201398794Y-82036817D01*
X201398791Y-82036813D01*
X201050482Y-81688505D01*
X201035061Y-81669714D01*
X201006071Y-81626328D01*
X201006065Y-81626320D01*
X200793545Y-81413801D01*
X200766665Y-81373572D01*
X200729039Y-81282735D01*
X200729038Y-81282732D01*
X200614074Y-81110675D01*
X200614072Y-81110672D01*
X200614071Y-81110671D01*
X200255623Y-80752224D01*
X200255619Y-80752221D01*
X200083569Y-80637260D01*
X200083560Y-80637255D01*
X199892385Y-80558068D01*
X199892377Y-80558066D01*
X199689434Y-80517698D01*
X199689430Y-80517698D01*
X199482500Y-80517698D01*
X199482495Y-80517698D01*
X199279552Y-80558066D01*
X199279544Y-80558068D01*
X199088369Y-80637255D01*
X199088360Y-80637260D01*
X198916310Y-80752221D01*
X198916306Y-80752224D01*
X198769991Y-80898539D01*
X198769988Y-80898543D01*
X198655027Y-81070593D01*
X198655022Y-81070602D01*
X198575835Y-81261777D01*
X198575833Y-81261785D01*
X198535465Y-81464728D01*
X198535465Y-81671667D01*
X198575833Y-81874610D01*
X198575835Y-81874618D01*
X198655022Y-82065793D01*
X198655027Y-82065802D01*
X198769988Y-82237852D01*
X198769991Y-82237856D01*
X199128438Y-82596304D01*
X199128439Y-82596305D01*
X199128442Y-82596307D01*
X199300499Y-82711271D01*
X199421672Y-82761462D01*
X199461899Y-82788342D01*
X199673673Y-83000116D01*
X199707158Y-83061439D01*
X199709992Y-83087797D01*
X199709992Y-84894435D01*
X199690307Y-84961474D01*
X199673673Y-84982116D01*
X197011700Y-87644088D01*
X197011697Y-87644092D01*
X196907678Y-87799766D01*
X196888049Y-87847157D01*
X196836027Y-87972748D01*
X196836025Y-87972756D01*
X196799500Y-88156379D01*
X196799500Y-110593620D01*
X196812242Y-110657677D01*
X196832932Y-110761695D01*
X196836026Y-110777246D01*
X196836027Y-110777252D01*
X196907673Y-110950223D01*
X196907680Y-110950236D01*
X197011697Y-111105907D01*
X197011700Y-111105911D01*
X199888181Y-113982391D01*
X199921666Y-114043714D01*
X199924500Y-114070072D01*
X199924500Y-116291553D01*
X199904815Y-116358592D01*
X199852011Y-116404347D01*
X199807272Y-116414079D01*
X199807286Y-116414168D01*
X199805920Y-116414373D01*
X199800500Y-116415553D01*
X199798097Y-116415553D01*
X199663810Y-116435794D01*
X199663807Y-116435794D01*
X199541458Y-116494714D01*
X199541453Y-116494717D01*
X199517925Y-116514211D01*
X199517898Y-116514235D01*
X198380530Y-117651603D01*
X198380506Y-117651630D01*
X198361012Y-117675158D01*
X198361009Y-117675163D01*
X198302089Y-117797512D01*
X198302089Y-117797515D01*
X198281848Y-117931802D01*
X198300901Y-118058210D01*
X198302089Y-118066088D01*
X198302089Y-118066091D01*
X198361009Y-118188440D01*
X198361012Y-118188445D01*
X198373581Y-118203615D01*
X198380513Y-118211982D01*
X198380522Y-118211991D01*
X198380530Y-118212000D01*
X199190426Y-119021896D01*
X199223911Y-119083219D01*
X199218927Y-119152911D01*
X199177055Y-119208844D01*
X199111591Y-119233261D01*
X199102745Y-119233577D01*
X198721254Y-119233577D01*
X198654215Y-119213892D01*
X198635211Y-119198867D01*
X198631841Y-119195620D01*
X198144240Y-118725749D01*
X196529301Y-117169534D01*
X196494687Y-117108841D01*
X196491344Y-117080244D01*
X196491344Y-116060565D01*
X196767698Y-116060565D01*
X196767698Y-116267504D01*
X196808066Y-116470447D01*
X196808068Y-116470455D01*
X196887255Y-116661630D01*
X196887260Y-116661639D01*
X197002221Y-116833689D01*
X197002224Y-116833693D01*
X197148539Y-116980008D01*
X197148543Y-116980011D01*
X197320593Y-117094972D01*
X197320602Y-117094977D01*
X197322408Y-117095725D01*
X197511778Y-117174165D01*
X197714728Y-117214534D01*
X197714732Y-117214535D01*
X197714733Y-117214535D01*
X197921664Y-117214535D01*
X197921665Y-117214534D01*
X198124618Y-117174165D01*
X198315796Y-117094976D01*
X198487853Y-116980011D01*
X198846307Y-116621558D01*
X198961271Y-116449501D01*
X199040460Y-116258323D01*
X199080830Y-116055368D01*
X199080830Y-115848438D01*
X199040460Y-115645483D01*
X198961271Y-115454305D01*
X198846307Y-115282248D01*
X198846305Y-115282245D01*
X198699987Y-115135927D01*
X198613956Y-115078444D01*
X198527928Y-115020962D01*
X198336750Y-114941773D01*
X198336742Y-114941771D01*
X198133799Y-114901403D01*
X198133795Y-114901403D01*
X197926865Y-114901403D01*
X197926860Y-114901403D01*
X197723917Y-114941771D01*
X197723909Y-114941773D01*
X197532733Y-115020961D01*
X197360672Y-115135927D01*
X197360671Y-115135928D01*
X197002224Y-115494376D01*
X197002221Y-115494380D01*
X196887260Y-115666430D01*
X196887255Y-115666439D01*
X196808068Y-115857614D01*
X196808066Y-115857622D01*
X196767698Y-116060565D01*
X196491344Y-116060565D01*
X196491344Y-113116009D01*
X196495504Y-113084161D01*
X196500635Y-113064852D01*
X196500899Y-113062815D01*
X196500902Y-113062789D01*
X196501314Y-113059611D01*
X196501315Y-113059608D01*
X196501400Y-113058947D01*
X196501429Y-113058431D01*
X196501655Y-113056407D01*
X196501658Y-113056398D01*
X196500506Y-112995668D01*
X196500487Y-112993770D01*
X196491344Y-108613406D01*
X196491344Y-83794106D01*
X196511029Y-83727067D01*
X196563833Y-83681312D01*
X196632991Y-83671368D01*
X196696547Y-83700393D01*
X196703025Y-83706425D01*
X197750131Y-84753531D01*
X197750140Y-84753539D01*
X197750150Y-84753549D01*
X197761655Y-84763081D01*
X197773686Y-84773049D01*
X197773691Y-84773052D01*
X197888426Y-84828305D01*
X197896043Y-84831973D01*
X198030330Y-84852214D01*
X198164617Y-84831973D01*
X198286972Y-84773050D01*
X198310510Y-84753549D01*
X199235782Y-83828277D01*
X199255283Y-83804739D01*
X199314206Y-83682384D01*
X199334447Y-83548097D01*
X199314206Y-83413810D01*
X199311595Y-83408388D01*
X199255285Y-83291458D01*
X199255282Y-83291453D01*
X199245314Y-83279422D01*
X199235782Y-83267917D01*
X199235772Y-83267907D01*
X199235764Y-83267898D01*
X198098396Y-82130530D01*
X198098387Y-82130522D01*
X198098378Y-82130513D01*
X198090011Y-82123581D01*
X198074841Y-82111012D01*
X198074836Y-82111009D01*
X197952486Y-82052089D01*
X197818198Y-82031848D01*
X197683911Y-82052089D01*
X197683908Y-82052089D01*
X197561559Y-82111009D01*
X197561554Y-82111012D01*
X197538026Y-82130506D01*
X197537999Y-82130530D01*
X196703025Y-82965505D01*
X196641702Y-82998990D01*
X196572010Y-82994006D01*
X196516077Y-82952134D01*
X196491660Y-82886670D01*
X196491344Y-82877824D01*
X196491344Y-82306241D01*
X196511029Y-82239202D01*
X196526050Y-82220202D01*
X198403858Y-80271533D01*
X198464551Y-80236920D01*
X198493148Y-80233577D01*
X202230038Y-80233577D01*
X202297077Y-80253262D01*
G37*
%TD.AperFunction*%
%TD*%
M02*
