%TF.GenerationSoftware,KiCad,Pcbnew,9.0.7*%
%TF.CreationDate,2026-05-21T17:13:55+02:00*%
%TF.ProjectId,drone,64726f6e-652e-46b6-9963-61645f706362,rev?*%
%TF.SameCoordinates,Original*%
%TF.FileFunction,Legend,Top*%
%TF.FilePolarity,Positive*%
%FSLAX46Y46*%
G04 Gerber Fmt 4.6, Leading zero omitted, Abs format (unit mm)*
G04 Created by KiCad (PCBNEW 9.0.7) date 2026-05-21 17:13:55*
%MOMM*%
%LPD*%
G01*
G04 APERTURE LIST*
%ADD10C,0.150000*%
%ADD11C,0.120000*%
%ADD12C,0.100000*%
%ADD13C,0.127000*%
%ADD14C,0.200000*%
G04 APERTURE END LIST*
D10*
X228296163Y-112130600D02*
X229010448Y-112130600D01*
X229010448Y-112130600D02*
X229153305Y-112178219D01*
X229153305Y-112178219D02*
X229248544Y-112273457D01*
X229248544Y-112273457D02*
X229296163Y-112416314D01*
X229296163Y-112416314D02*
X229296163Y-112511552D01*
X229296163Y-111130600D02*
X229296163Y-111702028D01*
X229296163Y-111416314D02*
X228296163Y-111416314D01*
X228296163Y-111416314D02*
X228439020Y-111511552D01*
X228439020Y-111511552D02*
X228534258Y-111606790D01*
X228534258Y-111606790D02*
X228581877Y-111702028D01*
X228296163Y-110273457D02*
X228296163Y-110463933D01*
X228296163Y-110463933D02*
X228343782Y-110559171D01*
X228343782Y-110559171D02*
X228391401Y-110606790D01*
X228391401Y-110606790D02*
X228534258Y-110702028D01*
X228534258Y-110702028D02*
X228724734Y-110749647D01*
X228724734Y-110749647D02*
X229105686Y-110749647D01*
X229105686Y-110749647D02*
X229200924Y-110702028D01*
X229200924Y-110702028D02*
X229248544Y-110654409D01*
X229248544Y-110654409D02*
X229296163Y-110559171D01*
X229296163Y-110559171D02*
X229296163Y-110368695D01*
X229296163Y-110368695D02*
X229248544Y-110273457D01*
X229248544Y-110273457D02*
X229200924Y-110225838D01*
X229200924Y-110225838D02*
X229105686Y-110178219D01*
X229105686Y-110178219D02*
X228867591Y-110178219D01*
X228867591Y-110178219D02*
X228772353Y-110225838D01*
X228772353Y-110225838D02*
X228724734Y-110273457D01*
X228724734Y-110273457D02*
X228677115Y-110368695D01*
X228677115Y-110368695D02*
X228677115Y-110559171D01*
X228677115Y-110559171D02*
X228724734Y-110654409D01*
X228724734Y-110654409D02*
X228772353Y-110702028D01*
X228772353Y-110702028D02*
X228867591Y-110749647D01*
X212237226Y-111795104D02*
X212886974Y-111795104D01*
X212886974Y-111795104D02*
X212963415Y-111756884D01*
X212963415Y-111756884D02*
X213001636Y-111718663D01*
X213001636Y-111718663D02*
X213039856Y-111642222D01*
X213039856Y-111642222D02*
X213039856Y-111489340D01*
X213039856Y-111489340D02*
X213001636Y-111412899D01*
X213001636Y-111412899D02*
X212963415Y-111374679D01*
X212963415Y-111374679D02*
X212886974Y-111336458D01*
X212886974Y-111336458D02*
X212237226Y-111336458D01*
X212237226Y-110572049D02*
X212237226Y-110954254D01*
X212237226Y-110954254D02*
X212619431Y-110992475D01*
X212619431Y-110992475D02*
X212581210Y-110954254D01*
X212581210Y-110954254D02*
X212542990Y-110877813D01*
X212542990Y-110877813D02*
X212542990Y-110686711D01*
X212542990Y-110686711D02*
X212581210Y-110610270D01*
X212581210Y-110610270D02*
X212619431Y-110572049D01*
X212619431Y-110572049D02*
X212695872Y-110533829D01*
X212695872Y-110533829D02*
X212886974Y-110533829D01*
X212886974Y-110533829D02*
X212963415Y-110572049D01*
X212963415Y-110572049D02*
X213001636Y-110610270D01*
X213001636Y-110610270D02*
X213039856Y-110686711D01*
X213039856Y-110686711D02*
X213039856Y-110877813D01*
X213039856Y-110877813D02*
X213001636Y-110954254D01*
X213001636Y-110954254D02*
X212963415Y-110992475D01*
X202200057Y-110845238D02*
X202152438Y-110940476D01*
X202152438Y-110940476D02*
X202057200Y-111035714D01*
X202057200Y-111035714D02*
X201914342Y-111178571D01*
X201914342Y-111178571D02*
X201866723Y-111273809D01*
X201866723Y-111273809D02*
X201866723Y-111369047D01*
X202104819Y-111321428D02*
X202057200Y-111416666D01*
X202057200Y-111416666D02*
X201961961Y-111511904D01*
X201961961Y-111511904D02*
X201771485Y-111559523D01*
X201771485Y-111559523D02*
X201438152Y-111559523D01*
X201438152Y-111559523D02*
X201247676Y-111511904D01*
X201247676Y-111511904D02*
X201152438Y-111416666D01*
X201152438Y-111416666D02*
X201104819Y-111321428D01*
X201104819Y-111321428D02*
X201104819Y-111130952D01*
X201104819Y-111130952D02*
X201152438Y-111035714D01*
X201152438Y-111035714D02*
X201247676Y-110940476D01*
X201247676Y-110940476D02*
X201438152Y-110892857D01*
X201438152Y-110892857D02*
X201771485Y-110892857D01*
X201771485Y-110892857D02*
X201961961Y-110940476D01*
X201961961Y-110940476D02*
X202057200Y-111035714D01*
X202057200Y-111035714D02*
X202104819Y-111130952D01*
X202104819Y-111130952D02*
X202104819Y-111321428D01*
X201438152Y-110035714D02*
X202104819Y-110035714D01*
X201057200Y-110273809D02*
X201771485Y-110511904D01*
X201771485Y-110511904D02*
X201771485Y-109892857D01*
X210079439Y-105838396D02*
X210079439Y-106647919D01*
X210079439Y-106647919D02*
X210127058Y-106743157D01*
X210127058Y-106743157D02*
X210174677Y-106790777D01*
X210174677Y-106790777D02*
X210269915Y-106838396D01*
X210269915Y-106838396D02*
X210460391Y-106838396D01*
X210460391Y-106838396D02*
X210555629Y-106790777D01*
X210555629Y-106790777D02*
X210603248Y-106743157D01*
X210603248Y-106743157D02*
X210650867Y-106647919D01*
X210650867Y-106647919D02*
X210650867Y-105838396D01*
X211650867Y-106838396D02*
X211079439Y-106838396D01*
X211365153Y-106838396D02*
X211365153Y-105838396D01*
X211365153Y-105838396D02*
X211269915Y-105981253D01*
X211269915Y-105981253D02*
X211174677Y-106076491D01*
X211174677Y-106076491D02*
X211079439Y-106124110D01*
X197488010Y-93388396D02*
X197488010Y-94102681D01*
X197488010Y-94102681D02*
X197440391Y-94245538D01*
X197440391Y-94245538D02*
X197345153Y-94340777D01*
X197345153Y-94340777D02*
X197202296Y-94388396D01*
X197202296Y-94388396D02*
X197107058Y-94388396D01*
X198392772Y-93388396D02*
X198202296Y-93388396D01*
X198202296Y-93388396D02*
X198107058Y-93436015D01*
X198107058Y-93436015D02*
X198059439Y-93483634D01*
X198059439Y-93483634D02*
X197964201Y-93626491D01*
X197964201Y-93626491D02*
X197916582Y-93816967D01*
X197916582Y-93816967D02*
X197916582Y-94197919D01*
X197916582Y-94197919D02*
X197964201Y-94293157D01*
X197964201Y-94293157D02*
X198011820Y-94340777D01*
X198011820Y-94340777D02*
X198107058Y-94388396D01*
X198107058Y-94388396D02*
X198297534Y-94388396D01*
X198297534Y-94388396D02*
X198392772Y-94340777D01*
X198392772Y-94340777D02*
X198440391Y-94293157D01*
X198440391Y-94293157D02*
X198488010Y-94197919D01*
X198488010Y-94197919D02*
X198488010Y-93959824D01*
X198488010Y-93959824D02*
X198440391Y-93864586D01*
X198440391Y-93864586D02*
X198392772Y-93816967D01*
X198392772Y-93816967D02*
X198297534Y-93769348D01*
X198297534Y-93769348D02*
X198107058Y-93769348D01*
X198107058Y-93769348D02*
X198011820Y-93816967D01*
X198011820Y-93816967D02*
X197964201Y-93864586D01*
X197964201Y-93864586D02*
X197916582Y-93959824D01*
X219703249Y-112788396D02*
X219703249Y-111788396D01*
X219703249Y-111788396D02*
X219941344Y-111788396D01*
X219941344Y-111788396D02*
X220084201Y-111836015D01*
X220084201Y-111836015D02*
X220179439Y-111931253D01*
X220179439Y-111931253D02*
X220227058Y-112026491D01*
X220227058Y-112026491D02*
X220274677Y-112216967D01*
X220274677Y-112216967D02*
X220274677Y-112359824D01*
X220274677Y-112359824D02*
X220227058Y-112550300D01*
X220227058Y-112550300D02*
X220179439Y-112645538D01*
X220179439Y-112645538D02*
X220084201Y-112740777D01*
X220084201Y-112740777D02*
X219941344Y-112788396D01*
X219941344Y-112788396D02*
X219703249Y-112788396D01*
X221227058Y-112788396D02*
X220655630Y-112788396D01*
X220941344Y-112788396D02*
X220941344Y-111788396D01*
X220941344Y-111788396D02*
X220846106Y-111931253D01*
X220846106Y-111931253D02*
X220750868Y-112026491D01*
X220750868Y-112026491D02*
X220655630Y-112074110D01*
X226288010Y-84838396D02*
X226288010Y-85552681D01*
X226288010Y-85552681D02*
X226240391Y-85695538D01*
X226240391Y-85695538D02*
X226145153Y-85790777D01*
X226145153Y-85790777D02*
X226002296Y-85838396D01*
X226002296Y-85838396D02*
X225907058Y-85838396D01*
X227288010Y-85838396D02*
X226716582Y-85838396D01*
X227002296Y-85838396D02*
X227002296Y-84838396D01*
X227002296Y-84838396D02*
X226907058Y-84981253D01*
X226907058Y-84981253D02*
X226811820Y-85076491D01*
X226811820Y-85076491D02*
X226716582Y-85124110D01*
D11*
%TO.C,Q3*%
X230381344Y-107711077D02*
X230431344Y-107711077D01*
X230381344Y-109231077D02*
X230381344Y-107711077D01*
X231381344Y-109231077D02*
X230381344Y-109231077D01*
X231551344Y-107711077D02*
X232331344Y-107711077D01*
X233451344Y-107711077D02*
X233501344Y-107711077D01*
X233501344Y-107711077D02*
X233501344Y-109231077D01*
X233501344Y-109231077D02*
X232501344Y-109231077D01*
X232321344Y-107171077D02*
X231991344Y-107411077D01*
X231991344Y-106931077D01*
X232321344Y-107171077D01*
G36*
X232321344Y-107171077D02*
G01*
X231991344Y-107411077D01*
X231991344Y-106931077D01*
X232321344Y-107171077D01*
G37*
D12*
%TO.C,D9*%
X196636344Y-102833577D02*
G75*
G02*
X196536344Y-102833577I-50000J0D01*
G01*
X196536344Y-102833577D02*
G75*
G02*
X196636344Y-102833577I50000J0D01*
G01*
D13*
%TO.C,U5*%
X211826344Y-109633577D02*
X211826344Y-109733577D01*
X211826344Y-109633577D02*
X213526344Y-109633577D01*
X211826344Y-112733577D02*
X211826344Y-112633577D01*
X211826344Y-112733577D02*
X213526344Y-112733577D01*
X213526344Y-109633577D02*
X213526344Y-109733577D01*
X213526344Y-112733577D02*
X213526344Y-112633577D01*
D14*
X215245344Y-112133577D02*
G75*
G02*
X215045344Y-112133577I-100000J0D01*
G01*
X215045344Y-112133577D02*
G75*
G02*
X215245344Y-112133577I100000J0D01*
G01*
D12*
%TO.C,D7*%
X196661344Y-98933577D02*
G75*
G02*
X196561344Y-98933577I-50000J0D01*
G01*
X196561344Y-98933577D02*
G75*
G02*
X196661344Y-98933577I50000J0D01*
G01*
D11*
%TO.C,Q4*%
X197690000Y-109990000D02*
X197740000Y-109990000D01*
X197690000Y-111510000D02*
X197690000Y-109990000D01*
X198690000Y-111510000D02*
X197690000Y-111510000D01*
X198860000Y-109990000D02*
X199640000Y-109990000D01*
X200760000Y-109990000D02*
X200810000Y-109990000D01*
X200810000Y-109990000D02*
X200810000Y-111510000D01*
X200810000Y-111510000D02*
X199810000Y-111510000D01*
X199630000Y-109450000D02*
X199300000Y-109690000D01*
X199300000Y-109210000D01*
X199630000Y-109450000D01*
G36*
X199630000Y-109450000D02*
G01*
X199300000Y-109690000D01*
X199300000Y-109210000D01*
X199630000Y-109450000D01*
G37*
%TO.C,U6*%
X212941344Y-97183577D02*
X212941344Y-97708577D01*
X212941344Y-97183577D02*
X213466344Y-97183577D01*
X212941344Y-100958577D02*
X212941344Y-101183577D01*
X213406344Y-101483577D02*
X213181344Y-101483577D01*
X217241344Y-97183577D02*
X216716344Y-97183577D01*
X217241344Y-97183577D02*
X217241344Y-97708577D01*
X217241344Y-101483577D02*
X216716344Y-101483577D01*
X217241344Y-101483577D02*
X217241344Y-100958577D01*
X212941344Y-101483577D02*
X212611344Y-101723577D01*
X212611344Y-101243577D01*
X212941344Y-101483577D01*
G36*
X212941344Y-101483577D02*
G01*
X212611344Y-101723577D01*
X212611344Y-101243577D01*
X212941344Y-101483577D01*
G37*
%TO.C,U1*%
X209291344Y-107183577D02*
X209291344Y-86483577D01*
X223591344Y-86483577D02*
X223591344Y-107183577D01*
X223591344Y-107183577D02*
X209291344Y-107183577D01*
X209116344Y-93433577D02*
X208780344Y-93673577D01*
X208780344Y-93193577D01*
X209116344Y-93433577D01*
G36*
X209116344Y-93433577D02*
G01*
X208780344Y-93673577D01*
X208780344Y-93193577D01*
X209116344Y-93433577D01*
G37*
%TO.C,J6*%
X203621344Y-86823577D02*
X203621344Y-107263577D01*
X203621344Y-86823577D02*
X206221344Y-86823577D01*
X203621344Y-107263577D02*
X208821344Y-107263577D01*
X206221344Y-86823577D02*
X206221344Y-89423577D01*
X206221344Y-89423577D02*
X208821344Y-89423577D01*
X207491344Y-86823577D02*
X208821344Y-86823577D01*
X208821344Y-86823577D02*
X208821344Y-88153577D01*
X208821344Y-89423577D02*
X208821344Y-107263577D01*
D12*
%TO.C,D6*%
X196636344Y-104833577D02*
G75*
G02*
X196536344Y-104833577I-50000J0D01*
G01*
X196536344Y-104833577D02*
G75*
G02*
X196636344Y-104833577I50000J0D01*
G01*
D11*
%TO.C,D1*%
X217741344Y-110723577D02*
X217741344Y-113383577D01*
X219441344Y-110723577D02*
X217741344Y-110723577D01*
X219441344Y-110723577D02*
X219441344Y-113383577D01*
%TO.C,Q1*%
X198168844Y-89473577D02*
X199688844Y-89473577D01*
X198168844Y-90473577D02*
X198168844Y-89473577D01*
X198168844Y-92593577D02*
X198168844Y-91593577D01*
X199688844Y-89473577D02*
X199688844Y-89523577D01*
X199688844Y-90643577D02*
X199688844Y-91423577D01*
X199688844Y-92543577D02*
X199688844Y-92593577D01*
X199688844Y-92593577D02*
X198168844Y-92593577D01*
X200228844Y-91413577D02*
X199988844Y-91083577D01*
X200468844Y-91083577D01*
X200228844Y-91413577D01*
G36*
X200228844Y-91413577D02*
G01*
X199988844Y-91083577D01*
X200468844Y-91083577D01*
X200228844Y-91413577D01*
G37*
%TO.C,J1*%
X224021344Y-86823577D02*
X224021344Y-107263577D01*
X224021344Y-86823577D02*
X226621344Y-86823577D01*
X224021344Y-107263577D02*
X229221344Y-107263577D01*
X226621344Y-86823577D02*
X226621344Y-89423577D01*
X226621344Y-89423577D02*
X229221344Y-89423577D01*
X227891344Y-86823577D02*
X229221344Y-86823577D01*
X229221344Y-86823577D02*
X229221344Y-88153577D01*
X229221344Y-89423577D02*
X229221344Y-107263577D01*
D12*
%TO.C,D8*%
X196661344Y-100833577D02*
G75*
G02*
X196561344Y-100833577I-50000J0D01*
G01*
X196561344Y-100833577D02*
G75*
G02*
X196661344Y-100833577I50000J0D01*
G01*
D11*
%TO.C,J23*%
X212580344Y-115040000D02*
X212580344Y-122860000D01*
X212580344Y-116640000D02*
X213500344Y-116640000D01*
X212580344Y-122860000D02*
X218700344Y-122860000D01*
X213500344Y-115040000D02*
X212580344Y-115040000D01*
X213500344Y-116640000D02*
X213500344Y-115040000D01*
X213780344Y-116640000D02*
X213500344Y-116640000D01*
X213780344Y-116640000D02*
X213780344Y-115425000D01*
X213840344Y-120600000D02*
X213840344Y-122860000D01*
X214340344Y-120600000D02*
X214340344Y-122860000D01*
X215140344Y-118500000D02*
X216140344Y-118500000D01*
X215140344Y-122860000D02*
X215140344Y-118500000D01*
X216140344Y-118500000D02*
X216140344Y-122860000D01*
X217780344Y-115040000D02*
X217780344Y-116640000D01*
X217780344Y-116640000D02*
X217500344Y-116640000D01*
X218700344Y-115040000D02*
X217780344Y-115040000D01*
X218700344Y-116640000D02*
X217780344Y-116640000D01*
X218700344Y-122860000D02*
X218700344Y-115040000D01*
X213340344Y-119000000D02*
X214340344Y-119000000D01*
X214340344Y-120600000D01*
X213340344Y-120600000D01*
X213340344Y-119000000D01*
X216940344Y-119000000D02*
X217940344Y-119000000D01*
X217940344Y-120600000D01*
X216940344Y-120600000D01*
X216940344Y-119000000D01*
%TO.C,Q2*%
X232493844Y-89273577D02*
X234013844Y-89273577D01*
X232493844Y-89323577D02*
X232493844Y-89273577D01*
X232493844Y-91223577D02*
X232493844Y-90443577D01*
X232493844Y-92393577D02*
X232493844Y-92343577D01*
X234013844Y-89273577D02*
X234013844Y-90273577D01*
X234013844Y-91393577D02*
X234013844Y-92393577D01*
X234013844Y-92393577D02*
X232493844Y-92393577D01*
X232193844Y-90783577D02*
X231713844Y-90783577D01*
X231953844Y-90453577D01*
X232193844Y-90783577D01*
G36*
X232193844Y-90783577D02*
G01*
X231713844Y-90783577D01*
X231953844Y-90453577D01*
X232193844Y-90783577D01*
G37*
%TD*%
M02*
