%TF.GenerationSoftware,KiCad,Pcbnew,9.0.7*%
%TF.CreationDate,2026-05-21T17:13:54+02:00*%
%TF.ProjectId,drone,64726f6e-652e-46b6-9963-61645f706362,rev?*%
%TF.SameCoordinates,Original*%
%TF.FileFunction,Copper,L1,Top*%
%TF.FilePolarity,Positive*%
%FSLAX46Y46*%
G04 Gerber Fmt 4.6, Leading zero omitted, Abs format (unit mm)*
G04 Created by KiCad (PCBNEW 9.0.7) date 2026-05-21 17:13:54*
%MOMM*%
%LPD*%
G01*
G04 APERTURE LIST*
G04 Aperture macros list*
%AMRoundRect*
0 Rectangle with rounded corners*
0 $1 Rounding radius*
0 $2 $3 $4 $5 $6 $7 $8 $9 X,Y pos of 4 corners*
0 Add a 4 corners polygon primitive as box body*
4,1,4,$2,$3,$4,$5,$6,$7,$8,$9,$2,$3,0*
0 Add four circle primitives for the rounded corners*
1,1,$1+$1,$2,$3*
1,1,$1+$1,$4,$5*
1,1,$1+$1,$6,$7*
1,1,$1+$1,$8,$9*
0 Add four rect primitives between the rounded corners*
20,1,$1+$1,$2,$3,$4,$5,0*
20,1,$1+$1,$4,$5,$6,$7,0*
20,1,$1+$1,$6,$7,$8,$9,0*
20,1,$1+$1,$8,$9,$2,$3,0*%
%AMHorizOval*
0 Thick line with rounded ends*
0 $1 width*
0 $2 $3 position (X,Y) of the first rounded end (center of the circle)*
0 $4 $5 position (X,Y) of the second rounded end (center of the circle)*
0 Add line between two ends*
20,1,$1,$2,$3,$4,$5,0*
0 Add two circle primitives to create the rounded ends*
1,1,$1,$2,$3*
1,1,$1,$4,$5*%
G04 Aperture macros list end*
%ADD10C,0.150000*%
%TA.AperFunction,NonConductor*%
%ADD11C,0.150000*%
%TD*%
%TA.AperFunction,NonConductor*%
%ADD12C,0.050000*%
%TD*%
%TA.AperFunction,SMDPad,CuDef*%
%ADD13RoundRect,0.150000X-0.150000X0.587500X-0.150000X-0.587500X0.150000X-0.587500X0.150000X0.587500X0*%
%TD*%
%TA.AperFunction,SMDPad,CuDef*%
%ADD14RoundRect,0.100000X0.130000X0.100000X-0.130000X0.100000X-0.130000X-0.100000X0.130000X-0.100000X0*%
%TD*%
%TA.AperFunction,SMDPad,CuDef*%
%ADD15RoundRect,0.100000X-0.100000X0.130000X-0.100000X-0.130000X0.100000X-0.130000X0.100000X0.130000X0*%
%TD*%
%TA.AperFunction,SMDPad,CuDef*%
%ADD16RoundRect,0.100000X0.100000X-0.130000X0.100000X0.130000X-0.100000X0.130000X-0.100000X-0.130000X0*%
%TD*%
%TA.AperFunction,SMDPad,CuDef*%
%ADD17RoundRect,0.100000X-0.130000X-0.100000X0.130000X-0.100000X0.130000X0.100000X-0.130000X0.100000X0*%
%TD*%
%TA.AperFunction,SMDPad,CuDef*%
%ADD18RoundRect,0.045000X0.630000X0.255000X-0.630000X0.255000X-0.630000X-0.255000X0.630000X-0.255000X0*%
%TD*%
%TA.AperFunction,SMDPad,CuDef*%
%ADD19RoundRect,0.075000X0.075000X-0.350000X0.075000X0.350000X-0.075000X0.350000X-0.075000X-0.350000X0*%
%TD*%
%TA.AperFunction,SMDPad,CuDef*%
%ADD20RoundRect,0.075000X0.350000X0.075000X-0.350000X0.075000X-0.350000X-0.075000X0.350000X-0.075000X0*%
%TD*%
%TA.AperFunction,ComponentPad*%
%ADD21R,1.700000X1.700000*%
%TD*%
%TA.AperFunction,ComponentPad*%
%ADD22C,1.700000*%
%TD*%
%TA.AperFunction,SMDPad,CuDef*%
%ADD23RoundRect,0.112500X-0.112500X0.187500X-0.112500X-0.187500X0.112500X-0.187500X0.112500X0.187500X0*%
%TD*%
%TA.AperFunction,SMDPad,CuDef*%
%ADD24RoundRect,0.150000X0.587500X0.150000X-0.587500X0.150000X-0.587500X-0.150000X0.587500X-0.150000X0*%
%TD*%
%TA.AperFunction,ComponentPad*%
%ADD25RoundRect,0.250000X-0.350000X-0.625000X0.350000X-0.625000X0.350000X0.625000X-0.350000X0.625000X0*%
%TD*%
%TA.AperFunction,ComponentPad*%
%ADD26O,1.200000X1.750000*%
%TD*%
%TA.AperFunction,SMDPad,CuDef*%
%ADD27RoundRect,0.150000X-0.587500X-0.150000X0.587500X-0.150000X0.587500X0.150000X-0.587500X0.150000X0*%
%TD*%
%TA.AperFunction,ComponentPad*%
%ADD28RoundRect,0.250000X-0.954594X-0.106066X-0.106066X-0.954594X0.954594X0.106066X0.106066X0.954594X0*%
%TD*%
%TA.AperFunction,ComponentPad*%
%ADD29HorizOval,1.700000X-0.106066X-0.106066X0.106066X0.106066X0*%
%TD*%
%TA.AperFunction,ComponentPad*%
%ADD30RoundRect,0.250000X0.954594X0.106066X0.106066X0.954594X-0.954594X-0.106066X-0.106066X-0.954594X0*%
%TD*%
%TA.AperFunction,ComponentPad*%
%ADD31HorizOval,1.700000X0.106066X0.106066X-0.106066X-0.106066X0*%
%TD*%
%TA.AperFunction,ComponentPad*%
%ADD32RoundRect,0.250000X0.106066X-0.954594X0.954594X-0.106066X-0.106066X0.954594X-0.954594X0.106066X0*%
%TD*%
%TA.AperFunction,ComponentPad*%
%ADD33HorizOval,1.700000X-0.106066X0.106066X0.106066X-0.106066X0*%
%TD*%
%TA.AperFunction,ComponentPad*%
%ADD34RoundRect,0.250000X-0.106066X0.954594X-0.954594X0.106066X0.106066X-0.954594X0.954594X-0.106066X0*%
%TD*%
%TA.AperFunction,ViaPad*%
%ADD35C,0.600000*%
%TD*%
%TA.AperFunction,Conductor*%
%ADD36C,0.200000*%
%TD*%
%TA.AperFunction,Conductor*%
%ADD37C,1.000000*%
%TD*%
G04 APERTURE END LIST*
D10*
D11*
X272804819Y-101732142D02*
X272804819Y-101541666D01*
X272804819Y-101541666D02*
X272757200Y-101446428D01*
X272757200Y-101446428D02*
X272709580Y-101398809D01*
X272709580Y-101398809D02*
X272566723Y-101303571D01*
X272566723Y-101303571D02*
X272376247Y-101255952D01*
X272376247Y-101255952D02*
X271995295Y-101255952D01*
X271995295Y-101255952D02*
X271900057Y-101303571D01*
X271900057Y-101303571D02*
X271852438Y-101351190D01*
X271852438Y-101351190D02*
X271804819Y-101446428D01*
X271804819Y-101446428D02*
X271804819Y-101636904D01*
X271804819Y-101636904D02*
X271852438Y-101732142D01*
X271852438Y-101732142D02*
X271900057Y-101779761D01*
X271900057Y-101779761D02*
X271995295Y-101827380D01*
X271995295Y-101827380D02*
X272233390Y-101827380D01*
X272233390Y-101827380D02*
X272328628Y-101779761D01*
X272328628Y-101779761D02*
X272376247Y-101732142D01*
X272376247Y-101732142D02*
X272423866Y-101636904D01*
X272423866Y-101636904D02*
X272423866Y-101446428D01*
X272423866Y-101446428D02*
X272376247Y-101351190D01*
X272376247Y-101351190D02*
X272328628Y-101303571D01*
X272328628Y-101303571D02*
X272233390Y-101255952D01*
X271804819Y-100636904D02*
X271804819Y-100541666D01*
X271804819Y-100541666D02*
X271852438Y-100446428D01*
X271852438Y-100446428D02*
X271900057Y-100398809D01*
X271900057Y-100398809D02*
X271995295Y-100351190D01*
X271995295Y-100351190D02*
X272185771Y-100303571D01*
X272185771Y-100303571D02*
X272423866Y-100303571D01*
X272423866Y-100303571D02*
X272614342Y-100351190D01*
X272614342Y-100351190D02*
X272709580Y-100398809D01*
X272709580Y-100398809D02*
X272757200Y-100446428D01*
X272757200Y-100446428D02*
X272804819Y-100541666D01*
X272804819Y-100541666D02*
X272804819Y-100636904D01*
X272804819Y-100636904D02*
X272757200Y-100732142D01*
X272757200Y-100732142D02*
X272709580Y-100779761D01*
X272709580Y-100779761D02*
X272614342Y-100827380D01*
X272614342Y-100827380D02*
X272423866Y-100874999D01*
X272423866Y-100874999D02*
X272185771Y-100874999D01*
X272185771Y-100874999D02*
X271995295Y-100827380D01*
X271995295Y-100827380D02*
X271900057Y-100779761D01*
X271900057Y-100779761D02*
X271852438Y-100732142D01*
X271852438Y-100732142D02*
X271804819Y-100636904D01*
X272709580Y-99874999D02*
X272757200Y-99827380D01*
X272757200Y-99827380D02*
X272804819Y-99874999D01*
X272804819Y-99874999D02*
X272757200Y-99922618D01*
X272757200Y-99922618D02*
X272709580Y-99874999D01*
X272709580Y-99874999D02*
X272804819Y-99874999D01*
X271900057Y-99446428D02*
X271852438Y-99398809D01*
X271852438Y-99398809D02*
X271804819Y-99303571D01*
X271804819Y-99303571D02*
X271804819Y-99065476D01*
X271804819Y-99065476D02*
X271852438Y-98970238D01*
X271852438Y-98970238D02*
X271900057Y-98922619D01*
X271900057Y-98922619D02*
X271995295Y-98875000D01*
X271995295Y-98875000D02*
X272090533Y-98875000D01*
X272090533Y-98875000D02*
X272233390Y-98922619D01*
X272233390Y-98922619D02*
X272804819Y-99494047D01*
X272804819Y-99494047D02*
X272804819Y-98875000D01*
X271804819Y-97970238D02*
X271804819Y-98446428D01*
X271804819Y-98446428D02*
X272281009Y-98494047D01*
X272281009Y-98494047D02*
X272233390Y-98446428D01*
X272233390Y-98446428D02*
X272185771Y-98351190D01*
X272185771Y-98351190D02*
X272185771Y-98113095D01*
X272185771Y-98113095D02*
X272233390Y-98017857D01*
X272233390Y-98017857D02*
X272281009Y-97970238D01*
X272281009Y-97970238D02*
X272376247Y-97922619D01*
X272376247Y-97922619D02*
X272614342Y-97922619D01*
X272614342Y-97922619D02*
X272709580Y-97970238D01*
X272709580Y-97970238D02*
X272757200Y-98017857D01*
X272757200Y-98017857D02*
X272804819Y-98113095D01*
X272804819Y-98113095D02*
X272804819Y-98351190D01*
X272804819Y-98351190D02*
X272757200Y-98446428D01*
X272757200Y-98446428D02*
X272709580Y-98494047D01*
D12*
X256750000Y-145000000D02*
X274086420Y-145000000D01*
X274086420Y-54750000D02*
X256750000Y-54750000D01*
X273500000Y-145000000D02*
X273500000Y-54750000D01*
X273500000Y-145000000D02*
X272913579Y-143873496D01*
X273500000Y-145000000D02*
X274086421Y-143873496D01*
X273500000Y-54750000D02*
X274086421Y-55876504D01*
X273500000Y-54750000D02*
X272913579Y-55876504D01*
D10*
D11*
X214267857Y-161554819D02*
X214458333Y-161554819D01*
X214458333Y-161554819D02*
X214553571Y-161507200D01*
X214553571Y-161507200D02*
X214601190Y-161459580D01*
X214601190Y-161459580D02*
X214696428Y-161316723D01*
X214696428Y-161316723D02*
X214744047Y-161126247D01*
X214744047Y-161126247D02*
X214744047Y-160745295D01*
X214744047Y-160745295D02*
X214696428Y-160650057D01*
X214696428Y-160650057D02*
X214648809Y-160602438D01*
X214648809Y-160602438D02*
X214553571Y-160554819D01*
X214553571Y-160554819D02*
X214363095Y-160554819D01*
X214363095Y-160554819D02*
X214267857Y-160602438D01*
X214267857Y-160602438D02*
X214220238Y-160650057D01*
X214220238Y-160650057D02*
X214172619Y-160745295D01*
X214172619Y-160745295D02*
X214172619Y-160983390D01*
X214172619Y-160983390D02*
X214220238Y-161078628D01*
X214220238Y-161078628D02*
X214267857Y-161126247D01*
X214267857Y-161126247D02*
X214363095Y-161173866D01*
X214363095Y-161173866D02*
X214553571Y-161173866D01*
X214553571Y-161173866D02*
X214648809Y-161126247D01*
X214648809Y-161126247D02*
X214696428Y-161078628D01*
X214696428Y-161078628D02*
X214744047Y-160983390D01*
X215363095Y-160554819D02*
X215458333Y-160554819D01*
X215458333Y-160554819D02*
X215553571Y-160602438D01*
X215553571Y-160602438D02*
X215601190Y-160650057D01*
X215601190Y-160650057D02*
X215648809Y-160745295D01*
X215648809Y-160745295D02*
X215696428Y-160935771D01*
X215696428Y-160935771D02*
X215696428Y-161173866D01*
X215696428Y-161173866D02*
X215648809Y-161364342D01*
X215648809Y-161364342D02*
X215601190Y-161459580D01*
X215601190Y-161459580D02*
X215553571Y-161507200D01*
X215553571Y-161507200D02*
X215458333Y-161554819D01*
X215458333Y-161554819D02*
X215363095Y-161554819D01*
X215363095Y-161554819D02*
X215267857Y-161507200D01*
X215267857Y-161507200D02*
X215220238Y-161459580D01*
X215220238Y-161459580D02*
X215172619Y-161364342D01*
X215172619Y-161364342D02*
X215125000Y-161173866D01*
X215125000Y-161173866D02*
X215125000Y-160935771D01*
X215125000Y-160935771D02*
X215172619Y-160745295D01*
X215172619Y-160745295D02*
X215220238Y-160650057D01*
X215220238Y-160650057D02*
X215267857Y-160602438D01*
X215267857Y-160602438D02*
X215363095Y-160554819D01*
X216125000Y-161459580D02*
X216172619Y-161507200D01*
X216172619Y-161507200D02*
X216125000Y-161554819D01*
X216125000Y-161554819D02*
X216077381Y-161507200D01*
X216077381Y-161507200D02*
X216125000Y-161459580D01*
X216125000Y-161459580D02*
X216125000Y-161554819D01*
X216505952Y-160554819D02*
X217172618Y-160554819D01*
X217172618Y-160554819D02*
X216744047Y-161554819D01*
X218029761Y-160554819D02*
X217553571Y-160554819D01*
X217553571Y-160554819D02*
X217505952Y-161031009D01*
X217505952Y-161031009D02*
X217553571Y-160983390D01*
X217553571Y-160983390D02*
X217648809Y-160935771D01*
X217648809Y-160935771D02*
X217886904Y-160935771D01*
X217886904Y-160935771D02*
X217982142Y-160983390D01*
X217982142Y-160983390D02*
X218029761Y-161031009D01*
X218029761Y-161031009D02*
X218077380Y-161126247D01*
X218077380Y-161126247D02*
X218077380Y-161364342D01*
X218077380Y-161364342D02*
X218029761Y-161459580D01*
X218029761Y-161459580D02*
X217982142Y-161507200D01*
X217982142Y-161507200D02*
X217886904Y-161554819D01*
X217886904Y-161554819D02*
X217648809Y-161554819D01*
X217648809Y-161554819D02*
X217553571Y-161507200D01*
X217553571Y-161507200D02*
X217505952Y-161459580D01*
D12*
X170750000Y-140513878D02*
X170750000Y-162836420D01*
X261500000Y-162836420D02*
X261500000Y-140305229D01*
X170750000Y-162250000D02*
X261500000Y-162250000D01*
X170750000Y-162250000D02*
X171876504Y-161663579D01*
X170750000Y-162250000D02*
X171876504Y-162836421D01*
X261500000Y-162250000D02*
X260373496Y-162836421D01*
X261500000Y-162250000D02*
X260373496Y-161663579D01*
D13*
%TO.P,Q3,1,G*%
%TO.N,MOT_3*%
X232891344Y-107533577D03*
%TO.P,Q3,2,S*%
%TO.N,GND*%
X230991344Y-107533577D03*
%TO.P,Q3,3,D*%
%TO.N,Net-(J16-Pin_1)*%
X231941344Y-109408577D03*
%TD*%
D14*
%TO.P,R21,1*%
%TO.N,GND*%
X199591344Y-106433577D03*
%TO.P,R21,2*%
%TO.N,Net-(D6-K)*%
X198951344Y-106433577D03*
%TD*%
D15*
%TO.P,R9,1*%
%TO.N,MOT_2*%
X230316344Y-90463577D03*
%TO.P,R9,2*%
%TO.N,GND*%
X230316344Y-91103577D03*
%TD*%
D14*
%TO.P,R14,1*%
%TO.N,GND*%
X201191344Y-97183577D03*
%TO.P,R14,2*%
%TO.N,ADC_BAT*%
X200551344Y-97183577D03*
%TD*%
D16*
%TO.P,R8,1*%
%TO.N,MOT_1*%
X202000000Y-90665000D03*
%TO.P,R8,2*%
%TO.N,GND*%
X202000000Y-90025000D03*
%TD*%
D17*
%TO.P,D9,1,K*%
%TO.N,Net-(D9-K)*%
X197126344Y-102833577D03*
%TO.P,D9,2,A*%
%TO.N,LED_B*%
X197766344Y-102833577D03*
%TD*%
D18*
%TO.P,U5,1,VIN*%
%TO.N,VSYS*%
X213861344Y-112133577D03*
%TO.P,U5,2,GND*%
%TO.N,GND*%
X213861344Y-111183577D03*
%TO.P,U5,3,EN*%
%TO.N,Net-(U5-EN)*%
X213861344Y-110233577D03*
%TO.P,U5,4,P4*%
%TO.N,unconnected-(U5-P4-Pad4)*%
X211491344Y-110233577D03*
%TO.P,U5,5,VOUT*%
%TO.N,VDD33*%
X211491344Y-112133577D03*
%TD*%
D17*
%TO.P,D7,1,K*%
%TO.N,Net-(D7-K)*%
X197151344Y-98933577D03*
%TO.P,D7,2,A*%
%TO.N,LED_R*%
X197791344Y-98933577D03*
%TD*%
D14*
%TO.P,R18,1*%
%TO.N,VDD33*%
X220056344Y-96633577D03*
%TO.P,R18,2*%
%TO.N,MPU_INT*%
X219416344Y-96633577D03*
%TD*%
%TO.P,R16,1*%
%TO.N,VSYS*%
X216391344Y-108933577D03*
%TO.P,R16,2*%
%TO.N,Net-(U5-EN)*%
X215751344Y-108933577D03*
%TD*%
D13*
%TO.P,Q4,1,G*%
%TO.N,MOT_4*%
X200200000Y-109812500D03*
%TO.P,Q4,2,S*%
%TO.N,GND*%
X198300000Y-109812500D03*
%TO.P,Q4,3,D*%
%TO.N,Net-(J21-Pin_2)*%
X199250000Y-111687500D03*
%TD*%
D14*
%TO.P,R24,1*%
%TO.N,GND*%
X199591344Y-103933577D03*
%TO.P,R24,2*%
%TO.N,Net-(D9-K)*%
X198951344Y-103933577D03*
%TD*%
D19*
%TO.P,U6,1,CLKIN*%
%TO.N,GND*%
X213841344Y-101283577D03*
%TO.P,U6,2,NC*%
%TO.N,unconnected-(U6-NC-Pad2)*%
X214341344Y-101283577D03*
%TO.P,U6,3,NC*%
%TO.N,unconnected-(U6-NC-Pad3)*%
X214841344Y-101283577D03*
%TO.P,U6,4,NC*%
%TO.N,unconnected-(U6-NC-Pad4)*%
X215341344Y-101283577D03*
%TO.P,U6,5,NC*%
%TO.N,unconnected-(U6-NC-Pad5)*%
X215841344Y-101283577D03*
%TO.P,U6,6,AUX_DA*%
%TO.N,AUX_SDA*%
X216341344Y-101283577D03*
D20*
%TO.P,U6,7,AUX_CL*%
%TO.N,AUX_SCL*%
X217041344Y-100583577D03*
%TO.P,U6,8,VLOGIC*%
%TO.N,VDD33*%
X217041344Y-100083577D03*
%TO.P,U6,9,AD0*%
%TO.N,GND*%
X217041344Y-99583577D03*
%TO.P,U6,10,REGOUT*%
%TO.N,Net-(U6-REGOUT)*%
X217041344Y-99083577D03*
%TO.P,U6,11,FSYNC*%
%TO.N,GND*%
X217041344Y-98583577D03*
%TO.P,U6,12,INT*%
%TO.N,MPU_INT*%
X217041344Y-98083577D03*
D19*
%TO.P,U6,13,VDD*%
%TO.N,VDD33*%
X216341344Y-97383577D03*
%TO.P,U6,14,NC*%
%TO.N,unconnected-(U6-NC-Pad14)*%
X215841344Y-97383577D03*
%TO.P,U6,15,NC*%
%TO.N,unconnected-(U6-NC-Pad15)*%
X215341344Y-97383577D03*
%TO.P,U6,16,NC*%
%TO.N,unconnected-(U6-NC-Pad16)*%
X214841344Y-97383577D03*
%TO.P,U6,17,NC*%
%TO.N,unconnected-(U6-NC-Pad17)*%
X214341344Y-97383577D03*
%TO.P,U6,18,GND*%
%TO.N,GND*%
X213841344Y-97383577D03*
D20*
%TO.P,U6,19,RESV*%
%TO.N,unconnected-(U6-RESV-Pad19)*%
X213141344Y-98083577D03*
%TO.P,U6,20,CPOUT*%
%TO.N,Net-(U6-CPOUT)*%
X213141344Y-98583577D03*
%TO.P,U6,21,RESV*%
%TO.N,unconnected-(U6-RESV-Pad21)*%
X213141344Y-99083577D03*
%TO.P,U6,22,RESV*%
%TO.N,unconnected-(U6-RESV-Pad22)*%
X213141344Y-99583577D03*
%TO.P,U6,23,SCL*%
%TO.N,MPU_SCL*%
X213141344Y-100083577D03*
%TO.P,U6,24,SDA*%
%TO.N,MPU_SDA*%
X213141344Y-100583577D03*
%TD*%
D17*
%TO.P,C10,1*%
%TO.N,GND*%
X210435000Y-98300000D03*
%TO.P,C10,2*%
%TO.N,Net-(U6-CPOUT)*%
X211075000Y-98300000D03*
%TD*%
%TO.P,C8,1*%
%TO.N,GND*%
X208326344Y-117033577D03*
%TO.P,C8,2*%
%TO.N,VDD33*%
X208966344Y-117033577D03*
%TD*%
D14*
%TO.P,C7,1*%
%TO.N,GND*%
X220950000Y-109750000D03*
%TO.P,C7,2*%
%TO.N,VSYS*%
X220310000Y-109750000D03*
%TD*%
D21*
%TO.P,J6,1,Pin_1*%
%TO.N,MPU_SDA*%
X207491344Y-88153577D03*
D22*
%TO.P,J6,2,Pin_2*%
%TO.N,ESP_EN*%
X204951344Y-88153577D03*
%TO.P,J6,3,Pin_3*%
%TO.N,MOT_1*%
X207491344Y-90693577D03*
%TO.P,J6,4,Pin_4*%
%TO.N,MPU_SCL*%
X204951344Y-90693577D03*
%TO.P,J6,5,Pin_5*%
%TO.N,ADC_BAT*%
X207491344Y-93233577D03*
%TO.P,J6,6,Pin_6*%
%TO.N,unconnected-(J6-Pin_6-Pad6)*%
X204951344Y-93233577D03*
%TO.P,J6,7,Pin_7*%
%TO.N,MPU_INT*%
X207491344Y-95773577D03*
%TO.P,J6,8,Pin_8*%
%TO.N,VL5_SCL*%
X204951344Y-95773577D03*
%TO.P,J6,9,Pin_9*%
%TO.N,VL5_SDA*%
X207491344Y-98313577D03*
%TO.P,J6,10,Pin_10*%
%TO.N,LED_R*%
X204951344Y-98313577D03*
%TO.P,J6,11,Pin_11*%
%TO.N,unconnected-(J6-Pin_11-Pad11)*%
X207491344Y-100853577D03*
%TO.P,J6,12,Pin_12*%
%TO.N,LED_G*%
X204951344Y-100853577D03*
%TO.P,J6,13,Pin_13*%
%TO.N,MOT_4*%
X207491344Y-103393577D03*
%TO.P,J6,14,Pin_14*%
%TO.N,LED_B*%
X204951344Y-103393577D03*
%TO.P,J6,15,Pin_15*%
%TO.N,MOT_3*%
X207491344Y-105933577D03*
%TO.P,J6,16,Pin_16*%
%TO.N,unconnected-(J6-Pin_16-Pad16)*%
X204951344Y-105933577D03*
%TD*%
D17*
%TO.P,C6,1*%
%TO.N,GND*%
X211471344Y-114233577D03*
%TO.P,C6,2*%
%TO.N,VBAT*%
X212111344Y-114233577D03*
%TD*%
%TO.P,C9,1*%
%TO.N,GND*%
X208235000Y-115050000D03*
%TO.P,C9,2*%
%TO.N,VDD33*%
X208875000Y-115050000D03*
%TD*%
%TO.P,D6,1,K*%
%TO.N,Net-(D6-K)*%
X197126344Y-104833577D03*
%TO.P,D6,2,A*%
%TO.N,VSYS*%
X197766344Y-104833577D03*
%TD*%
D14*
%TO.P,R22,1*%
%TO.N,GND*%
X199591344Y-99433577D03*
%TO.P,R22,2*%
%TO.N,Net-(D7-K)*%
X198951344Y-99433577D03*
%TD*%
D23*
%TO.P,D1,1,K*%
%TO.N,VSYS*%
X218591344Y-111283577D03*
%TO.P,D1,2,A*%
%TO.N,VBAT*%
X218591344Y-113383577D03*
%TD*%
D24*
%TO.P,Q1,1,G*%
%TO.N,MOT_1*%
X199866344Y-91983577D03*
%TO.P,Q1,2,S*%
%TO.N,GND*%
X199866344Y-90083577D03*
%TO.P,Q1,3,D*%
%TO.N,Net-(J4-Pin_1)*%
X197991344Y-91033577D03*
%TD*%
D14*
%TO.P,C11,1*%
%TO.N,GND*%
X220691344Y-98533577D03*
%TO.P,C11,2*%
%TO.N,Net-(U6-REGOUT)*%
X220051344Y-98533577D03*
%TD*%
%TO.P,R15,1*%
%TO.N,ADC_BAT*%
X199006344Y-97033577D03*
%TO.P,R15,2*%
%TO.N,VBAT*%
X198366344Y-97033577D03*
%TD*%
%TO.P,R10,1*%
%TO.N,MOT_3*%
X232291344Y-105833577D03*
%TO.P,R10,2*%
%TO.N,GND*%
X231651344Y-105833577D03*
%TD*%
D21*
%TO.P,J1,1,Pin_1*%
%TO.N,VL5_INT*%
X227891344Y-88153577D03*
D22*
%TO.P,J1,2,Pin_2*%
%TO.N,unconnected-(J1-Pin_2-Pad2)*%
X225351344Y-88153577D03*
%TO.P,J1,3,Pin_3*%
%TO.N,VL5_RESET*%
X227891344Y-90693577D03*
%TO.P,J1,4,Pin_4*%
%TO.N,unconnected-(J1-Pin_4-Pad4)*%
X225351344Y-90693577D03*
%TO.P,J1,5,Pin_5*%
%TO.N,VL5_LP*%
X227891344Y-93233577D03*
%TO.P,J1,6,Pin_6*%
%TO.N,unconnected-(J1-Pin_6-Pad6)*%
X225351344Y-93233577D03*
%TO.P,J1,7,Pin_7*%
%TO.N,unconnected-(J1-Pin_7-Pad7)*%
X227891344Y-95773577D03*
%TO.P,J1,8,Pin_8*%
%TO.N,unconnected-(J1-Pin_8-Pad8)*%
X225351344Y-95773577D03*
%TO.P,J1,9,Pin_9*%
%TO.N,unconnected-(J1-Pin_9-Pad9)*%
X227891344Y-98313577D03*
%TO.P,J1,10,Pin_10*%
%TO.N,unconnected-(J1-Pin_10-Pad10)*%
X225351344Y-98313577D03*
%TO.P,J1,11,Pin_11*%
%TO.N,MOT_2*%
X227891344Y-100853577D03*
%TO.P,J1,12,Pin_12*%
%TO.N,BUZ_1*%
X225351344Y-100853577D03*
%TO.P,J1,13,Pin_13*%
%TO.N,GND*%
X227891344Y-103393577D03*
%TO.P,J1,14,Pin_14*%
X225351344Y-103393577D03*
%TO.P,J1,15,Pin_15*%
%TO.N,VDD33*%
X227891344Y-105933577D03*
%TO.P,J1,16,Pin_16*%
%TO.N,BUZ_2*%
X225351344Y-105933577D03*
%TD*%
D17*
%TO.P,D8,1,K*%
%TO.N,Net-(D8-K)*%
X197151344Y-100833577D03*
%TO.P,D8,2,A*%
%TO.N,LED_G*%
X197791344Y-100833577D03*
%TD*%
D14*
%TO.P,R23,1*%
%TO.N,GND*%
X199566344Y-101933577D03*
%TO.P,R23,2*%
%TO.N,Net-(D8-K)*%
X198926344Y-101933577D03*
%TD*%
%TO.P,R11,1*%
%TO.N,MOT_4*%
X199625000Y-108387500D03*
%TO.P,R11,2*%
%TO.N,GND*%
X198985000Y-108387500D03*
%TD*%
%TO.P,R20,1*%
%TO.N,VDD33*%
X220131344Y-100933577D03*
%TO.P,R20,2*%
%TO.N,AUX_SCL*%
X219491344Y-100933577D03*
%TD*%
D25*
%TO.P,J23,1,Pin_1*%
%TO.N,GND*%
X214640344Y-116500000D03*
D26*
%TO.P,J23,2,Pin_2*%
%TO.N,VBAT*%
X216640344Y-116500000D03*
%TD*%
D14*
%TO.P,R19,1*%
%TO.N,VDD33*%
X220091344Y-102333577D03*
%TO.P,R19,2*%
%TO.N,AUX_SDA*%
X219451344Y-102333577D03*
%TD*%
D27*
%TO.P,Q2,1,G*%
%TO.N,MOT_2*%
X232316344Y-89883577D03*
%TO.P,Q2,2,S*%
%TO.N,GND*%
X232316344Y-91783577D03*
%TO.P,Q2,3,D*%
%TO.N,Net-(J11-Pin_2)*%
X234191344Y-90833577D03*
%TD*%
D28*
%TO.P,J11,1,Pin_1*%
%TO.N,VBAT*%
X232732233Y-81732233D03*
D29*
%TO.P,J11,2,Pin_2*%
%TO.N,Net-(J11-Pin_2)*%
X234500000Y-83500000D03*
%TD*%
D30*
%TO.P,J21,1,Pin_1*%
%TO.N,VBAT*%
X199692031Y-117825736D03*
D31*
%TO.P,J21,2,Pin_2*%
%TO.N,Net-(J21-Pin_2)*%
X197924264Y-116057969D03*
%TD*%
D32*
%TO.P,J4,1,Pin_1*%
%TO.N,Net-(J4-Pin_1)*%
X197924264Y-83442031D03*
D33*
%TO.P,J4,2,Pin_2*%
%TO.N,VBAT*%
X199692031Y-81674264D03*
%TD*%
D34*
%TO.P,J16,1,Pin_1*%
%TO.N,Net-(J16-Pin_1)*%
X234500000Y-116250000D03*
D33*
%TO.P,J16,2,Pin_2*%
%TO.N,VBAT*%
X232732233Y-118017767D03*
%TD*%
D35*
%TO.N,GND*%
X219391344Y-99433577D03*
X214391344Y-96132577D03*
X218391344Y-98233577D03*
X201191344Y-101833577D03*
X214391344Y-102433577D03*
X202000000Y-87500000D03*
X200991344Y-99833577D03*
X201391344Y-103833577D03*
%TO.N,VBAT*%
X198323577Y-95833577D03*
%TO.N,VSYS*%
X200191344Y-104933577D03*
X214250000Y-114000000D03*
%TO.N,VDD33*%
X217691344Y-96133577D03*
X221741344Y-101583577D03*
%TO.N,MPU_SDA*%
X209891344Y-96233577D03*
%TO.N,MOT_3*%
X219791344Y-107833577D03*
%TO.N,MPU_SCL*%
X211191344Y-96233577D03*
X210691344Y-94333577D03*
%TD*%
D36*
%TO.N,GND*%
X210435000Y-98100001D02*
X212402424Y-96132577D01*
X199591344Y-99433577D02*
X200591344Y-99433577D01*
X212402424Y-96132577D02*
X214391344Y-96132577D01*
X218893444Y-99433577D02*
X219391344Y-99433577D01*
X202500000Y-89525000D02*
X202000000Y-90025000D01*
X218041344Y-98583577D02*
X218391344Y-98233577D01*
X202500000Y-88000000D02*
X202500000Y-89525000D01*
X213841344Y-101283577D02*
X213841344Y-101883577D01*
X211471344Y-114233577D02*
X211471344Y-114713577D01*
X219991343Y-99433577D02*
X219391344Y-99433577D01*
X202000000Y-87500000D02*
X202500000Y-88000000D01*
X201449921Y-88500000D02*
X199866344Y-90083577D01*
X213841344Y-101883577D02*
X214391344Y-102433577D01*
X201191344Y-101833577D02*
X199666344Y-101833577D01*
X213841344Y-97383577D02*
X213841344Y-96682577D01*
X199666344Y-101833577D02*
X199566344Y-101933577D01*
X199591344Y-103933577D02*
X201291344Y-103933577D01*
X201291344Y-103933577D02*
X201391344Y-103833577D01*
X210435000Y-98300000D02*
X210435000Y-98100001D01*
X218743444Y-99583577D02*
X218893444Y-99433577D01*
X211471344Y-114713577D02*
X213257767Y-116500000D01*
X200591344Y-99433577D02*
X200991344Y-99833577D01*
X220691344Y-98733576D02*
X219991343Y-99433577D01*
X213257767Y-116500000D02*
X214640344Y-116500000D01*
X202000000Y-87500000D02*
X201449921Y-88050079D01*
X201449921Y-88050079D02*
X201449921Y-88500000D01*
X217041344Y-99583577D02*
X218743444Y-99583577D01*
X217041344Y-98583577D02*
X218041344Y-98583577D01*
X213841344Y-96682577D02*
X214391344Y-96132577D01*
X220691344Y-98533577D02*
X220691344Y-98733576D01*
%TO.N,VBAT*%
X198323577Y-96990810D02*
X198366344Y-97033577D01*
X215022921Y-114882577D02*
X212760344Y-114882577D01*
D37*
X218591344Y-113383577D02*
X218591344Y-114549000D01*
D36*
X212760344Y-114882577D02*
X212111344Y-114233577D01*
X216640344Y-116500000D02*
X215022921Y-114882577D01*
D37*
X218591344Y-114549000D02*
X216640344Y-116500000D01*
D36*
X198323577Y-95833577D02*
X198323577Y-96990810D01*
%TO.N,VSYS*%
X215850000Y-111900000D02*
X216100000Y-111650000D01*
X216816423Y-111033577D02*
X216816423Y-111433577D01*
X216816423Y-111433577D02*
X216600000Y-111650000D01*
X214478883Y-112133577D02*
X214712460Y-111900000D01*
X217391344Y-110458656D02*
X216816423Y-111033577D01*
X214250000Y-114000000D02*
X216600000Y-111650000D01*
X197866344Y-104933577D02*
X197766344Y-104833577D01*
X216100000Y-111650000D02*
X216600000Y-111650000D01*
X218591344Y-111283577D02*
X218776423Y-111283577D01*
X218482767Y-109750000D02*
X218066344Y-109333577D01*
X213861344Y-112133577D02*
X214478883Y-112133577D01*
X217391344Y-109333577D02*
X217391344Y-110458656D01*
X217391344Y-109333577D02*
X216791344Y-109333577D01*
X216791344Y-109333577D02*
X216391344Y-108933577D01*
X200191344Y-104933577D02*
X197866344Y-104933577D01*
X218776423Y-111283577D02*
X220310000Y-109750000D01*
X218066344Y-109333577D02*
X217391344Y-109333577D01*
X220310000Y-109750000D02*
X218482767Y-109750000D01*
X214712460Y-111900000D02*
X215850000Y-111900000D01*
%TO.N,VDD33*%
X220091344Y-102333577D02*
X220791344Y-103033577D01*
X221741344Y-101583577D02*
X221741344Y-102333577D01*
X210191344Y-111833577D02*
X210491344Y-112133577D01*
X208875000Y-115050000D02*
X209346344Y-115521344D01*
X209266344Y-116733577D02*
X208966344Y-117033577D01*
X217041344Y-100083577D02*
X220241344Y-100083577D01*
X209346344Y-115933577D02*
X209606344Y-116193577D01*
X221741344Y-102333577D02*
X221741344Y-105334577D01*
X219991344Y-107084577D02*
X226740344Y-107084577D01*
X219991344Y-107084577D02*
X212740344Y-107084577D01*
X209346344Y-115521344D02*
X209346344Y-115933577D01*
X212740344Y-107084577D02*
X210191344Y-109633577D01*
X221741344Y-105334577D02*
X219991344Y-107084577D01*
X220056344Y-96633577D02*
X221741344Y-98318577D01*
X210491344Y-112133577D02*
X210191344Y-112433577D01*
X209606344Y-116193577D02*
X209806344Y-116193577D01*
X216441344Y-97383577D02*
X217691344Y-96133577D01*
X210191344Y-112433577D02*
X210191344Y-115808577D01*
X221741344Y-98318577D02*
X221741344Y-101583577D01*
X210191344Y-109633577D02*
X210191344Y-111833577D01*
X221091344Y-100933577D02*
X221741344Y-101583577D01*
X216341344Y-97383577D02*
X216441344Y-97383577D01*
X221041344Y-103033577D02*
X221741344Y-102333577D01*
X220241344Y-100083577D02*
X221091344Y-100933577D01*
X226740344Y-107084577D02*
X227891344Y-105933577D01*
X211491344Y-112133577D02*
X210491344Y-112133577D01*
X220791344Y-103033577D02*
X221041344Y-103033577D01*
X220131344Y-100933577D02*
X221091344Y-100933577D01*
X210191344Y-115808577D02*
X208966344Y-117033577D01*
%TO.N,Net-(U6-CPOUT)*%
X212082846Y-98300000D02*
X212366423Y-98583577D01*
X212366423Y-98583577D02*
X213141344Y-98583577D01*
X211075000Y-98300000D02*
X212082846Y-98300000D01*
%TO.N,Net-(U6-REGOUT)*%
X219226344Y-98533577D02*
X220051344Y-98533577D01*
X218676344Y-99083577D02*
X219226344Y-98533577D01*
X217041344Y-99083577D02*
X218676344Y-99083577D01*
%TO.N,Net-(D6-K)*%
X196771344Y-105633576D02*
X197571345Y-106433577D01*
X196771344Y-105188577D02*
X196771344Y-105633576D01*
X197571345Y-106433577D02*
X198951344Y-106433577D01*
X197126344Y-104833577D02*
X196771344Y-105188577D01*
%TO.N,Net-(D7-K)*%
X197151344Y-98933577D02*
X197260344Y-99042577D01*
X198090214Y-99434577D02*
X198091214Y-99433577D01*
X197260344Y-99042577D02*
X197260344Y-99202447D01*
X197492474Y-99434577D02*
X198090214Y-99434577D01*
X198091214Y-99433577D02*
X198951344Y-99433577D01*
X197260344Y-99202447D02*
X197492474Y-99434577D01*
%TO.N,LED_R*%
X199711344Y-98313577D02*
X199091344Y-98933577D01*
X199091344Y-98933577D02*
X197791344Y-98933577D01*
X204951344Y-98313577D02*
X199711344Y-98313577D01*
%TO.N,LED_G*%
X197811344Y-100853577D02*
X204951344Y-100853577D01*
X197791344Y-100833577D02*
X197811344Y-100853577D01*
%TO.N,Net-(D8-K)*%
X197151344Y-100833577D02*
X197151344Y-101473447D01*
X197611474Y-101933577D02*
X198926344Y-101933577D01*
X197151344Y-101473447D02*
X197611474Y-101933577D01*
%TO.N,Net-(D9-K)*%
X197126344Y-103488576D02*
X197571345Y-103933577D01*
X197571345Y-103933577D02*
X198771344Y-103933577D01*
X197126344Y-102833577D02*
X197126344Y-103488576D01*
%TO.N,LED_B*%
X204291344Y-102733577D02*
X197866344Y-102733577D01*
X204951344Y-103393577D02*
X204291344Y-102733577D01*
X197866344Y-102733577D02*
X197766344Y-102833577D01*
%TO.N,AUX_SDA*%
X216341344Y-101283577D02*
X218251344Y-103193577D01*
X218551344Y-103193577D02*
X219291344Y-102453577D01*
X218251344Y-103193577D02*
X218551344Y-103193577D01*
%TO.N,AUX_SCL*%
X219606344Y-100953577D02*
X219626344Y-100933577D01*
X217041344Y-100583577D02*
X217411344Y-100953577D01*
X218091344Y-100953577D02*
X218291344Y-100953577D01*
X217411344Y-100953577D02*
X218091344Y-100953577D01*
X218291344Y-100953577D02*
X219471344Y-100953577D01*
X219471344Y-100953577D02*
X219491344Y-100933577D01*
%TO.N,MPU_SDA*%
X209094344Y-99668547D02*
X209094344Y-97030577D01*
X210009374Y-100583577D02*
X209094344Y-99668547D01*
X213141344Y-100583577D02*
X210009374Y-100583577D01*
X209094344Y-97030577D02*
X209891344Y-96233577D01*
%TO.N,MOT_1*%
X201151344Y-91743577D02*
X202281344Y-91743577D01*
X202891344Y-90533577D02*
X203882344Y-89542577D01*
X202891344Y-90633577D02*
X202891344Y-90533577D01*
X202281344Y-91743577D02*
X202891344Y-91133577D01*
X199866344Y-91983577D02*
X200911344Y-91983577D01*
X200911344Y-91983577D02*
X201151344Y-91743577D01*
X202000000Y-90894921D02*
X202000000Y-90665000D01*
X203882344Y-89542577D02*
X206340344Y-89542577D01*
X201151344Y-91743577D02*
X202000000Y-90894921D01*
X202891344Y-91133577D02*
X202891344Y-90533577D01*
X206340344Y-89542577D02*
X207491344Y-90693577D01*
%TO.N,MOT_2*%
X230716344Y-90463577D02*
X230316344Y-90463577D01*
X232316344Y-89883577D02*
X231296344Y-89883577D01*
X231006344Y-97738577D02*
X227891344Y-100853577D01*
X231051344Y-90128577D02*
X231006344Y-90173577D01*
X231296344Y-89883577D02*
X231206344Y-89973577D01*
X231006344Y-90173577D02*
X231006344Y-97738577D01*
X231206344Y-89973577D02*
X230716344Y-90463577D01*
%TO.N,MOT_3*%
X232291344Y-106433577D02*
X232291344Y-106933577D01*
X232291344Y-106933577D02*
X232891344Y-107533577D01*
X232291344Y-105833577D02*
X232291344Y-106433577D01*
X229963584Y-106433577D02*
X228463584Y-107933577D01*
X228463584Y-107933577D02*
X219891344Y-107933577D01*
X232291344Y-106433577D02*
X229963584Y-106433577D01*
X219891344Y-107933577D02*
X219791344Y-107833577D01*
%TO.N,MOT_4*%
X200200000Y-109812500D02*
X200200000Y-108962500D01*
X199987500Y-108750000D02*
X199625000Y-108387500D01*
X204505423Y-104544577D02*
X206340344Y-104544577D01*
X200200000Y-108962500D02*
X200200000Y-108850000D01*
X200200000Y-108962500D02*
X199987500Y-108750000D01*
X200200000Y-108850000D02*
X204505423Y-104544577D01*
X206340344Y-104544577D02*
X207491344Y-103393577D01*
%TO.N,ADC_BAT*%
X199791344Y-97033577D02*
X199006344Y-97033577D01*
X206340344Y-92082577D02*
X207491344Y-93233577D01*
X204142344Y-92082577D02*
X206340344Y-92082577D01*
X201592344Y-94632577D02*
X204142344Y-92082577D01*
X200401344Y-97033577D02*
X199791344Y-97033577D01*
X201592344Y-95232577D02*
X201592344Y-94632577D01*
X200551344Y-97183577D02*
X200401344Y-97033577D01*
X199791344Y-97033577D02*
X201592344Y-95232577D01*
%TO.N,MPU_INT*%
X218491344Y-95733577D02*
X218291344Y-95533577D01*
X218491344Y-96633577D02*
X218491344Y-95833577D01*
X219416344Y-96633577D02*
X219291344Y-96633577D01*
X218491344Y-95833577D02*
X218491344Y-95733577D01*
X217290344Y-95532577D02*
X207732344Y-95532577D01*
X217291344Y-95533577D02*
X217290344Y-95532577D01*
X219291344Y-96633577D02*
X218491344Y-95833577D01*
X207732344Y-95532577D02*
X207491344Y-95773577D01*
X218291344Y-95533577D02*
X217291344Y-95533577D01*
X217041344Y-98083577D02*
X218491344Y-96633577D01*
%TO.N,MPU_SCL*%
X208202344Y-91844577D02*
X206669444Y-91844577D01*
X213141344Y-100083577D02*
X210076474Y-100083577D01*
X209495344Y-99502447D02*
X209495344Y-97929577D01*
X210691344Y-94333577D02*
X208202344Y-91844577D01*
X210076474Y-100083577D02*
X209495344Y-99502447D01*
X205518444Y-90693577D02*
X204951344Y-90693577D01*
X209495344Y-97929577D02*
X211191344Y-96233577D01*
X206669444Y-91844577D02*
X205518444Y-90693577D01*
%TO.N,Net-(U5-EN)*%
X213861344Y-110233577D02*
X215161344Y-108933577D01*
X215161344Y-108933577D02*
X215751344Y-108933577D01*
%TO.N,Net-(J4-Pin_1)*%
X197341344Y-90383577D02*
X197991344Y-91033577D01*
X197924264Y-83442031D02*
X198500000Y-84017767D01*
X198500000Y-84017767D02*
X198500000Y-86924920D01*
X197341344Y-88083577D02*
X197341344Y-90383577D01*
X198500000Y-86924920D02*
X197341344Y-88083577D01*
%TO.N,Net-(J16-Pin_1)*%
X231899313Y-109450608D02*
X231941344Y-109408577D01*
X234500000Y-111967233D02*
X231941344Y-109408577D01*
X234500000Y-116250000D02*
X234500000Y-111967233D01*
%TO.N,Net-(J11-Pin_2)*%
X234850000Y-83850000D02*
X234500000Y-83500000D01*
X234850000Y-90174921D02*
X234850000Y-83850000D01*
X234191344Y-90833577D02*
X234850000Y-90174921D01*
%TO.N,Net-(J21-Pin_2)*%
X199250000Y-114982233D02*
X198174264Y-116057969D01*
X198174264Y-116057969D02*
X197924264Y-116057969D01*
X199250000Y-111687500D02*
X199250000Y-114982233D01*
%TD*%
%TA.AperFunction,Conductor*%
%TO.N,GND*%
G36*
X227425419Y-103586570D02*
G01*
X227491245Y-103700584D01*
X227584337Y-103793676D01*
X227698351Y-103859502D01*
X227761934Y-103876539D01*
X227129626Y-104508846D01*
X227129626Y-104508847D01*
X227183793Y-104548201D01*
X227373126Y-104644672D01*
X227549317Y-104701920D01*
X227606992Y-104741357D01*
X227634191Y-104805716D01*
X227622276Y-104874562D01*
X227575032Y-104926038D01*
X227558452Y-104934412D01*
X227393747Y-105002634D01*
X227221686Y-105117601D01*
X227075368Y-105263919D01*
X226960402Y-105435980D01*
X226881214Y-105627156D01*
X226881212Y-105627164D01*
X226840844Y-105830107D01*
X226840844Y-106037046D01*
X226881212Y-106239989D01*
X226881215Y-106240001D01*
X226931147Y-106360548D01*
X226938616Y-106430017D01*
X226907341Y-106492496D01*
X226904268Y-106495681D01*
X226652190Y-106747759D01*
X226590870Y-106781243D01*
X226564511Y-106784077D01*
X226278472Y-106784077D01*
X226211433Y-106764392D01*
X226165678Y-106711588D01*
X226155734Y-106642430D01*
X226175370Y-106591187D01*
X226282284Y-106431177D01*
X226282284Y-106431176D01*
X226282285Y-106431175D01*
X226361474Y-106239997D01*
X226401844Y-106037042D01*
X226401844Y-105830112D01*
X226361474Y-105627157D01*
X226282285Y-105435979D01*
X226167321Y-105263922D01*
X226167319Y-105263919D01*
X226021001Y-105117601D01*
X225851082Y-105004066D01*
X225848942Y-105002636D01*
X225848937Y-105002634D01*
X225787235Y-104977076D01*
X225684234Y-104934411D01*
X225629832Y-104890571D01*
X225607767Y-104824277D01*
X225625046Y-104756578D01*
X225676183Y-104708967D01*
X225693370Y-104701920D01*
X225869561Y-104644672D01*
X226058898Y-104548199D01*
X226113060Y-104508847D01*
X226113061Y-104508847D01*
X225480752Y-103876539D01*
X225544337Y-103859502D01*
X225658351Y-103793676D01*
X225751443Y-103700584D01*
X225817269Y-103586570D01*
X225834306Y-103522985D01*
X226466614Y-104155294D01*
X226466614Y-104155293D01*
X226505966Y-104101131D01*
X226510858Y-104091531D01*
X226558832Y-104040734D01*
X226626652Y-104023938D01*
X226692788Y-104046474D01*
X226731830Y-104091531D01*
X226736719Y-104101127D01*
X226776072Y-104155293D01*
X227408381Y-103522985D01*
X227425419Y-103586570D01*
G37*
%TD.AperFunction*%
%TA.AperFunction,Conductor*%
G36*
X220834383Y-98553262D02*
G01*
X220880138Y-98606066D01*
X220891344Y-98657577D01*
X220891344Y-99229536D01*
X220891345Y-99229537D01*
X220977971Y-99218134D01*
X220977977Y-99218132D01*
X221123929Y-99157677D01*
X221241357Y-99067572D01*
X221306526Y-99042378D01*
X221374971Y-99056416D01*
X221424961Y-99105230D01*
X221440844Y-99165948D01*
X221440844Y-100558744D01*
X221421159Y-100625783D01*
X221368355Y-100671538D01*
X221299197Y-100681482D01*
X221235641Y-100652457D01*
X221229163Y-100646425D01*
X220425856Y-99843118D01*
X220425851Y-99843114D01*
X220405148Y-99831161D01*
X220405146Y-99831161D01*
X220368413Y-99809953D01*
X220357334Y-99803556D01*
X220331857Y-99796729D01*
X220280906Y-99783077D01*
X220280904Y-99783077D01*
X218061026Y-99783077D01*
X218052340Y-99780526D01*
X218043379Y-99781815D01*
X218019338Y-99770836D01*
X217993987Y-99763392D01*
X217988059Y-99756551D01*
X217979823Y-99752790D01*
X217967798Y-99740836D01*
X217961432Y-99733577D01*
X217429645Y-99733577D01*
X217419467Y-99733077D01*
X217165344Y-99733077D01*
X217156658Y-99730526D01*
X217147697Y-99731815D01*
X217123656Y-99720836D01*
X217098305Y-99713392D01*
X217092377Y-99706551D01*
X217084141Y-99702790D01*
X217069851Y-99680555D01*
X217052550Y-99660588D01*
X217050262Y-99650073D01*
X217046367Y-99644012D01*
X217041344Y-99609077D01*
X217041344Y-99558076D01*
X217061029Y-99491037D01*
X217113833Y-99445282D01*
X217165342Y-99434076D01*
X217418476Y-99434076D01*
X217419473Y-99434076D01*
X217429633Y-99433577D01*
X217961432Y-99433577D01*
X217967798Y-99426318D01*
X217989816Y-99412351D01*
X218009515Y-99395283D01*
X218018840Y-99393942D01*
X218026799Y-99388894D01*
X218061026Y-99384077D01*
X218715904Y-99384077D01*
X218715906Y-99384077D01*
X218792333Y-99363598D01*
X218860855Y-99324037D01*
X218916804Y-99268088D01*
X219314496Y-98870396D01*
X219341423Y-98855692D01*
X219367242Y-98839100D01*
X219373442Y-98838208D01*
X219375819Y-98836911D01*
X219402177Y-98834077D01*
X219645511Y-98834077D01*
X219712550Y-98853762D01*
X219733192Y-98870396D01*
X219748579Y-98885783D01*
X219851353Y-98931162D01*
X219876479Y-98934077D01*
X219974492Y-98934076D01*
X220041529Y-98953760D01*
X220072866Y-98982589D01*
X220133417Y-99061499D01*
X220258757Y-99157677D01*
X220404709Y-99218131D01*
X220404713Y-99218132D01*
X220491344Y-99229538D01*
X220491344Y-98657577D01*
X220493894Y-98648891D01*
X220492606Y-98639930D01*
X220503584Y-98615889D01*
X220511029Y-98590538D01*
X220517869Y-98584610D01*
X220521631Y-98576374D01*
X220543865Y-98562084D01*
X220563833Y-98544783D01*
X220574347Y-98542495D01*
X220580409Y-98538600D01*
X220615344Y-98533577D01*
X220767344Y-98533577D01*
X220834383Y-98553262D01*
G37*
%TD.AperFunction*%
%TA.AperFunction,Conductor*%
G36*
X217108189Y-95837799D02*
G01*
X217124947Y-95837505D01*
X217141018Y-95847439D01*
X217159146Y-95852762D01*
X217170121Y-95865427D01*
X217184379Y-95874241D01*
X217192529Y-95891288D01*
X217204901Y-95905566D01*
X217207286Y-95922154D01*
X217214516Y-95937277D01*
X217215136Y-95972566D01*
X217214077Y-95980977D01*
X217190844Y-96067685D01*
X217190844Y-96165519D01*
X217189873Y-96173232D01*
X217178898Y-96198424D01*
X217171159Y-96224782D01*
X217165147Y-96229991D01*
X217161969Y-96237287D01*
X217154525Y-96245424D01*
X216654584Y-96745364D01*
X216593261Y-96778849D01*
X216536151Y-96774764D01*
X216535818Y-96776444D01*
X216443479Y-96758077D01*
X216239214Y-96758077D01*
X216185380Y-96768785D01*
X216158849Y-96774062D01*
X216158848Y-96774062D01*
X216158845Y-96774063D01*
X216147564Y-96778736D01*
X216146965Y-96777291D01*
X216093548Y-96794013D01*
X216035405Y-96778058D01*
X216035125Y-96778736D01*
X216029727Y-96776500D01*
X216026169Y-96775524D01*
X216023992Y-96774124D01*
X216023838Y-96774061D01*
X215943479Y-96758077D01*
X215739214Y-96758077D01*
X215685380Y-96768785D01*
X215658849Y-96774062D01*
X215658848Y-96774062D01*
X215658845Y-96774063D01*
X215647564Y-96778736D01*
X215646965Y-96777291D01*
X215593548Y-96794013D01*
X215535405Y-96778058D01*
X215535125Y-96778736D01*
X215529727Y-96776500D01*
X215526169Y-96775524D01*
X215523992Y-96774124D01*
X215523838Y-96774061D01*
X215443479Y-96758077D01*
X215239214Y-96758077D01*
X215185380Y-96768785D01*
X215158849Y-96774062D01*
X215158848Y-96774062D01*
X215158845Y-96774063D01*
X215147564Y-96778736D01*
X215146965Y-96777291D01*
X215093548Y-96794013D01*
X215035405Y-96778058D01*
X215035125Y-96778736D01*
X215029727Y-96776500D01*
X215026169Y-96775524D01*
X215023992Y-96774124D01*
X215023838Y-96774061D01*
X214943479Y-96758077D01*
X214739214Y-96758077D01*
X214685380Y-96768785D01*
X214658849Y-96774062D01*
X214658848Y-96774062D01*
X214658845Y-96774063D01*
X214647564Y-96778736D01*
X214646965Y-96777291D01*
X214593548Y-96794013D01*
X214556343Y-96788991D01*
X214538187Y-96783649D01*
X214523839Y-96774062D01*
X214467548Y-96762865D01*
X214462202Y-96761292D01*
X214437317Y-96745279D01*
X214411100Y-96731566D01*
X214404477Y-96724149D01*
X214403445Y-96723485D01*
X214402986Y-96722479D01*
X214398827Y-96717821D01*
X214326438Y-96623482D01*
X214206322Y-96531313D01*
X214066452Y-96473378D01*
X214066447Y-96473377D01*
X213991344Y-96463488D01*
X213991344Y-96995276D01*
X213990844Y-97005453D01*
X213990844Y-97006443D01*
X213990844Y-97006444D01*
X213990844Y-97259579D01*
X213988294Y-97268263D01*
X213989583Y-97277224D01*
X213978605Y-97301260D01*
X213971161Y-97326616D01*
X213964318Y-97332544D01*
X213960558Y-97340780D01*
X213938326Y-97355066D01*
X213918357Y-97372371D01*
X213907841Y-97374658D01*
X213901780Y-97378554D01*
X213866845Y-97383577D01*
X213841344Y-97383577D01*
X213841344Y-97409577D01*
X213821659Y-97476616D01*
X213768855Y-97522371D01*
X213717344Y-97533577D01*
X213191344Y-97533577D01*
X213191344Y-97609077D01*
X213171659Y-97676116D01*
X213118855Y-97721871D01*
X213067344Y-97733077D01*
X212764214Y-97733077D01*
X212683848Y-97749062D01*
X212592719Y-97809952D01*
X212531829Y-97901082D01*
X212531827Y-97901086D01*
X212515844Y-97981440D01*
X212515844Y-98008665D01*
X212511358Y-98023939D01*
X212511858Y-98039854D01*
X212501716Y-98056778D01*
X212496159Y-98075704D01*
X212484128Y-98086128D01*
X212475944Y-98099787D01*
X212458262Y-98108541D01*
X212443355Y-98121459D01*
X212427596Y-98123724D01*
X212413329Y-98130789D01*
X212393725Y-98128595D01*
X212374197Y-98131403D01*
X212358877Y-98124695D01*
X212343893Y-98123018D01*
X212322971Y-98108972D01*
X212313618Y-98104877D01*
X212308675Y-98100858D01*
X212267357Y-98059540D01*
X212243151Y-98045565D01*
X212234590Y-98040622D01*
X212234586Y-98040619D01*
X212198840Y-98019981D01*
X212198837Y-98019979D01*
X212156611Y-98008665D01*
X212122408Y-97999500D01*
X212122406Y-97999500D01*
X211480833Y-97999500D01*
X211413794Y-97979815D01*
X211393152Y-97963181D01*
X211377765Y-97947794D01*
X211274992Y-97902415D01*
X211249868Y-97899500D01*
X211151852Y-97899500D01*
X211084813Y-97879815D01*
X211053477Y-97850987D01*
X210992926Y-97772077D01*
X210867586Y-97675899D01*
X210721631Y-97615444D01*
X210635000Y-97604038D01*
X210635000Y-98995959D01*
X210635001Y-98995960D01*
X210721627Y-98984557D01*
X210721633Y-98984555D01*
X210867585Y-98924100D01*
X210992926Y-98827922D01*
X211053478Y-98749012D01*
X211109906Y-98707810D01*
X211151851Y-98700499D01*
X211249864Y-98700499D01*
X211249879Y-98700497D01*
X211249882Y-98700497D01*
X211274987Y-98697586D01*
X211274988Y-98697585D01*
X211274991Y-98697585D01*
X211377765Y-98652206D01*
X211393152Y-98636819D01*
X211454475Y-98603334D01*
X211480833Y-98600500D01*
X211907013Y-98600500D01*
X211974052Y-98620185D01*
X211994694Y-98636819D01*
X212125963Y-98768088D01*
X212181912Y-98824037D01*
X212181914Y-98824038D01*
X212181918Y-98824041D01*
X212233397Y-98853762D01*
X212250434Y-98863598D01*
X212326861Y-98884077D01*
X212391844Y-98884077D01*
X212458883Y-98903762D01*
X212504638Y-98956566D01*
X212515844Y-99008076D01*
X212515844Y-99185706D01*
X212516345Y-99188223D01*
X212525365Y-99233575D01*
X212531830Y-99266075D01*
X212536503Y-99277357D01*
X212535058Y-99277955D01*
X212551780Y-99331365D01*
X212535826Y-99389515D01*
X212536503Y-99389796D01*
X212534270Y-99395186D01*
X212533294Y-99398745D01*
X212531894Y-99400922D01*
X212531828Y-99401082D01*
X212515844Y-99481440D01*
X212515844Y-99481442D01*
X212515844Y-99481444D01*
X212515844Y-99578442D01*
X212515845Y-99659076D01*
X212496161Y-99726116D01*
X212443357Y-99771871D01*
X212391845Y-99783077D01*
X210252307Y-99783077D01*
X210185268Y-99763392D01*
X210164626Y-99746758D01*
X209832163Y-99414295D01*
X209798678Y-99352972D01*
X209795844Y-99326614D01*
X209795844Y-99017041D01*
X209815529Y-98950002D01*
X209868333Y-98904247D01*
X209937491Y-98894303D01*
X209995333Y-98918667D01*
X210002413Y-98924100D01*
X210148365Y-98984554D01*
X210148369Y-98984555D01*
X210235000Y-98995961D01*
X210235000Y-97666253D01*
X210254685Y-97599214D01*
X210271316Y-97578575D01*
X210854011Y-96995879D01*
X213191344Y-96995879D01*
X213191344Y-97233577D01*
X213691344Y-97233577D01*
X213691344Y-96463488D01*
X213691343Y-96463488D01*
X213616240Y-96473377D01*
X213616235Y-96473378D01*
X213476365Y-96531313D01*
X213356249Y-96623482D01*
X213264080Y-96743598D01*
X213206145Y-96883468D01*
X213206144Y-96883472D01*
X213191344Y-96995879D01*
X210854011Y-96995879D01*
X211079495Y-96770395D01*
X211140818Y-96736911D01*
X211167176Y-96734077D01*
X211257234Y-96734077D01*
X211257236Y-96734077D01*
X211384530Y-96699969D01*
X211498658Y-96634077D01*
X211591844Y-96540891D01*
X211657736Y-96426763D01*
X211691844Y-96299469D01*
X211691844Y-96167685D01*
X211657736Y-96040391D01*
X211657734Y-96040387D01*
X211645431Y-96019077D01*
X211628958Y-95951177D01*
X211651811Y-95885150D01*
X211706732Y-95841959D01*
X211752818Y-95833077D01*
X217092107Y-95833077D01*
X217108189Y-95837799D01*
G37*
%TD.AperFunction*%
%TA.AperFunction,Conductor*%
G36*
X218944308Y-96733314D02*
G01*
X218984836Y-96790228D01*
X218987305Y-96798227D01*
X218988757Y-96803565D01*
X219034137Y-96906341D01*
X219034138Y-96906342D01*
X219113579Y-96985783D01*
X219216353Y-97031162D01*
X219241479Y-97034077D01*
X219591208Y-97034076D01*
X219591223Y-97034074D01*
X219591226Y-97034074D01*
X219616331Y-97031163D01*
X219616331Y-97031162D01*
X219616335Y-97031162D01*
X219686259Y-97000287D01*
X219755534Y-96991216D01*
X219758505Y-96991719D01*
X219772976Y-96994347D01*
X219856353Y-97031162D01*
X219881479Y-97034077D01*
X219991680Y-97034076D01*
X220002672Y-97036073D01*
X220024312Y-97046937D01*
X220047548Y-97053760D01*
X220063489Y-97066606D01*
X220065114Y-97067422D01*
X220065672Y-97068365D01*
X220068191Y-97070395D01*
X220619692Y-97621896D01*
X220653177Y-97683219D01*
X220648193Y-97752911D01*
X220606321Y-97808844D01*
X220540857Y-97833261D01*
X220532020Y-97833577D01*
X220522022Y-97833577D01*
X220404715Y-97849019D01*
X220404710Y-97849021D01*
X220258758Y-97909476D01*
X220133418Y-98005653D01*
X220072866Y-98084565D01*
X220016437Y-98125767D01*
X219974492Y-98133077D01*
X219876487Y-98133077D01*
X219876462Y-98133079D01*
X219851355Y-98135991D01*
X219851352Y-98135992D01*
X219748579Y-98181370D01*
X219748578Y-98181371D01*
X219733192Y-98196758D01*
X219671869Y-98230243D01*
X219645511Y-98233077D01*
X219186782Y-98233077D01*
X219110355Y-98253556D01*
X219110353Y-98253557D01*
X219088676Y-98266072D01*
X219088675Y-98266071D01*
X219041839Y-98293112D01*
X219041831Y-98293118D01*
X218588192Y-98746758D01*
X218526869Y-98780243D01*
X218500511Y-98783077D01*
X218061026Y-98783077D01*
X217993987Y-98763392D01*
X217967798Y-98740836D01*
X217961432Y-98733577D01*
X217429645Y-98733577D01*
X217424568Y-98732086D01*
X217424568Y-98733077D01*
X217165344Y-98733077D01*
X217098305Y-98713392D01*
X217052550Y-98660588D01*
X217041344Y-98609077D01*
X217041344Y-98558076D01*
X217061029Y-98491037D01*
X217113833Y-98445282D01*
X217165342Y-98434076D01*
X217418476Y-98434076D01*
X217419473Y-98434076D01*
X217429633Y-98433577D01*
X217961432Y-98433577D01*
X217961432Y-98433576D01*
X217951543Y-98358473D01*
X217951542Y-98358468D01*
X217893607Y-98218598D01*
X217801436Y-98098480D01*
X217715558Y-98032582D01*
X217674355Y-97976154D01*
X217670201Y-97906408D01*
X217703362Y-97846528D01*
X218731804Y-96818088D01*
X218760269Y-96768784D01*
X218810836Y-96720569D01*
X218879443Y-96707346D01*
X218944308Y-96733314D01*
G37*
%TD.AperFunction*%
%TA.AperFunction,Conductor*%
G36*
X202297077Y-80253262D02*
G01*
X202316211Y-80268413D01*
X202328196Y-80279996D01*
X202344515Y-80300889D01*
X202344550Y-80300863D01*
X202347683Y-80304946D01*
X202349404Y-80307149D01*
X202349495Y-80307307D01*
X202349498Y-80307311D01*
X202349500Y-80307314D01*
X202442686Y-80400500D01*
X202556814Y-80466392D01*
X202684108Y-80500500D01*
X202684110Y-80500500D01*
X202697137Y-80500500D01*
X202701354Y-80501553D01*
X202762993Y-80500500D01*
X204392067Y-80500500D01*
X204459106Y-80520185D01*
X204504861Y-80572989D01*
X204516067Y-80624500D01*
X204516066Y-82221893D01*
X204496381Y-82288933D01*
X204471695Y-82316947D01*
X204279721Y-82477767D01*
X204279718Y-82477769D01*
X204279717Y-82477771D01*
X204257595Y-82502703D01*
X204107013Y-82672411D01*
X203964841Y-82890342D01*
X203964838Y-82890348D01*
X203856287Y-83126840D01*
X203783727Y-83376729D01*
X203783725Y-83376738D01*
X203748735Y-83634588D01*
X203751735Y-83868113D01*
X203752078Y-83894780D01*
X203757265Y-83926807D01*
X203793678Y-84151643D01*
X203872633Y-84399590D01*
X203872635Y-84399594D01*
X203987224Y-84633220D01*
X204134950Y-84847436D01*
X204312597Y-85037576D01*
X204516294Y-85199498D01*
X204741606Y-85329677D01*
X204741608Y-85329678D01*
X204767998Y-85340102D01*
X204983623Y-85425275D01*
X205237075Y-85484212D01*
X205496442Y-85505203D01*
X205670175Y-85493551D01*
X205756062Y-85487792D01*
X205756065Y-85487791D01*
X205756073Y-85487791D01*
X206010314Y-85432355D01*
X206253627Y-85340104D01*
X206480712Y-85213045D01*
X206686623Y-85053947D01*
X206866875Y-84866275D01*
X207017542Y-84654117D01*
X207135342Y-84422094D01*
X207217709Y-84175259D01*
X207262849Y-83918990D01*
X207269779Y-83658868D01*
X207269778Y-83658867D01*
X207269779Y-83658863D01*
X207238349Y-83400559D01*
X207232538Y-83379465D01*
X207169241Y-83149689D01*
X207169238Y-83149684D01*
X207169237Y-83149678D01*
X207063964Y-82911725D01*
X207055490Y-82898336D01*
X206987219Y-82790461D01*
X206924809Y-82691847D01*
X206921421Y-82687921D01*
X206754803Y-82494840D01*
X206702737Y-82449987D01*
X206557843Y-82325165D01*
X206519899Y-82266496D01*
X206514778Y-82232017D01*
X206504504Y-80624809D01*
X206523759Y-80557646D01*
X206576270Y-80511554D01*
X206628404Y-80500017D01*
X225875405Y-80485248D01*
X225942459Y-80504881D01*
X225988255Y-80557650D01*
X225999500Y-80609248D01*
X225999500Y-82229873D01*
X225979815Y-82296912D01*
X225955134Y-82324923D01*
X225763174Y-82485748D01*
X225590483Y-82680393D01*
X225590479Y-82680397D01*
X225448318Y-82898336D01*
X225339780Y-83134831D01*
X225267233Y-83384723D01*
X225267232Y-83384727D01*
X225255631Y-83470252D01*
X225232256Y-83642573D01*
X225232256Y-83642577D01*
X225232256Y-83642578D01*
X225235609Y-83902760D01*
X225235610Y-83902765D01*
X225277225Y-84159631D01*
X225356189Y-84407562D01*
X225470787Y-84641178D01*
X225470792Y-84641186D01*
X225618522Y-84855385D01*
X225628697Y-84866274D01*
X225796176Y-85045515D01*
X225999879Y-85207425D01*
X226225193Y-85337591D01*
X226467211Y-85433177D01*
X226720663Y-85492100D01*
X226720671Y-85492100D01*
X226720673Y-85492101D01*
X226850345Y-85502589D01*
X226980027Y-85513079D01*
X227239653Y-85495654D01*
X227469773Y-85445466D01*
X227493884Y-85440208D01*
X227493884Y-85440207D01*
X227493888Y-85440207D01*
X227737193Y-85347945D01*
X227964269Y-85220877D01*
X228170170Y-85061771D01*
X228350410Y-84874093D01*
X228490896Y-84676251D01*
X228501061Y-84661936D01*
X228501064Y-84661931D01*
X228618852Y-84429906D01*
X228701206Y-84183071D01*
X228746333Y-83926803D01*
X228753250Y-83666684D01*
X228733276Y-83502601D01*
X228721808Y-83408388D01*
X228721807Y-83408387D01*
X228721807Y-83408380D01*
X228652689Y-83157517D01*
X228547400Y-82919559D01*
X228515376Y-82868963D01*
X228408240Y-82699696D01*
X228408237Y-82699692D01*
X228408235Y-82699689D01*
X228398079Y-82687921D01*
X228238231Y-82502703D01*
X228238225Y-82502697D01*
X228177033Y-82449987D01*
X228043571Y-82335024D01*
X228005626Y-82276359D01*
X228000500Y-82241075D01*
X228000500Y-80618072D01*
X228020185Y-80551033D01*
X228072989Y-80505278D01*
X228125207Y-80494074D01*
X229243608Y-80500471D01*
X229305943Y-80501710D01*
X229309434Y-80500848D01*
X229313028Y-80500869D01*
X229372490Y-80485299D01*
X229374115Y-80484887D01*
X229433877Y-80470139D01*
X229433878Y-80470138D01*
X229433888Y-80470136D01*
X229433896Y-80470131D01*
X229434169Y-80470025D01*
X229434200Y-80470013D01*
X229437998Y-80468528D01*
X229439649Y-80467882D01*
X229440233Y-80467603D01*
X229440501Y-80467492D01*
X229440515Y-80467489D01*
X229494062Y-80436979D01*
X229495345Y-80436260D01*
X229549302Y-80406522D01*
X229549308Y-80406516D01*
X229549532Y-80406352D01*
X229549556Y-80406334D01*
X229552869Y-80403895D01*
X229552873Y-80403893D01*
X229554298Y-80402843D01*
X229554788Y-80402425D01*
X229555010Y-80402256D01*
X229555019Y-80402251D01*
X229598853Y-80358914D01*
X229599963Y-80357832D01*
X229693257Y-80268171D01*
X229755233Y-80235911D01*
X229779180Y-80233577D01*
X232445894Y-80233577D01*
X232512933Y-80253262D01*
X232558688Y-80306066D01*
X232568632Y-80375224D01*
X232539607Y-80438780D01*
X232533575Y-80445258D01*
X231420732Y-81558100D01*
X231420708Y-81558127D01*
X231401214Y-81581655D01*
X231401211Y-81581660D01*
X231342291Y-81704009D01*
X231342291Y-81704012D01*
X231322050Y-81838299D01*
X231332305Y-81906338D01*
X231342291Y-81972585D01*
X231342291Y-81972588D01*
X231401211Y-82094937D01*
X231401214Y-82094942D01*
X231413783Y-82110112D01*
X231420715Y-82118479D01*
X231420724Y-82118488D01*
X231420732Y-82118497D01*
X232345968Y-83043733D01*
X232345977Y-83043741D01*
X232345987Y-83043751D01*
X232354501Y-83050805D01*
X232369523Y-83063251D01*
X232369528Y-83063254D01*
X232463417Y-83108468D01*
X232491880Y-83122175D01*
X232626167Y-83142416D01*
X232760454Y-83122175D01*
X232882809Y-83063252D01*
X232906347Y-83043751D01*
X234043751Y-81906347D01*
X234063252Y-81882809D01*
X234122175Y-81760454D01*
X234142416Y-81626167D01*
X234122175Y-81491880D01*
X234122174Y-81491877D01*
X234063254Y-81369528D01*
X234063251Y-81369523D01*
X234053283Y-81357492D01*
X234043751Y-81345987D01*
X234043741Y-81345977D01*
X234043733Y-81345968D01*
X233143023Y-80445258D01*
X233109538Y-80383935D01*
X233114522Y-80314243D01*
X233156394Y-80258310D01*
X233221858Y-80233893D01*
X233230704Y-80233577D01*
X233783812Y-80233577D01*
X233850851Y-80253262D01*
X233869851Y-80268284D01*
X235653387Y-81986964D01*
X235688001Y-82047656D01*
X235691344Y-82076253D01*
X235691344Y-82718543D01*
X235671659Y-82785582D01*
X235618855Y-82831337D01*
X235549697Y-82841281D01*
X235486141Y-82812256D01*
X235464242Y-82787434D01*
X235422043Y-82724278D01*
X235275723Y-82577958D01*
X235189692Y-82520475D01*
X235103664Y-82462993D01*
X234912486Y-82383804D01*
X234912478Y-82383802D01*
X234709535Y-82343434D01*
X234709531Y-82343434D01*
X234502601Y-82343434D01*
X234502596Y-82343434D01*
X234299653Y-82383802D01*
X234299645Y-82383804D01*
X234108469Y-82462992D01*
X233936408Y-82577958D01*
X233936407Y-82577959D01*
X233577960Y-82936407D01*
X233577957Y-82936411D01*
X233462996Y-83108461D01*
X233462991Y-83108470D01*
X233383804Y-83299645D01*
X233383802Y-83299653D01*
X233343434Y-83502596D01*
X233343434Y-83709535D01*
X233383802Y-83912478D01*
X233383804Y-83912486D01*
X233462991Y-84103661D01*
X233462996Y-84103670D01*
X233577957Y-84275720D01*
X233577960Y-84275724D01*
X233724275Y-84422039D01*
X233724279Y-84422042D01*
X233896329Y-84537003D01*
X233896335Y-84537006D01*
X233896336Y-84537007D01*
X234087514Y-84616196D01*
X234278142Y-84654114D01*
X234290464Y-84656565D01*
X234290468Y-84656566D01*
X234425500Y-84656566D01*
X234492539Y-84676251D01*
X234538294Y-84729055D01*
X234549500Y-84780566D01*
X234549500Y-89999088D01*
X234529815Y-90066127D01*
X234513181Y-90086769D01*
X234303192Y-90296758D01*
X234241869Y-90330243D01*
X234215511Y-90333077D01*
X233570583Y-90333077D01*
X233502452Y-90343003D01*
X233397358Y-90394380D01*
X233314647Y-90477091D01*
X233263270Y-90582185D01*
X233253344Y-90650316D01*
X233253344Y-90893087D01*
X233233659Y-90960126D01*
X233180855Y-91005881D01*
X233111697Y-91015825D01*
X233094749Y-91012163D01*
X233006339Y-90986477D01*
X233006333Y-90986476D01*
X232969493Y-90983577D01*
X232566344Y-90983577D01*
X232566344Y-91533577D01*
X233551139Y-91533577D01*
X233551139Y-91533575D01*
X233550944Y-91531090D01*
X233539783Y-91492672D01*
X233539983Y-91422802D01*
X233577926Y-91364132D01*
X233641564Y-91335289D01*
X233658860Y-91334077D01*
X234812105Y-91334077D01*
X234834815Y-91330768D01*
X234880237Y-91324150D01*
X234985327Y-91272775D01*
X235068042Y-91190060D01*
X235119417Y-91084970D01*
X235129344Y-91016837D01*
X235129344Y-90650317D01*
X235128347Y-90643477D01*
X235119417Y-90582184D01*
X235075366Y-90492076D01*
X235073566Y-90481534D01*
X235067785Y-90472537D01*
X235067787Y-90447694D01*
X235063606Y-90423203D01*
X235067791Y-90411514D01*
X235067793Y-90402667D01*
X235078523Y-90381550D01*
X235082458Y-90370564D01*
X235088090Y-90361801D01*
X235090460Y-90359432D01*
X235096445Y-90349066D01*
X235130021Y-90290910D01*
X235150500Y-90214483D01*
X235150500Y-84386493D01*
X235170185Y-84319454D01*
X235186814Y-84298816D01*
X235422043Y-84063589D01*
X235464242Y-84000433D01*
X235517853Y-83955629D01*
X235587178Y-83946921D01*
X235650206Y-83977075D01*
X235686925Y-84036517D01*
X235691344Y-84069324D01*
X235691344Y-86296252D01*
X235683016Y-86324611D01*
X235677282Y-86353607D01*
X235672585Y-86360134D01*
X235671659Y-86363291D01*
X235656670Y-86382257D01*
X235651233Y-86387904D01*
X235649587Y-86389581D01*
X235607192Y-86431974D01*
X235605696Y-86434563D01*
X235604778Y-86436154D01*
X235603731Y-86437243D01*
X235594474Y-86454000D01*
X235544199Y-86541074D01*
X235541294Y-86546105D01*
X235507183Y-86673395D01*
X235507183Y-86673397D01*
X235506443Y-112839462D01*
X235506439Y-112994480D01*
X235505108Y-113054847D01*
X235506437Y-113060283D01*
X235506437Y-113065879D01*
X235521706Y-113122872D01*
X235522382Y-113125513D01*
X235536403Y-113182863D01*
X235538368Y-113187919D01*
X235538433Y-113188087D01*
X235538452Y-113188126D01*
X235540542Y-113193173D01*
X235570041Y-113244270D01*
X235571379Y-113246648D01*
X235599763Y-113298413D01*
X235602984Y-113302808D01*
X235603080Y-113302939D01*
X235603104Y-113302967D01*
X235606427Y-113307299D01*
X235606430Y-113307303D01*
X235648183Y-113349058D01*
X235650004Y-113350919D01*
X235656940Y-113358168D01*
X235689063Y-113420214D01*
X235691344Y-113443891D01*
X235691344Y-115656350D01*
X235671659Y-115723389D01*
X235618855Y-115769144D01*
X235549697Y-115779088D01*
X235486141Y-115750063D01*
X235479663Y-115744031D01*
X234836819Y-115101187D01*
X234803334Y-115039864D01*
X234800500Y-115013506D01*
X234800500Y-111927672D01*
X234792864Y-111899175D01*
X234780021Y-111851244D01*
X234770360Y-111834511D01*
X234740464Y-111782728D01*
X234740458Y-111782720D01*
X232478163Y-109520425D01*
X232444678Y-109459102D01*
X232441844Y-109432744D01*
X232441844Y-108787816D01*
X232434834Y-108739706D01*
X232431917Y-108719684D01*
X232380542Y-108614594D01*
X232380540Y-108614592D01*
X232380540Y-108614591D01*
X232297829Y-108531880D01*
X232192735Y-108480503D01*
X232124605Y-108470577D01*
X232124604Y-108470577D01*
X231881834Y-108470577D01*
X231814795Y-108450892D01*
X231769040Y-108398088D01*
X231759096Y-108328930D01*
X231762758Y-108311982D01*
X231788443Y-108223572D01*
X231788444Y-108223566D01*
X231791343Y-108186726D01*
X231791344Y-108186711D01*
X231791344Y-107783577D01*
X231241344Y-107783577D01*
X231241344Y-108768372D01*
X231241345Y-108768372D01*
X231243830Y-108768177D01*
X231282249Y-108757016D01*
X231352119Y-108757216D01*
X231410789Y-108795159D01*
X231439632Y-108858797D01*
X231440844Y-108876093D01*
X231440844Y-110029337D01*
X231450770Y-110097468D01*
X231502147Y-110202562D01*
X231584858Y-110285273D01*
X231584859Y-110285273D01*
X231584861Y-110285275D01*
X231689951Y-110336650D01*
X231724017Y-110341613D01*
X231758083Y-110346577D01*
X231758084Y-110346577D01*
X232124605Y-110346577D01*
X232158670Y-110341613D01*
X232192737Y-110336650D01*
X232282261Y-110292884D01*
X232351131Y-110281125D01*
X232415428Y-110308468D01*
X232424400Y-110316604D01*
X234163181Y-112055385D01*
X234196666Y-112116708D01*
X234199500Y-112143066D01*
X234199500Y-114811299D01*
X234179815Y-114878338D01*
X234142451Y-114915671D01*
X234137293Y-114918979D01*
X234113762Y-114938475D01*
X234113735Y-114938499D01*
X233188499Y-115863735D01*
X233188475Y-115863762D01*
X233168981Y-115887290D01*
X233168978Y-115887295D01*
X233110058Y-116009644D01*
X233110058Y-116009647D01*
X233089817Y-116143934D01*
X233108780Y-116269745D01*
X233110058Y-116278220D01*
X233110058Y-116278223D01*
X233168978Y-116400572D01*
X233168981Y-116400577D01*
X233181389Y-116415553D01*
X233188482Y-116424114D01*
X233188491Y-116424123D01*
X233188499Y-116424132D01*
X234325867Y-117561500D01*
X234325876Y-117561508D01*
X234325886Y-117561518D01*
X234337391Y-117571050D01*
X234349422Y-117581018D01*
X234349427Y-117581021D01*
X234443316Y-117626235D01*
X234471779Y-117639942D01*
X234606066Y-117660183D01*
X234740353Y-117639942D01*
X234812327Y-117605281D01*
X234862704Y-117581021D01*
X234862704Y-117581020D01*
X234862708Y-117581019D01*
X234886246Y-117561518D01*
X235479663Y-116968101D01*
X235540986Y-116934616D01*
X235610677Y-116939600D01*
X235666611Y-116981471D01*
X235691028Y-117046936D01*
X235691344Y-117055782D01*
X235691344Y-117577288D01*
X235671659Y-117644327D01*
X235656634Y-117663331D01*
X234180066Y-119195620D01*
X234119373Y-119230234D01*
X234090776Y-119233577D01*
X233477073Y-119233577D01*
X233410034Y-119213892D01*
X233364279Y-119161088D01*
X233354335Y-119091930D01*
X233383360Y-119028374D01*
X233408181Y-119006475D01*
X233507954Y-118939810D01*
X233654276Y-118793488D01*
X233769240Y-118621431D01*
X233848429Y-118430253D01*
X233888799Y-118227298D01*
X233888799Y-118020368D01*
X233848429Y-117817413D01*
X233769240Y-117626235D01*
X233654276Y-117454178D01*
X233654274Y-117454175D01*
X233654273Y-117454174D01*
X233295825Y-117095727D01*
X233295821Y-117095724D01*
X233123771Y-116980763D01*
X233123762Y-116980758D01*
X232932587Y-116901571D01*
X232932579Y-116901569D01*
X232729636Y-116861201D01*
X232729632Y-116861201D01*
X232522702Y-116861201D01*
X232522697Y-116861201D01*
X232319754Y-116901569D01*
X232319746Y-116901571D01*
X232128571Y-116980758D01*
X232128562Y-116980763D01*
X231956512Y-117095724D01*
X231956508Y-117095727D01*
X231810193Y-117242042D01*
X231810190Y-117242046D01*
X231695229Y-117414096D01*
X231695224Y-117414105D01*
X231616037Y-117605280D01*
X231616035Y-117605288D01*
X231575667Y-117808231D01*
X231575667Y-118015170D01*
X231616035Y-118218113D01*
X231616037Y-118218121D01*
X231695224Y-118409296D01*
X231695229Y-118409305D01*
X231810190Y-118581355D01*
X231810193Y-118581359D01*
X232168640Y-118939807D01*
X232168641Y-118939808D01*
X232168644Y-118939810D01*
X232268415Y-119006474D01*
X232313221Y-119060086D01*
X232321928Y-119129411D01*
X232291774Y-119192439D01*
X232232331Y-119229159D01*
X232199525Y-119233577D01*
X228124501Y-119233577D01*
X228057462Y-119213892D01*
X228011707Y-119161088D01*
X228000501Y-119109577D01*
X228000501Y-118793488D01*
X228000501Y-118527987D01*
X228020186Y-118460951D01*
X228044860Y-118432947D01*
X228236818Y-118272122D01*
X228409506Y-118077478D01*
X228551665Y-117859538D01*
X228660198Y-117623048D01*
X228732743Y-117373159D01*
X228767718Y-117115314D01*
X228764362Y-116855130D01*
X228722748Y-116598273D01*
X228643782Y-116350339D01*
X228529185Y-116116726D01*
X228486867Y-116055369D01*
X228430153Y-115973137D01*
X228381452Y-115902525D01*
X228203801Y-115712401D01*
X228184647Y-115697177D01*
X228000106Y-115550496D01*
X227881162Y-115481782D01*
X227774791Y-115420331D01*
X227774789Y-115420330D01*
X227774787Y-115420329D01*
X227532778Y-115324748D01*
X227532772Y-115324746D01*
X227320488Y-115275394D01*
X227279330Y-115265826D01*
X227279328Y-115265825D01*
X227279325Y-115265825D01*
X227019980Y-115244848D01*
X227019975Y-115244848D01*
X227019971Y-115244848D01*
X226760349Y-115262273D01*
X226760347Y-115262273D01*
X226760343Y-115262274D01*
X226506124Y-115317717D01*
X226262817Y-115409979D01*
X226262815Y-115409980D01*
X226035743Y-115537046D01*
X225829854Y-115696142D01*
X225829844Y-115696151D01*
X225649613Y-115883819D01*
X225498961Y-116095978D01*
X225381173Y-116328005D01*
X225298822Y-116574828D01*
X225271452Y-116730255D01*
X225253696Y-116831092D01*
X225253694Y-116831102D01*
X225246775Y-117091210D01*
X225278216Y-117349502D01*
X225278217Y-117349505D01*
X225347334Y-117600369D01*
X225452619Y-117838321D01*
X225452623Y-117838328D01*
X225554857Y-117999850D01*
X225591781Y-118058187D01*
X225761787Y-118255177D01*
X225801735Y-118289588D01*
X225956429Y-118422841D01*
X225994375Y-118481508D01*
X225999501Y-118516791D01*
X225999501Y-119109577D01*
X225979816Y-119176616D01*
X225927012Y-119222371D01*
X225875501Y-119233577D01*
X206624500Y-119233577D01*
X206557461Y-119213892D01*
X206511706Y-119161088D01*
X206500500Y-119109577D01*
X206500500Y-118939807D01*
X206500500Y-118528017D01*
X206520185Y-118460982D01*
X206544864Y-118432973D01*
X206736824Y-118272149D01*
X206909517Y-118077504D01*
X207051679Y-117859561D01*
X207160217Y-117623068D01*
X207232764Y-117373175D01*
X207251700Y-117233578D01*
X207604332Y-117233578D01*
X207611786Y-117290204D01*
X207611788Y-117290210D01*
X207672243Y-117436162D01*
X207768419Y-117561501D01*
X207893757Y-117657677D01*
X208039709Y-117718131D01*
X208039713Y-117718132D01*
X208126344Y-117729538D01*
X208126344Y-117233577D01*
X207604334Y-117233577D01*
X207604332Y-117233578D01*
X207251700Y-117233578D01*
X207267741Y-117115326D01*
X207264387Y-116855138D01*
X207260894Y-116833577D01*
X207604331Y-116833577D01*
X208126344Y-116833577D01*
X208126344Y-116337615D01*
X208039713Y-116349021D01*
X208039709Y-116349022D01*
X207893757Y-116409476D01*
X207768419Y-116505652D01*
X207672243Y-116630990D01*
X207611788Y-116776945D01*
X207604331Y-116833577D01*
X207260894Y-116833577D01*
X207222773Y-116598276D01*
X207222771Y-116598271D01*
X207222771Y-116598268D01*
X207143807Y-116350337D01*
X207029210Y-116116723D01*
X207029206Y-116116717D01*
X207017279Y-116099424D01*
X206881475Y-115902516D01*
X206703822Y-115712387D01*
X206500120Y-115550477D01*
X206500002Y-115550409D01*
X206274806Y-115420312D01*
X206274804Y-115420311D01*
X206035538Y-115325812D01*
X206032792Y-115324727D01*
X206024353Y-115322765D01*
X205779337Y-115265802D01*
X205779332Y-115265801D01*
X205779331Y-115265801D01*
X205583988Y-115250001D01*
X207512988Y-115250001D01*
X207520442Y-115306627D01*
X207520444Y-115306633D01*
X207580899Y-115452585D01*
X207677075Y-115577924D01*
X207802413Y-115674100D01*
X207948365Y-115734554D01*
X207948369Y-115734555D01*
X208035000Y-115745961D01*
X208035000Y-115250000D01*
X207512990Y-115250000D01*
X207512988Y-115250001D01*
X205583988Y-115250001D01*
X205519982Y-115244824D01*
X205519977Y-115244824D01*
X205519973Y-115244824D01*
X205413281Y-115251984D01*
X205260349Y-115262248D01*
X205260341Y-115262250D01*
X205006116Y-115317694D01*
X204820236Y-115388181D01*
X204762808Y-115409958D01*
X204762806Y-115409958D01*
X204762806Y-115409959D01*
X204535734Y-115537023D01*
X204329831Y-115696132D01*
X204329827Y-115696135D01*
X204149594Y-115883805D01*
X203998939Y-116095968D01*
X203998938Y-116095970D01*
X203910722Y-116269745D01*
X203881149Y-116327999D01*
X203798796Y-116574832D01*
X203798795Y-116574833D01*
X203753670Y-116831092D01*
X203746752Y-117091216D01*
X203778193Y-117349508D01*
X203778195Y-117349521D01*
X203847312Y-117600376D01*
X203847313Y-117600378D01*
X203847314Y-117600381D01*
X203886709Y-117689417D01*
X203952601Y-117838338D01*
X204091768Y-118058210D01*
X204091769Y-118058212D01*
X204204164Y-118188444D01*
X204261756Y-118255177D01*
X204261779Y-118255203D01*
X204281452Y-118272149D01*
X204456428Y-118422870D01*
X204494374Y-118481536D01*
X204499500Y-118516820D01*
X204499500Y-119109577D01*
X204479815Y-119176616D01*
X204427011Y-119222371D01*
X204375500Y-119233577D01*
X200069185Y-119233577D01*
X200002146Y-119213892D01*
X199956391Y-119161088D01*
X199946447Y-119091930D01*
X199975472Y-119028374D01*
X199981504Y-119021896D01*
X201003531Y-117999868D01*
X201003549Y-117999850D01*
X201023050Y-117976312D01*
X201024959Y-117972349D01*
X201081972Y-117853959D01*
X201081973Y-117853957D01*
X201102214Y-117719670D01*
X201081973Y-117585383D01*
X201081972Y-117585380D01*
X201023052Y-117463031D01*
X201023049Y-117463026D01*
X201007384Y-117444119D01*
X201003549Y-117439490D01*
X201003539Y-117439480D01*
X201003531Y-117439471D01*
X200078295Y-116514235D01*
X200078286Y-116514227D01*
X200078277Y-116514218D01*
X200061116Y-116500000D01*
X200054740Y-116494717D01*
X200054735Y-116494714D01*
X199932385Y-116435794D01*
X199798097Y-116415553D01*
X199663810Y-116435794D01*
X199663807Y-116435794D01*
X199541458Y-116494714D01*
X199541453Y-116494717D01*
X199517925Y-116514211D01*
X199517898Y-116514235D01*
X198380530Y-117651603D01*
X198380506Y-117651630D01*
X198361012Y-117675158D01*
X198361009Y-117675163D01*
X198302089Y-117797512D01*
X198302089Y-117797515D01*
X198281848Y-117931802D01*
X198300901Y-118058210D01*
X198302089Y-118066088D01*
X198302089Y-118066091D01*
X198361009Y-118188440D01*
X198361012Y-118188445D01*
X198373581Y-118203615D01*
X198380513Y-118211982D01*
X198380522Y-118211991D01*
X198380530Y-118212000D01*
X199190426Y-119021896D01*
X199223911Y-119083219D01*
X199218927Y-119152911D01*
X199177055Y-119208844D01*
X199111591Y-119233261D01*
X199102745Y-119233577D01*
X198721254Y-119233577D01*
X198654215Y-119213892D01*
X198635211Y-119198867D01*
X198631841Y-119195620D01*
X197994397Y-118581355D01*
X196529301Y-117169534D01*
X196494687Y-117108841D01*
X196491344Y-117080244D01*
X196491344Y-116060565D01*
X196767698Y-116060565D01*
X196767698Y-116267504D01*
X196808066Y-116470447D01*
X196808068Y-116470455D01*
X196887255Y-116661630D01*
X196887260Y-116661639D01*
X197002221Y-116833689D01*
X197002224Y-116833693D01*
X197148539Y-116980008D01*
X197148543Y-116980011D01*
X197320593Y-117094972D01*
X197320602Y-117094977D01*
X197322408Y-117095725D01*
X197511778Y-117174165D01*
X197659598Y-117203568D01*
X197714728Y-117214534D01*
X197714732Y-117214535D01*
X197714733Y-117214535D01*
X197921664Y-117214535D01*
X197921665Y-117214534D01*
X198124618Y-117174165D01*
X198315796Y-117094976D01*
X198487853Y-116980011D01*
X198846307Y-116621558D01*
X198961271Y-116449501D01*
X199040460Y-116258323D01*
X199080830Y-116055368D01*
X199080830Y-115848438D01*
X199050535Y-115696132D01*
X199048622Y-115686516D01*
X199054849Y-115616925D01*
X199082553Y-115574649D01*
X199490460Y-115166744D01*
X199492417Y-115163353D01*
X199492860Y-115162588D01*
X199499724Y-115150698D01*
X199530021Y-115098222D01*
X199550500Y-115021795D01*
X199550500Y-114850000D01*
X207512987Y-114850000D01*
X208035000Y-114850000D01*
X208035000Y-114354038D01*
X207948369Y-114365444D01*
X207948365Y-114365445D01*
X207802413Y-114425899D01*
X207677075Y-114522075D01*
X207580899Y-114647413D01*
X207520444Y-114793368D01*
X207512987Y-114850000D01*
X199550500Y-114850000D01*
X199550500Y-112667997D01*
X199570185Y-112600958D01*
X199602450Y-112567077D01*
X199606477Y-112564200D01*
X199606483Y-112564198D01*
X199689198Y-112481483D01*
X199740573Y-112376393D01*
X199750500Y-112308260D01*
X199750500Y-111066740D01*
X199747638Y-111047100D01*
X199742789Y-111013817D01*
X199740573Y-110998607D01*
X199689198Y-110893517D01*
X199689196Y-110893515D01*
X199689196Y-110893514D01*
X199606485Y-110810803D01*
X199501391Y-110759426D01*
X199433261Y-110749500D01*
X199433260Y-110749500D01*
X199190490Y-110749500D01*
X199123451Y-110729815D01*
X199077696Y-110677011D01*
X199067752Y-110607853D01*
X199071414Y-110590905D01*
X199097099Y-110502495D01*
X199097100Y-110502489D01*
X199099999Y-110465649D01*
X199100000Y-110465634D01*
X199100000Y-110062500D01*
X198550000Y-110062500D01*
X198550000Y-111047295D01*
X198550001Y-111047295D01*
X198552486Y-111047100D01*
X198590905Y-111035939D01*
X198660775Y-111036139D01*
X198719445Y-111074082D01*
X198748288Y-111137720D01*
X198749500Y-111155016D01*
X198749500Y-112308260D01*
X198759426Y-112376391D01*
X198810803Y-112481485D01*
X198893512Y-112564194D01*
X198893515Y-112564196D01*
X198893517Y-112564198D01*
X198893518Y-112564198D01*
X198897550Y-112567077D01*
X198940674Y-112622051D01*
X198949500Y-112667997D01*
X198949500Y-114806399D01*
X198940855Y-114835839D01*
X198934332Y-114865826D01*
X198930577Y-114870841D01*
X198929815Y-114873438D01*
X198913181Y-114894081D01*
X198754768Y-115052493D01*
X198693445Y-115085977D01*
X198623753Y-115080993D01*
X198598199Y-115067915D01*
X198527928Y-115020962D01*
X198466566Y-114995545D01*
X198336750Y-114941773D01*
X198336742Y-114941771D01*
X198133799Y-114901403D01*
X198133795Y-114901403D01*
X197926865Y-114901403D01*
X197926860Y-114901403D01*
X197723917Y-114941771D01*
X197723909Y-114941773D01*
X197532733Y-115020961D01*
X197360672Y-115135927D01*
X197360671Y-115135928D01*
X197002224Y-115494376D01*
X197002221Y-115494380D01*
X196887260Y-115666430D01*
X196887255Y-115666439D01*
X196808068Y-115857614D01*
X196808066Y-115857622D01*
X196767698Y-116060565D01*
X196491344Y-116060565D01*
X196491344Y-113116009D01*
X196495504Y-113084161D01*
X196500635Y-113064852D01*
X196500899Y-113062815D01*
X196500902Y-113062789D01*
X196501314Y-113059611D01*
X196501315Y-113059608D01*
X196501400Y-113058947D01*
X196501429Y-113058431D01*
X196501655Y-113056407D01*
X196501658Y-113056398D01*
X196500506Y-112995668D01*
X196500487Y-112993770D01*
X196495210Y-110465649D01*
X197500000Y-110465649D01*
X197502899Y-110502489D01*
X197502900Y-110502495D01*
X197548716Y-110660193D01*
X197548717Y-110660196D01*
X197632314Y-110801552D01*
X197632321Y-110801561D01*
X197748438Y-110917678D01*
X197748447Y-110917685D01*
X197889801Y-111001281D01*
X198047514Y-111047100D01*
X198047511Y-111047100D01*
X198049998Y-111047295D01*
X198050000Y-111047295D01*
X198050000Y-110062500D01*
X197500000Y-110062500D01*
X197500000Y-110465649D01*
X196495210Y-110465649D01*
X196491344Y-108613296D01*
X196491344Y-108187500D01*
X198262987Y-108187500D01*
X198785000Y-108187500D01*
X198785000Y-107691538D01*
X198698369Y-107702944D01*
X198698365Y-107702945D01*
X198552413Y-107763399D01*
X198427075Y-107859575D01*
X198330899Y-107984913D01*
X198270444Y-108130868D01*
X198262987Y-108187500D01*
X196491344Y-108187500D01*
X196491344Y-106077909D01*
X196511029Y-106010870D01*
X196563833Y-105965115D01*
X196632991Y-105955171D01*
X196696547Y-105984196D01*
X196703025Y-105990228D01*
X197330885Y-106618088D01*
X197386834Y-106674037D01*
X197386836Y-106674038D01*
X197386840Y-106674041D01*
X197455349Y-106713594D01*
X197455356Y-106713598D01*
X197531783Y-106734077D01*
X198545511Y-106734077D01*
X198612550Y-106753762D01*
X198633192Y-106770396D01*
X198648579Y-106785783D01*
X198751353Y-106831162D01*
X198776479Y-106834077D01*
X198874492Y-106834076D01*
X198941529Y-106853760D01*
X198972866Y-106882589D01*
X199033417Y-106961499D01*
X199158757Y-107057677D01*
X199304709Y-107118131D01*
X199304713Y-107118132D01*
X199391344Y-107129538D01*
X199391344Y-107129536D01*
X199791344Y-107129536D01*
X199791345Y-107129537D01*
X199877971Y-107118134D01*
X199877977Y-107118132D01*
X200023929Y-107057677D01*
X200149268Y-106961501D01*
X200245444Y-106836163D01*
X200305899Y-106690208D01*
X200313356Y-106633577D01*
X199791344Y-106633577D01*
X199791344Y-107129536D01*
X199391344Y-107129536D01*
X199391344Y-106233577D01*
X199791344Y-106233577D01*
X200313354Y-106233577D01*
X200313355Y-106233575D01*
X200305901Y-106176949D01*
X200305899Y-106176943D01*
X200245444Y-106030991D01*
X200149268Y-105905652D01*
X200023930Y-105809476D01*
X199877975Y-105749021D01*
X199791344Y-105737615D01*
X199791344Y-106233577D01*
X199391344Y-106233577D01*
X199391344Y-105737615D01*
X199304713Y-105749021D01*
X199304709Y-105749022D01*
X199158757Y-105809476D01*
X199033418Y-105905653D01*
X198972866Y-105984565D01*
X198916437Y-106025767D01*
X198874492Y-106033077D01*
X198776487Y-106033077D01*
X198776462Y-106033079D01*
X198751355Y-106035991D01*
X198751352Y-106035992D01*
X198648579Y-106081370D01*
X198648578Y-106081371D01*
X198633192Y-106096758D01*
X198571869Y-106130243D01*
X198545511Y-106133077D01*
X197747178Y-106133077D01*
X197680139Y-106113392D01*
X197659497Y-106096758D01*
X197108163Y-105545424D01*
X197093459Y-105518496D01*
X197076867Y-105492678D01*
X197075975Y-105486477D01*
X197074678Y-105484101D01*
X197071844Y-105457743D01*
X197071844Y-105364410D01*
X197091529Y-105297371D01*
X197108163Y-105276729D01*
X197114497Y-105270395D01*
X197136571Y-105258341D01*
X197144333Y-105251616D01*
X197150516Y-105250726D01*
X197175820Y-105236910D01*
X197202178Y-105234076D01*
X197301200Y-105234076D01*
X197301208Y-105234076D01*
X197301223Y-105234074D01*
X197301226Y-105234074D01*
X197326331Y-105231163D01*
X197326331Y-105231162D01*
X197326335Y-105231162D01*
X197396259Y-105200287D01*
X197465534Y-105191216D01*
X197496429Y-105200287D01*
X197566353Y-105231162D01*
X197591479Y-105234077D01*
X197816779Y-105234076D01*
X197816791Y-105234077D01*
X197826782Y-105234077D01*
X199732668Y-105234077D01*
X199799707Y-105253762D01*
X199820348Y-105270395D01*
X199884030Y-105334077D01*
X199998158Y-105399969D01*
X200125452Y-105434077D01*
X200125454Y-105434077D01*
X200257234Y-105434077D01*
X200257236Y-105434077D01*
X200384530Y-105399969D01*
X200498658Y-105334077D01*
X200591844Y-105240891D01*
X200657736Y-105126763D01*
X200691844Y-104999469D01*
X200691844Y-104867685D01*
X200657736Y-104740391D01*
X200591844Y-104626263D01*
X200498658Y-104533077D01*
X200409101Y-104481371D01*
X200384531Y-104467185D01*
X200368365Y-104462853D01*
X200347064Y-104457146D01*
X200287405Y-104420782D01*
X200256876Y-104357935D01*
X200264598Y-104289919D01*
X200305900Y-104190207D01*
X200313356Y-104133577D01*
X199715344Y-104133577D01*
X199706658Y-104131026D01*
X199697697Y-104132315D01*
X199673656Y-104121336D01*
X199648305Y-104113892D01*
X199642377Y-104107051D01*
X199634141Y-104103290D01*
X199619851Y-104081055D01*
X199602550Y-104061088D01*
X199600262Y-104050573D01*
X199596367Y-104044512D01*
X199591344Y-104009577D01*
X199591344Y-103857577D01*
X199611029Y-103790538D01*
X199663833Y-103744783D01*
X199715344Y-103733577D01*
X200313354Y-103733577D01*
X200313355Y-103733575D01*
X200305901Y-103676949D01*
X200305899Y-103676943D01*
X200245444Y-103530991D01*
X200149268Y-103405652D01*
X200023930Y-103309476D01*
X199934993Y-103272638D01*
X199880589Y-103228797D01*
X199858524Y-103162503D01*
X199875803Y-103094804D01*
X199926940Y-103047193D01*
X199982445Y-103034077D01*
X203800678Y-103034077D01*
X203867717Y-103053762D01*
X203913472Y-103106566D01*
X203923416Y-103175724D01*
X203922295Y-103182268D01*
X203900844Y-103290108D01*
X203900844Y-103497046D01*
X203941212Y-103699989D01*
X203941214Y-103699997D01*
X204007283Y-103859502D01*
X204020403Y-103891175D01*
X204022008Y-103893577D01*
X204135368Y-104063234D01*
X204260900Y-104188766D01*
X204294385Y-104250089D01*
X204289401Y-104319781D01*
X204260900Y-104364128D01*
X200267180Y-108357848D01*
X200205857Y-108391333D01*
X200136165Y-108386349D01*
X200080232Y-108344477D01*
X200055815Y-108279013D01*
X200055499Y-108270167D01*
X200055499Y-108242643D01*
X200055499Y-108242636D01*
X200055497Y-108242617D01*
X200052586Y-108217512D01*
X200052585Y-108217510D01*
X200052585Y-108217509D01*
X200007206Y-108114735D01*
X199927765Y-108035294D01*
X199824992Y-107989915D01*
X199799868Y-107987000D01*
X199701852Y-107987000D01*
X199634813Y-107967315D01*
X199603477Y-107938487D01*
X199542926Y-107859577D01*
X199417586Y-107763399D01*
X199271631Y-107702944D01*
X199185000Y-107691538D01*
X199185000Y-108263500D01*
X199165315Y-108330539D01*
X199112511Y-108376294D01*
X199061000Y-108387500D01*
X198985000Y-108387500D01*
X198985000Y-108463500D01*
X198965315Y-108530539D01*
X198912511Y-108576294D01*
X198861000Y-108587500D01*
X198188862Y-108587500D01*
X198160501Y-108579172D01*
X198139410Y-108575000D01*
X198084350Y-108575000D01*
X198047510Y-108577899D01*
X198047504Y-108577900D01*
X197889806Y-108623716D01*
X197889803Y-108623717D01*
X197748447Y-108707314D01*
X197748438Y-108707321D01*
X197632321Y-108823438D01*
X197632314Y-108823447D01*
X197548717Y-108964803D01*
X197548716Y-108964806D01*
X197502900Y-109122504D01*
X197502899Y-109122510D01*
X197500000Y-109159350D01*
X197500000Y-109562500D01*
X199100000Y-109562500D01*
X199100000Y-109203396D01*
X199119685Y-109136357D01*
X199172489Y-109090602D01*
X199207817Y-109080457D01*
X199271627Y-109072057D01*
X199271633Y-109072055D01*
X199417587Y-109011600D01*
X199417589Y-109011598D01*
X199549374Y-108910477D01*
X199550288Y-108911668D01*
X199603658Y-108882520D01*
X199673350Y-108887498D01*
X199729288Y-108929364D01*
X199753711Y-108994826D01*
X199741429Y-109058143D01*
X199709426Y-109123606D01*
X199709426Y-109123607D01*
X199699500Y-109191739D01*
X199699500Y-110433260D01*
X199709426Y-110501391D01*
X199760803Y-110606485D01*
X199843514Y-110689196D01*
X199843515Y-110689196D01*
X199843517Y-110689198D01*
X199948607Y-110740573D01*
X199982673Y-110745536D01*
X200016739Y-110750500D01*
X200016740Y-110750500D01*
X200383261Y-110750500D01*
X200405971Y-110747191D01*
X200451393Y-110740573D01*
X200556483Y-110689198D01*
X200639198Y-110606483D01*
X200690573Y-110501393D01*
X200700500Y-110433260D01*
X200700500Y-109191740D01*
X200690573Y-109123607D01*
X200639198Y-109018517D01*
X200639197Y-109018516D01*
X200639197Y-109018515D01*
X200635510Y-109014829D01*
X200602022Y-108953508D01*
X200607003Y-108883816D01*
X200635504Y-108839465D01*
X203689163Y-105785807D01*
X203750486Y-105752322D01*
X203820178Y-105757306D01*
X203876111Y-105799178D01*
X203900528Y-105864642D01*
X203900844Y-105873488D01*
X203900844Y-106037046D01*
X203939937Y-106233577D01*
X203941214Y-106239997D01*
X204020403Y-106431175D01*
X204023756Y-106436193D01*
X204135368Y-106603234D01*
X204281686Y-106749552D01*
X204281689Y-106749554D01*
X204453746Y-106864518D01*
X204644924Y-106943707D01*
X204792890Y-106973139D01*
X204847874Y-106984076D01*
X204847878Y-106984077D01*
X204847879Y-106984077D01*
X205054810Y-106984077D01*
X205054811Y-106984076D01*
X205257764Y-106943707D01*
X205448942Y-106864518D01*
X205620999Y-106749554D01*
X205767321Y-106603232D01*
X205882285Y-106431175D01*
X205961474Y-106239997D01*
X206001844Y-106037042D01*
X206001844Y-105830112D01*
X206001843Y-105830107D01*
X206440844Y-105830107D01*
X206440844Y-106037046D01*
X206479937Y-106233577D01*
X206481214Y-106239997D01*
X206560403Y-106431175D01*
X206563756Y-106436193D01*
X206675368Y-106603234D01*
X206821686Y-106749552D01*
X206821689Y-106749554D01*
X206993746Y-106864518D01*
X207184924Y-106943707D01*
X207332890Y-106973139D01*
X207387874Y-106984076D01*
X207387878Y-106984077D01*
X207387879Y-106984077D01*
X207594810Y-106984077D01*
X207594811Y-106984076D01*
X207797764Y-106943707D01*
X207988942Y-106864518D01*
X208160999Y-106749554D01*
X208307321Y-106603232D01*
X208422285Y-106431175D01*
X208501474Y-106239997D01*
X208541844Y-106037042D01*
X208541844Y-105830112D01*
X208501474Y-105627157D01*
X208422285Y-105435979D01*
X208307321Y-105263922D01*
X208307319Y-105263919D01*
X208161001Y-105117601D01*
X207991082Y-105004066D01*
X207988942Y-105002636D01*
X207988937Y-105002634D01*
X207797764Y-104923447D01*
X207797756Y-104923445D01*
X207594813Y-104883077D01*
X207594809Y-104883077D01*
X207387879Y-104883077D01*
X207387874Y-104883077D01*
X207184931Y-104923445D01*
X207184923Y-104923447D01*
X206993747Y-105002635D01*
X206821686Y-105117601D01*
X206675368Y-105263919D01*
X206560402Y-105435980D01*
X206481214Y-105627156D01*
X206481212Y-105627164D01*
X206440844Y-105830107D01*
X206001843Y-105830107D01*
X205961474Y-105627157D01*
X205882285Y-105435979D01*
X205767321Y-105263922D01*
X205767319Y-105263919D01*
X205621001Y-105117601D01*
X205553633Y-105072588D01*
X205553021Y-105072178D01*
X205508217Y-105018568D01*
X205499509Y-104949243D01*
X205529663Y-104886215D01*
X205589105Y-104849496D01*
X205621912Y-104845077D01*
X206379904Y-104845077D01*
X206379906Y-104845077D01*
X206456333Y-104824598D01*
X206524855Y-104785037D01*
X206580804Y-104729088D01*
X206929240Y-104380650D01*
X206990561Y-104347167D01*
X207060252Y-104352151D01*
X207064342Y-104353760D01*
X207184924Y-104403707D01*
X207387874Y-104444076D01*
X207387878Y-104444077D01*
X207387879Y-104444077D01*
X207594810Y-104444077D01*
X207594811Y-104444076D01*
X207797764Y-104403707D01*
X207988942Y-104324518D01*
X208160999Y-104209554D01*
X208307321Y-104063232D01*
X208422285Y-103891175D01*
X208501474Y-103699997D01*
X208541844Y-103497042D01*
X208541844Y-103290112D01*
X208501474Y-103087157D01*
X208422285Y-102895979D01*
X208307321Y-102723922D01*
X208307319Y-102723919D01*
X208161001Y-102577601D01*
X208016981Y-102481371D01*
X207988942Y-102462636D01*
X207973003Y-102456034D01*
X207797764Y-102383447D01*
X207797756Y-102383445D01*
X207594813Y-102343077D01*
X207594809Y-102343077D01*
X207387879Y-102343077D01*
X207387874Y-102343077D01*
X207184931Y-102383445D01*
X207184923Y-102383447D01*
X206993747Y-102462635D01*
X206821686Y-102577601D01*
X206675368Y-102723919D01*
X206560402Y-102895980D01*
X206481214Y-103087156D01*
X206481212Y-103087164D01*
X206440844Y-103290107D01*
X206440844Y-103497046D01*
X206481212Y-103699989D01*
X206481215Y-103700001D01*
X206531147Y-103820548D01*
X206538616Y-103890017D01*
X206507341Y-103952496D01*
X206504268Y-103955681D01*
X206252190Y-104207759D01*
X206190870Y-104241243D01*
X206164511Y-104244077D01*
X205878472Y-104244077D01*
X205811433Y-104224392D01*
X205765678Y-104171588D01*
X205755734Y-104102430D01*
X205775370Y-104051187D01*
X205882284Y-103891177D01*
X205882284Y-103891176D01*
X205882285Y-103891175D01*
X205961474Y-103699997D01*
X206001844Y-103497042D01*
X206001844Y-103290112D01*
X205961474Y-103087157D01*
X205882285Y-102895979D01*
X205767321Y-102723922D01*
X205767319Y-102723919D01*
X205621001Y-102577601D01*
X205476981Y-102481371D01*
X205448942Y-102462636D01*
X205433003Y-102456034D01*
X205257764Y-102383447D01*
X205257756Y-102383445D01*
X205054813Y-102343077D01*
X205054809Y-102343077D01*
X204847879Y-102343077D01*
X204847874Y-102343077D01*
X204644931Y-102383445D01*
X204644919Y-102383448D01*
X204487713Y-102448565D01*
X204418244Y-102456034D01*
X204408168Y-102453779D01*
X204330906Y-102433077D01*
X200365880Y-102433077D01*
X200298841Y-102413392D01*
X200253086Y-102360588D01*
X200243142Y-102291430D01*
X200251319Y-102261625D01*
X200280899Y-102190208D01*
X200288356Y-102133577D01*
X199690344Y-102133577D01*
X199681658Y-102131026D01*
X199672697Y-102132315D01*
X199648656Y-102121336D01*
X199623305Y-102113892D01*
X199617377Y-102107051D01*
X199609141Y-102103290D01*
X199594851Y-102081055D01*
X199577550Y-102061088D01*
X199575262Y-102050573D01*
X199571367Y-102044512D01*
X199566344Y-102009577D01*
X199566344Y-101857577D01*
X199586029Y-101790538D01*
X199638833Y-101744783D01*
X199690344Y-101733577D01*
X200288354Y-101733577D01*
X200288355Y-101733575D01*
X200280901Y-101676949D01*
X200280899Y-101676943D01*
X200220444Y-101530991D01*
X200124268Y-101405652D01*
X200086215Y-101376453D01*
X200045013Y-101320025D01*
X200040858Y-101250279D01*
X200075071Y-101189358D01*
X200136788Y-101156606D01*
X200161702Y-101154077D01*
X203855908Y-101154077D01*
X203922947Y-101173762D01*
X203968702Y-101226566D01*
X203970465Y-101230616D01*
X204020403Y-101351175D01*
X204027902Y-101362398D01*
X204135368Y-101523234D01*
X204281686Y-101669552D01*
X204281689Y-101669554D01*
X204453746Y-101784518D01*
X204644924Y-101863707D01*
X204810199Y-101896582D01*
X204847874Y-101904076D01*
X204847878Y-101904077D01*
X204847879Y-101904077D01*
X205054810Y-101904077D01*
X205054811Y-101904076D01*
X205257764Y-101863707D01*
X205448942Y-101784518D01*
X205620999Y-101669554D01*
X205767321Y-101523232D01*
X205882285Y-101351175D01*
X205961474Y-101159997D01*
X206001844Y-100957042D01*
X206001844Y-100750112D01*
X206001843Y-100750107D01*
X206440844Y-100750107D01*
X206440844Y-100957046D01*
X206481212Y-101159989D01*
X206481214Y-101159997D01*
X206533316Y-101285783D01*
X206560403Y-101351175D01*
X206567902Y-101362398D01*
X206675368Y-101523234D01*
X206821686Y-101669552D01*
X206821689Y-101669554D01*
X206993746Y-101784518D01*
X207184924Y-101863707D01*
X207350199Y-101896582D01*
X207387874Y-101904076D01*
X207387878Y-101904077D01*
X207387879Y-101904077D01*
X207594810Y-101904077D01*
X207594811Y-101904076D01*
X207797764Y-101863707D01*
X207988942Y-101784518D01*
X208158425Y-101671274D01*
X213191344Y-101671274D01*
X213206144Y-101783681D01*
X213206145Y-101783685D01*
X213264080Y-101923555D01*
X213356249Y-102043671D01*
X213476365Y-102135840D01*
X213616240Y-102193777D01*
X213616245Y-102193778D01*
X213691342Y-102203664D01*
X213691344Y-102203663D01*
X213691344Y-101433577D01*
X213191344Y-101433577D01*
X213191344Y-101671274D01*
X208158425Y-101671274D01*
X208160999Y-101669554D01*
X208307321Y-101523232D01*
X208422285Y-101351175D01*
X208501474Y-101159997D01*
X208541844Y-100957042D01*
X208541844Y-100750112D01*
X208501474Y-100547157D01*
X208422285Y-100355979D01*
X208307321Y-100183922D01*
X208307319Y-100183919D01*
X208161001Y-100037601D01*
X207993960Y-99925989D01*
X207988942Y-99922636D01*
X207936906Y-99901082D01*
X207797764Y-99843447D01*
X207797756Y-99843445D01*
X207594813Y-99803077D01*
X207594809Y-99803077D01*
X207387879Y-99803077D01*
X207387874Y-99803077D01*
X207184931Y-99843445D01*
X207184923Y-99843447D01*
X206993747Y-99922635D01*
X206821686Y-100037601D01*
X206675368Y-100183919D01*
X206560402Y-100355980D01*
X206481214Y-100547156D01*
X206481212Y-100547164D01*
X206440844Y-100750107D01*
X206001843Y-100750107D01*
X205961474Y-100547157D01*
X205882285Y-100355979D01*
X205767321Y-100183922D01*
X205767319Y-100183919D01*
X205621001Y-100037601D01*
X205453960Y-99925989D01*
X205448942Y-99922636D01*
X205396906Y-99901082D01*
X205257764Y-99843447D01*
X205257756Y-99843445D01*
X205054813Y-99803077D01*
X205054809Y-99803077D01*
X204847879Y-99803077D01*
X204847874Y-99803077D01*
X204644931Y-99843445D01*
X204644923Y-99843447D01*
X204453747Y-99922635D01*
X204281686Y-100037601D01*
X204135368Y-100183919D01*
X204020402Y-100355980D01*
X203988468Y-100433077D01*
X203970715Y-100475937D01*
X203970469Y-100476530D01*
X203926628Y-100530933D01*
X203860334Y-100552998D01*
X203855908Y-100553077D01*
X198217177Y-100553077D01*
X198150138Y-100533392D01*
X198129496Y-100516758D01*
X198094109Y-100481371D01*
X197991336Y-100435992D01*
X197966209Y-100433077D01*
X197616487Y-100433077D01*
X197616461Y-100433079D01*
X197591356Y-100435990D01*
X197591355Y-100435991D01*
X197521429Y-100466866D01*
X197452151Y-100475937D01*
X197421258Y-100466866D01*
X197351335Y-100435992D01*
X197326209Y-100433077D01*
X196976487Y-100433077D01*
X196976461Y-100433079D01*
X196951356Y-100435990D01*
X196951352Y-100435992D01*
X196848579Y-100481370D01*
X196769138Y-100560811D01*
X196728778Y-100652218D01*
X196683692Y-100705594D01*
X196616906Y-100726121D01*
X196549624Y-100707282D01*
X196503207Y-100655059D01*
X196491344Y-100602131D01*
X196491344Y-99165021D01*
X196511029Y-99097982D01*
X196563833Y-99052227D01*
X196632991Y-99042283D01*
X196696547Y-99071308D01*
X196728776Y-99114931D01*
X196769138Y-99206342D01*
X196848579Y-99285783D01*
X196918920Y-99316841D01*
X196959886Y-99334930D01*
X196958633Y-99337765D01*
X197004669Y-99366070D01*
X197019399Y-99386325D01*
X197019883Y-99386956D01*
X197019884Y-99386958D01*
X197252014Y-99619088D01*
X197307963Y-99675037D01*
X197307965Y-99675038D01*
X197307969Y-99675041D01*
X197374396Y-99713392D01*
X197376485Y-99714598D01*
X197452912Y-99735077D01*
X197452914Y-99735077D01*
X198130242Y-99735077D01*
X198145498Y-99734077D01*
X198545511Y-99734077D01*
X198612550Y-99753762D01*
X198633192Y-99770396D01*
X198648579Y-99785783D01*
X198703319Y-99809953D01*
X198751350Y-99831161D01*
X198751351Y-99831161D01*
X198751353Y-99831162D01*
X198776479Y-99834077D01*
X198874492Y-99834076D01*
X198941529Y-99853760D01*
X198972866Y-99882589D01*
X199033417Y-99961499D01*
X199158757Y-100057677D01*
X199304709Y-100118131D01*
X199304713Y-100118132D01*
X199391344Y-100129538D01*
X199391344Y-100129536D01*
X199791344Y-100129536D01*
X199791345Y-100129537D01*
X199877971Y-100118134D01*
X199877977Y-100118132D01*
X200023929Y-100057677D01*
X200149268Y-99961501D01*
X200245444Y-99836163D01*
X200305899Y-99690208D01*
X200313356Y-99633577D01*
X199791344Y-99633577D01*
X199791344Y-100129536D01*
X199391344Y-100129536D01*
X199391344Y-99557577D01*
X199411029Y-99490538D01*
X199463833Y-99444783D01*
X199515344Y-99433577D01*
X199591344Y-99433577D01*
X199591344Y-99357577D01*
X199611029Y-99290538D01*
X199663833Y-99244783D01*
X199715344Y-99233577D01*
X200313354Y-99233577D01*
X200313355Y-99233575D01*
X200305901Y-99176949D01*
X200305899Y-99176943D01*
X200245444Y-99030991D01*
X200149268Y-98905652D01*
X200059086Y-98836453D01*
X200017884Y-98780025D01*
X200013729Y-98710279D01*
X200047941Y-98649358D01*
X200109659Y-98616606D01*
X200134573Y-98614077D01*
X203855908Y-98614077D01*
X203922947Y-98633762D01*
X203968702Y-98686566D01*
X203970465Y-98690616D01*
X203977588Y-98707810D01*
X204000610Y-98763392D01*
X204020403Y-98811175D01*
X204035706Y-98834077D01*
X204135368Y-98983234D01*
X204281686Y-99129552D01*
X204281689Y-99129554D01*
X204453746Y-99244518D01*
X204644924Y-99323707D01*
X204813311Y-99357201D01*
X204847874Y-99364076D01*
X204847878Y-99364077D01*
X204847879Y-99364077D01*
X205054810Y-99364077D01*
X205054811Y-99364076D01*
X205257764Y-99323707D01*
X205448942Y-99244518D01*
X205620999Y-99129554D01*
X205767321Y-98983232D01*
X205882285Y-98811175D01*
X205961474Y-98619997D01*
X206001844Y-98417042D01*
X206001844Y-98210112D01*
X206001843Y-98210107D01*
X206440844Y-98210107D01*
X206440844Y-98417046D01*
X206481212Y-98619989D01*
X206481214Y-98619997D01*
X206541720Y-98766072D01*
X206560403Y-98811175D01*
X206575706Y-98834077D01*
X206675368Y-98983234D01*
X206821686Y-99129552D01*
X206821689Y-99129554D01*
X206993746Y-99244518D01*
X207184924Y-99323707D01*
X207353311Y-99357201D01*
X207387874Y-99364076D01*
X207387878Y-99364077D01*
X207387879Y-99364077D01*
X207594810Y-99364077D01*
X207594811Y-99364076D01*
X207797764Y-99323707D01*
X207988942Y-99244518D01*
X208160999Y-99129554D01*
X208307321Y-98983232D01*
X208422285Y-98811175D01*
X208501474Y-98619997D01*
X208541844Y-98417042D01*
X208541844Y-98210112D01*
X208501474Y-98007157D01*
X208422285Y-97815979D01*
X208307321Y-97643922D01*
X208307319Y-97643919D01*
X208161001Y-97497601D01*
X208049179Y-97422885D01*
X207988942Y-97382636D01*
X207979087Y-97378554D01*
X207797764Y-97303447D01*
X207797756Y-97303445D01*
X207594813Y-97263077D01*
X207594809Y-97263077D01*
X207387879Y-97263077D01*
X207387874Y-97263077D01*
X207184931Y-97303445D01*
X207184923Y-97303447D01*
X206993747Y-97382635D01*
X206821686Y-97497601D01*
X206675368Y-97643919D01*
X206560402Y-97815980D01*
X206481214Y-98007156D01*
X206481212Y-98007164D01*
X206440844Y-98210107D01*
X206001843Y-98210107D01*
X205961474Y-98007157D01*
X205882285Y-97815979D01*
X205767321Y-97643922D01*
X205767319Y-97643919D01*
X205621001Y-97497601D01*
X205509179Y-97422885D01*
X205448942Y-97382636D01*
X205439087Y-97378554D01*
X205257764Y-97303447D01*
X205257756Y-97303445D01*
X205054813Y-97263077D01*
X205054809Y-97263077D01*
X204847879Y-97263077D01*
X204847874Y-97263077D01*
X204644931Y-97303445D01*
X204644923Y-97303447D01*
X204453747Y-97382635D01*
X204281686Y-97497601D01*
X204135368Y-97643919D01*
X204020402Y-97815980D01*
X203970469Y-97936530D01*
X203926628Y-97990933D01*
X203860334Y-98012998D01*
X203855908Y-98013077D01*
X201721541Y-98013077D01*
X201654502Y-97993392D01*
X201608747Y-97940588D01*
X201598803Y-97871430D01*
X201627828Y-97807874D01*
X201646054Y-97790701D01*
X201749268Y-97711501D01*
X201845444Y-97586163D01*
X201905899Y-97440208D01*
X201913356Y-97383577D01*
X201315344Y-97383577D01*
X201248305Y-97363892D01*
X201202550Y-97311088D01*
X201191344Y-97259577D01*
X201191344Y-97183577D01*
X201115344Y-97183577D01*
X201048305Y-97163892D01*
X201002550Y-97111088D01*
X200991344Y-97059577D01*
X200991344Y-96983577D01*
X201391344Y-96983577D01*
X201913354Y-96983577D01*
X201913355Y-96983575D01*
X201905901Y-96926949D01*
X201905899Y-96926943D01*
X201845444Y-96780991D01*
X201749268Y-96655652D01*
X201623930Y-96559476D01*
X201477975Y-96499021D01*
X201391344Y-96487615D01*
X201391344Y-96983577D01*
X200991344Y-96983577D01*
X200991344Y-96487615D01*
X200968841Y-96467881D01*
X200931417Y-96408879D01*
X200931833Y-96339011D01*
X200962919Y-96286972D01*
X201169895Y-96079997D01*
X201579785Y-95670107D01*
X203900844Y-95670107D01*
X203900844Y-95877046D01*
X203941212Y-96079989D01*
X203941214Y-96079997D01*
X204009736Y-96245424D01*
X204020403Y-96271175D01*
X204065729Y-96339011D01*
X204135368Y-96443234D01*
X204281686Y-96589552D01*
X204281689Y-96589554D01*
X204453746Y-96704518D01*
X204644924Y-96783707D01*
X204801929Y-96814937D01*
X204847874Y-96824076D01*
X204847878Y-96824077D01*
X204847879Y-96824077D01*
X205054810Y-96824077D01*
X205054811Y-96824076D01*
X205257764Y-96783707D01*
X205448942Y-96704518D01*
X205620999Y-96589554D01*
X205767321Y-96443232D01*
X205882285Y-96271175D01*
X205961474Y-96079997D01*
X206001844Y-95877042D01*
X206001844Y-95670112D01*
X206001843Y-95670107D01*
X206440844Y-95670107D01*
X206440844Y-95877046D01*
X206481212Y-96079989D01*
X206481214Y-96079997D01*
X206549736Y-96245424D01*
X206560403Y-96271175D01*
X206605729Y-96339011D01*
X206675368Y-96443234D01*
X206821686Y-96589552D01*
X206821689Y-96589554D01*
X206993746Y-96704518D01*
X207184924Y-96783707D01*
X207341929Y-96814937D01*
X207387874Y-96824076D01*
X207387878Y-96824077D01*
X207387879Y-96824077D01*
X207594810Y-96824077D01*
X207594811Y-96824076D01*
X207797764Y-96783707D01*
X207988942Y-96704518D01*
X208160999Y-96589554D01*
X208307321Y-96443232D01*
X208422285Y-96271175D01*
X208501474Y-96079997D01*
X208513592Y-96019077D01*
X208530737Y-95932886D01*
X208563122Y-95870975D01*
X208623838Y-95836401D01*
X208652354Y-95833077D01*
X209329870Y-95833077D01*
X209396909Y-95852762D01*
X209442664Y-95905566D01*
X209452608Y-95974724D01*
X209437257Y-96019077D01*
X209424953Y-96040387D01*
X209424953Y-96040388D01*
X209390844Y-96167685D01*
X209390844Y-96257743D01*
X209371159Y-96324782D01*
X209354525Y-96345424D01*
X208909833Y-96790117D01*
X208853885Y-96846064D01*
X208853879Y-96846072D01*
X208814326Y-96914581D01*
X208814323Y-96914586D01*
X208806018Y-96945583D01*
X208793844Y-96991015D01*
X208793844Y-99708109D01*
X208814323Y-99784536D01*
X208848145Y-99843117D01*
X208848335Y-99843445D01*
X208853886Y-99853061D01*
X209334403Y-100333577D01*
X209768914Y-100768088D01*
X209824863Y-100824037D01*
X209824865Y-100824038D01*
X209824869Y-100824041D01*
X209893378Y-100863594D01*
X209893385Y-100863598D01*
X209969812Y-100884077D01*
X212595327Y-100884077D01*
X212662366Y-100903762D01*
X212664194Y-100904959D01*
X212683849Y-100918092D01*
X212683851Y-100918092D01*
X212683851Y-100918093D01*
X212731978Y-100927665D01*
X212764211Y-100934077D01*
X213067346Y-100934076D01*
X213134383Y-100953760D01*
X213180138Y-101006564D01*
X213191344Y-101058076D01*
X213191344Y-101133577D01*
X213717344Y-101133577D01*
X213726029Y-101136127D01*
X213734991Y-101134839D01*
X213759031Y-101145817D01*
X213784383Y-101153262D01*
X213790310Y-101160102D01*
X213798547Y-101163864D01*
X213812836Y-101186098D01*
X213830138Y-101206066D01*
X213832425Y-101216580D01*
X213836321Y-101222642D01*
X213841344Y-101257577D01*
X213841344Y-101283577D01*
X213866845Y-101283577D01*
X213933884Y-101303262D01*
X213979639Y-101356066D01*
X213990845Y-101407577D01*
X213990845Y-101661719D01*
X213991344Y-101671866D01*
X213991344Y-102203663D01*
X213991345Y-102203664D01*
X214066442Y-102193778D01*
X214066447Y-102193777D01*
X214206322Y-102135840D01*
X214326440Y-102043670D01*
X214398828Y-101949332D01*
X214416104Y-101936716D01*
X214430107Y-101920539D01*
X214448364Y-101913161D01*
X214455256Y-101908129D01*
X214462204Y-101905860D01*
X214467543Y-101904289D01*
X214523839Y-101893092D01*
X214538189Y-101883503D01*
X214556343Y-101878162D01*
X214573118Y-101878152D01*
X214589126Y-101873140D01*
X214607333Y-101878134D01*
X214626212Y-101878124D01*
X214640327Y-101887184D01*
X214647287Y-101889093D01*
X214647567Y-101888419D01*
X214652934Y-101890642D01*
X214656506Y-101891622D01*
X214658695Y-101893028D01*
X214658850Y-101893093D01*
X214712301Y-101903724D01*
X214739211Y-101909077D01*
X214943476Y-101909076D01*
X215023839Y-101893092D01*
X215023842Y-101893089D01*
X215035122Y-101888418D01*
X215035720Y-101889863D01*
X215089126Y-101873140D01*
X215147287Y-101889093D01*
X215147567Y-101888419D01*
X215152934Y-101890642D01*
X215156506Y-101891622D01*
X215158695Y-101893028D01*
X215158850Y-101893093D01*
X215212301Y-101903724D01*
X215239211Y-101909077D01*
X215443476Y-101909076D01*
X215523839Y-101893092D01*
X215523842Y-101893089D01*
X215535122Y-101888418D01*
X215535720Y-101889863D01*
X215589126Y-101873140D01*
X215647287Y-101889093D01*
X215647567Y-101888419D01*
X215652934Y-101890642D01*
X215656506Y-101891622D01*
X215658695Y-101893028D01*
X215658850Y-101893093D01*
X215712301Y-101903724D01*
X215739211Y-101909077D01*
X215943476Y-101909076D01*
X216023839Y-101893092D01*
X216023842Y-101893089D01*
X216035122Y-101888418D01*
X216035720Y-101889863D01*
X216089126Y-101873140D01*
X216147287Y-101889093D01*
X216147567Y-101888419D01*
X216152934Y-101890642D01*
X216156506Y-101891622D01*
X216158695Y-101893028D01*
X216158850Y-101893093D01*
X216212301Y-101903724D01*
X216239211Y-101909077D01*
X216443476Y-101909076D01*
X216460544Y-101905681D01*
X216530135Y-101911910D01*
X216572414Y-101939618D01*
X218010884Y-103378088D01*
X218066833Y-103434037D01*
X218066835Y-103434038D01*
X218066839Y-103434041D01*
X218110768Y-103459403D01*
X218135355Y-103473598D01*
X218211782Y-103494077D01*
X218211784Y-103494077D01*
X218590904Y-103494077D01*
X218590906Y-103494077D01*
X218667333Y-103473598D01*
X218735855Y-103434037D01*
X218791804Y-103378088D01*
X219399496Y-102770394D01*
X219460819Y-102736910D01*
X219487177Y-102734076D01*
X219626200Y-102734076D01*
X219626208Y-102734076D01*
X219626223Y-102734074D01*
X219626226Y-102734074D01*
X219651331Y-102731163D01*
X219651331Y-102731162D01*
X219651335Y-102731162D01*
X219721259Y-102700287D01*
X219790534Y-102691216D01*
X219793505Y-102691719D01*
X219807976Y-102694347D01*
X219891353Y-102731162D01*
X219916479Y-102734077D01*
X220026680Y-102734076D01*
X220037672Y-102736073D01*
X220059312Y-102746937D01*
X220082548Y-102753760D01*
X220098489Y-102766606D01*
X220100114Y-102767422D01*
X220100672Y-102768365D01*
X220103191Y-102770395D01*
X220550884Y-103218088D01*
X220606833Y-103274037D01*
X220606835Y-103274038D01*
X220606839Y-103274041D01*
X220668215Y-103309476D01*
X220675355Y-103313598D01*
X220751782Y-103334077D01*
X220751784Y-103334077D01*
X221080904Y-103334077D01*
X221080906Y-103334077D01*
X221157333Y-103313598D01*
X221225855Y-103274037D01*
X221229163Y-103270729D01*
X221290486Y-103237244D01*
X221360178Y-103242228D01*
X221416111Y-103284100D01*
X221440528Y-103349564D01*
X221440844Y-103358410D01*
X221440844Y-105158744D01*
X221421159Y-105225783D01*
X221404525Y-105246425D01*
X219903192Y-106747758D01*
X219841869Y-106781243D01*
X219815511Y-106784077D01*
X212700782Y-106784077D01*
X212662568Y-106794316D01*
X212624353Y-106804556D01*
X212593633Y-106822293D01*
X212578272Y-106831162D01*
X212578270Y-106831162D01*
X212578270Y-106831163D01*
X212555836Y-106844114D01*
X212555831Y-106844118D01*
X209950885Y-109449064D01*
X209950879Y-109449072D01*
X209911326Y-109517581D01*
X209911323Y-109517586D01*
X209902638Y-109550000D01*
X209890844Y-109594015D01*
X209890844Y-111873139D01*
X209904496Y-111924090D01*
X209911323Y-111949567D01*
X209911324Y-111949568D01*
X209944364Y-112006795D01*
X209950884Y-112018088D01*
X209982650Y-112049854D01*
X209986235Y-112054152D01*
X209998009Y-112081272D01*
X210012177Y-112107219D01*
X210011766Y-112112961D01*
X210014059Y-112118242D01*
X210009302Y-112147417D01*
X210007193Y-112176911D01*
X210003576Y-112182538D01*
X210002816Y-112187201D01*
X209994994Y-112195891D01*
X209978692Y-112221258D01*
X209950885Y-112249064D01*
X209950879Y-112249072D01*
X209911326Y-112317581D01*
X209911323Y-112317586D01*
X209910005Y-112322505D01*
X209895567Y-112376391D01*
X209890844Y-112394016D01*
X209890844Y-115450529D01*
X209871159Y-115517568D01*
X209818355Y-115563323D01*
X209749197Y-115573267D01*
X209685641Y-115544242D01*
X209647867Y-115485464D01*
X209647069Y-115482623D01*
X209639738Y-115455263D01*
X209626365Y-115405355D01*
X209616450Y-115388181D01*
X209586808Y-115336839D01*
X209586802Y-115336831D01*
X209341818Y-115091847D01*
X209308333Y-115030524D01*
X209305499Y-115004166D01*
X209305499Y-114905143D01*
X209305499Y-114905136D01*
X209304217Y-114894081D01*
X209302586Y-114880012D01*
X209302585Y-114880010D01*
X209302585Y-114880009D01*
X209257206Y-114777235D01*
X209177765Y-114697794D01*
X209074992Y-114652415D01*
X209049868Y-114649500D01*
X208951852Y-114649500D01*
X208884813Y-114629815D01*
X208853477Y-114600987D01*
X208792926Y-114522077D01*
X208667586Y-114425899D01*
X208521631Y-114365444D01*
X208435000Y-114354038D01*
X208435000Y-115745959D01*
X208435001Y-115745960D01*
X208521627Y-115734557D01*
X208521633Y-115734555D01*
X208667587Y-115674100D01*
X208667589Y-115674098D01*
X208792927Y-115577923D01*
X208797759Y-115573092D01*
X208805704Y-115568753D01*
X208811130Y-115561506D01*
X208835889Y-115552271D01*
X208859082Y-115539607D01*
X208868111Y-115540252D01*
X208876594Y-115537089D01*
X208902414Y-115542705D01*
X208928774Y-115544591D01*
X208937827Y-115550409D01*
X208944867Y-115551941D01*
X208973121Y-115573092D01*
X209009525Y-115609496D01*
X209043010Y-115670819D01*
X209045844Y-115697177D01*
X209045844Y-115973139D01*
X209066323Y-116049566D01*
X209100682Y-116109077D01*
X209105884Y-116118088D01*
X209195520Y-116207724D01*
X209197260Y-116209615D01*
X209211622Y-116238733D01*
X209227176Y-116267218D01*
X209226985Y-116269881D01*
X209228167Y-116272277D01*
X209224507Y-116304526D01*
X209222192Y-116336910D01*
X209220542Y-116339476D01*
X209220290Y-116341701D01*
X209214738Y-116348507D01*
X209193691Y-116381258D01*
X209064463Y-116510485D01*
X209003140Y-116543969D01*
X208933448Y-116538985D01*
X208889101Y-116510484D01*
X208884273Y-116505656D01*
X208758930Y-116409476D01*
X208612975Y-116349021D01*
X208526344Y-116337615D01*
X208526344Y-117729536D01*
X208526345Y-117729537D01*
X208612971Y-117718134D01*
X208612977Y-117718132D01*
X208758929Y-117657677D01*
X208884270Y-117561499D01*
X208944822Y-117482589D01*
X209001250Y-117441387D01*
X209043195Y-117434076D01*
X209141208Y-117434076D01*
X209141223Y-117434074D01*
X209141226Y-117434074D01*
X209166331Y-117431163D01*
X209166332Y-117431162D01*
X209166335Y-117431162D01*
X209269109Y-117385783D01*
X209348550Y-117306342D01*
X209393929Y-117203568D01*
X209396844Y-117178442D01*
X209396843Y-117079408D01*
X209416527Y-117012371D01*
X209433157Y-116991733D01*
X210431804Y-115993088D01*
X210471366Y-115924565D01*
X210491844Y-115848139D01*
X210491844Y-115769015D01*
X210491844Y-114433578D01*
X210749332Y-114433578D01*
X210756786Y-114490204D01*
X210756788Y-114490210D01*
X210817243Y-114636162D01*
X210913419Y-114761501D01*
X211038757Y-114857677D01*
X211184709Y-114918131D01*
X211184713Y-114918132D01*
X211271344Y-114929538D01*
X211271344Y-114433577D01*
X210749334Y-114433577D01*
X210749332Y-114433578D01*
X210491844Y-114433578D01*
X210491844Y-114033577D01*
X210749331Y-114033577D01*
X211271344Y-114033577D01*
X211271344Y-113537615D01*
X211671344Y-113537615D01*
X211671344Y-114929536D01*
X211671345Y-114929537D01*
X211757971Y-114918134D01*
X211757977Y-114918132D01*
X211903931Y-114857677D01*
X211903933Y-114857675D01*
X212029271Y-114761500D01*
X212034103Y-114756669D01*
X212095426Y-114723184D01*
X212165118Y-114728168D01*
X212209465Y-114756669D01*
X212575833Y-115123037D01*
X212644356Y-115162599D01*
X212720782Y-115183077D01*
X212799906Y-115183077D01*
X213622244Y-115183077D01*
X213689283Y-115202762D01*
X213735038Y-115255566D01*
X213744982Y-115324724D01*
X213715957Y-115388280D01*
X213709925Y-115394758D01*
X213698028Y-115406654D01*
X213605987Y-115555875D01*
X213605985Y-115555880D01*
X213550838Y-115722302D01*
X213550837Y-115722309D01*
X213540344Y-115825013D01*
X213540344Y-116250000D01*
X214360014Y-116250000D01*
X214340269Y-116269745D01*
X214290900Y-116355255D01*
X214265344Y-116450630D01*
X214265344Y-116549370D01*
X214290900Y-116644745D01*
X214340269Y-116730255D01*
X214360014Y-116750000D01*
X213540345Y-116750000D01*
X213540345Y-117174986D01*
X213550838Y-117277697D01*
X213605985Y-117444119D01*
X213605987Y-117444124D01*
X213698028Y-117593345D01*
X213821998Y-117717315D01*
X213971219Y-117809356D01*
X213971224Y-117809358D01*
X214137646Y-117864505D01*
X214137653Y-117864506D01*
X214240363Y-117874999D01*
X214390343Y-117874999D01*
X214390344Y-117874998D01*
X214390344Y-116780330D01*
X214410089Y-116800075D01*
X214495599Y-116849444D01*
X214590974Y-116875000D01*
X214689714Y-116875000D01*
X214785089Y-116849444D01*
X214870599Y-116800075D01*
X214890344Y-116780330D01*
X214890344Y-117874999D01*
X215040316Y-117874999D01*
X215040330Y-117874998D01*
X215143041Y-117864505D01*
X215309463Y-117809358D01*
X215309468Y-117809356D01*
X215458689Y-117717315D01*
X215582659Y-117593345D01*
X215674700Y-117444124D01*
X215674702Y-117444119D01*
X215729849Y-117277697D01*
X215729850Y-117277689D01*
X215732444Y-117252305D01*
X215758840Y-117187613D01*
X215816020Y-117147462D01*
X215885831Y-117144598D01*
X215946108Y-117179932D01*
X215958904Y-117196016D01*
X216018554Y-117285288D01*
X216018557Y-117285292D01*
X216130051Y-117396786D01*
X216130055Y-117396789D01*
X216261158Y-117484390D01*
X216261171Y-117484397D01*
X216332416Y-117513907D01*
X216406847Y-117544737D01*
X216561497Y-117575499D01*
X216561500Y-117575500D01*
X216561502Y-117575500D01*
X216719188Y-117575500D01*
X216719189Y-117575499D01*
X216873841Y-117544737D01*
X217019523Y-117484394D01*
X217150633Y-117396789D01*
X217262133Y-117285289D01*
X217349738Y-117154179D01*
X217410081Y-117008497D01*
X217440844Y-116853842D01*
X217440844Y-116741519D01*
X217460529Y-116674480D01*
X217477163Y-116653838D01*
X219135456Y-114995545D01*
X219135458Y-114995543D01*
X219212119Y-114880811D01*
X219212452Y-114880009D01*
X219255021Y-114777235D01*
X219264924Y-114753328D01*
X219285992Y-114647413D01*
X219291844Y-114617996D01*
X219291844Y-113314581D01*
X219264925Y-113179254D01*
X219264924Y-113179253D01*
X219264924Y-113179249D01*
X219242666Y-113125513D01*
X219212122Y-113051772D01*
X219212115Y-113051759D01*
X219135458Y-112937035D01*
X219135455Y-112937031D01*
X219037889Y-112839465D01*
X219037885Y-112839462D01*
X218923161Y-112762805D01*
X218923148Y-112762798D01*
X218795676Y-112709998D01*
X218795666Y-112709995D01*
X218660339Y-112683077D01*
X218660337Y-112683077D01*
X218522351Y-112683077D01*
X218522349Y-112683077D01*
X218387021Y-112709995D01*
X218387011Y-112709998D01*
X218259539Y-112762798D01*
X218259526Y-112762805D01*
X218144802Y-112839462D01*
X218144798Y-112839465D01*
X218047232Y-112937031D01*
X218047229Y-112937035D01*
X217970572Y-113051759D01*
X217970565Y-113051772D01*
X217917765Y-113179244D01*
X217917762Y-113179254D01*
X217890844Y-113314581D01*
X217890844Y-114207480D01*
X217871159Y-114274519D01*
X217854525Y-114295161D01*
X216761505Y-115388181D01*
X216700182Y-115421666D01*
X216673824Y-115424500D01*
X216561499Y-115424500D01*
X216406854Y-115455261D01*
X216406842Y-115455264D01*
X216261172Y-115515602D01*
X216261163Y-115515607D01*
X216237728Y-115531266D01*
X216171050Y-115552142D01*
X216103670Y-115533656D01*
X216081158Y-115515843D01*
X215207433Y-114642118D01*
X215207425Y-114642112D01*
X215193508Y-114634077D01*
X215193504Y-114634076D01*
X215162982Y-114616454D01*
X215138911Y-114602556D01*
X215113434Y-114595729D01*
X215062483Y-114582077D01*
X215062481Y-114582077D01*
X214675099Y-114582077D01*
X214608060Y-114562392D01*
X214562305Y-114509588D01*
X214552361Y-114440430D01*
X214581386Y-114376874D01*
X214587418Y-114370396D01*
X214603776Y-114354038D01*
X214650500Y-114307314D01*
X214716392Y-114193186D01*
X214750500Y-114065892D01*
X214750500Y-113975832D01*
X214770185Y-113908793D01*
X214786819Y-113888151D01*
X216840460Y-111834511D01*
X216948198Y-111726773D01*
X217056883Y-111618088D01*
X217083774Y-111571511D01*
X217096444Y-111549566D01*
X217116923Y-111473139D01*
X217116923Y-111209410D01*
X217136608Y-111142371D01*
X217153242Y-111121729D01*
X217389062Y-110885909D01*
X217631804Y-110643167D01*
X217652983Y-110606483D01*
X217671365Y-110574645D01*
X217691844Y-110498218D01*
X217691844Y-109758077D01*
X217694394Y-109749391D01*
X217693106Y-109740430D01*
X217704084Y-109716389D01*
X217711529Y-109691038D01*
X217718369Y-109685110D01*
X217722131Y-109676874D01*
X217744365Y-109662584D01*
X217764333Y-109645283D01*
X217774847Y-109642995D01*
X217780909Y-109639100D01*
X217815844Y-109634077D01*
X217890511Y-109634077D01*
X217957550Y-109653762D01*
X217978192Y-109670396D01*
X218242307Y-109934511D01*
X218298256Y-109990460D01*
X218298258Y-109990461D01*
X218298262Y-109990464D01*
X218326265Y-110006631D01*
X218366778Y-110030021D01*
X218443205Y-110050500D01*
X219285167Y-110050500D01*
X219352206Y-110070185D01*
X219397961Y-110122989D01*
X219407905Y-110192147D01*
X219378880Y-110255703D01*
X219372848Y-110262181D01*
X218882227Y-110752800D01*
X218820904Y-110786285D01*
X218778361Y-110788058D01*
X218740533Y-110783078D01*
X218740528Y-110783077D01*
X218740523Y-110783077D01*
X218740516Y-110783077D01*
X218442163Y-110783077D01*
X218396587Y-110789077D01*
X218396580Y-110789079D01*
X218296544Y-110835727D01*
X218218494Y-110913777D01*
X218171844Y-111013818D01*
X218165845Y-111059388D01*
X218165844Y-111059404D01*
X218165844Y-111507757D01*
X218171844Y-111553333D01*
X218171846Y-111553340D01*
X218217729Y-111651735D01*
X218218494Y-111653376D01*
X218296545Y-111731427D01*
X218396584Y-111778076D01*
X218442165Y-111784077D01*
X218740522Y-111784076D01*
X218740524Y-111784076D01*
X218755716Y-111782076D01*
X218786104Y-111778076D01*
X218886143Y-111731427D01*
X218964194Y-111653376D01*
X219010843Y-111553337D01*
X219016844Y-111507756D01*
X219016843Y-111507754D01*
X219017358Y-111503851D01*
X219045624Y-111439954D01*
X219052604Y-111432366D01*
X220211880Y-110273089D01*
X220273201Y-110239606D01*
X220342893Y-110244590D01*
X220387236Y-110273087D01*
X220392068Y-110277918D01*
X220517413Y-110374100D01*
X220663365Y-110434554D01*
X220663369Y-110434555D01*
X220750000Y-110445961D01*
X220750000Y-110445959D01*
X221150000Y-110445959D01*
X221150001Y-110445960D01*
X221236627Y-110434557D01*
X221236633Y-110434555D01*
X221382585Y-110374100D01*
X221507924Y-110277924D01*
X221604100Y-110152586D01*
X221664555Y-110006631D01*
X221672012Y-109950000D01*
X221150000Y-109950000D01*
X221150000Y-110445959D01*
X220750000Y-110445959D01*
X220750000Y-109550000D01*
X221150000Y-109550000D01*
X221672010Y-109550000D01*
X221672011Y-109549998D01*
X221664557Y-109493372D01*
X221664555Y-109493366D01*
X221604100Y-109347414D01*
X221507924Y-109222075D01*
X221382586Y-109125899D01*
X221236631Y-109065444D01*
X221150000Y-109054038D01*
X221150000Y-109550000D01*
X220750000Y-109550000D01*
X220750000Y-109054038D01*
X220663369Y-109065444D01*
X220663365Y-109065445D01*
X220517413Y-109125899D01*
X220392074Y-109222076D01*
X220331522Y-109300988D01*
X220275093Y-109342190D01*
X220233148Y-109349500D01*
X220135143Y-109349500D01*
X220135118Y-109349502D01*
X220110011Y-109352414D01*
X220110008Y-109352415D01*
X220007235Y-109397793D01*
X220007234Y-109397794D01*
X219991848Y-109413181D01*
X219930525Y-109446666D01*
X219904167Y-109449500D01*
X218658600Y-109449500D01*
X218591561Y-109429815D01*
X218570919Y-109413181D01*
X218250856Y-109093118D01*
X218250855Y-109093117D01*
X218225518Y-109078489D01*
X218225518Y-109078487D01*
X218225515Y-109078487D01*
X218182338Y-109053558D01*
X218182335Y-109053556D01*
X218144119Y-109043316D01*
X218105906Y-109033077D01*
X218105904Y-109033077D01*
X216967177Y-109033077D01*
X216937736Y-109024432D01*
X216907750Y-109017909D01*
X216902734Y-109014154D01*
X216900138Y-109013392D01*
X216879496Y-108996758D01*
X216858162Y-108975424D01*
X216824677Y-108914101D01*
X216821843Y-108887743D01*
X216821843Y-108788720D01*
X216821843Y-108788713D01*
X216821841Y-108788694D01*
X216818930Y-108763589D01*
X216818929Y-108763587D01*
X216818929Y-108763586D01*
X216773550Y-108660812D01*
X216694109Y-108581371D01*
X216679680Y-108575000D01*
X216591336Y-108535992D01*
X216566209Y-108533077D01*
X216216487Y-108533077D01*
X216216461Y-108533079D01*
X216191356Y-108535990D01*
X216191355Y-108535991D01*
X216121429Y-108566866D01*
X216052151Y-108575937D01*
X216021258Y-108566866D01*
X215951335Y-108535992D01*
X215926209Y-108533077D01*
X215576487Y-108533077D01*
X215576461Y-108533079D01*
X215551356Y-108535990D01*
X215551352Y-108535992D01*
X215448579Y-108581370D01*
X215448578Y-108581371D01*
X215433192Y-108596758D01*
X215371869Y-108630243D01*
X215345511Y-108633077D01*
X215121782Y-108633077D01*
X215045354Y-108653555D01*
X214976833Y-108693117D01*
X214976830Y-108693119D01*
X213973190Y-109696758D01*
X213911867Y-109730243D01*
X213885509Y-109733077D01*
X213207166Y-109733077D01*
X213164275Y-109741608D01*
X213135555Y-109747321D01*
X213135554Y-109747321D01*
X213135552Y-109747322D01*
X213054348Y-109801580D01*
X213000087Y-109882788D01*
X212985844Y-109954391D01*
X212985844Y-110369175D01*
X212966159Y-110436214D01*
X212936769Y-110467979D01*
X212842347Y-110539580D01*
X212751823Y-110658954D01*
X212696861Y-110798328D01*
X212696861Y-110798329D01*
X212686344Y-110885909D01*
X212686344Y-110933577D01*
X215036343Y-110933577D01*
X215036343Y-110885917D01*
X215025826Y-110798328D01*
X214970864Y-110658954D01*
X214880340Y-110539580D01*
X214785918Y-110467978D01*
X214744394Y-110411785D01*
X214736843Y-110369178D01*
X214736843Y-109954397D01*
X214722600Y-109882788D01*
X214722599Y-109882786D01*
X214721345Y-109876481D01*
X214727572Y-109806889D01*
X214755278Y-109764612D01*
X215249496Y-109270396D01*
X215276423Y-109255692D01*
X215302242Y-109239100D01*
X215308442Y-109238208D01*
X215310819Y-109236911D01*
X215337177Y-109234077D01*
X215345511Y-109234077D01*
X215412550Y-109253762D01*
X215433192Y-109270396D01*
X215448579Y-109285783D01*
X215551353Y-109331162D01*
X215576479Y-109334077D01*
X215926208Y-109334076D01*
X215926223Y-109334074D01*
X215926226Y-109334074D01*
X215951331Y-109331163D01*
X215951331Y-109331162D01*
X215951335Y-109331162D01*
X216021259Y-109300287D01*
X216090534Y-109291216D01*
X216093505Y-109291719D01*
X216107976Y-109294347D01*
X216191353Y-109331162D01*
X216216479Y-109334077D01*
X216326680Y-109334076D01*
X216337672Y-109336073D01*
X216359312Y-109346937D01*
X216382548Y-109353760D01*
X216398489Y-109366606D01*
X216400114Y-109367422D01*
X216400672Y-109368365D01*
X216403191Y-109370395D01*
X216550884Y-109518088D01*
X216606833Y-109574037D01*
X216606835Y-109574038D01*
X216606839Y-109574041D01*
X216660698Y-109605136D01*
X216675355Y-109613598D01*
X216751782Y-109634077D01*
X216830906Y-109634077D01*
X216966844Y-109634077D01*
X217033883Y-109653762D01*
X217079638Y-109706566D01*
X217090844Y-109758077D01*
X217090844Y-110282823D01*
X217071159Y-110349862D01*
X217054525Y-110370504D01*
X216575964Y-110849064D01*
X216575958Y-110849072D01*
X216536405Y-110917581D01*
X216536402Y-110917586D01*
X216515923Y-110994016D01*
X216515923Y-111225500D01*
X216496238Y-111292539D01*
X216443434Y-111338294D01*
X216391923Y-111349500D01*
X216060438Y-111349500D01*
X216029867Y-111357691D01*
X215984008Y-111369979D01*
X215984007Y-111369980D01*
X215932766Y-111399565D01*
X215932765Y-111399566D01*
X215915490Y-111409539D01*
X215915487Y-111409541D01*
X215761848Y-111563181D01*
X215700525Y-111596666D01*
X215674167Y-111599500D01*
X215160344Y-111599500D01*
X215093305Y-111579815D01*
X215047550Y-111527011D01*
X215036344Y-111475500D01*
X215036344Y-111433577D01*
X212686345Y-111433577D01*
X212686345Y-111481236D01*
X212696861Y-111568825D01*
X212751823Y-111708199D01*
X212842347Y-111827573D01*
X212936769Y-111899175D01*
X212978293Y-111955367D01*
X212985844Y-111997979D01*
X212985844Y-112412754D01*
X212991557Y-112441477D01*
X213000088Y-112484366D01*
X213000088Y-112484367D01*
X213000089Y-112484368D01*
X213053429Y-112564198D01*
X213054348Y-112565573D01*
X213135555Y-112619833D01*
X213207163Y-112634077D01*
X214515524Y-112634076D01*
X214587133Y-112619833D01*
X214668340Y-112565573D01*
X214722600Y-112484366D01*
X214736844Y-112412758D01*
X214736843Y-112351949D01*
X214745488Y-112322505D01*
X214752013Y-112292518D01*
X214755764Y-112287506D01*
X214756527Y-112284911D01*
X214773165Y-112264265D01*
X214800616Y-112236816D01*
X214861940Y-112203333D01*
X214888294Y-112200500D01*
X215325167Y-112200500D01*
X215392206Y-112220185D01*
X215437961Y-112272989D01*
X215447905Y-112342147D01*
X215418880Y-112405703D01*
X215412850Y-112412178D01*
X214831918Y-112993110D01*
X214361847Y-113463181D01*
X214300524Y-113496666D01*
X214274166Y-113499500D01*
X214184108Y-113499500D01*
X214056812Y-113533608D01*
X213942686Y-113599500D01*
X213942683Y-113599502D01*
X213849502Y-113692683D01*
X213849500Y-113692686D01*
X213783608Y-113806812D01*
X213749500Y-113934108D01*
X213749500Y-114065891D01*
X213783608Y-114193187D01*
X213795683Y-114214101D01*
X213849500Y-114307314D01*
X213849502Y-114307316D01*
X213912582Y-114370396D01*
X213946067Y-114431719D01*
X213941083Y-114501411D01*
X213899211Y-114557344D01*
X213833747Y-114581761D01*
X213824901Y-114582077D01*
X212936177Y-114582077D01*
X212869138Y-114562392D01*
X212848496Y-114545758D01*
X212578162Y-114275424D01*
X212544677Y-114214101D01*
X212541843Y-114187743D01*
X212541843Y-114088720D01*
X212541843Y-114088713D01*
X212541841Y-114088694D01*
X212538930Y-114063589D01*
X212538929Y-114063587D01*
X212538929Y-114063586D01*
X212493550Y-113960812D01*
X212414109Y-113881371D01*
X212311336Y-113835992D01*
X212286212Y-113833077D01*
X212188196Y-113833077D01*
X212121157Y-113813392D01*
X212089821Y-113784564D01*
X212029270Y-113705654D01*
X211903930Y-113609476D01*
X211757975Y-113549021D01*
X211671344Y-113537615D01*
X211271344Y-113537615D01*
X211184713Y-113549021D01*
X211184709Y-113549022D01*
X211038757Y-113609476D01*
X210913419Y-113705652D01*
X210817243Y-113830990D01*
X210756788Y-113976945D01*
X210749331Y-114033577D01*
X210491844Y-114033577D01*
X210491844Y-112668933D01*
X210511529Y-112601894D01*
X210564333Y-112556139D01*
X210633491Y-112546195D01*
X210684732Y-112565830D01*
X210765555Y-112619833D01*
X210837163Y-112634077D01*
X212145524Y-112634076D01*
X212217133Y-112619833D01*
X212298340Y-112565573D01*
X212352600Y-112484366D01*
X212366844Y-112412758D01*
X212366843Y-111854397D01*
X212352600Y-111782788D01*
X212298340Y-111701581D01*
X212297954Y-111701323D01*
X212217132Y-111647320D01*
X212145528Y-111633077D01*
X210837166Y-111633077D01*
X210765554Y-111647321D01*
X210684734Y-111701323D01*
X210618056Y-111722200D01*
X210550676Y-111703715D01*
X210503987Y-111651735D01*
X210491844Y-111598220D01*
X210491844Y-110768933D01*
X210511529Y-110701894D01*
X210564333Y-110656139D01*
X210633491Y-110646195D01*
X210684732Y-110665830D01*
X210765555Y-110719833D01*
X210837163Y-110734077D01*
X212145524Y-110734076D01*
X212217133Y-110719833D01*
X212298340Y-110665573D01*
X212352600Y-110584366D01*
X212366844Y-110512758D01*
X212366843Y-109954397D01*
X212352600Y-109882788D01*
X212298340Y-109801581D01*
X212233231Y-109758077D01*
X212217132Y-109747320D01*
X212145528Y-109733077D01*
X210837164Y-109733077D01*
X210831102Y-109733675D01*
X210830959Y-109732231D01*
X210768574Y-109726637D01*
X210713405Y-109683763D01*
X210690173Y-109617869D01*
X210706255Y-109549875D01*
X210726312Y-109523579D01*
X212828496Y-107421396D01*
X212889819Y-107387911D01*
X212916177Y-107385077D01*
X219257583Y-107385077D01*
X219324622Y-107404762D01*
X219370377Y-107457566D01*
X219380321Y-107526724D01*
X219364970Y-107571077D01*
X219324953Y-107640387D01*
X219324953Y-107640388D01*
X219290844Y-107767685D01*
X219290844Y-107899468D01*
X219324952Y-108026764D01*
X219329877Y-108035294D01*
X219390844Y-108140891D01*
X219484030Y-108234077D01*
X219582865Y-108291140D01*
X219598154Y-108299967D01*
X219598158Y-108299969D01*
X219725452Y-108334077D01*
X219725454Y-108334077D01*
X219857234Y-108334077D01*
X219857236Y-108334077D01*
X219984530Y-108299969D01*
X220026202Y-108275909D01*
X220069884Y-108250690D01*
X220131884Y-108234077D01*
X228503144Y-108234077D01*
X228503146Y-108234077D01*
X228579573Y-108213598D01*
X228626117Y-108186726D01*
X230191344Y-108186726D01*
X230194243Y-108223566D01*
X230194244Y-108223572D01*
X230240060Y-108381270D01*
X230240061Y-108381273D01*
X230323658Y-108522629D01*
X230323665Y-108522638D01*
X230439782Y-108638755D01*
X230439791Y-108638762D01*
X230581145Y-108722358D01*
X230738858Y-108768177D01*
X230738855Y-108768177D01*
X230741342Y-108768372D01*
X230741344Y-108768372D01*
X230741344Y-107783577D01*
X230191344Y-107783577D01*
X230191344Y-108186726D01*
X228626117Y-108186726D01*
X228648095Y-108174037D01*
X228704044Y-108118088D01*
X229979663Y-106842469D01*
X230040986Y-106808984D01*
X230110678Y-106813968D01*
X230166611Y-106855840D01*
X230191028Y-106921304D01*
X230191344Y-106930150D01*
X230191344Y-107283577D01*
X231791344Y-107283577D01*
X231791344Y-107131325D01*
X231811029Y-107064286D01*
X231863833Y-107018531D01*
X231932991Y-107008587D01*
X231996547Y-107037612D01*
X232022729Y-107069323D01*
X232039416Y-107098225D01*
X232050883Y-107118087D01*
X232354525Y-107421729D01*
X232388010Y-107483052D01*
X232390844Y-107509410D01*
X232390844Y-108154337D01*
X232400770Y-108222468D01*
X232452147Y-108327562D01*
X232534858Y-108410273D01*
X232534859Y-108410273D01*
X232534861Y-108410275D01*
X232639951Y-108461650D01*
X232674017Y-108466613D01*
X232708083Y-108471577D01*
X232708084Y-108471577D01*
X233074605Y-108471577D01*
X233097315Y-108468268D01*
X233142737Y-108461650D01*
X233247827Y-108410275D01*
X233330542Y-108327560D01*
X233381917Y-108222470D01*
X233391844Y-108154337D01*
X233391844Y-106912817D01*
X233381917Y-106844684D01*
X233330542Y-106739594D01*
X233330540Y-106739592D01*
X233330540Y-106739591D01*
X233247829Y-106656880D01*
X233142735Y-106605503D01*
X233074605Y-106595577D01*
X233074604Y-106595577D01*
X232715844Y-106595577D01*
X232707158Y-106593026D01*
X232698197Y-106594315D01*
X232674156Y-106583336D01*
X232648805Y-106575892D01*
X232642877Y-106569051D01*
X232634641Y-106565290D01*
X232620351Y-106543055D01*
X232603050Y-106523088D01*
X232600762Y-106512573D01*
X232596867Y-106506512D01*
X232591844Y-106471577D01*
X232591844Y-106239410D01*
X232611529Y-106172371D01*
X232628163Y-106151729D01*
X232649649Y-106130243D01*
X232673550Y-106106342D01*
X232718929Y-106003568D01*
X232721844Y-105978442D01*
X232721843Y-105688713D01*
X232721841Y-105688694D01*
X232718930Y-105663589D01*
X232718929Y-105663587D01*
X232718929Y-105663586D01*
X232673550Y-105560812D01*
X232594109Y-105481371D01*
X232491336Y-105435992D01*
X232466212Y-105433077D01*
X232368196Y-105433077D01*
X232301157Y-105413392D01*
X232269821Y-105384564D01*
X232209270Y-105305654D01*
X232083930Y-105209476D01*
X231937975Y-105149021D01*
X231851344Y-105137615D01*
X231851344Y-105709577D01*
X231831659Y-105776616D01*
X231778855Y-105822371D01*
X231727344Y-105833577D01*
X231651344Y-105833577D01*
X231651344Y-105909577D01*
X231631659Y-105976616D01*
X231578855Y-106022371D01*
X231527344Y-106033577D01*
X230929334Y-106033577D01*
X230915100Y-106049806D01*
X230913210Y-106061929D01*
X230866829Y-106114184D01*
X230801038Y-106133077D01*
X229924022Y-106133077D01*
X229885808Y-106143316D01*
X229847593Y-106153556D01*
X229847592Y-106153557D01*
X229791776Y-106185783D01*
X229791774Y-106185784D01*
X229779076Y-106193114D01*
X229779071Y-106193118D01*
X228375432Y-107596758D01*
X228314109Y-107630243D01*
X228287751Y-107633077D01*
X226788034Y-107633077D01*
X226720995Y-107613392D01*
X226675240Y-107560588D01*
X226665296Y-107491430D01*
X226694321Y-107427874D01*
X226753099Y-107390100D01*
X226771847Y-107386138D01*
X226779903Y-107385077D01*
X226779906Y-107385077D01*
X226856333Y-107364598D01*
X226924855Y-107325037D01*
X226980804Y-107269088D01*
X227329240Y-106920650D01*
X227390561Y-106887167D01*
X227460252Y-106892151D01*
X227464351Y-106893763D01*
X227584924Y-106943707D01*
X227732890Y-106973139D01*
X227787874Y-106984076D01*
X227787878Y-106984077D01*
X227787879Y-106984077D01*
X227994810Y-106984077D01*
X227994811Y-106984076D01*
X228197764Y-106943707D01*
X228388942Y-106864518D01*
X228560999Y-106749554D01*
X228707321Y-106603232D01*
X228822285Y-106431175D01*
X228901474Y-106239997D01*
X228941844Y-106037042D01*
X228941844Y-105830112D01*
X228926371Y-105752322D01*
X228915424Y-105697285D01*
X228902751Y-105633577D01*
X230929331Y-105633577D01*
X231451344Y-105633577D01*
X231451344Y-105137615D01*
X231364713Y-105149021D01*
X231364709Y-105149022D01*
X231218757Y-105209476D01*
X231093419Y-105305652D01*
X230997243Y-105430990D01*
X230936788Y-105576945D01*
X230929331Y-105633577D01*
X228902751Y-105633577D01*
X228901475Y-105627164D01*
X228901474Y-105627157D01*
X228822285Y-105435979D01*
X228707321Y-105263922D01*
X228707319Y-105263919D01*
X228561001Y-105117601D01*
X228391082Y-105004066D01*
X228388942Y-105002636D01*
X228388937Y-105002634D01*
X228327235Y-104977076D01*
X228224234Y-104934411D01*
X228169832Y-104890571D01*
X228147767Y-104824277D01*
X228165046Y-104756578D01*
X228216183Y-104708967D01*
X228233370Y-104701920D01*
X228409561Y-104644672D01*
X228598898Y-104548199D01*
X228653060Y-104508847D01*
X228653061Y-104508847D01*
X228020752Y-103876539D01*
X228084337Y-103859502D01*
X228198351Y-103793676D01*
X228291443Y-103700584D01*
X228357269Y-103586570D01*
X228374306Y-103522985D01*
X229006614Y-104155294D01*
X229006614Y-104155293D01*
X229045966Y-104101131D01*
X229142439Y-103911794D01*
X229208101Y-103709707D01*
X229208101Y-103709704D01*
X229241344Y-103499823D01*
X229241344Y-103287330D01*
X229208101Y-103077449D01*
X229208101Y-103077446D01*
X229142439Y-102875359D01*
X229045968Y-102686026D01*
X229006614Y-102631859D01*
X229006613Y-102631859D01*
X228374306Y-103264167D01*
X228357269Y-103200584D01*
X228291443Y-103086570D01*
X228198351Y-102993478D01*
X228084337Y-102927652D01*
X228020753Y-102910614D01*
X228653060Y-102278305D01*
X228598894Y-102238952D01*
X228409560Y-102142481D01*
X228233370Y-102085233D01*
X228175694Y-102045795D01*
X228148496Y-101981437D01*
X228160411Y-101912590D01*
X228207655Y-101861115D01*
X228224226Y-101852745D01*
X228388942Y-101784518D01*
X228560999Y-101669554D01*
X228707321Y-101523232D01*
X228822285Y-101351175D01*
X228901474Y-101159997D01*
X228941844Y-100957042D01*
X228941844Y-100750112D01*
X228901474Y-100547157D01*
X228851538Y-100426603D01*
X228844070Y-100357136D01*
X228875345Y-100294657D01*
X228878390Y-100291500D01*
X231246804Y-97923088D01*
X231286365Y-97854566D01*
X231306844Y-97778139D01*
X231306844Y-92653003D01*
X231326529Y-92585964D01*
X231379333Y-92540209D01*
X231448491Y-92530265D01*
X231465439Y-92533927D01*
X231626348Y-92580676D01*
X231626354Y-92580677D01*
X231663194Y-92583576D01*
X231663210Y-92583577D01*
X232066344Y-92583577D01*
X232566344Y-92583577D01*
X232969478Y-92583577D01*
X232969493Y-92583576D01*
X233006333Y-92580677D01*
X233006339Y-92580676D01*
X233164037Y-92534860D01*
X233164040Y-92534859D01*
X233305396Y-92451262D01*
X233305405Y-92451255D01*
X233421522Y-92335138D01*
X233421529Y-92335129D01*
X233505125Y-92193775D01*
X233550944Y-92036063D01*
X233551139Y-92033578D01*
X233551139Y-92033577D01*
X232566344Y-92033577D01*
X232566344Y-92583577D01*
X232066344Y-92583577D01*
X232066344Y-90983577D01*
X231663194Y-90983577D01*
X231626354Y-90986476D01*
X231626348Y-90986477D01*
X231465439Y-91033226D01*
X231395569Y-91033027D01*
X231336899Y-90995085D01*
X231308056Y-90931446D01*
X231306844Y-90914150D01*
X231306844Y-90406620D01*
X231326529Y-90339581D01*
X231379333Y-90293826D01*
X231448491Y-90283882D01*
X231512047Y-90312907D01*
X231518529Y-90318943D01*
X231522359Y-90322774D01*
X231522360Y-90322774D01*
X231522361Y-90322775D01*
X231627451Y-90374150D01*
X231661517Y-90379113D01*
X231695583Y-90384077D01*
X231695584Y-90384077D01*
X232937105Y-90384077D01*
X232959815Y-90380768D01*
X233005237Y-90374150D01*
X233110327Y-90322775D01*
X233193042Y-90240060D01*
X233244417Y-90134970D01*
X233254344Y-90066837D01*
X233254344Y-89700317D01*
X233244417Y-89632184D01*
X233193042Y-89527094D01*
X233193040Y-89527092D01*
X233193040Y-89527091D01*
X233110329Y-89444380D01*
X233005235Y-89393003D01*
X232937105Y-89383077D01*
X232937104Y-89383077D01*
X231695584Y-89383077D01*
X231695583Y-89383077D01*
X231627452Y-89393003D01*
X231522358Y-89444380D01*
X231439649Y-89527089D01*
X231436767Y-89531127D01*
X231381793Y-89574251D01*
X231335847Y-89583077D01*
X231256782Y-89583077D01*
X231226211Y-89591268D01*
X231180352Y-89603556D01*
X231180351Y-89603557D01*
X231141930Y-89625739D01*
X231141924Y-89625743D01*
X231130770Y-89632184D01*
X231111833Y-89643117D01*
X231021833Y-89733117D01*
X231019439Y-89735510D01*
X231019430Y-89735519D01*
X230707768Y-90047181D01*
X230646445Y-90080666D01*
X230576753Y-90075682D01*
X230570012Y-90072938D01*
X230529258Y-90054944D01*
X230486336Y-90035992D01*
X230461209Y-90033077D01*
X230171487Y-90033077D01*
X230171461Y-90033079D01*
X230146356Y-90035990D01*
X230146352Y-90035992D01*
X230043579Y-90081370D01*
X229964138Y-90160811D01*
X229918759Y-90263583D01*
X229918759Y-90263585D01*
X229915844Y-90288708D01*
X229915844Y-90386725D01*
X229896159Y-90453764D01*
X229867331Y-90485100D01*
X229788421Y-90545650D01*
X229692243Y-90670990D01*
X229631789Y-90816942D01*
X229631788Y-90816946D01*
X229620382Y-90903577D01*
X230192344Y-90903577D01*
X230259383Y-90923262D01*
X230305138Y-90976066D01*
X230316344Y-91027577D01*
X230316344Y-91103577D01*
X230392344Y-91103577D01*
X230459383Y-91123262D01*
X230505138Y-91176066D01*
X230516344Y-91227577D01*
X230516344Y-91825587D01*
X230516345Y-91825587D01*
X230565660Y-91819096D01*
X230634695Y-91829862D01*
X230686950Y-91876243D01*
X230705844Y-91942035D01*
X230705844Y-97562743D01*
X230686159Y-97629782D01*
X230669525Y-97650424D01*
X228453448Y-99866500D01*
X228392125Y-99899985D01*
X228322433Y-99895001D01*
X228318315Y-99893380D01*
X228197768Y-99843448D01*
X228197756Y-99843445D01*
X227994813Y-99803077D01*
X227994809Y-99803077D01*
X227787879Y-99803077D01*
X227787874Y-99803077D01*
X227584931Y-99843445D01*
X227584923Y-99843447D01*
X227393747Y-99922635D01*
X227221686Y-100037601D01*
X227075368Y-100183919D01*
X226960402Y-100355980D01*
X226881214Y-100547156D01*
X226881212Y-100547164D01*
X226840844Y-100750107D01*
X226840844Y-100957046D01*
X226881212Y-101159989D01*
X226881214Y-101159997D01*
X226933316Y-101285783D01*
X226960403Y-101351175D01*
X226967902Y-101362398D01*
X227075368Y-101523234D01*
X227221686Y-101669552D01*
X227393749Y-101784520D01*
X227496387Y-101827033D01*
X227558452Y-101852741D01*
X227612855Y-101896582D01*
X227634920Y-101962876D01*
X227617641Y-102030575D01*
X227566504Y-102078186D01*
X227549318Y-102085233D01*
X227373125Y-102142482D01*
X227183783Y-102238957D01*
X227129626Y-102278304D01*
X227129626Y-102278305D01*
X227761935Y-102910614D01*
X227698351Y-102927652D01*
X227584337Y-102993478D01*
X227491245Y-103086570D01*
X227425419Y-103200584D01*
X227408381Y-103264168D01*
X226776072Y-102631859D01*
X226776071Y-102631859D01*
X226736724Y-102686017D01*
X226731827Y-102695628D01*
X226683850Y-102746422D01*
X226616028Y-102763215D01*
X226549894Y-102740675D01*
X226510860Y-102695625D01*
X226505970Y-102686029D01*
X226466614Y-102631859D01*
X226466613Y-102631859D01*
X225834306Y-103264167D01*
X225817269Y-103200584D01*
X225751443Y-103086570D01*
X225658351Y-102993478D01*
X225544337Y-102927652D01*
X225480753Y-102910614D01*
X226113060Y-102278305D01*
X226058894Y-102238952D01*
X225869560Y-102142481D01*
X225693370Y-102085233D01*
X225635694Y-102045795D01*
X225608496Y-101981437D01*
X225620411Y-101912590D01*
X225667655Y-101861115D01*
X225684226Y-101852745D01*
X225848942Y-101784518D01*
X226020999Y-101669554D01*
X226167321Y-101523232D01*
X226282285Y-101351175D01*
X226361474Y-101159997D01*
X226401844Y-100957042D01*
X226401844Y-100750112D01*
X226361474Y-100547157D01*
X226282285Y-100355979D01*
X226167321Y-100183922D01*
X226167319Y-100183919D01*
X226021001Y-100037601D01*
X225853960Y-99925989D01*
X225848942Y-99922636D01*
X225796906Y-99901082D01*
X225657764Y-99843447D01*
X225657756Y-99843445D01*
X225454813Y-99803077D01*
X225454809Y-99803077D01*
X225247879Y-99803077D01*
X225247874Y-99803077D01*
X225044931Y-99843445D01*
X225044923Y-99843447D01*
X224853747Y-99922635D01*
X224681686Y-100037601D01*
X224535368Y-100183919D01*
X224420402Y-100355980D01*
X224341214Y-100547156D01*
X224341212Y-100547164D01*
X224300844Y-100750107D01*
X224300844Y-100957046D01*
X224341212Y-101159989D01*
X224341214Y-101159997D01*
X224393316Y-101285783D01*
X224420403Y-101351175D01*
X224427902Y-101362398D01*
X224535368Y-101523234D01*
X224681686Y-101669552D01*
X224853749Y-101784520D01*
X224956387Y-101827033D01*
X225018452Y-101852741D01*
X225072855Y-101896582D01*
X225094920Y-101962876D01*
X225077641Y-102030575D01*
X225026504Y-102078186D01*
X225009318Y-102085233D01*
X224833125Y-102142482D01*
X224643783Y-102238957D01*
X224589626Y-102278304D01*
X224589626Y-102278305D01*
X225221935Y-102910614D01*
X225158351Y-102927652D01*
X225044337Y-102993478D01*
X224951245Y-103086570D01*
X224885419Y-103200584D01*
X224868381Y-103264168D01*
X224236072Y-102631859D01*
X224236071Y-102631859D01*
X224196724Y-102686016D01*
X224100248Y-102875359D01*
X224034586Y-103077446D01*
X224034586Y-103077449D01*
X224001344Y-103287330D01*
X224001344Y-103499823D01*
X224034586Y-103709704D01*
X224034586Y-103709707D01*
X224100248Y-103911794D01*
X224196719Y-104101127D01*
X224236072Y-104155293D01*
X224868381Y-103522985D01*
X224885419Y-103586570D01*
X224951245Y-103700584D01*
X225044337Y-103793676D01*
X225158351Y-103859502D01*
X225221934Y-103876539D01*
X224589626Y-104508846D01*
X224589626Y-104508847D01*
X224643793Y-104548201D01*
X224833126Y-104644672D01*
X225009317Y-104701920D01*
X225066992Y-104741357D01*
X225094191Y-104805716D01*
X225082276Y-104874562D01*
X225035032Y-104926038D01*
X225018452Y-104934412D01*
X224853747Y-105002634D01*
X224681686Y-105117601D01*
X224535368Y-105263919D01*
X224420402Y-105435980D01*
X224341214Y-105627156D01*
X224341212Y-105627164D01*
X224300844Y-105830107D01*
X224300844Y-106037046D01*
X224341212Y-106239989D01*
X224341214Y-106239997D01*
X224420403Y-106431176D01*
X224420403Y-106431177D01*
X224527318Y-106591187D01*
X224548196Y-106657864D01*
X224529711Y-106725244D01*
X224477732Y-106771934D01*
X224424216Y-106784077D01*
X221016177Y-106784077D01*
X220949138Y-106764392D01*
X220903383Y-106711588D01*
X220893439Y-106642430D01*
X220922464Y-106578874D01*
X220928496Y-106572396D01*
X221451086Y-106049806D01*
X221981804Y-105519088D01*
X222021366Y-105450565D01*
X222041844Y-105374139D01*
X222041844Y-105295015D01*
X222041844Y-102294015D01*
X222041844Y-102042253D01*
X222061529Y-101975214D01*
X222078163Y-101954572D01*
X222109180Y-101923555D01*
X222141844Y-101890891D01*
X222207736Y-101776763D01*
X222241844Y-101649469D01*
X222241844Y-101517685D01*
X222207736Y-101390391D01*
X222141844Y-101276263D01*
X222078162Y-101212581D01*
X222044678Y-101151257D01*
X222041844Y-101124900D01*
X222041844Y-98279016D01*
X222038376Y-98266072D01*
X222023380Y-98210107D01*
X224300844Y-98210107D01*
X224300844Y-98417046D01*
X224341212Y-98619989D01*
X224341214Y-98619997D01*
X224401720Y-98766072D01*
X224420403Y-98811175D01*
X224435706Y-98834077D01*
X224535368Y-98983234D01*
X224681686Y-99129552D01*
X224681689Y-99129554D01*
X224853746Y-99244518D01*
X225044924Y-99323707D01*
X225213311Y-99357201D01*
X225247874Y-99364076D01*
X225247878Y-99364077D01*
X225247879Y-99364077D01*
X225454810Y-99364077D01*
X225454811Y-99364076D01*
X225657764Y-99323707D01*
X225848942Y-99244518D01*
X226020999Y-99129554D01*
X226167321Y-98983232D01*
X226282285Y-98811175D01*
X226361474Y-98619997D01*
X226401844Y-98417042D01*
X226401844Y-98210112D01*
X226401843Y-98210107D01*
X226840844Y-98210107D01*
X226840844Y-98417046D01*
X226881212Y-98619989D01*
X226881214Y-98619997D01*
X226941720Y-98766072D01*
X226960403Y-98811175D01*
X226975706Y-98834077D01*
X227075368Y-98983234D01*
X227221686Y-99129552D01*
X227221689Y-99129554D01*
X227393746Y-99244518D01*
X227584924Y-99323707D01*
X227753311Y-99357201D01*
X227787874Y-99364076D01*
X227787878Y-99364077D01*
X227787879Y-99364077D01*
X227994810Y-99364077D01*
X227994811Y-99364076D01*
X228197764Y-99323707D01*
X228388942Y-99244518D01*
X228560999Y-99129554D01*
X228707321Y-98983232D01*
X228822285Y-98811175D01*
X228901474Y-98619997D01*
X228941844Y-98417042D01*
X228941844Y-98210112D01*
X228901474Y-98007157D01*
X228822285Y-97815979D01*
X228707321Y-97643922D01*
X228707319Y-97643919D01*
X228561001Y-97497601D01*
X228449179Y-97422885D01*
X228388942Y-97382636D01*
X228379087Y-97378554D01*
X228197764Y-97303447D01*
X228197756Y-97303445D01*
X227994813Y-97263077D01*
X227994809Y-97263077D01*
X227787879Y-97263077D01*
X227787874Y-97263077D01*
X227584931Y-97303445D01*
X227584923Y-97303447D01*
X227393747Y-97382635D01*
X227221686Y-97497601D01*
X227075368Y-97643919D01*
X226960402Y-97815980D01*
X226881214Y-98007156D01*
X226881212Y-98007164D01*
X226840844Y-98210107D01*
X226401843Y-98210107D01*
X226361474Y-98007157D01*
X226282285Y-97815979D01*
X226167321Y-97643922D01*
X226167319Y-97643919D01*
X226021001Y-97497601D01*
X225909179Y-97422885D01*
X225848942Y-97382636D01*
X225839087Y-97378554D01*
X225657764Y-97303447D01*
X225657756Y-97303445D01*
X225454813Y-97263077D01*
X225454809Y-97263077D01*
X225247879Y-97263077D01*
X225247874Y-97263077D01*
X225044931Y-97303445D01*
X225044923Y-97303447D01*
X224853747Y-97382635D01*
X224681686Y-97497601D01*
X224535368Y-97643919D01*
X224420402Y-97815980D01*
X224341214Y-98007156D01*
X224341212Y-98007164D01*
X224300844Y-98210107D01*
X222023380Y-98210107D01*
X222021365Y-98202588D01*
X222017999Y-98196758D01*
X221981808Y-98134072D01*
X221981802Y-98134064D01*
X220523162Y-96675424D01*
X220489677Y-96614101D01*
X220486843Y-96587743D01*
X220486843Y-96488720D01*
X220486843Y-96488713D01*
X220485065Y-96473378D01*
X220483930Y-96463589D01*
X220483929Y-96463587D01*
X220483929Y-96463586D01*
X220438550Y-96360812D01*
X220359109Y-96281371D01*
X220336013Y-96271173D01*
X220256336Y-96235992D01*
X220231209Y-96233077D01*
X219881487Y-96233077D01*
X219881461Y-96233079D01*
X219856356Y-96235990D01*
X219856355Y-96235991D01*
X219786429Y-96266866D01*
X219717151Y-96275937D01*
X219686258Y-96266866D01*
X219665596Y-96257743D01*
X219616335Y-96235992D01*
X219610053Y-96235263D01*
X219591212Y-96233077D01*
X219591209Y-96233077D01*
X219367177Y-96233077D01*
X219300138Y-96213392D01*
X219279496Y-96196758D01*
X218820862Y-95738124D01*
X218788768Y-95682534D01*
X218785438Y-95670107D01*
X224300844Y-95670107D01*
X224300844Y-95877046D01*
X224341212Y-96079989D01*
X224341214Y-96079997D01*
X224409736Y-96245424D01*
X224420403Y-96271175D01*
X224465729Y-96339011D01*
X224535368Y-96443234D01*
X224681686Y-96589552D01*
X224681689Y-96589554D01*
X224853746Y-96704518D01*
X225044924Y-96783707D01*
X225201929Y-96814937D01*
X225247874Y-96824076D01*
X225247878Y-96824077D01*
X225247879Y-96824077D01*
X225454810Y-96824077D01*
X225454811Y-96824076D01*
X225657764Y-96783707D01*
X225848942Y-96704518D01*
X226020999Y-96589554D01*
X226167321Y-96443232D01*
X226282285Y-96271175D01*
X226361474Y-96079997D01*
X226401844Y-95877042D01*
X226401844Y-95670112D01*
X226401843Y-95670107D01*
X226840844Y-95670107D01*
X226840844Y-95877046D01*
X226881212Y-96079989D01*
X226881214Y-96079997D01*
X226949736Y-96245424D01*
X226960403Y-96271175D01*
X227005729Y-96339011D01*
X227075368Y-96443234D01*
X227221686Y-96589552D01*
X227221689Y-96589554D01*
X227393746Y-96704518D01*
X227584924Y-96783707D01*
X227741929Y-96814937D01*
X227787874Y-96824076D01*
X227787878Y-96824077D01*
X227787879Y-96824077D01*
X227994810Y-96824077D01*
X227994811Y-96824076D01*
X228197764Y-96783707D01*
X228388942Y-96704518D01*
X228560999Y-96589554D01*
X228707321Y-96443232D01*
X228822285Y-96271175D01*
X228901474Y-96079997D01*
X228941844Y-95877042D01*
X228941844Y-95670112D01*
X228901474Y-95467157D01*
X228822285Y-95275979D01*
X228707321Y-95103922D01*
X228707319Y-95103919D01*
X228561001Y-94957601D01*
X228474970Y-94900118D01*
X228388942Y-94842636D01*
X228368276Y-94834076D01*
X228197764Y-94763447D01*
X228197756Y-94763445D01*
X227994813Y-94723077D01*
X227994809Y-94723077D01*
X227787879Y-94723077D01*
X227787874Y-94723077D01*
X227584931Y-94763445D01*
X227584923Y-94763447D01*
X227393747Y-94842635D01*
X227221686Y-94957601D01*
X227075368Y-95103919D01*
X226960402Y-95275980D01*
X226881214Y-95467156D01*
X226881212Y-95467164D01*
X226840844Y-95670107D01*
X226401843Y-95670107D01*
X226361474Y-95467157D01*
X226282285Y-95275979D01*
X226167321Y-95103922D01*
X226167319Y-95103919D01*
X226021001Y-94957601D01*
X225934970Y-94900118D01*
X225848942Y-94842636D01*
X225828276Y-94834076D01*
X225657764Y-94763447D01*
X225657756Y-94763445D01*
X225454813Y-94723077D01*
X225454809Y-94723077D01*
X225247879Y-94723077D01*
X225247874Y-94723077D01*
X225044931Y-94763445D01*
X225044923Y-94763447D01*
X224853747Y-94842635D01*
X224681686Y-94957601D01*
X224535368Y-95103919D01*
X224420402Y-95275980D01*
X224341214Y-95467156D01*
X224341212Y-95467164D01*
X224300844Y-95670107D01*
X218785438Y-95670107D01*
X218784655Y-95667185D01*
X218771366Y-95617589D01*
X218731804Y-95549066D01*
X218475855Y-95293117D01*
X218475854Y-95293116D01*
X218461013Y-95284548D01*
X218446171Y-95275979D01*
X218407335Y-95253557D01*
X218407334Y-95253556D01*
X218381857Y-95246729D01*
X218330906Y-95233077D01*
X218330904Y-95233077D01*
X217345628Y-95233077D01*
X217330372Y-95232077D01*
X217329906Y-95232077D01*
X208459230Y-95232077D01*
X208392191Y-95212392D01*
X208356129Y-95176969D01*
X208307321Y-95103922D01*
X208307319Y-95103919D01*
X208161001Y-94957601D01*
X208074970Y-94900118D01*
X207988942Y-94842636D01*
X207968276Y-94834076D01*
X207797764Y-94763447D01*
X207797756Y-94763445D01*
X207594813Y-94723077D01*
X207594809Y-94723077D01*
X207387879Y-94723077D01*
X207387874Y-94723077D01*
X207184931Y-94763445D01*
X207184923Y-94763447D01*
X206993747Y-94842635D01*
X206821686Y-94957601D01*
X206675368Y-95103919D01*
X206560402Y-95275980D01*
X206481214Y-95467156D01*
X206481212Y-95467164D01*
X206440844Y-95670107D01*
X206001843Y-95670107D01*
X205961474Y-95467157D01*
X205882285Y-95275979D01*
X205767321Y-95103922D01*
X205767319Y-95103919D01*
X205621001Y-94957601D01*
X205534970Y-94900118D01*
X205448942Y-94842636D01*
X205428276Y-94834076D01*
X205257764Y-94763447D01*
X205257756Y-94763445D01*
X205054813Y-94723077D01*
X205054809Y-94723077D01*
X204847879Y-94723077D01*
X204847874Y-94723077D01*
X204644931Y-94763445D01*
X204644923Y-94763447D01*
X204453747Y-94842635D01*
X204281686Y-94957601D01*
X204135368Y-95103919D01*
X204020402Y-95275980D01*
X203941214Y-95467156D01*
X203941212Y-95467164D01*
X203900844Y-95670107D01*
X201579785Y-95670107D01*
X201832804Y-95417088D01*
X201872366Y-95348565D01*
X201892844Y-95272139D01*
X201892844Y-95193015D01*
X201892844Y-94808410D01*
X201912529Y-94741371D01*
X201929163Y-94720729D01*
X202816815Y-93833077D01*
X203706419Y-92943472D01*
X203767740Y-92909989D01*
X203837432Y-92914973D01*
X203893365Y-92956845D01*
X203917782Y-93022309D01*
X203915715Y-93055346D01*
X203900844Y-93130107D01*
X203900844Y-93337046D01*
X203941212Y-93539989D01*
X203941214Y-93539997D01*
X204020402Y-93731173D01*
X204135368Y-93903234D01*
X204281686Y-94049552D01*
X204281689Y-94049554D01*
X204453746Y-94164518D01*
X204644924Y-94243707D01*
X204842726Y-94283052D01*
X204847874Y-94284076D01*
X204847878Y-94284077D01*
X204847879Y-94284077D01*
X205054810Y-94284077D01*
X205054811Y-94284076D01*
X205257764Y-94243707D01*
X205448942Y-94164518D01*
X205620999Y-94049554D01*
X205767321Y-93903232D01*
X205882285Y-93731175D01*
X205961474Y-93539997D01*
X206001844Y-93337042D01*
X206001844Y-93130112D01*
X205961474Y-92927157D01*
X205882285Y-92735979D01*
X205882284Y-92735977D01*
X205882284Y-92735976D01*
X205775370Y-92575967D01*
X205754492Y-92509290D01*
X205772977Y-92441910D01*
X205824956Y-92395220D01*
X205878472Y-92383077D01*
X206164511Y-92383077D01*
X206231550Y-92402762D01*
X206252192Y-92419396D01*
X206504268Y-92671472D01*
X206537753Y-92732795D01*
X206532769Y-92802487D01*
X206531148Y-92806606D01*
X206481214Y-92927156D01*
X206481212Y-92927164D01*
X206440844Y-93130107D01*
X206440844Y-93337046D01*
X206481212Y-93539989D01*
X206481214Y-93539997D01*
X206560402Y-93731173D01*
X206675368Y-93903234D01*
X206821686Y-94049552D01*
X206821689Y-94049554D01*
X206993746Y-94164518D01*
X207184924Y-94243707D01*
X207382726Y-94283052D01*
X207387874Y-94284076D01*
X207387878Y-94284077D01*
X207387879Y-94284077D01*
X207594810Y-94284077D01*
X207594811Y-94284076D01*
X207797764Y-94243707D01*
X207988942Y-94164518D01*
X208160999Y-94049554D01*
X208307321Y-93903232D01*
X208422285Y-93731175D01*
X208501474Y-93539997D01*
X208541844Y-93337042D01*
X208541844Y-93130112D01*
X208501474Y-92927157D01*
X208486550Y-92891129D01*
X208479082Y-92821662D01*
X208510356Y-92759183D01*
X208570445Y-92723530D01*
X208640270Y-92726023D01*
X208688793Y-92755997D01*
X210154525Y-94221729D01*
X210188010Y-94283052D01*
X210190844Y-94309410D01*
X210190844Y-94399468D01*
X210224952Y-94526764D01*
X210257898Y-94583827D01*
X210290844Y-94640891D01*
X210384030Y-94734077D01*
X210498158Y-94799969D01*
X210625452Y-94834077D01*
X210625454Y-94834077D01*
X210757234Y-94834077D01*
X210757236Y-94834077D01*
X210884530Y-94799969D01*
X210998658Y-94734077D01*
X211091844Y-94640891D01*
X211157736Y-94526763D01*
X211191844Y-94399469D01*
X211191844Y-94267685D01*
X211157736Y-94140391D01*
X211091844Y-94026263D01*
X210998658Y-93933077D01*
X210941594Y-93900131D01*
X210884531Y-93867185D01*
X210820883Y-93850131D01*
X210757236Y-93833077D01*
X210667177Y-93833077D01*
X210600138Y-93813392D01*
X210579496Y-93796758D01*
X209912845Y-93130107D01*
X224300844Y-93130107D01*
X224300844Y-93337046D01*
X224341212Y-93539989D01*
X224341214Y-93539997D01*
X224420402Y-93731173D01*
X224535368Y-93903234D01*
X224681686Y-94049552D01*
X224681689Y-94049554D01*
X224853746Y-94164518D01*
X225044924Y-94243707D01*
X225242726Y-94283052D01*
X225247874Y-94284076D01*
X225247878Y-94284077D01*
X225247879Y-94284077D01*
X225454810Y-94284077D01*
X225454811Y-94284076D01*
X225657764Y-94243707D01*
X225848942Y-94164518D01*
X226020999Y-94049554D01*
X226167321Y-93903232D01*
X226282285Y-93731175D01*
X226361474Y-93539997D01*
X226401844Y-93337042D01*
X226401844Y-93130112D01*
X226401843Y-93130107D01*
X226840844Y-93130107D01*
X226840844Y-93337046D01*
X226881212Y-93539989D01*
X226881214Y-93539997D01*
X226960402Y-93731173D01*
X227075368Y-93903234D01*
X227221686Y-94049552D01*
X227221689Y-94049554D01*
X227393746Y-94164518D01*
X227584924Y-94243707D01*
X227782726Y-94283052D01*
X227787874Y-94284076D01*
X227787878Y-94284077D01*
X227787879Y-94284077D01*
X227994810Y-94284077D01*
X227994811Y-94284076D01*
X228197764Y-94243707D01*
X228388942Y-94164518D01*
X228560999Y-94049554D01*
X228707321Y-93903232D01*
X228822285Y-93731175D01*
X228901474Y-93539997D01*
X228941844Y-93337042D01*
X228941844Y-93130112D01*
X228901474Y-92927157D01*
X228822285Y-92735979D01*
X228707321Y-92563922D01*
X228707319Y-92563919D01*
X228561001Y-92417601D01*
X228444951Y-92340060D01*
X228388942Y-92302636D01*
X228197764Y-92223447D01*
X228197756Y-92223445D01*
X227994813Y-92183077D01*
X227994809Y-92183077D01*
X227787879Y-92183077D01*
X227787874Y-92183077D01*
X227584931Y-92223445D01*
X227584923Y-92223447D01*
X227393747Y-92302635D01*
X227221686Y-92417601D01*
X227075368Y-92563919D01*
X226960402Y-92735980D01*
X226881214Y-92927156D01*
X226881212Y-92927164D01*
X226840844Y-93130107D01*
X226401843Y-93130107D01*
X226361474Y-92927157D01*
X226282285Y-92735979D01*
X226167321Y-92563922D01*
X226167319Y-92563919D01*
X226021001Y-92417601D01*
X225904951Y-92340060D01*
X225848942Y-92302636D01*
X225657764Y-92223447D01*
X225657756Y-92223445D01*
X225454813Y-92183077D01*
X225454809Y-92183077D01*
X225247879Y-92183077D01*
X225247874Y-92183077D01*
X225044931Y-92223445D01*
X225044923Y-92223447D01*
X224853747Y-92302635D01*
X224681686Y-92417601D01*
X224535368Y-92563919D01*
X224420402Y-92735980D01*
X224341214Y-92927156D01*
X224341212Y-92927164D01*
X224300844Y-93130107D01*
X209912845Y-93130107D01*
X208386856Y-91604118D01*
X208386851Y-91604114D01*
X208323667Y-91567635D01*
X208275451Y-91517068D01*
X208262228Y-91448461D01*
X208288196Y-91383596D01*
X208297989Y-91372564D01*
X208307319Y-91363234D01*
X208307321Y-91363232D01*
X208422285Y-91191175D01*
X208501474Y-90999997D01*
X208541844Y-90797042D01*
X208541844Y-90590112D01*
X208541843Y-90590107D01*
X224300844Y-90590107D01*
X224300844Y-90797046D01*
X224341212Y-90999989D01*
X224341214Y-90999997D01*
X224414144Y-91176066D01*
X224420403Y-91191175D01*
X224423074Y-91195172D01*
X224535368Y-91363234D01*
X224681686Y-91509552D01*
X224681689Y-91509554D01*
X224853746Y-91624518D01*
X225044924Y-91703707D01*
X225232103Y-91740939D01*
X225247874Y-91744076D01*
X225247878Y-91744077D01*
X225247879Y-91744077D01*
X225454810Y-91744077D01*
X225454811Y-91744076D01*
X225657764Y-91703707D01*
X225848942Y-91624518D01*
X226020999Y-91509554D01*
X226167321Y-91363232D01*
X226282285Y-91191175D01*
X226361474Y-90999997D01*
X226401844Y-90797042D01*
X226401844Y-90590112D01*
X226401843Y-90590107D01*
X226840844Y-90590107D01*
X226840844Y-90797046D01*
X226881212Y-90999989D01*
X226881214Y-90999997D01*
X226954144Y-91176066D01*
X226960403Y-91191175D01*
X226963074Y-91195172D01*
X227075368Y-91363234D01*
X227221686Y-91509552D01*
X227221689Y-91509554D01*
X227393746Y-91624518D01*
X227584924Y-91703707D01*
X227772103Y-91740939D01*
X227787874Y-91744076D01*
X227787878Y-91744077D01*
X227787879Y-91744077D01*
X227994810Y-91744077D01*
X227994811Y-91744076D01*
X228197764Y-91703707D01*
X228388942Y-91624518D01*
X228560999Y-91509554D01*
X228707321Y-91363232D01*
X228747180Y-91303578D01*
X229620383Y-91303578D01*
X229631786Y-91390204D01*
X229631788Y-91390210D01*
X229692243Y-91536162D01*
X229788419Y-91661501D01*
X229913758Y-91757677D01*
X230059710Y-91818132D01*
X230059716Y-91818134D01*
X230116342Y-91825588D01*
X230116344Y-91825587D01*
X230116344Y-91303577D01*
X229620385Y-91303577D01*
X229620383Y-91303578D01*
X228747180Y-91303578D01*
X228767762Y-91272775D01*
X228819615Y-91195172D01*
X228819616Y-91195170D01*
X228822285Y-91191175D01*
X228829757Y-91173137D01*
X228901474Y-90999997D01*
X228941844Y-90797042D01*
X228941844Y-90590112D01*
X228901474Y-90387157D01*
X228822285Y-90195979D01*
X228707321Y-90023922D01*
X228707319Y-90023919D01*
X228561001Y-89877601D01*
X228393960Y-89765989D01*
X228388942Y-89762636D01*
X228336346Y-89740850D01*
X228197764Y-89683447D01*
X228197756Y-89683445D01*
X227994813Y-89643077D01*
X227994809Y-89643077D01*
X227787879Y-89643077D01*
X227787874Y-89643077D01*
X227584931Y-89683445D01*
X227584923Y-89683447D01*
X227393747Y-89762635D01*
X227221686Y-89877601D01*
X227075368Y-90023919D01*
X226960402Y-90195980D01*
X226881214Y-90387156D01*
X226881212Y-90387164D01*
X226840844Y-90590107D01*
X226401843Y-90590107D01*
X226361474Y-90387157D01*
X226282285Y-90195979D01*
X226167321Y-90023922D01*
X226167319Y-90023919D01*
X226021001Y-89877601D01*
X225853960Y-89765989D01*
X225848942Y-89762636D01*
X225796346Y-89740850D01*
X225657764Y-89683447D01*
X225657756Y-89683445D01*
X225454813Y-89643077D01*
X225454809Y-89643077D01*
X225247879Y-89643077D01*
X225247874Y-89643077D01*
X225044931Y-89683445D01*
X225044923Y-89683447D01*
X224853747Y-89762635D01*
X224681686Y-89877601D01*
X224535368Y-90023919D01*
X224420402Y-90195980D01*
X224341214Y-90387156D01*
X224341212Y-90387164D01*
X224300844Y-90590107D01*
X208541843Y-90590107D01*
X208501474Y-90387157D01*
X208422285Y-90195979D01*
X208307321Y-90023922D01*
X208307319Y-90023919D01*
X208161001Y-89877601D01*
X207993960Y-89765989D01*
X207988942Y-89762636D01*
X207936346Y-89740850D01*
X207797764Y-89683447D01*
X207797756Y-89683445D01*
X207594813Y-89643077D01*
X207594809Y-89643077D01*
X207387879Y-89643077D01*
X207387874Y-89643077D01*
X207184931Y-89683445D01*
X207184923Y-89683447D01*
X207064373Y-89733381D01*
X206994903Y-89740850D01*
X206932424Y-89709575D01*
X206929239Y-89706501D01*
X206638496Y-89415758D01*
X206605011Y-89354435D01*
X206609995Y-89284743D01*
X206651867Y-89228810D01*
X206717331Y-89204393D01*
X206726177Y-89204077D01*
X208361094Y-89204077D01*
X208361095Y-89204076D01*
X208376868Y-89200939D01*
X208419573Y-89192445D01*
X208419573Y-89192444D01*
X208419575Y-89192444D01*
X208485896Y-89148129D01*
X208530211Y-89081808D01*
X208530211Y-89081806D01*
X208530212Y-89081806D01*
X208541843Y-89023329D01*
X208541844Y-89023327D01*
X208541844Y-88050107D01*
X224300844Y-88050107D01*
X224300844Y-88257046D01*
X224341212Y-88459989D01*
X224341214Y-88459997D01*
X224420402Y-88651173D01*
X224535368Y-88823234D01*
X224681686Y-88969552D01*
X224681689Y-88969554D01*
X224853746Y-89084518D01*
X225044924Y-89163707D01*
X225189396Y-89192444D01*
X225247874Y-89204076D01*
X225247878Y-89204077D01*
X225247879Y-89204077D01*
X225454810Y-89204077D01*
X225454811Y-89204076D01*
X225657764Y-89163707D01*
X225848942Y-89084518D01*
X226020999Y-88969554D01*
X226167321Y-88823232D01*
X226282285Y-88651175D01*
X226361474Y-88459997D01*
X226401844Y-88257042D01*
X226401844Y-88050112D01*
X226361474Y-87847157D01*
X226282285Y-87655979D01*
X226167321Y-87483922D01*
X226167319Y-87483919D01*
X226021001Y-87337601D01*
X225940517Y-87283824D01*
X226840844Y-87283824D01*
X226840844Y-89023329D01*
X226852475Y-89081806D01*
X226852476Y-89081807D01*
X226896791Y-89148129D01*
X226963113Y-89192444D01*
X226963114Y-89192445D01*
X227021591Y-89204076D01*
X227021594Y-89204077D01*
X227021596Y-89204077D01*
X228761094Y-89204077D01*
X228761095Y-89204076D01*
X228776868Y-89200939D01*
X228819573Y-89192445D01*
X228819573Y-89192444D01*
X228819575Y-89192444D01*
X228885896Y-89148129D01*
X228930211Y-89081808D01*
X228930211Y-89081806D01*
X228930212Y-89081806D01*
X228941843Y-89023329D01*
X228941844Y-89023327D01*
X228941844Y-87283826D01*
X228941843Y-87283824D01*
X228930212Y-87225347D01*
X228930211Y-87225346D01*
X228885896Y-87159024D01*
X228819574Y-87114709D01*
X228819573Y-87114708D01*
X228761096Y-87103077D01*
X228761092Y-87103077D01*
X227021596Y-87103077D01*
X227021591Y-87103077D01*
X226963114Y-87114708D01*
X226963113Y-87114709D01*
X226896791Y-87159024D01*
X226852476Y-87225346D01*
X226852475Y-87225347D01*
X226840844Y-87283824D01*
X225940517Y-87283824D01*
X225852999Y-87225347D01*
X225848942Y-87222636D01*
X225657764Y-87143447D01*
X225657756Y-87143445D01*
X225454813Y-87103077D01*
X225454809Y-87103077D01*
X225247879Y-87103077D01*
X225247874Y-87103077D01*
X225044931Y-87143445D01*
X225044923Y-87143447D01*
X224853747Y-87222635D01*
X224681686Y-87337601D01*
X224535368Y-87483919D01*
X224420402Y-87655980D01*
X224341214Y-87847156D01*
X224341212Y-87847164D01*
X224300844Y-88050107D01*
X208541844Y-88050107D01*
X208541844Y-87283826D01*
X208541843Y-87283824D01*
X208530212Y-87225347D01*
X208530211Y-87225346D01*
X208485896Y-87159024D01*
X208419574Y-87114709D01*
X208419573Y-87114708D01*
X208361096Y-87103077D01*
X208361092Y-87103077D01*
X206621596Y-87103077D01*
X206621591Y-87103077D01*
X206563114Y-87114708D01*
X206563113Y-87114709D01*
X206496791Y-87159024D01*
X206452476Y-87225346D01*
X206452475Y-87225347D01*
X206440844Y-87283824D01*
X206440844Y-89023329D01*
X206454859Y-89093787D01*
X206450429Y-89094668D01*
X206455311Y-89140101D01*
X206424033Y-89202578D01*
X206363942Y-89238227D01*
X206333283Y-89242077D01*
X205621912Y-89242077D01*
X205554873Y-89222392D01*
X205509118Y-89169588D01*
X205499174Y-89100430D01*
X205528199Y-89036874D01*
X205553019Y-89014975D01*
X205620999Y-88969554D01*
X205767321Y-88823232D01*
X205882285Y-88651175D01*
X205961474Y-88459997D01*
X206001844Y-88257042D01*
X206001844Y-88050112D01*
X205961474Y-87847157D01*
X205882285Y-87655979D01*
X205767321Y-87483922D01*
X205767319Y-87483919D01*
X205621001Y-87337601D01*
X205452999Y-87225347D01*
X205448942Y-87222636D01*
X205257764Y-87143447D01*
X205257756Y-87143445D01*
X205054813Y-87103077D01*
X205054809Y-87103077D01*
X204847879Y-87103077D01*
X204847874Y-87103077D01*
X204644931Y-87143445D01*
X204644923Y-87143447D01*
X204453747Y-87222635D01*
X204281686Y-87337601D01*
X204135368Y-87483919D01*
X204020402Y-87655980D01*
X203941214Y-87847156D01*
X203941212Y-87847164D01*
X203900844Y-88050107D01*
X203900844Y-88257046D01*
X203941212Y-88459989D01*
X203941214Y-88459997D01*
X204020402Y-88651173D01*
X204135368Y-88823234D01*
X204281686Y-88969552D01*
X204281689Y-88969554D01*
X204349666Y-89014975D01*
X204394471Y-89068586D01*
X204403179Y-89137911D01*
X204373025Y-89200939D01*
X204313583Y-89237658D01*
X204280776Y-89242077D01*
X203842782Y-89242077D01*
X203766354Y-89262555D01*
X203697833Y-89302117D01*
X203697830Y-89302119D01*
X202811269Y-90188681D01*
X202749946Y-90222166D01*
X202723588Y-90225000D01*
X201304862Y-90225000D01*
X201332909Y-90353798D01*
X201375899Y-90457586D01*
X201472077Y-90582926D01*
X201550987Y-90643477D01*
X201553234Y-90646554D01*
X201556703Y-90648139D01*
X201573680Y-90674557D01*
X201592189Y-90699905D01*
X201593014Y-90704641D01*
X201594477Y-90706917D01*
X201599500Y-90741852D01*
X201599500Y-90819086D01*
X201579815Y-90886125D01*
X201563181Y-90906767D01*
X201106723Y-91363227D01*
X200966833Y-91503117D01*
X200914976Y-91554974D01*
X200880630Y-91589320D01*
X200819306Y-91622804D01*
X200749615Y-91617820D01*
X200705268Y-91589319D01*
X200660329Y-91544380D01*
X200555235Y-91493003D01*
X200487105Y-91483077D01*
X200487104Y-91483077D01*
X199245584Y-91483077D01*
X199245583Y-91483077D01*
X199177452Y-91493003D01*
X199072358Y-91544380D01*
X198989647Y-91627091D01*
X198938270Y-91732185D01*
X198928344Y-91800316D01*
X198928344Y-92166837D01*
X198938270Y-92234968D01*
X198989647Y-92340062D01*
X199072358Y-92422773D01*
X199072359Y-92422773D01*
X199072361Y-92422775D01*
X199177451Y-92474150D01*
X199211517Y-92479113D01*
X199245583Y-92484077D01*
X199245584Y-92484077D01*
X200487105Y-92484077D01*
X200509815Y-92480768D01*
X200555237Y-92474150D01*
X200660327Y-92422775D01*
X200743042Y-92340060D01*
X200743044Y-92340054D01*
X200745921Y-92336027D01*
X200800895Y-92292903D01*
X200846841Y-92284077D01*
X200950904Y-92284077D01*
X200950906Y-92284077D01*
X201027333Y-92263598D01*
X201095855Y-92224037D01*
X201151804Y-92168088D01*
X201239496Y-92080396D01*
X201300819Y-92046911D01*
X201327177Y-92044077D01*
X202320904Y-92044077D01*
X202320906Y-92044077D01*
X202397333Y-92023598D01*
X202465855Y-91984037D01*
X202521804Y-91928088D01*
X203131804Y-91318088D01*
X203134396Y-91313598D01*
X203171365Y-91249566D01*
X203191844Y-91173139D01*
X203191844Y-90709410D01*
X203211529Y-90642371D01*
X203228163Y-90621729D01*
X203536985Y-90312907D01*
X203868152Y-89981739D01*
X203929473Y-89948256D01*
X203999164Y-89953240D01*
X204055098Y-89995111D01*
X204079515Y-90060576D01*
X204064663Y-90128849D01*
X204058934Y-90138311D01*
X204020403Y-90195978D01*
X203941214Y-90387156D01*
X203941212Y-90387164D01*
X203900844Y-90590107D01*
X203900844Y-90797046D01*
X203941212Y-90999989D01*
X203941214Y-90999997D01*
X204014144Y-91176066D01*
X204020403Y-91191175D01*
X204023074Y-91195172D01*
X204135368Y-91363234D01*
X204281686Y-91509552D01*
X204281689Y-91509554D01*
X204349666Y-91554975D01*
X204394471Y-91608586D01*
X204403179Y-91677911D01*
X204373025Y-91740939D01*
X204313583Y-91777658D01*
X204280776Y-91782077D01*
X204102782Y-91782077D01*
X204026354Y-91802555D01*
X203957833Y-91842117D01*
X203957830Y-91842119D01*
X201351885Y-94448064D01*
X201351879Y-94448072D01*
X201312326Y-94516581D01*
X201312323Y-94516586D01*
X201291844Y-94593016D01*
X201291844Y-95056744D01*
X201272159Y-95123783D01*
X201255525Y-95144425D01*
X199703192Y-96696758D01*
X199676264Y-96711461D01*
X199650446Y-96728054D01*
X199644245Y-96728945D01*
X199641869Y-96730243D01*
X199615511Y-96733077D01*
X199412177Y-96733077D01*
X199345138Y-96713392D01*
X199324496Y-96696758D01*
X199309109Y-96681371D01*
X199206336Y-96635992D01*
X199181209Y-96633077D01*
X198831487Y-96633077D01*
X198831461Y-96633079D01*
X198806356Y-96635990D01*
X198806354Y-96635991D01*
X198798158Y-96639610D01*
X198764240Y-96644049D01*
X198730430Y-96648911D01*
X198729687Y-96648572D01*
X198728879Y-96648678D01*
X198697961Y-96634082D01*
X198666874Y-96619886D01*
X198666433Y-96619199D01*
X198665696Y-96618852D01*
X198647598Y-96589892D01*
X198629100Y-96561108D01*
X198628947Y-96560047D01*
X198628668Y-96559600D01*
X198624077Y-96526173D01*
X198624077Y-96292253D01*
X198643762Y-96225214D01*
X198660396Y-96204572D01*
X198691736Y-96173232D01*
X198724077Y-96140891D01*
X198789969Y-96026763D01*
X198824077Y-95899469D01*
X198824077Y-95767685D01*
X198789969Y-95640391D01*
X198724077Y-95526263D01*
X198630891Y-95433077D01*
X198573827Y-95400131D01*
X198516764Y-95367185D01*
X198447275Y-95348566D01*
X198389469Y-95333077D01*
X198257685Y-95333077D01*
X198130389Y-95367185D01*
X198016263Y-95433077D01*
X198016260Y-95433079D01*
X197923079Y-95526260D01*
X197923077Y-95526263D01*
X197857185Y-95640389D01*
X197838773Y-95709106D01*
X197823077Y-95767685D01*
X197823077Y-95899469D01*
X197836932Y-95951177D01*
X197857185Y-96026764D01*
X197865051Y-96040388D01*
X197923077Y-96140891D01*
X197923079Y-96140893D01*
X197986758Y-96204572D01*
X198020243Y-96265895D01*
X198023077Y-96292253D01*
X198023077Y-96670511D01*
X198003392Y-96737550D01*
X197986758Y-96758192D01*
X197984138Y-96760811D01*
X197938759Y-96863583D01*
X197938759Y-96863585D01*
X197935844Y-96888708D01*
X197935844Y-97178433D01*
X197935846Y-97178459D01*
X197938757Y-97203564D01*
X197938759Y-97203568D01*
X197984137Y-97306341D01*
X197984138Y-97306342D01*
X198063579Y-97385783D01*
X198166353Y-97431162D01*
X198191479Y-97434077D01*
X198541208Y-97434076D01*
X198541223Y-97434074D01*
X198541226Y-97434074D01*
X198566331Y-97431163D01*
X198566331Y-97431162D01*
X198566335Y-97431162D01*
X198636259Y-97400287D01*
X198705534Y-97391216D01*
X198736429Y-97400287D01*
X198806353Y-97431162D01*
X198831479Y-97434077D01*
X199181208Y-97434076D01*
X199181223Y-97434074D01*
X199181226Y-97434074D01*
X199206331Y-97431163D01*
X199206332Y-97431162D01*
X199206335Y-97431162D01*
X199309109Y-97385783D01*
X199324496Y-97370396D01*
X199385819Y-97336911D01*
X199412177Y-97334077D01*
X199751782Y-97334077D01*
X199830906Y-97334077D01*
X200034355Y-97334077D01*
X200101394Y-97353762D01*
X200147149Y-97406566D01*
X200147736Y-97407872D01*
X200169138Y-97456342D01*
X200248579Y-97535783D01*
X200351353Y-97581162D01*
X200376479Y-97584077D01*
X200474492Y-97584076D01*
X200541529Y-97603760D01*
X200572866Y-97632589D01*
X200633417Y-97711499D01*
X200736634Y-97790701D01*
X200777836Y-97847129D01*
X200781991Y-97916875D01*
X200747778Y-97977796D01*
X200686061Y-98010548D01*
X200661147Y-98013077D01*
X199671782Y-98013077D01*
X199633568Y-98023316D01*
X199595353Y-98033556D01*
X199595348Y-98033559D01*
X199526839Y-98073112D01*
X199526831Y-98073118D01*
X199003192Y-98596758D01*
X198941869Y-98630243D01*
X198915511Y-98633077D01*
X198197177Y-98633077D01*
X198130138Y-98613392D01*
X198109496Y-98596758D01*
X198094109Y-98581371D01*
X197991336Y-98535992D01*
X197966209Y-98533077D01*
X197616487Y-98533077D01*
X197616461Y-98533079D01*
X197591356Y-98535990D01*
X197591355Y-98535991D01*
X197521429Y-98566866D01*
X197452151Y-98575937D01*
X197421258Y-98566866D01*
X197410428Y-98562084D01*
X197351335Y-98535992D01*
X197326209Y-98533077D01*
X196976487Y-98533077D01*
X196976461Y-98533079D01*
X196951356Y-98535990D01*
X196951352Y-98535992D01*
X196848579Y-98581370D01*
X196769138Y-98660811D01*
X196728778Y-98752218D01*
X196683692Y-98805594D01*
X196616906Y-98826121D01*
X196549624Y-98807282D01*
X196503207Y-98755059D01*
X196491344Y-98702131D01*
X196491344Y-83794106D01*
X196511029Y-83727067D01*
X196563833Y-83681312D01*
X196632991Y-83671368D01*
X196696547Y-83700393D01*
X196703025Y-83706425D01*
X197750131Y-84753531D01*
X197750140Y-84753539D01*
X197750150Y-84753549D01*
X197761655Y-84763081D01*
X197773686Y-84773049D01*
X197773691Y-84773052D01*
X197861159Y-84815174D01*
X197896043Y-84831973D01*
X198030330Y-84852214D01*
X198057018Y-84848191D01*
X198126242Y-84857663D01*
X198179356Y-84903058D01*
X198199497Y-84969961D01*
X198199500Y-84970806D01*
X198199500Y-86749087D01*
X198179815Y-86816126D01*
X198163181Y-86836768D01*
X197156833Y-87843117D01*
X197100885Y-87899064D01*
X197100879Y-87899072D01*
X197061326Y-87967581D01*
X197061323Y-87967586D01*
X197047670Y-88018539D01*
X197040844Y-88044015D01*
X197040844Y-90423139D01*
X197042541Y-90429472D01*
X197061323Y-90499568D01*
X197061325Y-90499571D01*
X197086400Y-90543001D01*
X197086402Y-90543004D01*
X197104190Y-90573815D01*
X197107794Y-90588672D01*
X197120662Y-90641714D01*
X197108203Y-90690273D01*
X197063270Y-90782185D01*
X197053344Y-90850316D01*
X197053344Y-91216837D01*
X197063270Y-91284968D01*
X197114647Y-91390062D01*
X197197358Y-91472773D01*
X197197359Y-91472773D01*
X197197361Y-91472775D01*
X197302451Y-91524150D01*
X197336517Y-91529113D01*
X197370583Y-91534077D01*
X197370584Y-91534077D01*
X198612105Y-91534077D01*
X198634815Y-91530768D01*
X198680237Y-91524150D01*
X198785327Y-91472775D01*
X198868042Y-91390060D01*
X198919417Y-91284970D01*
X198929344Y-91216837D01*
X198929344Y-90974066D01*
X198949029Y-90907027D01*
X199001833Y-90861272D01*
X199070991Y-90851328D01*
X199087940Y-90854990D01*
X199176351Y-90880676D01*
X199176354Y-90880677D01*
X199213194Y-90883576D01*
X199213210Y-90883577D01*
X199616344Y-90883577D01*
X200116344Y-90883577D01*
X200519478Y-90883577D01*
X200519493Y-90883576D01*
X200556333Y-90880677D01*
X200556339Y-90880676D01*
X200714037Y-90834860D01*
X200714040Y-90834859D01*
X200855396Y-90751262D01*
X200855405Y-90751255D01*
X200971522Y-90635138D01*
X200971529Y-90635129D01*
X201055125Y-90493774D01*
X201086250Y-90386641D01*
X201074695Y-90333577D01*
X200116344Y-90333577D01*
X200116344Y-90883577D01*
X199616344Y-90883577D01*
X199616344Y-90333577D01*
X198631549Y-90333577D01*
X198631548Y-90333578D01*
X198631743Y-90336063D01*
X198642905Y-90374482D01*
X198642705Y-90444352D01*
X198604762Y-90503022D01*
X198541124Y-90531865D01*
X198523828Y-90533077D01*
X197967177Y-90533077D01*
X197900138Y-90513392D01*
X197879496Y-90496758D01*
X197678163Y-90295425D01*
X197644678Y-90234102D01*
X197641844Y-90207744D01*
X197641844Y-89833575D01*
X198631548Y-89833575D01*
X198631549Y-89833577D01*
X199616344Y-89833577D01*
X200116344Y-89833577D01*
X201078215Y-89833577D01*
X201071863Y-89730993D01*
X201070740Y-89727129D01*
X201320099Y-89727129D01*
X201326159Y-89825000D01*
X201800000Y-89825000D01*
X202200000Y-89825000D01*
X202695959Y-89825000D01*
X202695960Y-89824998D01*
X202684557Y-89738372D01*
X202684555Y-89738366D01*
X202624100Y-89592414D01*
X202527924Y-89467075D01*
X202402586Y-89370899D01*
X202256631Y-89310444D01*
X202200000Y-89302987D01*
X202200000Y-89825000D01*
X201800000Y-89825000D01*
X201800000Y-89302987D01*
X201743368Y-89310444D01*
X201597413Y-89370899D01*
X201472075Y-89467075D01*
X201375899Y-89592413D01*
X201320099Y-89727129D01*
X201070740Y-89727129D01*
X201055125Y-89673379D01*
X200971529Y-89532024D01*
X200971522Y-89532015D01*
X200855405Y-89415898D01*
X200855396Y-89415891D01*
X200714040Y-89332294D01*
X200714037Y-89332293D01*
X200556339Y-89286477D01*
X200556333Y-89286476D01*
X200519493Y-89283577D01*
X200116344Y-89283577D01*
X200116344Y-89833577D01*
X199616344Y-89833577D01*
X199616344Y-89283577D01*
X199213194Y-89283577D01*
X199176354Y-89286476D01*
X199176348Y-89286477D01*
X199018650Y-89332293D01*
X199018647Y-89332294D01*
X198877291Y-89415891D01*
X198877282Y-89415898D01*
X198761165Y-89532015D01*
X198761158Y-89532024D01*
X198677562Y-89673378D01*
X198631743Y-89831090D01*
X198631548Y-89833575D01*
X197641844Y-89833575D01*
X197641844Y-88259409D01*
X197661529Y-88192370D01*
X197678163Y-88171728D01*
X198193912Y-87655979D01*
X198740460Y-87109431D01*
X198780022Y-87040908D01*
X198800500Y-86964482D01*
X198800500Y-86885358D01*
X198800500Y-84314921D01*
X198820185Y-84247882D01*
X198836819Y-84227240D01*
X199235764Y-83828295D01*
X199235782Y-83828277D01*
X199255283Y-83804739D01*
X199314206Y-83682384D01*
X199334447Y-83548097D01*
X199314206Y-83413810D01*
X199311595Y-83408388D01*
X199255285Y-83291458D01*
X199255282Y-83291453D01*
X199245314Y-83279422D01*
X199235782Y-83267917D01*
X199235772Y-83267907D01*
X199235764Y-83267898D01*
X198098396Y-82130530D01*
X198098387Y-82130522D01*
X198098378Y-82130513D01*
X198083842Y-82118470D01*
X198074841Y-82111012D01*
X198074836Y-82111009D01*
X197952486Y-82052089D01*
X197818198Y-82031848D01*
X197683911Y-82052089D01*
X197683908Y-82052089D01*
X197561559Y-82111009D01*
X197561554Y-82111012D01*
X197538026Y-82130506D01*
X197537999Y-82130530D01*
X196703025Y-82965505D01*
X196641702Y-82998990D01*
X196572010Y-82994006D01*
X196516077Y-82952134D01*
X196491660Y-82886670D01*
X196491344Y-82877824D01*
X196491344Y-82306241D01*
X196511029Y-82239202D01*
X196526050Y-82220202D01*
X197254052Y-81464728D01*
X198535465Y-81464728D01*
X198535465Y-81671667D01*
X198575833Y-81874610D01*
X198575835Y-81874618D01*
X198655022Y-82065793D01*
X198655027Y-82065802D01*
X198769988Y-82237852D01*
X198769991Y-82237856D01*
X199128438Y-82596304D01*
X199128439Y-82596305D01*
X199128442Y-82596307D01*
X199300499Y-82711271D01*
X199491677Y-82790460D01*
X199694627Y-82830829D01*
X199694631Y-82830830D01*
X199694632Y-82830830D01*
X199901563Y-82830830D01*
X199901564Y-82830829D01*
X200104517Y-82790460D01*
X200295695Y-82711271D01*
X200467752Y-82596307D01*
X200614074Y-82449985D01*
X200729038Y-82277928D01*
X200808227Y-82086750D01*
X200848597Y-81883795D01*
X200848597Y-81676865D01*
X200808227Y-81473910D01*
X200729038Y-81282732D01*
X200614074Y-81110675D01*
X200614072Y-81110672D01*
X200614071Y-81110671D01*
X200255623Y-80752224D01*
X200255619Y-80752221D01*
X200083569Y-80637260D01*
X200083560Y-80637255D01*
X199892385Y-80558068D01*
X199892377Y-80558066D01*
X199689434Y-80517698D01*
X199689430Y-80517698D01*
X199482500Y-80517698D01*
X199482495Y-80517698D01*
X199279552Y-80558066D01*
X199279544Y-80558068D01*
X199088369Y-80637255D01*
X199088360Y-80637260D01*
X198916310Y-80752221D01*
X198916306Y-80752224D01*
X198769991Y-80898539D01*
X198769988Y-80898543D01*
X198655027Y-81070593D01*
X198655022Y-81070602D01*
X198575835Y-81261777D01*
X198575833Y-81261785D01*
X198535465Y-81464728D01*
X197254052Y-81464728D01*
X198403858Y-80271533D01*
X198464551Y-80236920D01*
X198493148Y-80233577D01*
X202230038Y-80233577D01*
X202297077Y-80253262D01*
G37*
%TD.AperFunction*%
%TD*%
M02*
