%TF.GenerationSoftware,KiCad,Pcbnew,9.0.7*%
%TF.CreationDate,2026-05-21T17:13:55+02:00*%
%TF.ProjectId,drone,64726f6e-652e-46b6-9963-61645f706362,rev?*%
%TF.SameCoordinates,Original*%
%TF.FileFunction,Legend,Bot*%
%TF.FilePolarity,Positive*%
%FSLAX46Y46*%
G04 Gerber Fmt 4.6, Leading zero omitted, Abs format (unit mm)*
G04 Created by KiCad (PCBNEW 9.0.7) date 2026-05-21 17:13:55*
%MOMM*%
%LPD*%
G01*
G04 APERTURE LIST*
%ADD10C,0.150000*%
%ADD11C,0.120000*%
G04 APERTURE END LIST*
D10*
X230967792Y-86409279D02*
X230462716Y-86914355D01*
X230462716Y-86914355D02*
X230395372Y-87049042D01*
X230395372Y-87049042D02*
X230395372Y-87183729D01*
X230395372Y-87183729D02*
X230462716Y-87318416D01*
X230462716Y-87318416D02*
X230530059Y-87385760D01*
X229553578Y-86409279D02*
X229957639Y-86813340D01*
X229755609Y-86611309D02*
X230462716Y-85904202D01*
X230462716Y-85904202D02*
X230429044Y-86072561D01*
X230429044Y-86072561D02*
X230429044Y-86207248D01*
X230429044Y-86207248D02*
X230462716Y-86308263D01*
X228880143Y-85735844D02*
X229284204Y-86139905D01*
X229082174Y-85937874D02*
X229789281Y-85230767D01*
X229789281Y-85230767D02*
X229755609Y-85399126D01*
X229755609Y-85399126D02*
X229755609Y-85533813D01*
X229755609Y-85533813D02*
X229789281Y-85634828D01*
X203372312Y-113522526D02*
X202867236Y-114027602D01*
X202867236Y-114027602D02*
X202799892Y-114162289D01*
X202799892Y-114162289D02*
X202799892Y-114296976D01*
X202799892Y-114296976D02*
X202867236Y-114431663D01*
X202867236Y-114431663D02*
X202934579Y-114499007D01*
X203001923Y-113286823D02*
X203001923Y-113219480D01*
X203001923Y-113219480D02*
X202968251Y-113118465D01*
X202968251Y-113118465D02*
X202799892Y-112950106D01*
X202799892Y-112950106D02*
X202698877Y-112916434D01*
X202698877Y-112916434D02*
X202631533Y-112916434D01*
X202631533Y-112916434D02*
X202530518Y-112950106D01*
X202530518Y-112950106D02*
X202463175Y-113017449D01*
X202463175Y-113017449D02*
X202395831Y-113152136D01*
X202395831Y-113152136D02*
X202395831Y-113960258D01*
X202395831Y-113960258D02*
X201958098Y-113522526D01*
X201284663Y-112849091D02*
X201688724Y-113253152D01*
X201486694Y-113051121D02*
X202193801Y-112344014D01*
X202193801Y-112344014D02*
X202160129Y-112512373D01*
X202160129Y-112512373D02*
X202160129Y-112647060D01*
X202160129Y-112647060D02*
X202193801Y-112748075D01*
X202264593Y-85543188D02*
X202769669Y-86048264D01*
X202769669Y-86048264D02*
X202904356Y-86115608D01*
X202904356Y-86115608D02*
X203039043Y-86115608D01*
X203039043Y-86115608D02*
X203173730Y-86048264D01*
X203173730Y-86048264D02*
X203241074Y-85980921D01*
X201860532Y-86418654D02*
X202331936Y-86890058D01*
X201759516Y-85980921D02*
X202432951Y-86317638D01*
X202432951Y-86317638D02*
X201995219Y-86755371D01*
X230196790Y-112569718D02*
X230701866Y-113074794D01*
X230701866Y-113074794D02*
X230836553Y-113142138D01*
X230836553Y-113142138D02*
X230971240Y-113142138D01*
X230971240Y-113142138D02*
X231105927Y-113074794D01*
X231105927Y-113074794D02*
X231173271Y-113007451D01*
X230196790Y-113983932D02*
X230600851Y-113579871D01*
X230398820Y-113781901D02*
X229691713Y-113074794D01*
X229691713Y-113074794D02*
X229860072Y-113108466D01*
X229860072Y-113108466D02*
X229994759Y-113108466D01*
X229994759Y-113108466D02*
X230095774Y-113074794D01*
X228883591Y-113882916D02*
X229018278Y-113748229D01*
X229018278Y-113748229D02*
X229119294Y-113714558D01*
X229119294Y-113714558D02*
X229186637Y-113714558D01*
X229186637Y-113714558D02*
X229354996Y-113748229D01*
X229354996Y-113748229D02*
X229523355Y-113849245D01*
X229523355Y-113849245D02*
X229792729Y-114118619D01*
X229792729Y-114118619D02*
X229826400Y-114219634D01*
X229826400Y-114219634D02*
X229826400Y-114286977D01*
X229826400Y-114286977D02*
X229792729Y-114387993D01*
X229792729Y-114387993D02*
X229658042Y-114522680D01*
X229658042Y-114522680D02*
X229557026Y-114556351D01*
X229557026Y-114556351D02*
X229489683Y-114556351D01*
X229489683Y-114556351D02*
X229388668Y-114522680D01*
X229388668Y-114522680D02*
X229220309Y-114354321D01*
X229220309Y-114354321D02*
X229186637Y-114253306D01*
X229186637Y-114253306D02*
X229186637Y-114185962D01*
X229186637Y-114185962D02*
X229220309Y-114084947D01*
X229220309Y-114084947D02*
X229354996Y-113950260D01*
X229354996Y-113950260D02*
X229456011Y-113916588D01*
X229456011Y-113916588D02*
X229523355Y-113916588D01*
X229523355Y-113916588D02*
X229624370Y-113950260D01*
D11*
%TO.C,J11*%
X228086541Y-82757538D02*
X229090633Y-83761629D01*
X229090633Y-83761629D02*
X232272614Y-80579649D01*
X231035177Y-83005025D02*
X231459441Y-83429289D01*
X231459441Y-83429289D02*
X231671573Y-82792893D01*
X231671573Y-82792893D02*
X231035177Y-83005025D01*
X232470603Y-87141600D02*
X235652584Y-83959619D01*
X233474695Y-88145692D02*
X232470603Y-87141600D01*
X236373833Y-74470246D02*
X228086541Y-82757538D01*
X239067910Y-77164323D02*
X236373833Y-74470246D01*
X239067910Y-77164323D02*
X241761987Y-79858400D01*
X241761987Y-79858400D02*
X233474695Y-88145692D01*
X237929468Y-76888552D02*
X234040381Y-80777639D01*
X233686827Y-80424085D01*
X237575914Y-76534998D01*
X237929468Y-76888552D01*
X239697235Y-78656319D02*
X235808147Y-82545406D01*
X235454594Y-82191852D01*
X239343681Y-78302765D01*
X239697235Y-78656319D01*
%TO.C,J21*%
X190662277Y-119699569D02*
X198949569Y-111412277D01*
X193356354Y-122393646D02*
X190662277Y-119699569D01*
X193356354Y-122393646D02*
X196050431Y-125087723D01*
X196050431Y-125087723D02*
X204337723Y-116800431D01*
X198949569Y-111412277D02*
X199953661Y-112416369D01*
X199953661Y-112416369D02*
X196771680Y-115598350D01*
X200752691Y-116765076D02*
X201389087Y-116552944D01*
X200964823Y-116128680D02*
X200752691Y-116765076D01*
X201389087Y-116552944D02*
X200964823Y-116128680D01*
X203333631Y-115796340D02*
X200151650Y-118978320D01*
X204337723Y-116800431D02*
X203333631Y-115796340D01*
X196969670Y-117366117D02*
X193080583Y-121255204D01*
X192727029Y-120901650D01*
X196616117Y-117012563D01*
X196969670Y-117366117D01*
X198737437Y-119133884D02*
X194848350Y-123022971D01*
X194494796Y-122669417D01*
X198383883Y-118780330D01*
X198737437Y-119133884D01*
%TO.C,J4*%
X190662277Y-79800431D02*
X198949569Y-88087723D01*
X193356354Y-77106354D02*
X190662277Y-79800431D01*
X193356354Y-77106354D02*
X196050431Y-74412277D01*
X196050431Y-74412277D02*
X204337723Y-82699569D01*
X198949569Y-88087723D02*
X199953660Y-87083631D01*
X198984924Y-84502691D02*
X199197056Y-85139087D01*
X199197056Y-85139087D02*
X199621320Y-84714823D01*
X199621320Y-84714823D02*
X198984924Y-84502691D01*
X199953660Y-87083631D02*
X196771680Y-83901650D01*
X203333631Y-83703661D02*
X200151650Y-80521680D01*
X204337723Y-82699569D02*
X203333631Y-83703661D01*
X196969670Y-82133883D02*
X196616116Y-82487437D01*
X192727029Y-78598350D01*
X193080583Y-78244796D01*
X196969670Y-82133883D01*
X198737437Y-80366117D02*
X198383883Y-80719670D01*
X194494796Y-76830583D01*
X194848350Y-76477029D01*
X198737437Y-80366117D01*
%TO.C,J16*%
X228086541Y-116992462D02*
X229090633Y-115988370D01*
X229090633Y-115988370D02*
X232272614Y-119170351D01*
X232470604Y-112608400D02*
X235652584Y-115790381D01*
X232802944Y-114977208D02*
X233439340Y-115189340D01*
X233227208Y-114552944D02*
X232802944Y-114977208D01*
X233439340Y-115189340D02*
X233227208Y-114552944D01*
X233474695Y-111604308D02*
X232470604Y-112608400D01*
X236373833Y-125279754D02*
X228086541Y-116992462D01*
X239067910Y-122585677D02*
X236373833Y-125279754D01*
X239067910Y-122585677D02*
X241761987Y-119891600D01*
X241761987Y-119891600D02*
X233474695Y-111604308D01*
X237929468Y-122861448D02*
X237575914Y-123215002D01*
X233686827Y-119325914D01*
X234040381Y-118972361D01*
X237929468Y-122861448D01*
X239697235Y-121093681D02*
X239343681Y-121447235D01*
X235454594Y-117558148D01*
X235808148Y-117204594D01*
X239697235Y-121093681D01*
%TD*%
M02*
