%TF.GenerationSoftware,KiCad,Pcbnew,9.0.7*%
%TF.CreationDate,2026-05-21T17:13:55+02:00*%
%TF.ProjectId,drone,64726f6e-652e-46b6-9963-61645f706362,rev?*%
%TF.SameCoordinates,Original*%
%TF.FileFunction,Paste,Top*%
%TF.FilePolarity,Positive*%
%FSLAX46Y46*%
G04 Gerber Fmt 4.6, Leading zero omitted, Abs format (unit mm)*
G04 Created by KiCad (PCBNEW 9.0.7) date 2026-05-21 17:13:55*
%MOMM*%
%LPD*%
G01*
G04 APERTURE LIST*
G04 Aperture macros list*
%AMRoundRect*
0 Rectangle with rounded corners*
0 $1 Rounding radius*
0 $2 $3 $4 $5 $6 $7 $8 $9 X,Y pos of 4 corners*
0 Add a 4 corners polygon primitive as box body*
4,1,4,$2,$3,$4,$5,$6,$7,$8,$9,$2,$3,0*
0 Add four circle primitives for the rounded corners*
1,1,$1+$1,$2,$3*
1,1,$1+$1,$4,$5*
1,1,$1+$1,$6,$7*
1,1,$1+$1,$8,$9*
0 Add four rect primitives between the rounded corners*
20,1,$1+$1,$2,$3,$4,$5,0*
20,1,$1+$1,$4,$5,$6,$7,0*
20,1,$1+$1,$6,$7,$8,$9,0*
20,1,$1+$1,$8,$9,$2,$3,0*%
G04 Aperture macros list end*
%ADD10RoundRect,0.150000X-0.150000X0.587500X-0.150000X-0.587500X0.150000X-0.587500X0.150000X0.587500X0*%
%ADD11RoundRect,0.079500X0.079500X0.100500X-0.079500X0.100500X-0.079500X-0.100500X0.079500X-0.100500X0*%
%ADD12RoundRect,0.079500X-0.100500X0.079500X-0.100500X-0.079500X0.100500X-0.079500X0.100500X0.079500X0*%
%ADD13RoundRect,0.079500X0.100500X-0.079500X0.100500X0.079500X-0.100500X0.079500X-0.100500X-0.079500X0*%
%ADD14RoundRect,0.079500X-0.079500X-0.100500X0.079500X-0.100500X0.079500X0.100500X-0.079500X0.100500X0*%
%ADD15RoundRect,0.045000X0.630000X0.255000X-0.630000X0.255000X-0.630000X-0.255000X0.630000X-0.255000X0*%
%ADD16RoundRect,0.075000X0.075000X-0.350000X0.075000X0.350000X-0.075000X0.350000X-0.075000X-0.350000X0*%
%ADD17RoundRect,0.075000X0.350000X0.075000X-0.350000X0.075000X-0.350000X-0.075000X0.350000X-0.075000X0*%
%ADD18RoundRect,0.112500X-0.112500X0.187500X-0.112500X-0.187500X0.112500X-0.187500X0.112500X0.187500X0*%
%ADD19RoundRect,0.150000X0.587500X0.150000X-0.587500X0.150000X-0.587500X-0.150000X0.587500X-0.150000X0*%
%ADD20RoundRect,0.150000X-0.587500X-0.150000X0.587500X-0.150000X0.587500X0.150000X-0.587500X0.150000X0*%
G04 APERTURE END LIST*
D10*
%TO.C,Q3*%
X232891344Y-107533577D03*
X230991344Y-107533577D03*
X231941344Y-109408577D03*
%TD*%
D11*
%TO.C,R21*%
X199616344Y-106433577D03*
X198926344Y-106433577D03*
%TD*%
D12*
%TO.C,R9*%
X230316344Y-90438577D03*
X230316344Y-91128577D03*
%TD*%
D11*
%TO.C,R14*%
X201216344Y-97183577D03*
X200526344Y-97183577D03*
%TD*%
D13*
%TO.C,R8*%
X202000000Y-90690000D03*
X202000000Y-90000000D03*
%TD*%
D14*
%TO.C,D9*%
X197101344Y-102833577D03*
X197791344Y-102833577D03*
%TD*%
D15*
%TO.C,U5*%
X213861344Y-112133577D03*
X213861344Y-111183577D03*
X213861344Y-110233577D03*
X211491344Y-110233577D03*
X211491344Y-112133577D03*
%TD*%
D14*
%TO.C,D7*%
X197126344Y-98933577D03*
X197816344Y-98933577D03*
%TD*%
D11*
%TO.C,R18*%
X220081344Y-96633577D03*
X219391344Y-96633577D03*
%TD*%
%TO.C,R16*%
X216416344Y-108933577D03*
X215726344Y-108933577D03*
%TD*%
D10*
%TO.C,Q4*%
X200200000Y-109812500D03*
X198300000Y-109812500D03*
X199250000Y-111687500D03*
%TD*%
D11*
%TO.C,R24*%
X199616344Y-103933577D03*
X198926344Y-103933577D03*
%TD*%
D16*
%TO.C,U6*%
X213841344Y-101283577D03*
X214341344Y-101283577D03*
X214841344Y-101283577D03*
X215341344Y-101283577D03*
X215841344Y-101283577D03*
X216341344Y-101283577D03*
D17*
X217041344Y-100583577D03*
X217041344Y-100083577D03*
X217041344Y-99583577D03*
X217041344Y-99083577D03*
X217041344Y-98583577D03*
X217041344Y-98083577D03*
D16*
X216341344Y-97383577D03*
X215841344Y-97383577D03*
X215341344Y-97383577D03*
X214841344Y-97383577D03*
X214341344Y-97383577D03*
X213841344Y-97383577D03*
D17*
X213141344Y-98083577D03*
X213141344Y-98583577D03*
X213141344Y-99083577D03*
X213141344Y-99583577D03*
X213141344Y-100083577D03*
X213141344Y-100583577D03*
%TD*%
D14*
%TO.C,C10*%
X210410000Y-98300000D03*
X211100000Y-98300000D03*
%TD*%
%TO.C,C8*%
X208301344Y-117033577D03*
X208991344Y-117033577D03*
%TD*%
D11*
%TO.C,C7*%
X220975000Y-109750000D03*
X220285000Y-109750000D03*
%TD*%
D14*
%TO.C,C6*%
X211446344Y-114233577D03*
X212136344Y-114233577D03*
%TD*%
%TO.C,C9*%
X208210000Y-115050000D03*
X208900000Y-115050000D03*
%TD*%
%TO.C,D6*%
X197101344Y-104833577D03*
X197791344Y-104833577D03*
%TD*%
D11*
%TO.C,R22*%
X199616344Y-99433577D03*
X198926344Y-99433577D03*
%TD*%
D18*
%TO.C,D1*%
X218591344Y-111283577D03*
X218591344Y-113383577D03*
%TD*%
D19*
%TO.C,Q1*%
X199866344Y-91983577D03*
X199866344Y-90083577D03*
X197991344Y-91033577D03*
%TD*%
D11*
%TO.C,C11*%
X220716344Y-98533577D03*
X220026344Y-98533577D03*
%TD*%
%TO.C,R15*%
X199031344Y-97033577D03*
X198341344Y-97033577D03*
%TD*%
%TO.C,R10*%
X232316344Y-105833577D03*
X231626344Y-105833577D03*
%TD*%
D14*
%TO.C,D8*%
X197126344Y-100833577D03*
X197816344Y-100833577D03*
%TD*%
D11*
%TO.C,R23*%
X199591344Y-101933577D03*
X198901344Y-101933577D03*
%TD*%
%TO.C,R11*%
X199650000Y-108387500D03*
X198960000Y-108387500D03*
%TD*%
%TO.C,R20*%
X220156344Y-100933577D03*
X219466344Y-100933577D03*
%TD*%
%TO.C,R19*%
X220116344Y-102333577D03*
X219426344Y-102333577D03*
%TD*%
D20*
%TO.C,Q2*%
X232316344Y-89883577D03*
X232316344Y-91783577D03*
X234191344Y-90833577D03*
%TD*%
M02*
